G04*
G04 #@! TF.GenerationSoftware,Altium Limited,Altium Designer,24.10.1 (45)*
G04*
G04 Layer_Physical_Order=2*
G04 Layer_Color=6736896*
%FSLAX25Y25*%
%MOIN*%
G70*
G04*
G04 #@! TF.SameCoordinates,083811C0-BB5A-407D-82B1-07892853DE6B*
G04*
G04*
G04 #@! TF.FilePolarity,Positive*
G04*
G01*
G75*
%ADD10C,0.00394*%
%ADD14C,0.00787*%
%ADD16C,0.00500*%
%ADD18C,0.00400*%
%ADD108C,0.00787*%
G04:AMPARAMS|DCode=232|XSize=102.36mil|YSize=43.31mil|CornerRadius=21.65mil|HoleSize=0mil|Usage=FLASHONLY|Rotation=0.000|XOffset=0mil|YOffset=0mil|HoleType=Round|Shape=RoundedRectangle|*
%AMROUNDEDRECTD232*
21,1,0.10236,0.00000,0,0,0.0*
21,1,0.05906,0.04331,0,0,0.0*
1,1,0.04331,0.02953,0.00000*
1,1,0.04331,-0.02953,0.00000*
1,1,0.04331,-0.02953,0.00000*
1,1,0.04331,0.02953,0.00000*
%
%ADD232ROUNDEDRECTD232*%
G04:AMPARAMS|DCode=233|XSize=82.68mil|YSize=43.31mil|CornerRadius=21.65mil|HoleSize=0mil|Usage=FLASHONLY|Rotation=0.000|XOffset=0mil|YOffset=0mil|HoleType=Round|Shape=RoundedRectangle|*
%AMROUNDEDRECTD233*
21,1,0.08268,0.00000,0,0,0.0*
21,1,0.03937,0.04331,0,0,0.0*
1,1,0.04331,0.01968,0.00000*
1,1,0.04331,-0.01968,0.00000*
1,1,0.04331,-0.01968,0.00000*
1,1,0.04331,0.01968,0.00000*
%
%ADD233ROUNDEDRECTD233*%
%ADD237C,0.04724*%
%ADD238C,0.06299*%
%ADD243C,0.00750*%
%ADD251C,0.00236*%
%ADD254C,0.01500*%
%ADD262O,0.06200X0.03740*%
%ADD263C,0.06890*%
%ADD264C,0.06102*%
%ADD265R,0.06102X0.06102*%
%ADD266R,0.06102X0.06102*%
%ADD267C,0.04331*%
%ADD268C,0.01575*%
%ADD269C,0.00276*%
G36*
X42800Y227500D02*
Y221363D01*
X46449D01*
X46480Y221350D01*
X46587Y221279D01*
X46587Y221279D01*
X46588Y221279D01*
X47131Y221054D01*
X47257Y221029D01*
X47376Y220980D01*
X47952Y220866D01*
X48049Y220866D01*
X48143Y220842D01*
X48437Y220828D01*
X48469Y220833D01*
X48500Y220827D01*
X53028D01*
Y211436D01*
X48500D01*
X48467Y211429D01*
X48434Y211434D01*
X48140Y211419D01*
X48047Y211396D01*
X47950Y211396D01*
X47374Y211280D01*
X47256Y211231D01*
X47130Y211206D01*
X47130Y211206D01*
X47129Y211206D01*
X47115Y211200D01*
X42800D01*
Y205200D01*
X-40623D01*
X-40976Y205554D01*
X-40951Y227500D01*
X42800Y227500D01*
D02*
G37*
G36*
X-52554Y184637D02*
X-52583Y184587D01*
X-52609Y184527D01*
X-52631Y184458D01*
X-52649Y184379D01*
X-52665Y184291D01*
X-52685Y184086D01*
X-52690Y183969D01*
X-52692Y183844D01*
X-52928D01*
X-52930Y183969D01*
X-52955Y184291D01*
X-52970Y184379D01*
X-52989Y184458D01*
X-53011Y184527D01*
X-53036Y184587D01*
X-53065Y184637D01*
X-53097Y184678D01*
X-52522D01*
X-52554Y184637D01*
D02*
G37*
G36*
X-61037Y181481D02*
X-61022Y181422D01*
X-61003Y181363D01*
X-60978Y181304D01*
X-60948Y181244D01*
X-60912Y181185D01*
X-60871Y181125D01*
X-60825Y181066D01*
X-60773Y181006D01*
X-60716Y180947D01*
X-60883Y180780D01*
X-60943Y180836D01*
X-61062Y180934D01*
X-61122Y180975D01*
X-61181Y181011D01*
X-61241Y181041D01*
X-61300Y181066D01*
X-61359Y181085D01*
X-61418Y181100D01*
X-61478Y181108D01*
X-61045Y181541D01*
X-61037Y181481D01*
D02*
G37*
G36*
X-55393Y181093D02*
X-55491Y180993D01*
X-55721Y180729D01*
X-55777Y180652D01*
X-55823Y180581D01*
X-55859Y180516D01*
X-55885Y180456D01*
X-55900Y180402D01*
X-55905Y180354D01*
X-56299Y180748D01*
X-56251Y180753D01*
X-56197Y180768D01*
X-56138Y180794D01*
X-56072Y180830D01*
X-56001Y180876D01*
X-55924Y180932D01*
X-55754Y181076D01*
X-55560Y181260D01*
X-55393Y181093D01*
D02*
G37*
G36*
X-47859Y181155D02*
X-47887Y181105D01*
X-47911Y181045D01*
X-47932Y180974D01*
X-47949Y180891D01*
X-47964Y180797D01*
X-47983Y180575D01*
X-47989Y180307D01*
X-48226D01*
X-48227Y180447D01*
X-48251Y180797D01*
X-48266Y180891D01*
X-48283Y180974D01*
X-48304Y181045D01*
X-48328Y181105D01*
X-48355Y181155D01*
X-48386Y181192D01*
X-47829D01*
X-47859Y181155D01*
D02*
G37*
G36*
X12888Y180527D02*
X12869Y180497D01*
X12852Y180464D01*
X12837Y180431D01*
X12825Y180396D01*
X12815Y180359D01*
X12807Y180322D01*
X12801Y180283D01*
X12798Y180242D01*
X12797Y180200D01*
X12403D01*
X12402Y180242D01*
X12399Y180283D01*
X12393Y180322D01*
X12385Y180359D01*
X12375Y180396D01*
X12363Y180431D01*
X12348Y180464D01*
X12331Y180497D01*
X12312Y180527D01*
X12291Y180557D01*
X12910D01*
X12888Y180527D01*
D02*
G37*
G36*
X-50531Y180212D02*
X-50568Y180171D01*
X-50600Y180120D01*
X-50629Y180057D01*
X-50654Y179984D01*
X-50675Y179901D01*
X-50692Y179807D01*
X-50706Y179703D01*
X-50721Y179463D01*
X-50723Y179326D01*
X-50959Y179352D01*
X-50961Y179495D01*
X-50991Y179943D01*
X-51006Y180025D01*
X-51022Y180095D01*
X-51042Y180152D01*
X-51064Y180198D01*
X-51088Y180232D01*
X-50531Y180212D01*
D02*
G37*
G36*
X-56051Y180038D02*
X-56078Y179989D01*
X-56102Y179929D01*
X-56123Y179857D01*
X-56141Y179774D01*
X-56155Y179680D01*
X-56175Y179458D01*
X-56181Y179191D01*
X-56417D01*
X-56419Y179330D01*
X-56443Y179680D01*
X-56457Y179774D01*
X-56475Y179857D01*
X-56496Y179929D01*
X-56520Y179989D01*
X-56547Y180038D01*
X-56578Y180076D01*
X-56021D01*
X-56051Y180038D01*
D02*
G37*
G36*
X-51966Y179227D02*
X-51955Y179200D01*
X-51937Y179169D01*
X-51913Y179134D01*
X-51883Y179095D01*
X-51806Y179003D01*
X-51645Y178834D01*
X-51999Y178480D01*
X-52059Y178540D01*
X-52299Y178749D01*
X-52334Y178772D01*
X-52365Y178790D01*
X-52392Y178802D01*
X-52414Y178807D01*
X-51972Y179250D01*
X-51966Y179227D01*
D02*
G37*
G36*
X-53664Y178906D02*
X-53669Y178878D01*
X-53673Y178834D01*
X-53682Y178613D01*
X-53687Y178106D01*
X-54187D01*
X-54216Y178919D01*
X-53658D01*
X-53664Y178906D01*
D02*
G37*
G36*
X-55239D02*
X-55243Y178878D01*
X-55248Y178834D01*
X-55257Y178613D01*
X-55262Y178106D01*
X-55762D01*
X-55790Y178919D01*
X-55233D01*
X-55239Y178906D01*
D02*
G37*
G36*
X-56814D02*
X-56818Y178878D01*
X-56823Y178834D01*
X-56832Y178613D01*
X-56837Y178106D01*
X-57337D01*
X-57365Y178919D01*
X-56808D01*
X-56814Y178906D01*
D02*
G37*
G36*
X-44763Y175520D02*
X-44749Y175462D01*
X-44727Y175402D01*
X-44698Y175340D01*
X-44662Y175276D01*
X-44619Y175210D01*
X-44569Y175143D01*
X-44448Y175001D01*
X-44377Y174927D01*
X-44544Y174760D01*
X-44617Y174831D01*
X-44759Y174952D01*
X-44827Y175003D01*
X-44893Y175046D01*
X-44957Y175081D01*
X-45019Y175110D01*
X-45079Y175132D01*
X-45137Y175147D01*
X-45193Y175154D01*
X-44771Y175576D01*
X-44763Y175520D01*
D02*
G37*
G36*
X36252Y175247D02*
X36225Y175198D01*
X36201Y175138D01*
X36180Y175066D01*
X36162Y174984D01*
X36148Y174889D01*
X36129Y174667D01*
X36122Y174400D01*
X35886D01*
X35884Y174539D01*
X35860Y174889D01*
X35846Y174984D01*
X35828Y175066D01*
X35807Y175138D01*
X35783Y175198D01*
X35756Y175247D01*
X35726Y175285D01*
X36283D01*
X36252Y175247D01*
D02*
G37*
G36*
X-61801Y173543D02*
X-61781Y173417D01*
X-61766Y173360D01*
X-61749Y173306D01*
X-61728Y173256D01*
X-61705Y173209D01*
X-61678Y173166D01*
X-61649Y173127D01*
X-61616Y173091D01*
X-61783Y172924D01*
X-61828Y172967D01*
X-61921Y173042D01*
X-61969Y173075D01*
X-62018Y173105D01*
X-62069Y173131D01*
X-62120Y173154D01*
X-62173Y173174D01*
X-62226Y173190D01*
X-62281Y173204D01*
X-61806Y173611D01*
X-61801Y173543D01*
D02*
G37*
G36*
X-34339Y173273D02*
X-34366Y173224D01*
X-34390Y173163D01*
X-34411Y173092D01*
X-34428Y173009D01*
X-34443Y172915D01*
X-34462Y172693D01*
X-34468Y172426D01*
X-34705D01*
X-34706Y172565D01*
X-34730Y172915D01*
X-34745Y173009D01*
X-34762Y173092D01*
X-34783Y173163D01*
X-34807Y173224D01*
X-34835Y173273D01*
X-34865Y173311D01*
X-34308D01*
X-34339Y173273D01*
D02*
G37*
G36*
X-50721Y171128D02*
X-50697Y170778D01*
X-50683Y170684D01*
X-50665Y170601D01*
X-50644Y170530D01*
X-50620Y170470D01*
X-50593Y170421D01*
X-50563Y170383D01*
X-51120D01*
X-51089Y170421D01*
X-51062Y170470D01*
X-51038Y170530D01*
X-51017Y170601D01*
X-50999Y170684D01*
X-50985Y170778D01*
X-50966Y171001D01*
X-50959Y171268D01*
X-50723D01*
X-50721Y171128D01*
D02*
G37*
G36*
X-56629Y171260D02*
X-56627Y171120D01*
X-56605Y170769D01*
X-56591Y170675D01*
X-56575Y170592D01*
X-56556Y170521D01*
X-56533Y170461D01*
X-56508Y170414D01*
X-56480Y170377D01*
X-57037Y170385D01*
X-57004Y170424D01*
X-56975Y170474D01*
X-56949Y170535D01*
X-56927Y170607D01*
X-56908Y170690D01*
X-56892Y170784D01*
X-56872Y171005D01*
X-56867Y171132D01*
X-56865Y171270D01*
X-56629Y171260D01*
D02*
G37*
G36*
X49751Y170643D02*
X49737Y170606D01*
X49725Y170556D01*
X49714Y170491D01*
X49698Y170321D01*
X49685Y169963D01*
X49685Y169817D01*
X49291D01*
X49290Y169963D01*
X49251Y170556D01*
X49239Y170606D01*
X49225Y170643D01*
X49209Y170667D01*
X49766D01*
X49751Y170643D01*
D02*
G37*
G36*
X-29122Y169711D02*
X-29173Y169705D01*
X-29229Y169690D01*
X-29290Y169665D01*
X-29354Y169631D01*
X-29424Y169588D01*
X-29498Y169536D01*
X-29659Y169403D01*
X-29746Y169323D01*
X-29838Y169234D01*
X-30005Y169401D01*
X-29915Y169492D01*
X-29703Y169741D01*
X-29650Y169815D01*
X-29607Y169884D01*
X-29573Y169949D01*
X-29549Y170009D01*
X-29533Y170065D01*
X-29527Y170116D01*
X-29122Y169711D01*
D02*
G37*
G36*
X-56484Y169824D02*
X-56515Y169786D01*
X-56542Y169737D01*
X-56567Y169677D01*
X-56588Y169605D01*
X-56605Y169522D01*
X-56620Y169428D01*
X-56639Y169206D01*
X-56646Y168939D01*
X-56882Y168940D01*
X-56884Y169080D01*
X-56907Y169430D01*
X-56922Y169524D01*
X-56939Y169607D01*
X-56960Y169678D01*
X-56984Y169738D01*
X-57011Y169787D01*
X-57041Y169825D01*
X-56484Y169824D01*
D02*
G37*
G36*
X-56646Y168550D02*
X-56644Y168410D01*
X-56609Y167964D01*
X-56593Y167881D01*
X-56574Y167810D01*
X-56552Y167751D01*
X-56527Y167703D01*
X-56499Y167667D01*
X-57056Y167675D01*
X-57023Y167714D01*
X-56993Y167764D01*
X-56967Y167826D01*
X-56945Y167898D01*
X-56925Y167981D01*
X-56910Y168075D01*
X-56889Y168296D01*
X-56884Y168423D01*
X-56882Y168561D01*
X-56646Y168550D01*
D02*
G37*
G36*
X-5938Y167091D02*
X-5952Y167054D01*
X-5964Y167004D01*
X-5974Y166939D01*
X-5991Y166769D01*
X-6003Y166411D01*
X-6003Y166374D01*
X-6003Y166336D01*
X-5964Y165744D01*
X-5952Y165693D01*
X-5938Y165656D01*
X-5922Y165633D01*
X-6479D01*
X-6464Y165656D01*
X-6450Y165693D01*
X-6438Y165744D01*
X-6427Y165808D01*
X-6411Y165978D01*
X-6398Y166336D01*
X-6398Y166374D01*
X-6398Y166411D01*
X-6438Y167004D01*
X-6450Y167054D01*
X-6464Y167091D01*
X-6479Y167115D01*
X-5922D01*
X-5938Y167091D01*
D02*
G37*
G36*
X-55479Y164451D02*
X-56036D01*
X-56031Y164465D01*
X-56026Y164493D01*
X-56022Y164537D01*
X-56012Y164758D01*
X-56008Y165265D01*
X-55508D01*
X-55479Y164451D01*
D02*
G37*
G36*
X-34467Y164016D02*
X-34443Y163666D01*
X-34428Y163572D01*
X-34411Y163489D01*
X-34390Y163417D01*
X-34366Y163357D01*
X-34339Y163308D01*
X-34308Y163270D01*
X-34865D01*
X-34835Y163308D01*
X-34807Y163357D01*
X-34783Y163417D01*
X-34762Y163489D01*
X-34745Y163572D01*
X-34730Y163666D01*
X-34711Y163888D01*
X-34705Y164155D01*
X-34468D01*
X-34467Y164016D01*
D02*
G37*
G36*
X21162Y163824D02*
X21135Y163775D01*
X21111Y163715D01*
X21090Y163643D01*
X21072Y163560D01*
X21057Y163466D01*
X21038Y163244D01*
X21032Y162977D01*
X20796D01*
X20794Y163116D01*
X20770Y163466D01*
X20755Y163560D01*
X20738Y163643D01*
X20717Y163715D01*
X20693Y163775D01*
X20666Y163824D01*
X20635Y163862D01*
X21192D01*
X21162Y163824D01*
D02*
G37*
G36*
X38702Y162736D02*
X38704Y162714D01*
X38861D01*
X38831Y162676D01*
X38803Y162627D01*
X38779Y162567D01*
X38759Y162495D01*
X38741Y162413D01*
X38732Y162352D01*
X38741Y162292D01*
X38759Y162209D01*
X38779Y162138D01*
X38803Y162078D01*
X38831Y162029D01*
X38861Y161991D01*
X38705D01*
X38701Y161829D01*
X38464D01*
X38463Y161968D01*
X38461Y161991D01*
X38304D01*
X38335Y162029D01*
X38362Y162078D01*
X38386Y162138D01*
X38407Y162209D01*
X38424Y162292D01*
X38434Y162352D01*
X38424Y162413D01*
X38407Y162495D01*
X38386Y162567D01*
X38362Y162627D01*
X38335Y162676D01*
X38304Y162714D01*
X38461D01*
X38464Y162876D01*
X38701D01*
X38702Y162736D01*
D02*
G37*
G36*
X36088Y162200D02*
X36044Y162154D01*
X36005Y162107D01*
X35969Y162057D01*
X35938Y162006D01*
X35909Y161954D01*
X35885Y161899D01*
X35864Y161843D01*
X35847Y161785D01*
X35833Y161725D01*
X35824Y161663D01*
X35384Y162103D01*
X35445Y162113D01*
X35505Y162126D01*
X35563Y162144D01*
X35620Y162164D01*
X35674Y162189D01*
X35727Y162217D01*
X35778Y162249D01*
X35827Y162285D01*
X35875Y162324D01*
X35921Y162367D01*
X36088Y162200D01*
D02*
G37*
G36*
X-65795Y162464D02*
X-65823Y162415D01*
X-65847Y162355D01*
X-65868Y162283D01*
X-65885Y162200D01*
X-65900Y162106D01*
X-65919Y161884D01*
X-65925Y161617D01*
X-66162D01*
X-66163Y161756D01*
X-66187Y162106D01*
X-66202Y162200D01*
X-66219Y162283D01*
X-66240Y162355D01*
X-66264Y162415D01*
X-66291Y162464D01*
X-66322Y162502D01*
X-65765D01*
X-65795Y162464D01*
D02*
G37*
G36*
X-39107Y162592D02*
X-39121Y162555D01*
X-39133Y162505D01*
X-39144Y162440D01*
X-39160Y162270D01*
X-39173Y161912D01*
X-39173Y161847D01*
X-39173Y161782D01*
X-39133Y161189D01*
X-39121Y161138D01*
X-39107Y161101D01*
X-39092Y161078D01*
X-39649D01*
X-39633Y161101D01*
X-39619Y161138D01*
X-39607Y161189D01*
X-39596Y161253D01*
X-39580Y161424D01*
X-39568Y161782D01*
X-39568Y161847D01*
X-39568Y161912D01*
X-39607Y162505D01*
X-39619Y162555D01*
X-39633Y162592D01*
X-39649Y162616D01*
X-39092D01*
X-39107Y162592D01*
D02*
G37*
G36*
X-13024Y160498D02*
X-13038Y160461D01*
X-13050Y160411D01*
X-13061Y160346D01*
X-13077Y160176D01*
X-13090Y159818D01*
X-13091Y159671D01*
X-13484D01*
X-13485Y159818D01*
X-13524Y160411D01*
X-13536Y160461D01*
X-13550Y160498D01*
X-13566Y160522D01*
X-13009D01*
X-13024Y160498D01*
D02*
G37*
G36*
X-29746Y160171D02*
X-29498Y159959D01*
X-29424Y159906D01*
X-29354Y159863D01*
X-29290Y159829D01*
X-29229Y159805D01*
X-29173Y159789D01*
X-29122Y159783D01*
X-29527Y159378D01*
X-29533Y159429D01*
X-29549Y159485D01*
X-29573Y159546D01*
X-29607Y159610D01*
X-29650Y159680D01*
X-29703Y159753D01*
X-29835Y159915D01*
X-29915Y160002D01*
X-30005Y160094D01*
X-29838Y160261D01*
X-29746Y160171D01*
D02*
G37*
G36*
X51252Y159101D02*
X51248Y159074D01*
X51245Y159031D01*
X51235Y158589D01*
X51234Y158305D01*
X50734Y158292D01*
X50699Y159110D01*
X51256Y159113D01*
X51252Y159101D01*
D02*
G37*
G36*
X-51543Y157672D02*
X-52100D01*
X-52095Y157685D01*
X-52090Y157714D01*
X-52086Y157757D01*
X-52076Y157978D01*
X-52072Y158485D01*
X-51572D01*
X-51543Y157672D01*
D02*
G37*
G36*
X-65924Y157126D02*
X-65900Y156776D01*
X-65885Y156682D01*
X-65868Y156599D01*
X-65847Y156528D01*
X-65823Y156467D01*
X-65795Y156418D01*
X-65765Y156381D01*
X-66322D01*
X-66291Y156418D01*
X-66264Y156467D01*
X-66240Y156528D01*
X-66219Y156599D01*
X-66202Y156682D01*
X-66187Y156776D01*
X-66168Y156998D01*
X-66162Y157265D01*
X-65925D01*
X-65924Y157126D01*
D02*
G37*
G36*
X66172Y183128D02*
X66178Y152494D01*
X65575Y151890D01*
X59262Y151891D01*
X58925Y152227D01*
X58433D01*
X58096Y151891D01*
X57709Y151891D01*
X57100Y152500D01*
Y154177D01*
X57332D01*
X57674Y154519D01*
X57680Y154525D01*
Y155017D01*
X57674Y155022D01*
X57412Y155285D01*
X57365Y155558D01*
X57412Y155831D01*
X57600Y156020D01*
X57874Y156067D01*
X58147Y156020D01*
X58415Y155752D01*
X58907D01*
X59255Y156099D01*
Y156591D01*
X58907Y156939D01*
X58415D01*
X58147Y156671D01*
X57874Y156624D01*
X57600Y156671D01*
X57412Y156860D01*
X57365Y157133D01*
X57412Y157406D01*
X57680Y157674D01*
Y158166D01*
X57332Y158514D01*
X57100D01*
X57100Y183200D01*
X57700Y183800D01*
X65500D01*
X66172Y183128D01*
D02*
G37*
G36*
X-65795Y155786D02*
X-65823Y155737D01*
X-65847Y155677D01*
X-65868Y155605D01*
X-65885Y155523D01*
X-65900Y155429D01*
X-65924Y155079D01*
X-65925Y154939D01*
X-66162D01*
X-66168Y155207D01*
X-66187Y155429D01*
X-66202Y155523D01*
X-66219Y155605D01*
X-66240Y155677D01*
X-66264Y155737D01*
X-66291Y155786D01*
X-66322Y155824D01*
X-65765D01*
X-65795Y155786D01*
D02*
G37*
G36*
X-39107Y155899D02*
X-39121Y155862D01*
X-39133Y155812D01*
X-39144Y155747D01*
X-39160Y155577D01*
X-39166Y155420D01*
X-39133Y154931D01*
X-39121Y154880D01*
X-39107Y154843D01*
X-39092Y154820D01*
X-39649D01*
X-39633Y154843D01*
X-39619Y154880D01*
X-39607Y154931D01*
X-39596Y154995D01*
X-39580Y155165D01*
X-39575Y155323D01*
X-39607Y155812D01*
X-39619Y155862D01*
X-39633Y155899D01*
X-39649Y155923D01*
X-39092D01*
X-39107Y155899D01*
D02*
G37*
G36*
X-15691Y154246D02*
X-15702Y154210D01*
X-15713Y154161D01*
X-15722Y154097D01*
X-15736Y153928D01*
X-15747Y153570D01*
X-15748Y153422D01*
X-16141Y153405D01*
X-16142Y153551D01*
X-16175Y154080D01*
X-16187Y154145D01*
X-16201Y154197D01*
X-16217Y154235D01*
X-16234Y154260D01*
X-15677Y154267D01*
X-15691Y154246D01*
D02*
G37*
G36*
X53848Y153884D02*
X53821Y153835D01*
X53797Y153775D01*
X53776Y153703D01*
X53758Y153620D01*
X53744Y153526D01*
X53724Y153304D01*
X53718Y153037D01*
X53482D01*
X53480Y153176D01*
X53456Y153526D01*
X53442Y153620D01*
X53424Y153703D01*
X53403Y153775D01*
X53379Y153835D01*
X53352Y153884D01*
X53321Y153922D01*
X53879D01*
X53848Y153884D01*
D02*
G37*
G36*
X12796Y153245D02*
X12835Y152653D01*
X12848Y152602D01*
X12862Y152565D01*
X12877Y152542D01*
X12320D01*
X12335Y152565D01*
X12349Y152602D01*
X12361Y152653D01*
X12372Y152717D01*
X12388Y152887D01*
X12401Y153245D01*
X12402Y153392D01*
X12795D01*
X12796Y153245D01*
D02*
G37*
G36*
X-15747Y152261D02*
X-15708Y151669D01*
X-15695Y151618D01*
X-15682Y151581D01*
X-15666Y151558D01*
X-16223D01*
X-16208Y151581D01*
X-16194Y151618D01*
X-16182Y151669D01*
X-16171Y151733D01*
X-16154Y151903D01*
X-16142Y152261D01*
X-16141Y152408D01*
X-15748D01*
X-15747Y152261D01*
D02*
G37*
G36*
X-60680Y151924D02*
X-60656Y151574D01*
X-60642Y151480D01*
X-60624Y151397D01*
X-60603Y151325D01*
X-60579Y151265D01*
X-60552Y151216D01*
X-60521Y151178D01*
X-61079D01*
X-61048Y151216D01*
X-61021Y151265D01*
X-60997Y151325D01*
X-60976Y151397D01*
X-60958Y151480D01*
X-60944Y151574D01*
X-60925Y151796D01*
X-60918Y152063D01*
X-60682D01*
X-60680Y151924D01*
D02*
G37*
G36*
X-15682Y150978D02*
X-15695Y150941D01*
X-15708Y150891D01*
X-15718Y150826D01*
X-15735Y150656D01*
X-15747Y150298D01*
X-15748Y150151D01*
X-16141D01*
X-16142Y150298D01*
X-16182Y150891D01*
X-16194Y150941D01*
X-16208Y150978D01*
X-16223Y151001D01*
X-15666D01*
X-15682Y150978D01*
D02*
G37*
G36*
X-21587D02*
X-21601Y150941D01*
X-21613Y150891D01*
X-21624Y150826D01*
X-21640Y150656D01*
X-21653Y150298D01*
X-21654Y150151D01*
X-22047D01*
X-22048Y150298D01*
X-22087Y150891D01*
X-22099Y150941D01*
X-22113Y150978D01*
X-22129Y151001D01*
X-21572D01*
X-21587Y150978D01*
D02*
G37*
G36*
X-19628D02*
X-19642Y150941D01*
X-19654Y150891D01*
X-19665Y150826D01*
X-19681Y150656D01*
X-19689Y150424D01*
X-19654Y149897D01*
X-19642Y149846D01*
X-19628Y149809D01*
X-19612Y149786D01*
X-20169D01*
X-20154Y149809D01*
X-20140Y149846D01*
X-20128Y149897D01*
X-20117Y149961D01*
X-20101Y150131D01*
X-20093Y150363D01*
X-20128Y150891D01*
X-20140Y150941D01*
X-20154Y150978D01*
X-20169Y151001D01*
X-19612D01*
X-19628Y150978D01*
D02*
G37*
G36*
X-65925Y150571D02*
X-65924Y150432D01*
X-65900Y150082D01*
X-65886Y149987D01*
X-65868Y149905D01*
X-65848Y149833D01*
X-65824Y149773D01*
X-65797Y149724D01*
X-65767Y149687D01*
X-66325Y149688D01*
X-66294Y149726D01*
X-66266Y149776D01*
X-66241Y149836D01*
X-66220Y149908D01*
X-66202Y149991D01*
X-66188Y150085D01*
X-66168Y150307D01*
X-66162Y150573D01*
X-65925Y150571D01*
D02*
G37*
G36*
X-13090Y149603D02*
X-13050Y149011D01*
X-13038Y148960D01*
X-13024Y148923D01*
X-13009Y148900D01*
X-13566D01*
X-13550Y148923D01*
X-13536Y148960D01*
X-13524Y149011D01*
X-13514Y149075D01*
X-13497Y149246D01*
X-13485Y149603D01*
X-13484Y149750D01*
X-13091D01*
X-13090Y149603D01*
D02*
G37*
G36*
X-19492Y149481D02*
X-19475Y149445D01*
X-19448Y149400D01*
X-19410Y149347D01*
X-19301Y149215D01*
X-19057Y148953D01*
X-18954Y148849D01*
X-19232Y148571D01*
X-19336Y148674D01*
X-19783Y149065D01*
X-19828Y149092D01*
X-19864Y149109D01*
X-19891Y149114D01*
X-19497Y149508D01*
X-19492Y149481D01*
D02*
G37*
G36*
X-65797Y149094D02*
X-65824Y149046D01*
X-65848Y148986D01*
X-65868Y148914D01*
X-65886Y148831D01*
X-65900Y148737D01*
X-65924Y148387D01*
X-65925Y148248D01*
X-66162Y148245D01*
X-66168Y148512D01*
X-66188Y148734D01*
X-66202Y148828D01*
X-66220Y148911D01*
X-66241Y148983D01*
X-66266Y149043D01*
X-66294Y149092D01*
X-66325Y149130D01*
X-65767Y149132D01*
X-65797Y149094D01*
D02*
G37*
G36*
X-13024Y148321D02*
X-13038Y148284D01*
X-13050Y148233D01*
X-13061Y148169D01*
X-13077Y147998D01*
X-13090Y147640D01*
X-13091Y147494D01*
X-13484D01*
X-13485Y147640D01*
X-13524Y148233D01*
X-13536Y148284D01*
X-13550Y148321D01*
X-13566Y148344D01*
X-13009D01*
X-13024Y148321D01*
D02*
G37*
G36*
X40176Y147245D02*
X40123Y147238D01*
X40066Y147223D01*
X40006Y147199D01*
X39942Y147167D01*
X39875Y147127D01*
X39803Y147078D01*
X39729Y147020D01*
X39569Y146880D01*
X39483Y146797D01*
X39316Y146964D01*
X39399Y147049D01*
X39597Y147284D01*
X39646Y147355D01*
X39687Y147422D01*
X39719Y147486D01*
X39742Y147546D01*
X39757Y147603D01*
X39764Y147656D01*
X40176Y147245D01*
D02*
G37*
G36*
X-23359Y146387D02*
X-23366Y146373D01*
X-23371Y146344D01*
X-23376Y146300D01*
X-23384Y146166D01*
X-23393Y145570D01*
X-23893Y145581D01*
X-23916Y146390D01*
X-23359Y146387D01*
D02*
G37*
G36*
X-11827Y146362D02*
X-11832Y146334D01*
X-11836Y146290D01*
X-11845Y146069D01*
X-11850Y145562D01*
X-12350D01*
X-12379Y146375D01*
X-11821D01*
X-11827Y146362D01*
D02*
G37*
G36*
X-44340Y145106D02*
X-44316Y144756D01*
X-44302Y144662D01*
X-44284Y144579D01*
X-44263Y144507D01*
X-44239Y144447D01*
X-44212Y144398D01*
X-44181Y144360D01*
X-44739D01*
X-44708Y144398D01*
X-44681Y144447D01*
X-44657Y144507D01*
X-44636Y144579D01*
X-44618Y144662D01*
X-44604Y144756D01*
X-44585Y144978D01*
X-44578Y145245D01*
X-44342D01*
X-44340Y145106D01*
D02*
G37*
G36*
X36578Y144590D02*
X36550Y144541D01*
X36526Y144481D01*
X36505Y144409D01*
X36488Y144326D01*
X36473Y144232D01*
X36454Y144010D01*
X36448Y143743D01*
X36211D01*
X36210Y143882D01*
X36186Y144232D01*
X36171Y144326D01*
X36154Y144409D01*
X36133Y144481D01*
X36109Y144541D01*
X36081Y144590D01*
X36051Y144628D01*
X36608D01*
X36578Y144590D01*
D02*
G37*
G36*
X-25177Y144390D02*
X-25182Y144362D01*
X-25186Y144318D01*
X-25196Y144097D01*
X-25200Y143590D01*
X-25700D01*
X-25729Y144404D01*
X-25172D01*
X-25177Y144390D01*
D02*
G37*
G36*
X-14189Y143643D02*
X-14689Y143583D01*
X-14689Y143731D01*
X-14734Y144396D01*
X-14745Y144414D01*
X-14187Y144431D01*
X-14189Y143643D01*
D02*
G37*
G36*
X-23393Y143901D02*
X-23369Y143092D01*
X-23926Y143095D01*
X-23920Y143109D01*
X-23914Y143138D01*
X-23909Y143182D01*
X-23901Y143316D01*
X-23893Y143912D01*
X-23393Y143901D01*
D02*
G37*
G36*
X-65925Y143878D02*
X-65924Y143739D01*
X-65900Y143389D01*
X-65886Y143295D01*
X-65868Y143212D01*
X-65848Y143140D01*
X-65824Y143080D01*
X-65797Y143032D01*
X-65767Y142994D01*
X-66325Y142996D01*
X-66294Y143034D01*
X-66266Y143083D01*
X-66241Y143143D01*
X-66220Y143215D01*
X-66202Y143298D01*
X-66188Y143392D01*
X-66168Y143614D01*
X-66162Y143881D01*
X-65925Y143878D01*
D02*
G37*
G36*
X-23374Y142526D02*
X-23378Y142498D01*
X-23381Y142455D01*
X-23391Y142132D01*
X-23393Y141729D01*
X-23893Y141718D01*
X-23926Y142535D01*
X-23369Y142538D01*
X-23374Y142526D01*
D02*
G37*
G36*
X-65797Y142402D02*
X-65824Y142353D01*
X-65848Y142293D01*
X-65868Y142221D01*
X-65886Y142139D01*
X-65900Y142044D01*
X-65924Y141694D01*
X-65925Y141555D01*
X-66162Y141553D01*
X-66168Y141819D01*
X-66188Y142041D01*
X-66202Y142135D01*
X-66220Y142218D01*
X-66241Y142290D01*
X-66266Y142350D01*
X-66294Y142400D01*
X-66325Y142438D01*
X-65767Y142439D01*
X-65797Y142402D01*
D02*
G37*
G36*
X55153Y139841D02*
X55125Y139792D01*
X55101Y139732D01*
X55080Y139661D01*
X55063Y139578D01*
X55048Y139483D01*
X55029Y139261D01*
X55023Y138994D01*
X54786D01*
X54785Y139134D01*
X54761Y139483D01*
X54746Y139578D01*
X54729Y139661D01*
X54708Y139732D01*
X54684Y139792D01*
X54657Y139841D01*
X54626Y139879D01*
X55183D01*
X55153Y139841D01*
D02*
G37*
G36*
X-61580Y138324D02*
X-61556Y137974D01*
X-61542Y137880D01*
X-61524Y137797D01*
X-61503Y137725D01*
X-61479Y137665D01*
X-61452Y137616D01*
X-61421Y137578D01*
X-61979D01*
X-61948Y137616D01*
X-61921Y137665D01*
X-61897Y137725D01*
X-61876Y137797D01*
X-61858Y137880D01*
X-61844Y137974D01*
X-61825Y138196D01*
X-61818Y138463D01*
X-61582D01*
X-61580Y138324D01*
D02*
G37*
G36*
X-25172Y136402D02*
X-25729D01*
X-25723Y136416D01*
X-25718Y136444D01*
X-25714Y136488D01*
X-25705Y136709D01*
X-25700Y137216D01*
X-25200D01*
X-25172Y136402D01*
D02*
G37*
G36*
X-65924Y137047D02*
X-65900Y136697D01*
X-65885Y136603D01*
X-65868Y136521D01*
X-65847Y136449D01*
X-65823Y136389D01*
X-65795Y136340D01*
X-65765Y136302D01*
X-66322D01*
X-66291Y136340D01*
X-66264Y136389D01*
X-66240Y136449D01*
X-66219Y136521D01*
X-66202Y136603D01*
X-66187Y136697D01*
X-66168Y136919D01*
X-66162Y137187D01*
X-65925D01*
X-65924Y137047D01*
D02*
G37*
G36*
X4021Y137108D02*
X4007Y137071D01*
X3995Y137021D01*
X3985Y136957D01*
X3969Y136787D01*
X3958Y136429D01*
X3957Y136282D01*
X3557D01*
X3556Y136429D01*
X3519Y137021D01*
X3507Y137071D01*
X3493Y137108D01*
X3478Y137130D01*
X4036D01*
X4021Y137108D01*
D02*
G37*
G36*
X-21653Y135875D02*
X-21613Y135283D01*
X-21601Y135232D01*
X-21587Y135195D01*
X-21572Y135172D01*
X-22129D01*
X-22113Y135195D01*
X-22099Y135232D01*
X-22087Y135283D01*
X-22077Y135347D01*
X-22060Y135517D01*
X-22048Y135875D01*
X-22047Y136022D01*
X-21654D01*
X-21653Y135875D01*
D02*
G37*
G36*
X-25177Y135833D02*
X-25182Y135804D01*
X-25186Y135761D01*
X-25196Y135539D01*
X-25200Y135033D01*
X-25700D01*
X-25729Y135846D01*
X-25172D01*
X-25177Y135833D01*
D02*
G37*
G36*
X-18945Y135552D02*
X-19048Y135448D01*
X-19439Y135001D01*
X-19466Y134957D01*
X-19483Y134921D01*
X-19488Y134893D01*
X-19882Y135287D01*
X-19855Y135293D01*
X-19819Y135309D01*
X-19774Y135336D01*
X-19721Y135374D01*
X-19590Y135483D01*
X-19328Y135727D01*
X-19223Y135831D01*
X-18945Y135552D01*
D02*
G37*
G36*
X-16499Y135728D02*
X-16051Y135336D01*
X-16006Y135309D01*
X-15970Y135293D01*
X-15942Y135287D01*
X-16338Y134891D01*
X-16343Y134919D01*
X-16360Y134956D01*
X-16387Y135001D01*
X-16425Y135054D01*
X-16534Y135186D01*
X-16686Y135352D01*
X-16881Y135552D01*
X-16603Y135831D01*
X-16499Y135728D01*
D02*
G37*
G36*
X-65795Y135708D02*
X-65823Y135659D01*
X-65847Y135598D01*
X-65868Y135527D01*
X-65885Y135444D01*
X-65900Y135350D01*
X-65924Y135000D01*
X-65925Y134861D01*
X-66162D01*
X-66168Y135128D01*
X-66187Y135350D01*
X-66202Y135444D01*
X-66219Y135527D01*
X-66240Y135598D01*
X-66264Y135659D01*
X-66291Y135708D01*
X-66322Y135745D01*
X-65765D01*
X-65795Y135708D01*
D02*
G37*
G36*
X-39069Y134606D02*
X-39087Y134581D01*
X-39102Y134543D01*
X-39116Y134491D01*
X-39128Y134426D01*
X-39138Y134347D01*
X-39152Y134149D01*
X-39161Y133751D01*
X-39554Y133766D01*
X-39555Y133914D01*
X-39590Y134505D01*
X-39600Y134554D01*
X-39613Y134590D01*
X-39626Y134612D01*
X-39069Y134606D01*
D02*
G37*
G36*
X-13090Y133218D02*
X-13050Y132625D01*
X-13038Y132574D01*
X-13024Y132537D01*
X-13009Y132514D01*
X-13566D01*
X-13550Y132537D01*
X-13536Y132574D01*
X-13524Y132625D01*
X-13514Y132689D01*
X-13497Y132860D01*
X-13485Y133218D01*
X-13484Y133364D01*
X-13091D01*
X-13090Y133218D01*
D02*
G37*
G36*
X-47988Y131732D02*
X-47964Y131382D01*
X-47949Y131288D01*
X-47932Y131205D01*
X-47911Y131134D01*
X-47887Y131074D01*
X-47859Y131025D01*
X-47829Y130987D01*
X-48386D01*
X-48355Y131025D01*
X-48328Y131074D01*
X-48304Y131134D01*
X-48283Y131205D01*
X-48266Y131288D01*
X-48251Y131382D01*
X-48232Y131604D01*
X-48226Y131872D01*
X-47989D01*
X-47988Y131732D01*
D02*
G37*
G36*
X3958Y131616D02*
X3995Y131025D01*
X4007Y130974D01*
X4021Y130938D01*
X4036Y130915D01*
X3478D01*
X3493Y130938D01*
X3507Y130974D01*
X3519Y131025D01*
X3529Y131089D01*
X3544Y131258D01*
X3556Y131616D01*
X3557Y131764D01*
X3957D01*
X3958Y131616D01*
D02*
G37*
G36*
X-11821Y130562D02*
X-12379D01*
X-12373Y130575D01*
X-12368Y130604D01*
X-12364Y130647D01*
X-12355Y130868D01*
X-12350Y131375D01*
X-11850D01*
X-11821Y130562D01*
D02*
G37*
G36*
X-23359Y130547D02*
X-23916Y130544D01*
X-23912Y130557D01*
X-23908Y130584D01*
X-23904Y130627D01*
X-23895Y130951D01*
X-23893Y131354D01*
X-23393Y131364D01*
X-23359Y130547D01*
D02*
G37*
G36*
X39520Y131024D02*
X39544Y130674D01*
X39558Y130580D01*
X39576Y130497D01*
X39597Y130425D01*
X39621Y130365D01*
X39648Y130316D01*
X39679Y130278D01*
X39121D01*
X39152Y130316D01*
X39179Y130365D01*
X39203Y130425D01*
X39224Y130497D01*
X39242Y130580D01*
X39256Y130674D01*
X39276Y130896D01*
X39282Y131163D01*
X39518D01*
X39520Y131024D01*
D02*
G37*
G36*
X51268Y130103D02*
X50711Y130099D01*
X50716Y130111D01*
X50719Y130139D01*
X50723Y130182D01*
X50733Y130624D01*
X50734Y130908D01*
X51234Y130921D01*
X51268Y130103D01*
D02*
G37*
G36*
X-39161Y130550D02*
X-39160Y130403D01*
X-39125Y129811D01*
X-39114Y129762D01*
X-39102Y129726D01*
X-39089Y129704D01*
X-39646Y129710D01*
X-39628Y129735D01*
X-39613Y129773D01*
X-39599Y129825D01*
X-39587Y129890D01*
X-39577Y129969D01*
X-39562Y130167D01*
X-39554Y130565D01*
X-39161Y130550D01*
D02*
G37*
G36*
X-65924Y130331D02*
X-65900Y129981D01*
X-65885Y129887D01*
X-65868Y129804D01*
X-65847Y129733D01*
X-65823Y129672D01*
X-65795Y129623D01*
X-65765Y129586D01*
X-66322D01*
X-66291Y129623D01*
X-66264Y129672D01*
X-66240Y129733D01*
X-66219Y129804D01*
X-66202Y129887D01*
X-66187Y129981D01*
X-66168Y130203D01*
X-66162Y130470D01*
X-65925D01*
X-65924Y130331D01*
D02*
G37*
G36*
X4021Y130336D02*
X4007Y130300D01*
X3995Y130249D01*
X3985Y130185D01*
X3969Y130016D01*
X3958Y129657D01*
X3957Y129510D01*
X3557D01*
X3556Y129657D01*
X3519Y130249D01*
X3507Y130300D01*
X3493Y130336D01*
X3478Y130359D01*
X4036D01*
X4021Y130336D01*
D02*
G37*
G36*
X-11837Y129982D02*
X-11851Y129945D01*
X-11863Y129895D01*
X-11874Y129830D01*
X-11890Y129660D01*
X-11902Y129302D01*
X-11903Y129155D01*
X-12297D01*
X-12298Y129302D01*
X-12337Y129895D01*
X-12349Y129945D01*
X-12363Y129982D01*
X-12379Y130006D01*
X-11821D01*
X-11837Y129982D01*
D02*
G37*
G36*
X39648Y129684D02*
X39621Y129635D01*
X39597Y129575D01*
X39576Y129503D01*
X39558Y129420D01*
X39544Y129326D01*
X39520Y128976D01*
X39518Y128837D01*
X39282D01*
X39276Y129104D01*
X39256Y129326D01*
X39242Y129420D01*
X39224Y129503D01*
X39203Y129575D01*
X39179Y129635D01*
X39152Y129684D01*
X39121Y129722D01*
X39679D01*
X39648Y129684D01*
D02*
G37*
G36*
X-14189Y129373D02*
X-14187Y128585D01*
X-14745Y128602D01*
X-14734Y128619D01*
X-14725Y128652D01*
X-14716Y128699D01*
X-14709Y128760D01*
X-14694Y129031D01*
X-14689Y129433D01*
X-14189Y129373D01*
D02*
G37*
G36*
X-25172Y128577D02*
X-25729D01*
X-25723Y128591D01*
X-25718Y128619D01*
X-25714Y128662D01*
X-25705Y128884D01*
X-25700Y129391D01*
X-25200D01*
X-25172Y128577D01*
D02*
G37*
G36*
X-65795Y128991D02*
X-65823Y128942D01*
X-65847Y128882D01*
X-65868Y128811D01*
X-65885Y128728D01*
X-65900Y128633D01*
X-65924Y128284D01*
X-65925Y128144D01*
X-66162D01*
X-66168Y128411D01*
X-66187Y128633D01*
X-66202Y128728D01*
X-66219Y128811D01*
X-66240Y128882D01*
X-66264Y128942D01*
X-66291Y128991D01*
X-66322Y129029D01*
X-65765D01*
X-65795Y128991D01*
D02*
G37*
G36*
X-14238Y128037D02*
X-14196D01*
X-14211Y128014D01*
X-14225Y127977D01*
X-14238Y127926D01*
X-14244Y127885D01*
X-14278Y127161D01*
X-14671D01*
X-14695Y127685D01*
X-14711Y127926D01*
X-14724Y127977D01*
X-14738Y128014D01*
X-14753Y128037D01*
X-14712D01*
X-14723Y128290D01*
X-14226D01*
X-14238Y128037D01*
D02*
G37*
G36*
X3958Y126180D02*
X3995Y125588D01*
X4007Y125537D01*
X4021Y125501D01*
X4036Y125478D01*
X3478D01*
X3493Y125501D01*
X3507Y125537D01*
X3519Y125588D01*
X3529Y125652D01*
X3544Y125821D01*
X3556Y126180D01*
X3557Y126327D01*
X3957D01*
X3958Y126180D01*
D02*
G37*
G36*
X-53566Y124985D02*
X-53521Y124320D01*
X-53510Y124302D01*
X-54067Y124285D01*
X-54066Y125074D01*
X-53566Y125134D01*
X-53566Y124985D01*
D02*
G37*
G36*
X-65924Y123662D02*
X-65900Y123312D01*
X-65885Y123217D01*
X-65868Y123135D01*
X-65847Y123063D01*
X-65823Y123003D01*
X-65795Y122954D01*
X-65765Y122916D01*
X-66322D01*
X-66291Y122954D01*
X-66264Y123003D01*
X-66240Y123063D01*
X-66219Y123135D01*
X-66202Y123217D01*
X-66187Y123312D01*
X-66168Y123534D01*
X-66162Y123801D01*
X-65925D01*
X-65924Y123662D01*
D02*
G37*
G36*
X60484Y123306D02*
X60457Y123257D01*
X60433Y123197D01*
X60412Y123125D01*
X60395Y123042D01*
X60380Y122948D01*
X60361Y122726D01*
X60354Y122459D01*
X60118D01*
X60116Y122598D01*
X60093Y122948D01*
X60078Y123042D01*
X60060Y123125D01*
X60040Y123197D01*
X60015Y123257D01*
X59988Y123306D01*
X59958Y123344D01*
X60515D01*
X60484Y123306D01*
D02*
G37*
G36*
X-37204Y122537D02*
X-37203Y122458D01*
X-37122Y122458D01*
X-37138Y122434D01*
X-37152Y122398D01*
X-37164Y122347D01*
X-37174Y122283D01*
X-37187Y122150D01*
X-37164Y121798D01*
X-37152Y121747D01*
X-37138Y121710D01*
X-37123Y121687D01*
X-37204Y121687D01*
X-37205Y121608D01*
X-37598Y121608D01*
X-37599Y121688D01*
X-37680Y121688D01*
X-37664Y121711D01*
X-37650Y121748D01*
X-37638Y121799D01*
X-37627Y121863D01*
X-37615Y121995D01*
X-37638Y122347D01*
X-37650Y122398D01*
X-37664Y122435D01*
X-37679Y122458D01*
X-37598Y122458D01*
X-37597Y122538D01*
X-37204Y122537D01*
D02*
G37*
G36*
X-14277Y122391D02*
X-14238Y121798D01*
X-14225Y121748D01*
X-14211Y121711D01*
X-14196Y121687D01*
X-14753D01*
X-14738Y121711D01*
X-14724Y121748D01*
X-14711Y121798D01*
X-14701Y121863D01*
X-14684Y122033D01*
X-14672Y122391D01*
X-14671Y122538D01*
X-14278D01*
X-14277Y122391D01*
D02*
G37*
G36*
X-65795Y122322D02*
X-65823Y122273D01*
X-65847Y122213D01*
X-65868Y122141D01*
X-65885Y122058D01*
X-65900Y121964D01*
X-65924Y121614D01*
X-65925Y121475D01*
X-66162D01*
X-66168Y121742D01*
X-66187Y121964D01*
X-66202Y122058D01*
X-66219Y122141D01*
X-66240Y122213D01*
X-66264Y122273D01*
X-66291Y122322D01*
X-66322Y122360D01*
X-65765D01*
X-65795Y122322D01*
D02*
G37*
G36*
X-11902Y121360D02*
X-11863Y120768D01*
X-11851Y120717D01*
X-11837Y120680D01*
X-11821Y120657D01*
X-12379D01*
X-12363Y120680D01*
X-12349Y120717D01*
X-12337Y120768D01*
X-12326Y120832D01*
X-12310Y121002D01*
X-12298Y121360D01*
X-12297Y121507D01*
X-11903D01*
X-11902Y121360D01*
D02*
G37*
G36*
X-39107Y120077D02*
X-39121Y120040D01*
X-39133Y119989D01*
X-39144Y119925D01*
X-39160Y119755D01*
X-39172Y119397D01*
X-39173Y119250D01*
X-39567D01*
X-39568Y119397D01*
X-39607Y119989D01*
X-39619Y120040D01*
X-39633Y120077D01*
X-39649Y120100D01*
X-39092D01*
X-39107Y120077D01*
D02*
G37*
G36*
X8992Y118945D02*
X8941Y118981D01*
X8889Y119015D01*
X8837Y119044D01*
X8785Y119069D01*
X8731Y119090D01*
X8678Y119108D01*
X8623Y119121D01*
X8568Y119131D01*
X8513Y119137D01*
X8457Y119139D01*
Y119375D01*
X8513Y119377D01*
X8568Y119383D01*
X8623Y119393D01*
X8678Y119406D01*
X8731Y119424D01*
X8785Y119445D01*
X8837Y119470D01*
X8889Y119500D01*
X8941Y119533D01*
X8992Y119570D01*
Y118945D01*
D02*
G37*
G36*
X60356Y119134D02*
X60380Y118784D01*
X60395Y118690D01*
X60412Y118607D01*
X60433Y118535D01*
X60457Y118475D01*
X60484Y118426D01*
X60515Y118388D01*
X59958D01*
X59988Y118426D01*
X60015Y118475D01*
X60040Y118535D01*
X60060Y118607D01*
X60078Y118690D01*
X60093Y118784D01*
X60112Y119006D01*
X60118Y119273D01*
X60354D01*
X60356Y119134D01*
D02*
G37*
G36*
X-57401Y117601D02*
X-57959D01*
X-57953Y117614D01*
X-57948Y117643D01*
X-57944Y117686D01*
X-57935Y117908D01*
X-57930Y118414D01*
X-57430D01*
X-57401Y117601D01*
D02*
G37*
G36*
X-39172Y117025D02*
X-39133Y116432D01*
X-39121Y116382D01*
X-39107Y116345D01*
X-39091Y116322D01*
X-39649Y116322D01*
X-39633Y116345D01*
X-39619Y116382D01*
X-39607Y116432D01*
X-39596Y116497D01*
X-39580Y116667D01*
X-39568Y117025D01*
X-39567Y117172D01*
X-39173Y117172D01*
X-39172Y117025D01*
D02*
G37*
G36*
X-65924Y116969D02*
X-65900Y116619D01*
X-65885Y116525D01*
X-65868Y116442D01*
X-65847Y116370D01*
X-65823Y116310D01*
X-65795Y116261D01*
X-65765Y116223D01*
X-66322D01*
X-66291Y116261D01*
X-66264Y116310D01*
X-66240Y116370D01*
X-66219Y116442D01*
X-66202Y116525D01*
X-66187Y116619D01*
X-66168Y116841D01*
X-66162Y117108D01*
X-65925D01*
X-65924Y116969D01*
D02*
G37*
G36*
X-65795Y115629D02*
X-65823Y115580D01*
X-65847Y115519D01*
X-65868Y115448D01*
X-65885Y115365D01*
X-65900Y115271D01*
X-65924Y114921D01*
X-65925Y114782D01*
X-66162D01*
X-66168Y115049D01*
X-66187Y115271D01*
X-66202Y115365D01*
X-66219Y115448D01*
X-66240Y115519D01*
X-66264Y115580D01*
X-66291Y115629D01*
X-66322Y115667D01*
X-65765D01*
X-65795Y115629D01*
D02*
G37*
G36*
X52373Y114568D02*
X52322Y114562D01*
X52266Y114547D01*
X52206Y114522D01*
X52141Y114488D01*
X52072Y114445D01*
X51998Y114393D01*
X51837Y114260D01*
X51750Y114181D01*
X51658Y114091D01*
X51491Y114258D01*
X51581Y114350D01*
X51793Y114598D01*
X51845Y114672D01*
X51888Y114741D01*
X51922Y114806D01*
X51947Y114866D01*
X51962Y114922D01*
X51968Y114973D01*
X52373Y114568D01*
D02*
G37*
G36*
X12099Y114470D02*
X12199Y114407D01*
X12247Y114382D01*
X12293Y114360D01*
X12338Y114343D01*
X12382Y114329D01*
X12425Y114319D01*
X12467Y114313D01*
X12507Y114311D01*
Y114075D01*
X12467Y114073D01*
X12425Y114067D01*
X12382Y114057D01*
X12338Y114043D01*
X12293Y114026D01*
X12247Y114004D01*
X12199Y113979D01*
X12099Y113916D01*
X12048Y113878D01*
Y114508D01*
X12099Y114470D01*
D02*
G37*
G36*
X-37130Y114258D02*
X-37144Y114221D01*
X-37157Y114171D01*
X-37167Y114106D01*
X-37183Y113936D01*
X-37196Y113578D01*
X-37196Y113431D01*
X-37590D01*
X-37591Y113578D01*
X-37630Y114171D01*
X-37642Y114221D01*
X-37656Y114258D01*
X-37672Y114282D01*
X-37115D01*
X-37130Y114258D01*
D02*
G37*
G36*
X-2885Y113901D02*
X-2924Y113859D01*
X-2959Y113806D01*
X-2990Y113743D01*
X-3016Y113670D01*
X-3039Y113587D01*
X-3058Y113493D01*
X-3072Y113389D01*
X-3088Y113151D01*
X-3091Y113016D01*
X-3327Y113054D01*
X-3328Y113197D01*
X-3356Y113647D01*
X-3368Y113728D01*
X-3383Y113797D01*
X-3401Y113854D01*
X-3420Y113898D01*
X-3442Y113929D01*
X-2885Y113901D01*
D02*
G37*
G36*
X64441Y113070D02*
X64414Y113021D01*
X64390Y112961D01*
X64369Y112889D01*
X64351Y112806D01*
X64337Y112712D01*
X64317Y112490D01*
X64311Y112223D01*
X64075D01*
X64073Y112362D01*
X64049Y112712D01*
X64035Y112806D01*
X64017Y112889D01*
X63996Y112961D01*
X63972Y113021D01*
X63945Y113070D01*
X63914Y113108D01*
X64471D01*
X64441Y113070D01*
D02*
G37*
G36*
X-37196Y110475D02*
X-37196Y110327D01*
X-37159Y109736D01*
X-37148Y109686D01*
X-37135Y109649D01*
X-37120Y109627D01*
X-37677Y109630D01*
X-37661Y109654D01*
X-37646Y109692D01*
X-37633Y109743D01*
X-37622Y109808D01*
X-37604Y109978D01*
X-37594Y110203D01*
X-37590Y110483D01*
X-37196Y110475D01*
D02*
G37*
G36*
X-65924Y110276D02*
X-65900Y109926D01*
X-65885Y109832D01*
X-65868Y109749D01*
X-65847Y109677D01*
X-65823Y109617D01*
X-65795Y109568D01*
X-65765Y109530D01*
X-66322D01*
X-66291Y109568D01*
X-66264Y109617D01*
X-66240Y109677D01*
X-66219Y109749D01*
X-66202Y109832D01*
X-66187Y109926D01*
X-66168Y110148D01*
X-66162Y110415D01*
X-65925D01*
X-65924Y110276D01*
D02*
G37*
G36*
X-65795Y108936D02*
X-65823Y108887D01*
X-65847Y108827D01*
X-65868Y108755D01*
X-65885Y108672D01*
X-65900Y108578D01*
X-65924Y108228D01*
X-65925Y108089D01*
X-66162D01*
X-66168Y108356D01*
X-66187Y108578D01*
X-66202Y108672D01*
X-66219Y108755D01*
X-66240Y108827D01*
X-66264Y108887D01*
X-66291Y108936D01*
X-66322Y108974D01*
X-65765D01*
X-65795Y108936D01*
D02*
G37*
G36*
X56742Y107164D02*
X56715Y107115D01*
X56691Y107055D01*
X56670Y106983D01*
X56652Y106901D01*
X56638Y106807D01*
X56619Y106585D01*
X56612Y106317D01*
X56376D01*
X56375Y106457D01*
X56350Y106807D01*
X56336Y106901D01*
X56318Y106983D01*
X56297Y107055D01*
X56273Y107115D01*
X56246Y107164D01*
X56216Y107202D01*
X56773D01*
X56742Y107164D01*
D02*
G37*
G36*
X51695Y105112D02*
X51719Y104762D01*
X51733Y104668D01*
X51751Y104585D01*
X51772Y104514D01*
X51796Y104453D01*
X51823Y104404D01*
X51853Y104367D01*
X51296D01*
X51327Y104404D01*
X51354Y104453D01*
X51378Y104514D01*
X51399Y104585D01*
X51417Y104668D01*
X51431Y104762D01*
X51450Y104984D01*
X51457Y105251D01*
X51693D01*
X51695Y105112D01*
D02*
G37*
G36*
X39518Y105222D02*
X39519Y105078D01*
X39557Y104547D01*
X39571Y104479D01*
X39587Y104423D01*
X39605Y104380D01*
X39626Y104349D01*
X39068Y104382D01*
X39109Y104425D01*
X39145Y104478D01*
X39177Y104542D01*
X39205Y104615D01*
X39228Y104699D01*
X39248Y104792D01*
X39263Y104895D01*
X39280Y105133D01*
X39282Y105266D01*
X39518Y105222D01*
D02*
G37*
G36*
X12915Y104764D02*
X12939Y104414D01*
X12954Y104320D01*
X12971Y104237D01*
X12992Y104165D01*
X13016Y104105D01*
X13043Y104056D01*
X13074Y104018D01*
X12517D01*
X12547Y104056D01*
X12574Y104105D01*
X12598Y104165D01*
X12619Y104237D01*
X12637Y104320D01*
X12652Y104414D01*
X12671Y104636D01*
X12677Y104903D01*
X12913D01*
X12915Y104764D01*
D02*
G37*
G36*
X-2439D02*
X-2415Y104414D01*
X-2401Y104320D01*
X-2383Y104237D01*
X-2362Y104165D01*
X-2338Y104105D01*
X-2311Y104056D01*
X-2280Y104018D01*
X-2837D01*
X-2807Y104056D01*
X-2780Y104105D01*
X-2756Y104165D01*
X-2735Y104237D01*
X-2717Y104320D01*
X-2703Y104414D01*
X-2684Y104636D01*
X-2677Y104903D01*
X-2441D01*
X-2439Y104764D01*
D02*
G37*
G36*
X51823Y103772D02*
X51796Y103723D01*
X51772Y103663D01*
X51751Y103592D01*
X51733Y103509D01*
X51719Y103415D01*
X51699Y103192D01*
X51693Y102925D01*
X51457D01*
X51455Y103065D01*
X51431Y103415D01*
X51417Y103509D01*
X51399Y103592D01*
X51378Y103663D01*
X51354Y103723D01*
X51327Y103772D01*
X51296Y103810D01*
X51853D01*
X51823Y103772D01*
D02*
G37*
G36*
X21034Y101427D02*
X21057Y101077D01*
X21072Y100983D01*
X21090Y100900D01*
X21111Y100829D01*
X21135Y100768D01*
X21162Y100719D01*
X21192Y100682D01*
X20635D01*
X20666Y100719D01*
X20693Y100768D01*
X20717Y100829D01*
X20738Y100900D01*
X20755Y100983D01*
X20770Y101077D01*
X20789Y101299D01*
X20796Y101566D01*
X21032D01*
X21034Y101427D01*
D02*
G37*
G36*
X53890Y100121D02*
X53862Y100072D01*
X53838Y100012D01*
X53817Y99940D01*
X53800Y99857D01*
X53785Y99763D01*
X53766Y99541D01*
X53760Y99274D01*
X53523D01*
X53522Y99413D01*
X53498Y99763D01*
X53483Y99857D01*
X53466Y99940D01*
X53445Y100012D01*
X53421Y100072D01*
X53394Y100121D01*
X53363Y100159D01*
X53920D01*
X53890Y100121D01*
D02*
G37*
G36*
X-26766Y100056D02*
X-26750Y100020D01*
X-26723Y99975D01*
X-26685Y99922D01*
X-26576Y99791D01*
X-26331Y99529D01*
X-26228Y99424D01*
X-26507Y99146D01*
X-26611Y99249D01*
X-27058Y99640D01*
X-27102Y99668D01*
X-27138Y99684D01*
X-27166Y99689D01*
X-26772Y100083D01*
X-26766Y100056D01*
D02*
G37*
G36*
X52679Y99646D02*
X52703Y99296D01*
X52717Y99202D01*
X52735Y99119D01*
X52756Y99047D01*
X52780Y98987D01*
X52807Y98938D01*
X52838Y98900D01*
X52280D01*
X52311Y98938D01*
X52338Y98987D01*
X52362Y99047D01*
X52383Y99119D01*
X52401Y99202D01*
X52415Y99296D01*
X52434Y99518D01*
X52441Y99785D01*
X52677D01*
X52679Y99646D01*
D02*
G37*
G36*
X56614Y99647D02*
X56638Y99297D01*
X56653Y99203D01*
X56671Y99120D01*
X56692Y99048D01*
X56716Y98988D01*
X56743Y98939D01*
X56774Y98901D01*
X56217Y98900D01*
X56247Y98937D01*
X56274Y98986D01*
X56298Y99046D01*
X56319Y99118D01*
X56336Y99201D01*
X56351Y99295D01*
X56370Y99517D01*
X56376Y99784D01*
X56612Y99786D01*
X56614Y99647D01*
D02*
G37*
G36*
X55632Y98662D02*
X55656Y98312D01*
X55670Y98217D01*
X55688Y98135D01*
X55709Y98063D01*
X55733Y98003D01*
X55760Y97954D01*
X55790Y97916D01*
X55233D01*
X55264Y97954D01*
X55291Y98003D01*
X55315Y98063D01*
X55336Y98135D01*
X55354Y98217D01*
X55368Y98312D01*
X55387Y98534D01*
X55394Y98801D01*
X55630D01*
X55632Y98662D01*
D02*
G37*
G36*
X80400Y96506D02*
X80352Y96501D01*
X80298Y96486D01*
X80238Y96460D01*
X80173Y96424D01*
X80102Y96378D01*
X80025Y96322D01*
X79855Y96179D01*
X79661Y95994D01*
X79494Y96161D01*
X79591Y96261D01*
X79822Y96525D01*
X79878Y96602D01*
X79924Y96673D01*
X79960Y96738D01*
X79986Y96798D01*
X80001Y96852D01*
X80006Y96900D01*
X80400Y96506D01*
D02*
G37*
G36*
X57402Y95424D02*
X57305Y95324D01*
X57074Y95060D01*
X57018Y94983D01*
X56972Y94912D01*
X56936Y94847D01*
X56910Y94787D01*
X56895Y94733D01*
X56890Y94685D01*
X56496Y95079D01*
X56544Y95084D01*
X56598Y95099D01*
X56658Y95125D01*
X56723Y95161D01*
X56794Y95207D01*
X56871Y95263D01*
X57042Y95407D01*
X57235Y95591D01*
X57402Y95424D01*
D02*
G37*
G36*
X53465D02*
X53368Y95324D01*
X53137Y95060D01*
X53081Y94983D01*
X53035Y94912D01*
X52999Y94847D01*
X52973Y94787D01*
X52958Y94733D01*
X52953Y94685D01*
X52559Y95079D01*
X52607Y95084D01*
X52661Y95099D01*
X52721Y95125D01*
X52786Y95161D01*
X52857Y95207D01*
X52934Y95263D01*
X53105Y95407D01*
X53298Y95591D01*
X53465Y95424D01*
D02*
G37*
G36*
X79520Y94524D02*
X79544Y94174D01*
X79558Y94080D01*
X79576Y93997D01*
X79597Y93925D01*
X79621Y93865D01*
X79648Y93816D01*
X79679Y93778D01*
X79121D01*
X79152Y93816D01*
X79179Y93865D01*
X79203Y93925D01*
X79224Y93997D01*
X79242Y94080D01*
X79256Y94174D01*
X79276Y94396D01*
X79282Y94663D01*
X79518D01*
X79520Y94524D01*
D02*
G37*
G36*
X35539Y93637D02*
X35521Y93599D01*
X35505Y93552D01*
X35491Y93497D01*
X35480Y93434D01*
X35462Y93283D01*
X35454Y93099D01*
X35453Y92994D01*
X35059D01*
X35058Y93099D01*
X35032Y93434D01*
X35020Y93497D01*
X35006Y93552D01*
X34990Y93599D01*
X34972Y93637D01*
X34952Y93667D01*
X35560D01*
X35539Y93637D01*
D02*
G37*
G36*
X-24511Y92763D02*
X-24064Y92372D01*
X-24020Y92345D01*
X-23984Y92328D01*
X-23956Y92323D01*
X-24351Y91929D01*
X-24356Y91956D01*
X-24372Y91992D01*
X-24399Y92037D01*
X-24437Y92090D01*
X-24546Y92222D01*
X-24791Y92484D01*
X-24894Y92588D01*
X-24615Y92866D01*
X-24511Y92763D01*
D02*
G37*
G36*
X65822Y90721D02*
X65837Y90663D01*
X65859Y90603D01*
X65887Y90541D01*
X65924Y90477D01*
X65967Y90411D01*
X66017Y90343D01*
X66139Y90201D01*
X66211Y90126D01*
X66044Y89959D01*
X65969Y90031D01*
X65827Y90153D01*
X65759Y90203D01*
X65693Y90246D01*
X65629Y90282D01*
X65567Y90311D01*
X65507Y90333D01*
X65449Y90348D01*
X65393Y90355D01*
X65815Y90777D01*
X65822Y90721D01*
D02*
G37*
G36*
X67374Y88464D02*
X67347Y88415D01*
X67323Y88354D01*
X67302Y88283D01*
X67284Y88200D01*
X67270Y88106D01*
X67251Y87884D01*
X67244Y87617D01*
X67008D01*
X67006Y87756D01*
X66982Y88106D01*
X66968Y88200D01*
X66950Y88283D01*
X66929Y88354D01*
X66905Y88415D01*
X66878Y88464D01*
X66847Y88501D01*
X67405D01*
X67374Y88464D01*
D02*
G37*
G36*
X72295Y87164D02*
X72268Y87115D01*
X72244Y87055D01*
X72223Y86983D01*
X72206Y86901D01*
X72191Y86806D01*
X72172Y86584D01*
X72165Y86317D01*
X71929D01*
X71927Y86457D01*
X71904Y86806D01*
X71889Y86901D01*
X71871Y86983D01*
X71851Y87055D01*
X71826Y87115D01*
X71799Y87164D01*
X71769Y87202D01*
X72326D01*
X72295Y87164D01*
D02*
G37*
G36*
X58740Y80615D02*
X58707Y80564D01*
X58678Y80512D01*
X58653Y80460D01*
X58631Y80407D01*
X58614Y80354D01*
X58600Y80300D01*
X58591Y80247D01*
X58585Y80192D01*
X58583Y80138D01*
X58346D01*
X58345Y80192D01*
X58339Y80247D01*
X58329Y80300D01*
X58315Y80354D01*
X58298Y80407D01*
X58276Y80460D01*
X58251Y80512D01*
X58222Y80564D01*
X58189Y80615D01*
X58152Y80666D01*
X58777D01*
X58740Y80615D01*
D02*
G37*
G36*
X52679Y79961D02*
X52703Y79611D01*
X52717Y79517D01*
X52735Y79434D01*
X52756Y79362D01*
X52780Y79302D01*
X52807Y79253D01*
X52838Y79215D01*
X52280D01*
X52311Y79253D01*
X52338Y79302D01*
X52362Y79362D01*
X52383Y79434D01*
X52401Y79517D01*
X52415Y79611D01*
X52434Y79833D01*
X52441Y80100D01*
X52677D01*
X52679Y79961D01*
D02*
G37*
G36*
X33543Y79722D02*
X33582Y79129D01*
X33595Y79079D01*
X33608Y79042D01*
X33624Y79018D01*
X33067D01*
X33082Y79042D01*
X33096Y79079D01*
X33109Y79129D01*
X33119Y79194D01*
X33136Y79364D01*
X33148Y79722D01*
X33149Y79869D01*
X33542D01*
X33543Y79722D01*
D02*
G37*
G36*
X36449Y77008D02*
X36473Y76658D01*
X36488Y76564D01*
X36505Y76481D01*
X36526Y76410D01*
X36550Y76349D01*
X36578Y76300D01*
X36608Y76262D01*
X36051D01*
X36081Y76300D01*
X36109Y76349D01*
X36133Y76410D01*
X36154Y76481D01*
X36171Y76564D01*
X36186Y76658D01*
X36205Y76880D01*
X36211Y77147D01*
X36448D01*
X36449Y77008D01*
D02*
G37*
G36*
X7206Y76221D02*
X7230Y75871D01*
X7245Y75776D01*
X7262Y75694D01*
X7283Y75622D01*
X7307Y75562D01*
X7335Y75513D01*
X7365Y75475D01*
X6808D01*
X6839Y75513D01*
X6866Y75562D01*
X6890Y75622D01*
X6911Y75694D01*
X6928Y75776D01*
X6943Y75871D01*
X6962Y76093D01*
X6968Y76360D01*
X7205D01*
X7206Y76221D01*
D02*
G37*
G36*
X59569Y75278D02*
X59593Y74928D01*
X59607Y74834D01*
X59625Y74752D01*
X59646Y74680D01*
X59670Y74620D01*
X59697Y74571D01*
X59727Y74533D01*
X59170D01*
X59201Y74571D01*
X59228Y74620D01*
X59252Y74680D01*
X59273Y74752D01*
X59291Y74834D01*
X59305Y74928D01*
X59324Y75151D01*
X59331Y75418D01*
X59567D01*
X59569Y75278D01*
D02*
G37*
G36*
X64311Y75396D02*
X64312Y75255D01*
X64335Y74904D01*
X64348Y74809D01*
X64364Y74727D01*
X64384Y74656D01*
X64406Y74597D01*
X64431Y74549D01*
X64459Y74512D01*
X63902Y74520D01*
X63935Y74559D01*
X63964Y74610D01*
X63990Y74671D01*
X64012Y74743D01*
X64031Y74826D01*
X64047Y74920D01*
X64068Y75141D01*
X64073Y75268D01*
X64075Y75406D01*
X64311Y75396D01*
D02*
G37*
G36*
X-146850Y72397D02*
X-147348Y72188D01*
X-147580Y72284D01*
X-147831D01*
X-148062Y72188D01*
X-148239Y72010D01*
X-148335Y71779D01*
Y71528D01*
X-148239Y71297D01*
X-148062Y71120D01*
X-147831Y71024D01*
X-147580D01*
X-147348Y71120D01*
X-146850Y70911D01*
Y39370D01*
X-178685D01*
X-178685Y45807D01*
X-157559D01*
X-157378Y45882D01*
X-157303Y46063D01*
Y73622D01*
X-157378Y73803D01*
X-157559Y73878D01*
X-178685D01*
X-178685Y80709D01*
X-146850D01*
Y72397D01*
D02*
G37*
G36*
X-65924Y69095D02*
X-65900Y68745D01*
X-65885Y68651D01*
X-65868Y68568D01*
X-65847Y68496D01*
X-65823Y68436D01*
X-65795Y68387D01*
X-65765Y68349D01*
X-66322D01*
X-66291Y68387D01*
X-66264Y68436D01*
X-66240Y68496D01*
X-66219Y68568D01*
X-66202Y68651D01*
X-66187Y68745D01*
X-66168Y68967D01*
X-66162Y69234D01*
X-65925D01*
X-65924Y69095D01*
D02*
G37*
G36*
X72167Y67522D02*
X72195Y67175D01*
X72211Y67081D01*
X72231Y66998D01*
X72255Y66925D01*
X72282Y66864D01*
X72314Y66813D01*
X72348Y66772D01*
X71791Y66758D01*
X71817Y66793D01*
X71841Y66840D01*
X71862Y66899D01*
X71880Y66969D01*
X71895Y67051D01*
X71917Y67251D01*
X71928Y67498D01*
X71929Y67640D01*
X72165Y67658D01*
X72167Y67522D01*
D02*
G37*
G36*
X-73617Y66881D02*
X-73602Y66827D01*
X-73576Y66768D01*
X-73540Y66702D01*
X-73494Y66631D01*
X-73438Y66554D01*
X-73294Y66384D01*
X-73110Y66190D01*
X-73277Y66023D01*
X-73377Y66121D01*
X-73641Y66351D01*
X-73718Y66407D01*
X-73789Y66453D01*
X-73854Y66489D01*
X-73914Y66515D01*
X-73968Y66530D01*
X-74016Y66536D01*
X-73622Y66929D01*
X-73617Y66881D01*
D02*
G37*
G36*
X-72321Y64803D02*
X-72297Y64453D01*
X-72283Y64359D01*
X-72265Y64276D01*
X-72244Y64205D01*
X-72220Y64145D01*
X-72193Y64096D01*
X-72162Y64058D01*
X-72720D01*
X-72689Y64096D01*
X-72662Y64145D01*
X-72638Y64205D01*
X-72617Y64276D01*
X-72599Y64359D01*
X-72585Y64453D01*
X-72566Y64675D01*
X-72559Y64943D01*
X-72323D01*
X-72321Y64803D01*
D02*
G37*
G36*
X67246Y64556D02*
X67263Y64319D01*
X67278Y64215D01*
X67297Y64122D01*
X67320Y64038D01*
X67347Y63965D01*
X67379Y63902D01*
X67415Y63849D01*
X67455Y63806D01*
X66898Y63775D01*
X66919Y63806D01*
X66937Y63849D01*
X66954Y63905D01*
X66968Y63974D01*
X66980Y64055D01*
X66998Y64255D01*
X67007Y64505D01*
X67008Y64648D01*
X67244Y64691D01*
X67246Y64556D01*
D02*
G37*
G36*
X66211Y59244D02*
X66176Y59207D01*
X66145Y59167D01*
X66116Y59125D01*
X66090Y59079D01*
X66067Y59031D01*
X66046Y58980D01*
X66028Y58926D01*
X66013Y58869D01*
X66000Y58809D01*
X65990Y58747D01*
X65547Y59190D01*
X65609Y59200D01*
X65726Y59228D01*
X65780Y59246D01*
X65831Y59267D01*
X65879Y59290D01*
X65925Y59316D01*
X65967Y59345D01*
X66007Y59377D01*
X66044Y59411D01*
X66211Y59244D01*
D02*
G37*
G36*
X-109600Y64173D02*
Y55300D01*
X-123900D01*
Y64173D01*
X-109600Y64173D01*
D02*
G37*
G36*
X-2378Y52896D02*
X-2392Y52902D01*
X-2420Y52907D01*
X-2463Y52911D01*
X-2685Y52920D01*
X-3192Y52925D01*
Y53425D01*
X-2378Y53453D01*
Y52896D01*
D02*
G37*
G36*
X13059Y51162D02*
X13027Y51110D01*
X12999Y51056D01*
X12974Y51001D01*
X12954Y50943D01*
X12937Y50884D01*
X12924Y50822D01*
X12914Y50759D01*
X12909Y50693D01*
X12907Y50626D01*
X12671D01*
X12669Y50691D01*
X12663Y50755D01*
X12653Y50818D01*
X12639Y50878D01*
X12622Y50937D01*
X12600Y50994D01*
X12574Y51050D01*
X12545Y51104D01*
X12511Y51156D01*
X12474Y51206D01*
X13094Y51211D01*
X13059Y51162D01*
D02*
G37*
G36*
X35208Y49045D02*
X35203Y49017D01*
X35199Y48973D01*
X35190Y48752D01*
X35185Y48245D01*
X34685D01*
X34657Y49058D01*
X35214D01*
X35208Y49045D01*
D02*
G37*
G36*
X11242Y48812D02*
X11266Y48462D01*
X11281Y48368D01*
X11298Y48285D01*
X11319Y48213D01*
X11344Y48152D01*
X11371Y48103D01*
X11402Y48065D01*
X10842D01*
X10873Y48103D01*
X10900Y48152D01*
X10925Y48213D01*
X10946Y48285D01*
X10964Y48368D01*
X10978Y48462D01*
X10998Y48684D01*
X11004Y48950D01*
X11240D01*
X11242Y48812D01*
D02*
G37*
G36*
X34216Y34257D02*
X33661Y33661D01*
X33267Y34055D01*
X33281Y34061D01*
X33304Y34077D01*
X33338Y34105D01*
X33501Y34255D01*
X33863Y34610D01*
X34216Y34257D01*
D02*
G37*
G36*
X33541Y33370D02*
X33536Y33342D01*
X33532Y33298D01*
X33522Y33077D01*
X33520Y32831D01*
X33546Y32085D01*
X32989D01*
X32994Y32098D01*
X32999Y32126D01*
X33004Y32170D01*
X33013Y32391D01*
X33015Y32637D01*
X32989Y33383D01*
X33546D01*
X33541Y33370D01*
D02*
G37*
%LPC*%
G36*
X38578Y224413D02*
X38327D01*
X38096Y224318D01*
X37918Y224140D01*
X37822Y223909D01*
Y223658D01*
X37918Y223427D01*
X38096Y223250D01*
X38327Y223154D01*
X38578D01*
X38809Y223250D01*
X38986Y223427D01*
X39082Y223658D01*
Y223909D01*
X38986Y224140D01*
X38809Y224318D01*
X38578Y224413D01*
D02*
G37*
G36*
X36476D02*
X36225D01*
X35994Y224318D01*
X35816Y224140D01*
X35721Y223909D01*
Y223658D01*
X35816Y223427D01*
X35994Y223250D01*
X36225Y223154D01*
X36476D01*
X36707Y223250D01*
X36884Y223427D01*
X36980Y223658D01*
Y223909D01*
X36884Y224140D01*
X36707Y224318D01*
X36476Y224413D01*
D02*
G37*
G36*
X27578D02*
X27327D01*
X27096Y224318D01*
X26918Y224140D01*
X26823Y223909D01*
Y223658D01*
X26918Y223427D01*
X27096Y223250D01*
X27327Y223154D01*
X27578D01*
X27809Y223250D01*
X27986Y223427D01*
X28082Y223658D01*
Y223909D01*
X27986Y224140D01*
X27809Y224318D01*
X27578Y224413D01*
D02*
G37*
G36*
X25476D02*
X25225D01*
X24994Y224318D01*
X24816Y224140D01*
X24721Y223909D01*
Y223658D01*
X24816Y223427D01*
X24994Y223250D01*
X25225Y223154D01*
X25476D01*
X25707Y223250D01*
X25884Y223427D01*
X25980Y223658D01*
Y223909D01*
X25884Y224140D01*
X25707Y224318D01*
X25476Y224413D01*
D02*
G37*
G36*
X17578D02*
X17327D01*
X17096Y224318D01*
X16918Y224140D01*
X16823Y223909D01*
Y223658D01*
X16918Y223427D01*
X17096Y223250D01*
X17327Y223154D01*
X17578D01*
X17809Y223250D01*
X17986Y223427D01*
X18082Y223658D01*
Y223909D01*
X17986Y224140D01*
X17809Y224318D01*
X17578Y224413D01*
D02*
G37*
G36*
X15476D02*
X15225D01*
X14994Y224318D01*
X14816Y224140D01*
X14720Y223909D01*
Y223658D01*
X14816Y223427D01*
X14994Y223250D01*
X15225Y223154D01*
X15476D01*
X15707Y223250D01*
X15885Y223427D01*
X15980Y223658D01*
Y223909D01*
X15885Y224140D01*
X15707Y224318D01*
X15476Y224413D01*
D02*
G37*
G36*
X7577D02*
X7327D01*
X7095Y224318D01*
X6918Y224140D01*
X6822Y223909D01*
Y223658D01*
X6918Y223427D01*
X7095Y223250D01*
X7327Y223154D01*
X7577D01*
X7809Y223250D01*
X7986Y223427D01*
X8082Y223658D01*
Y223909D01*
X7986Y224140D01*
X7809Y224318D01*
X7577Y224413D01*
D02*
G37*
G36*
X5475D02*
X5225D01*
X4993Y224318D01*
X4816Y224140D01*
X4720Y223909D01*
Y223658D01*
X4816Y223427D01*
X4993Y223250D01*
X5225Y223154D01*
X5475D01*
X5707Y223250D01*
X5884Y223427D01*
X5980Y223658D01*
Y223909D01*
X5884Y224140D01*
X5707Y224318D01*
X5475Y224413D01*
D02*
G37*
G36*
X-4144Y224379D02*
X-4395D01*
X-4627Y224283D01*
X-4804Y224106D01*
X-4900Y223874D01*
Y223624D01*
X-4804Y223392D01*
X-4627Y223215D01*
X-4395Y223119D01*
X-4144D01*
X-3913Y223215D01*
X-3736Y223392D01*
X-3640Y223624D01*
Y223874D01*
X-3736Y224106D01*
X-3913Y224283D01*
X-4144Y224379D01*
D02*
G37*
G36*
X-6247D02*
X-6497D01*
X-6729Y224283D01*
X-6906Y224106D01*
X-7002Y223874D01*
Y223624D01*
X-6906Y223392D01*
X-6729Y223215D01*
X-6497Y223119D01*
X-6247D01*
X-6015Y223215D01*
X-5838Y223392D01*
X-5742Y223624D01*
Y223874D01*
X-5838Y224106D01*
X-6015Y224283D01*
X-6247Y224379D01*
D02*
G37*
G36*
X-13987D02*
X-14238D01*
X-14469Y224283D01*
X-14646Y224106D01*
X-14742Y223874D01*
Y223624D01*
X-14646Y223392D01*
X-14469Y223215D01*
X-14238Y223119D01*
X-13987D01*
X-13755Y223215D01*
X-13578Y223392D01*
X-13482Y223624D01*
Y223874D01*
X-13578Y224106D01*
X-13755Y224283D01*
X-13987Y224379D01*
D02*
G37*
G36*
X-16089D02*
X-16340D01*
X-16571Y224283D01*
X-16748Y224106D01*
X-16844Y223874D01*
Y223624D01*
X-16748Y223392D01*
X-16571Y223215D01*
X-16340Y223119D01*
X-16089D01*
X-15857Y223215D01*
X-15680Y223392D01*
X-15584Y223624D01*
Y223874D01*
X-15680Y224106D01*
X-15857Y224283D01*
X-16089Y224379D01*
D02*
G37*
G36*
X-24178D02*
X-24428D01*
X-24660Y224283D01*
X-24837Y224106D01*
X-24933Y223874D01*
Y223624D01*
X-24837Y223392D01*
X-24660Y223215D01*
X-24428Y223119D01*
X-24178D01*
X-23946Y223215D01*
X-23769Y223392D01*
X-23673Y223624D01*
Y223874D01*
X-23769Y224106D01*
X-23946Y224283D01*
X-24178Y224379D01*
D02*
G37*
G36*
X-26280D02*
X-26530D01*
X-26762Y224283D01*
X-26939Y224106D01*
X-27035Y223874D01*
Y223624D01*
X-26939Y223392D01*
X-26762Y223215D01*
X-26530Y223119D01*
X-26280D01*
X-26048Y223215D01*
X-25871Y223392D01*
X-25775Y223624D01*
Y223874D01*
X-25871Y224106D01*
X-26048Y224283D01*
X-26280Y224379D01*
D02*
G37*
G36*
X-35175D02*
X-35425D01*
X-35657Y224283D01*
X-35834Y224106D01*
X-35930Y223874D01*
Y223624D01*
X-35834Y223392D01*
X-35657Y223215D01*
X-35425Y223119D01*
X-35175D01*
X-34943Y223215D01*
X-34766Y223392D01*
X-34670Y223624D01*
Y223874D01*
X-34766Y224106D01*
X-34943Y224283D01*
X-35175Y224379D01*
D02*
G37*
G36*
X-37277D02*
X-37527D01*
X-37759Y224283D01*
X-37936Y224106D01*
X-38032Y223874D01*
Y223624D01*
X-37936Y223392D01*
X-37759Y223215D01*
X-37527Y223119D01*
X-37277D01*
X-37045Y223215D01*
X-36868Y223392D01*
X-36772Y223624D01*
Y223874D01*
X-36868Y224106D01*
X-37045Y224283D01*
X-37277Y224379D01*
D02*
G37*
G36*
X-4144Y222422D02*
X-4395D01*
X-4627Y222326D01*
X-4804Y222149D01*
X-4900Y221917D01*
Y221667D01*
X-4804Y221435D01*
X-4627Y221258D01*
X-4395Y221162D01*
X-4144D01*
X-3913Y221258D01*
X-3736Y221435D01*
X-3640Y221667D01*
Y221917D01*
X-3736Y222149D01*
X-3913Y222326D01*
X-4144Y222422D01*
D02*
G37*
G36*
X-6247D02*
X-6497D01*
X-6729Y222326D01*
X-6906Y222149D01*
X-7002Y221917D01*
Y221667D01*
X-6906Y221435D01*
X-6729Y221258D01*
X-6497Y221162D01*
X-6247D01*
X-6015Y221258D01*
X-5838Y221435D01*
X-5742Y221667D01*
Y221917D01*
X-5838Y222149D01*
X-6015Y222326D01*
X-6247Y222422D01*
D02*
G37*
G36*
X-13987D02*
X-14238D01*
X-14469Y222326D01*
X-14646Y222149D01*
X-14742Y221917D01*
Y221667D01*
X-14646Y221435D01*
X-14469Y221258D01*
X-14238Y221162D01*
X-13987D01*
X-13755Y221258D01*
X-13578Y221435D01*
X-13482Y221667D01*
Y221917D01*
X-13578Y222149D01*
X-13755Y222326D01*
X-13987Y222422D01*
D02*
G37*
G36*
X-16089D02*
X-16340D01*
X-16571Y222326D01*
X-16748Y222149D01*
X-16844Y221917D01*
Y221667D01*
X-16748Y221435D01*
X-16571Y221258D01*
X-16340Y221162D01*
X-16089D01*
X-15857Y221258D01*
X-15680Y221435D01*
X-15584Y221667D01*
Y221917D01*
X-15680Y222149D01*
X-15857Y222326D01*
X-16089Y222422D01*
D02*
G37*
G36*
X-24178D02*
X-24428D01*
X-24660Y222326D01*
X-24837Y222149D01*
X-24933Y221917D01*
Y221667D01*
X-24837Y221435D01*
X-24660Y221258D01*
X-24428Y221162D01*
X-24178D01*
X-23946Y221258D01*
X-23769Y221435D01*
X-23673Y221667D01*
Y221917D01*
X-23769Y222149D01*
X-23946Y222326D01*
X-24178Y222422D01*
D02*
G37*
G36*
X-26280D02*
X-26530D01*
X-26762Y222326D01*
X-26939Y222149D01*
X-27035Y221917D01*
Y221667D01*
X-26939Y221435D01*
X-26762Y221258D01*
X-26530Y221162D01*
X-26280D01*
X-26048Y221258D01*
X-25871Y221435D01*
X-25775Y221667D01*
Y221917D01*
X-25871Y222149D01*
X-26048Y222326D01*
X-26280Y222422D01*
D02*
G37*
G36*
X-35175D02*
X-35425D01*
X-35657Y222326D01*
X-35834Y222149D01*
X-35930Y221917D01*
Y221667D01*
X-35834Y221435D01*
X-35657Y221258D01*
X-35425Y221162D01*
X-35175D01*
X-34943Y221258D01*
X-34766Y221435D01*
X-34670Y221667D01*
Y221917D01*
X-34766Y222149D01*
X-34943Y222326D01*
X-35175Y222422D01*
D02*
G37*
G36*
X-37277D02*
X-37527D01*
X-37759Y222326D01*
X-37936Y222149D01*
X-38032Y221917D01*
Y221667D01*
X-37936Y221435D01*
X-37759Y221258D01*
X-37527Y221162D01*
X-37277D01*
X-37045Y221258D01*
X-36868Y221435D01*
X-36772Y221667D01*
Y221917D01*
X-36868Y222149D01*
X-37045Y222326D01*
X-37277Y222422D01*
D02*
G37*
G36*
X38578Y222422D02*
X38327D01*
X38096Y222326D01*
X37918Y222149D01*
X37822Y221917D01*
Y221667D01*
X37918Y221435D01*
X38096Y221258D01*
X38327Y221162D01*
X38578D01*
X38809Y221258D01*
X38986Y221435D01*
X39082Y221667D01*
Y221917D01*
X38986Y222149D01*
X38809Y222326D01*
X38578Y222422D01*
D02*
G37*
G36*
X36476D02*
X36225D01*
X35994Y222326D01*
X35816Y222149D01*
X35721Y221917D01*
Y221667D01*
X35816Y221435D01*
X35994Y221258D01*
X36225Y221162D01*
X36476D01*
X36707Y221258D01*
X36884Y221435D01*
X36980Y221667D01*
Y221917D01*
X36884Y222149D01*
X36707Y222326D01*
X36476Y222422D01*
D02*
G37*
G36*
X27578D02*
X27327D01*
X27096Y222326D01*
X26918Y222149D01*
X26823Y221917D01*
Y221667D01*
X26918Y221435D01*
X27096Y221258D01*
X27327Y221162D01*
X27578D01*
X27809Y221258D01*
X27986Y221435D01*
X28082Y221667D01*
Y221917D01*
X27986Y222149D01*
X27809Y222326D01*
X27578Y222422D01*
D02*
G37*
G36*
X25476D02*
X25225D01*
X24994Y222326D01*
X24816Y222149D01*
X24721Y221917D01*
Y221667D01*
X24816Y221435D01*
X24994Y221258D01*
X25225Y221162D01*
X25476D01*
X25707Y221258D01*
X25884Y221435D01*
X25980Y221667D01*
Y221917D01*
X25884Y222149D01*
X25707Y222326D01*
X25476Y222422D01*
D02*
G37*
G36*
X17578D02*
X17327D01*
X17096Y222326D01*
X16918Y222149D01*
X16823Y221917D01*
Y221667D01*
X16918Y221435D01*
X17096Y221258D01*
X17327Y221162D01*
X17578D01*
X17809Y221258D01*
X17986Y221435D01*
X18082Y221667D01*
Y221917D01*
X17986Y222149D01*
X17809Y222326D01*
X17578Y222422D01*
D02*
G37*
G36*
X15476D02*
X15225D01*
X14994Y222326D01*
X14816Y222149D01*
X14720Y221917D01*
Y221667D01*
X14816Y221435D01*
X14994Y221258D01*
X15225Y221162D01*
X15476D01*
X15707Y221258D01*
X15885Y221435D01*
X15980Y221667D01*
Y221917D01*
X15885Y222149D01*
X15707Y222326D01*
X15476Y222422D01*
D02*
G37*
G36*
X7577D02*
X7327D01*
X7095Y222326D01*
X6918Y222149D01*
X6822Y221917D01*
Y221667D01*
X6918Y221435D01*
X7095Y221258D01*
X7327Y221162D01*
X7577D01*
X7809Y221258D01*
X7986Y221435D01*
X8082Y221667D01*
Y221917D01*
X7986Y222149D01*
X7809Y222326D01*
X7577Y222422D01*
D02*
G37*
G36*
X5475D02*
X5225D01*
X4993Y222326D01*
X4816Y222149D01*
X4720Y221917D01*
Y221667D01*
X4816Y221435D01*
X4993Y221258D01*
X5225Y221162D01*
X5475D01*
X5707Y221258D01*
X5884Y221435D01*
X5980Y221667D01*
Y221917D01*
X5884Y222149D01*
X5707Y222326D01*
X5475Y222422D01*
D02*
G37*
G36*
X38578Y220464D02*
X38327D01*
X38096Y220369D01*
X37918Y220191D01*
X37822Y219960D01*
Y219709D01*
X37918Y219478D01*
X38096Y219301D01*
X38327Y219205D01*
X38578D01*
X38809Y219301D01*
X38986Y219478D01*
X39082Y219709D01*
Y219960D01*
X38986Y220191D01*
X38809Y220369D01*
X38578Y220464D01*
D02*
G37*
G36*
X36476D02*
X36225D01*
X35994Y220369D01*
X35816Y220191D01*
X35721Y219960D01*
Y219709D01*
X35816Y219478D01*
X35994Y219301D01*
X36225Y219205D01*
X36476D01*
X36707Y219301D01*
X36884Y219478D01*
X36980Y219709D01*
Y219960D01*
X36884Y220191D01*
X36707Y220369D01*
X36476Y220464D01*
D02*
G37*
G36*
X25476D02*
X25225D01*
X24994Y220369D01*
X24816Y220191D01*
X24721Y219960D01*
Y219709D01*
X24816Y219478D01*
X24994Y219301D01*
X25225Y219205D01*
X25476D01*
X25707Y219301D01*
X25884Y219478D01*
X25980Y219709D01*
Y219960D01*
X25884Y220191D01*
X25707Y220369D01*
X25476Y220464D01*
D02*
G37*
G36*
X17578D02*
X17327D01*
X17096Y220369D01*
X16918Y220191D01*
X16823Y219960D01*
Y219709D01*
X16918Y219478D01*
X17096Y219301D01*
X17327Y219205D01*
X17578D01*
X17809Y219301D01*
X17986Y219478D01*
X18082Y219709D01*
Y219960D01*
X17986Y220191D01*
X17809Y220369D01*
X17578Y220464D01*
D02*
G37*
G36*
X15476D02*
X15225D01*
X14994Y220369D01*
X14816Y220191D01*
X14720Y219960D01*
Y219709D01*
X14816Y219478D01*
X14994Y219301D01*
X15225Y219205D01*
X15476D01*
X15707Y219301D01*
X15885Y219478D01*
X15980Y219709D01*
Y219960D01*
X15885Y220191D01*
X15707Y220369D01*
X15476Y220464D01*
D02*
G37*
G36*
X7577D02*
X7327D01*
X7095Y220369D01*
X6918Y220191D01*
X6822Y219960D01*
Y219709D01*
X6918Y219478D01*
X7095Y219301D01*
X7327Y219205D01*
X7577D01*
X7809Y219301D01*
X7986Y219478D01*
X8082Y219709D01*
Y219960D01*
X7986Y220191D01*
X7809Y220369D01*
X7577Y220464D01*
D02*
G37*
G36*
X5475D02*
X5225D01*
X4993Y220369D01*
X4816Y220191D01*
X4720Y219960D01*
Y219709D01*
X4816Y219478D01*
X4993Y219301D01*
X5225Y219205D01*
X5475D01*
X5707Y219301D01*
X5884Y219478D01*
X5980Y219709D01*
Y219960D01*
X5884Y220191D01*
X5707Y220369D01*
X5475Y220464D01*
D02*
G37*
G36*
X-4144Y220430D02*
X-4395D01*
X-4627Y220334D01*
X-4804Y220157D01*
X-4900Y219925D01*
Y219675D01*
X-4804Y219443D01*
X-4627Y219266D01*
X-4395Y219170D01*
X-4144D01*
X-3913Y219266D01*
X-3736Y219443D01*
X-3640Y219675D01*
Y219925D01*
X-3736Y220157D01*
X-3913Y220334D01*
X-4144Y220430D01*
D02*
G37*
G36*
X-6247D02*
X-6497D01*
X-6729Y220334D01*
X-6906Y220157D01*
X-7002Y219925D01*
Y219675D01*
X-6906Y219443D01*
X-6729Y219266D01*
X-6497Y219170D01*
X-6247D01*
X-6015Y219266D01*
X-5838Y219443D01*
X-5742Y219675D01*
Y219925D01*
X-5838Y220157D01*
X-6015Y220334D01*
X-6247Y220430D01*
D02*
G37*
G36*
X-13987D02*
X-14238D01*
X-14469Y220334D01*
X-14646Y220157D01*
X-14742Y219925D01*
Y219675D01*
X-14646Y219443D01*
X-14469Y219266D01*
X-14238Y219170D01*
X-13987D01*
X-13755Y219266D01*
X-13578Y219443D01*
X-13482Y219675D01*
Y219925D01*
X-13578Y220157D01*
X-13755Y220334D01*
X-13987Y220430D01*
D02*
G37*
G36*
X-16089D02*
X-16340D01*
X-16571Y220334D01*
X-16748Y220157D01*
X-16844Y219925D01*
Y219675D01*
X-16748Y219443D01*
X-16571Y219266D01*
X-16340Y219170D01*
X-16089D01*
X-15857Y219266D01*
X-15680Y219443D01*
X-15584Y219675D01*
Y219925D01*
X-15680Y220157D01*
X-15857Y220334D01*
X-16089Y220430D01*
D02*
G37*
G36*
X-24178D02*
X-24428D01*
X-24660Y220334D01*
X-24837Y220157D01*
X-24933Y219925D01*
Y219675D01*
X-24837Y219443D01*
X-24660Y219266D01*
X-24428Y219170D01*
X-24178D01*
X-23946Y219266D01*
X-23769Y219443D01*
X-23673Y219675D01*
Y219925D01*
X-23769Y220157D01*
X-23946Y220334D01*
X-24178Y220430D01*
D02*
G37*
G36*
X-26280D02*
X-26530D01*
X-26762Y220334D01*
X-26939Y220157D01*
X-27035Y219925D01*
Y219675D01*
X-26939Y219443D01*
X-26762Y219266D01*
X-26530Y219170D01*
X-26280D01*
X-26048Y219266D01*
X-25871Y219443D01*
X-25775Y219675D01*
Y219925D01*
X-25871Y220157D01*
X-26048Y220334D01*
X-26280Y220430D01*
D02*
G37*
G36*
X-35175D02*
X-35425D01*
X-35657Y220334D01*
X-35834Y220157D01*
X-35930Y219925D01*
Y219675D01*
X-35834Y219443D01*
X-35657Y219266D01*
X-35425Y219170D01*
X-35175D01*
X-34943Y219266D01*
X-34766Y219443D01*
X-34670Y219675D01*
Y219925D01*
X-34766Y220157D01*
X-34943Y220334D01*
X-35175Y220430D01*
D02*
G37*
G36*
X-37277D02*
X-37527D01*
X-37759Y220334D01*
X-37936Y220157D01*
X-38032Y219925D01*
Y219675D01*
X-37936Y219443D01*
X-37759Y219266D01*
X-37527Y219170D01*
X-37277D01*
X-37045Y219266D01*
X-36868Y219443D01*
X-36772Y219675D01*
Y219925D01*
X-36868Y220157D01*
X-37045Y220334D01*
X-37277Y220430D01*
D02*
G37*
G36*
X-20748Y218934D02*
X-20999D01*
X-21230Y218838D01*
X-21408Y218661D01*
X-21504Y218430D01*
Y218179D01*
X-21408Y217948D01*
X-21230Y217770D01*
Y217264D01*
X-21408Y217086D01*
X-21504Y216855D01*
Y216604D01*
X-21408Y216373D01*
X-21230Y216196D01*
Y215689D01*
X-21408Y215512D01*
X-21504Y215280D01*
Y215030D01*
X-21408Y214798D01*
X-21230Y214621D01*
Y214114D01*
X-21408Y213937D01*
X-21504Y213705D01*
Y213455D01*
X-21408Y213223D01*
X-21230Y213046D01*
X-20999Y212950D01*
X-20748D01*
X-20517Y213046D01*
X-20339Y213223D01*
X-20244Y213455D01*
Y213705D01*
X-20339Y213937D01*
X-20517Y214114D01*
Y214621D01*
X-20339Y214798D01*
X-20244Y215030D01*
Y215280D01*
X-20339Y215512D01*
X-20517Y215689D01*
Y216196D01*
X-20339Y216373D01*
X-20244Y216604D01*
Y216855D01*
X-20339Y217086D01*
X-20517Y217264D01*
Y217770D01*
X-20339Y217948D01*
X-20244Y218179D01*
Y218430D01*
X-20339Y218661D01*
X-20517Y218838D01*
X-20748Y218934D01*
D02*
G37*
G36*
X46158Y218365D02*
X45907D01*
X45676Y218269D01*
X45499Y218092D01*
X45403Y217860D01*
Y217610D01*
X45499Y217378D01*
X45676Y217201D01*
X45686Y217037D01*
X45669Y216662D01*
X45529Y216522D01*
X45433Y216291D01*
Y216040D01*
X45529Y215809D01*
X45706Y215631D01*
Y215125D01*
X45529Y214947D01*
X45433Y214716D01*
Y214465D01*
X45529Y214234D01*
X45674Y214088D01*
X45691Y213808D01*
X45674Y213528D01*
X45529Y213383D01*
X45433Y213152D01*
Y212901D01*
X45529Y212669D01*
X45706Y212492D01*
X45938Y212396D01*
X46188D01*
X46420Y212492D01*
X46597Y212669D01*
X46693Y212901D01*
Y213152D01*
X46597Y213383D01*
X46452Y213528D01*
X46435Y213808D01*
X46452Y214088D01*
X46597Y214234D01*
X46693Y214465D01*
Y214716D01*
X46597Y214947D01*
X46420Y215125D01*
Y215631D01*
X46597Y215809D01*
X46693Y216040D01*
Y216291D01*
X46597Y216522D01*
X46420Y216699D01*
X46410Y216863D01*
X46427Y217238D01*
X46567Y217378D01*
X46663Y217610D01*
Y217860D01*
X46567Y218092D01*
X46389Y218269D01*
X46158Y218365D01*
D02*
G37*
G36*
X38008Y213391D02*
X37758D01*
X37526Y213296D01*
X37349Y213118D01*
X37253Y212887D01*
Y212636D01*
X37349Y212405D01*
X37526Y212228D01*
X37758Y212132D01*
X38008D01*
X38240Y212228D01*
X38417Y212405D01*
X38513Y212636D01*
Y212887D01*
X38417Y213118D01*
X38240Y213296D01*
X38008Y213391D01*
D02*
G37*
G36*
X35906D02*
X35656D01*
X35424Y213296D01*
X35247Y213118D01*
X35151Y212887D01*
Y212636D01*
X35247Y212405D01*
X35424Y212228D01*
X35656Y212132D01*
X35906D01*
X36138Y212228D01*
X36315Y212405D01*
X36411Y212636D01*
Y212887D01*
X36315Y213118D01*
X36138Y213296D01*
X35906Y213391D01*
D02*
G37*
G36*
X27578Y220464D02*
X27327D01*
X27096Y220369D01*
X26918Y220191D01*
X26823Y219960D01*
Y219709D01*
X26918Y219478D01*
X27096Y219301D01*
X27132Y219286D01*
X27338Y218984D01*
X27352Y218705D01*
X27323Y218634D01*
Y218384D01*
X27419Y218152D01*
X27558Y218012D01*
X27579Y217731D01*
X27558Y217449D01*
X27419Y217309D01*
X27323Y217078D01*
Y216827D01*
X27419Y216596D01*
X27596Y216419D01*
Y215912D01*
X27419Y215735D01*
X27323Y215503D01*
Y215253D01*
X27419Y215021D01*
X27596Y214844D01*
Y214337D01*
X27419Y214160D01*
X27323Y213928D01*
Y213802D01*
X27125Y213544D01*
X26900Y213391D01*
X26758D01*
X26526Y213296D01*
X26349Y213118D01*
X26253Y212887D01*
Y212636D01*
X26349Y212405D01*
X26526Y212227D01*
X26758Y212132D01*
X27009D01*
X27240Y212227D01*
X27417Y212405D01*
X27513Y212636D01*
Y212762D01*
X27711Y213021D01*
X27936Y213173D01*
X28078D01*
X28310Y213269D01*
X28487Y213446D01*
X28583Y213678D01*
Y213928D01*
X28487Y214160D01*
X28310Y214337D01*
Y214844D01*
X28487Y215021D01*
X28583Y215253D01*
Y215503D01*
X28487Y215735D01*
X28310Y215912D01*
Y216419D01*
X28487Y216596D01*
X28583Y216827D01*
Y217078D01*
X28487Y217309D01*
X28347Y217449D01*
X28327Y217731D01*
X28347Y218012D01*
X28487Y218152D01*
X28583Y218384D01*
Y218634D01*
X28487Y218866D01*
X28310Y219043D01*
X28274Y219058D01*
X28067Y219360D01*
X28053Y219639D01*
X28082Y219709D01*
Y219960D01*
X27986Y220191D01*
X27809Y220369D01*
X27578Y220464D01*
D02*
G37*
G36*
X24906Y213391D02*
X24656D01*
X24424Y213296D01*
X24247Y213118D01*
X24151Y212887D01*
Y212636D01*
X24247Y212405D01*
X24424Y212227D01*
X24656Y212132D01*
X24906D01*
X25138Y212227D01*
X25315Y212405D01*
X25411Y212636D01*
Y212887D01*
X25315Y213118D01*
X25138Y213296D01*
X24906Y213391D01*
D02*
G37*
G36*
X17008D02*
X16758D01*
X16526Y213296D01*
X16349Y213118D01*
X16253Y212887D01*
Y212636D01*
X16349Y212405D01*
X16526Y212227D01*
X16758Y212132D01*
X17008D01*
X17240Y212227D01*
X17417Y212405D01*
X17513Y212636D01*
Y212887D01*
X17417Y213118D01*
X17240Y213296D01*
X17008Y213391D01*
D02*
G37*
G36*
X14907D02*
X14656D01*
X14424Y213296D01*
X14247Y213118D01*
X14151Y212887D01*
Y212636D01*
X14247Y212405D01*
X14424Y212227D01*
X14656Y212132D01*
X14907D01*
X15138Y212227D01*
X15315Y212405D01*
X15411Y212636D01*
Y212887D01*
X15315Y213118D01*
X15138Y213296D01*
X14907Y213391D01*
D02*
G37*
G36*
X7008Y213271D02*
X6758D01*
X6526Y213175D01*
X6349Y212998D01*
X6253Y212766D01*
Y212516D01*
X6349Y212284D01*
X6526Y212107D01*
X6758Y212011D01*
X7008D01*
X7240Y212107D01*
X7417Y212284D01*
X7513Y212516D01*
Y212766D01*
X7417Y212998D01*
X7240Y213175D01*
X7008Y213271D01*
D02*
G37*
G36*
X4907D02*
X4656D01*
X4424Y213175D01*
X4247Y212998D01*
X4151Y212766D01*
Y212516D01*
X4247Y212284D01*
X4424Y212107D01*
X4656Y212011D01*
X4907D01*
X5138Y212107D01*
X5315Y212284D01*
X5411Y212516D01*
Y212766D01*
X5315Y212998D01*
X5138Y213175D01*
X4907Y213271D01*
D02*
G37*
G36*
X-4794Y213236D02*
X-5045D01*
X-5276Y213141D01*
X-5453Y212963D01*
X-5549Y212732D01*
Y212481D01*
X-5453Y212250D01*
X-5276Y212072D01*
X-5045Y211977D01*
X-4794D01*
X-4562Y212072D01*
X-4385Y212250D01*
X-4289Y212481D01*
Y212732D01*
X-4385Y212963D01*
X-4562Y213141D01*
X-4794Y213236D01*
D02*
G37*
G36*
X-6896D02*
X-7147D01*
X-7378Y213141D01*
X-7555Y212963D01*
X-7651Y212732D01*
Y212481D01*
X-7555Y212250D01*
X-7378Y212072D01*
X-7147Y211977D01*
X-6896D01*
X-6664Y212072D01*
X-6487Y212250D01*
X-6391Y212481D01*
Y212732D01*
X-6487Y212963D01*
X-6664Y213141D01*
X-6896Y213236D01*
D02*
G37*
G36*
X-14636D02*
X-14887D01*
X-15119Y213141D01*
X-15296Y212963D01*
X-15392Y212732D01*
Y212481D01*
X-15296Y212250D01*
X-15119Y212072D01*
X-14887Y211977D01*
X-14636D01*
X-14405Y212072D01*
X-14228Y212250D01*
X-14132Y212481D01*
Y212732D01*
X-14228Y212963D01*
X-14405Y213141D01*
X-14636Y213236D01*
D02*
G37*
G36*
X-16738D02*
X-16989D01*
X-17221Y213141D01*
X-17398Y212963D01*
X-17494Y212732D01*
Y212481D01*
X-17398Y212250D01*
X-17221Y212072D01*
X-16989Y211977D01*
X-16738D01*
X-16507Y212072D01*
X-16330Y212250D01*
X-16234Y212481D01*
Y212732D01*
X-16330Y212963D01*
X-16507Y213141D01*
X-16738Y213236D01*
D02*
G37*
G36*
X-24885D02*
X-25135D01*
X-25367Y213141D01*
X-25544Y212963D01*
X-25640Y212732D01*
Y212481D01*
X-25544Y212250D01*
X-25367Y212072D01*
X-25135Y211977D01*
X-24885D01*
X-24653Y212072D01*
X-24476Y212250D01*
X-24380Y212481D01*
Y212732D01*
X-24476Y212963D01*
X-24653Y213141D01*
X-24885Y213236D01*
D02*
G37*
G36*
X-26987D02*
X-27237D01*
X-27469Y213141D01*
X-27646Y212963D01*
X-27742Y212732D01*
Y212481D01*
X-27646Y212250D01*
X-27469Y212072D01*
X-27237Y211977D01*
X-26987D01*
X-26755Y212072D01*
X-26578Y212250D01*
X-26482Y212481D01*
Y212732D01*
X-26578Y212963D01*
X-26755Y213141D01*
X-26987Y213236D01*
D02*
G37*
G36*
X-35306D02*
X-35556D01*
X-35788Y213141D01*
X-35965Y212963D01*
X-36061Y212732D01*
Y212481D01*
X-35965Y212250D01*
X-35788Y212072D01*
X-35556Y211977D01*
X-35306D01*
X-35074Y212072D01*
X-34897Y212250D01*
X-34801Y212481D01*
Y212732D01*
X-34897Y212963D01*
X-35074Y213141D01*
X-35306Y213236D01*
D02*
G37*
G36*
X-37408D02*
X-37658D01*
X-37890Y213141D01*
X-38067Y212963D01*
X-38163Y212732D01*
Y212481D01*
X-38067Y212250D01*
X-37890Y212072D01*
X-37658Y211977D01*
X-37408D01*
X-37176Y212072D01*
X-36999Y212250D01*
X-36903Y212481D01*
Y212732D01*
X-36999Y212963D01*
X-37176Y213141D01*
X-37408Y213236D01*
D02*
G37*
G36*
X35906Y211400D02*
X35656D01*
X35424Y211304D01*
X35247Y211127D01*
X35151Y210895D01*
Y210645D01*
X35247Y210413D01*
X35424Y210236D01*
X35656Y210140D01*
X35906D01*
X36138Y210236D01*
X36315Y210413D01*
X36411Y210645D01*
Y210895D01*
X36315Y211127D01*
X36138Y211304D01*
X35906Y211400D01*
D02*
G37*
G36*
X38008Y211400D02*
X37758D01*
X37526Y211304D01*
X37349Y211126D01*
X37253Y210895D01*
Y210644D01*
X37349Y210413D01*
X37526Y210236D01*
X37758Y210140D01*
X38008D01*
X38240Y210236D01*
X38417Y210413D01*
X38513Y210644D01*
Y210895D01*
X38417Y211126D01*
X38240Y211304D01*
X38008Y211400D01*
D02*
G37*
G36*
X27009D02*
X26758D01*
X26526Y211304D01*
X26349Y211126D01*
X26253Y210895D01*
Y210644D01*
X26349Y210413D01*
X26526Y210236D01*
X26758Y210140D01*
X27009D01*
X27240Y210236D01*
X27417Y210413D01*
X27513Y210644D01*
Y210895D01*
X27417Y211126D01*
X27240Y211304D01*
X27009Y211400D01*
D02*
G37*
G36*
X24906D02*
X24656D01*
X24424Y211304D01*
X24247Y211126D01*
X24151Y210895D01*
Y210644D01*
X24247Y210413D01*
X24424Y210236D01*
X24656Y210140D01*
X24906D01*
X25138Y210236D01*
X25315Y210413D01*
X25411Y210644D01*
Y210895D01*
X25315Y211126D01*
X25138Y211304D01*
X24906Y211400D01*
D02*
G37*
G36*
X17008D02*
X16758D01*
X16526Y211304D01*
X16349Y211126D01*
X16253Y210895D01*
Y210644D01*
X16349Y210413D01*
X16526Y210236D01*
X16758Y210140D01*
X17008D01*
X17240Y210236D01*
X17417Y210413D01*
X17513Y210644D01*
Y210895D01*
X17417Y211126D01*
X17240Y211304D01*
X17008Y211400D01*
D02*
G37*
G36*
X14907D02*
X14656D01*
X14424Y211304D01*
X14247Y211126D01*
X14151Y210895D01*
Y210644D01*
X14247Y210413D01*
X14424Y210236D01*
X14656Y210140D01*
X14907D01*
X15138Y210236D01*
X15315Y210413D01*
X15411Y210644D01*
Y210895D01*
X15315Y211126D01*
X15138Y211304D01*
X14907Y211400D01*
D02*
G37*
G36*
X-4794Y211279D02*
X-5045D01*
X-5276Y211183D01*
X-5453Y211006D01*
X-5549Y210775D01*
Y210524D01*
X-5453Y210293D01*
X-5276Y210115D01*
X-5045Y210019D01*
X-4794D01*
X-4562Y210115D01*
X-4385Y210293D01*
X-4289Y210524D01*
Y210775D01*
X-4385Y211006D01*
X-4562Y211183D01*
X-4794Y211279D01*
D02*
G37*
G36*
X-6896D02*
X-7147D01*
X-7378Y211183D01*
X-7555Y211006D01*
X-7651Y210775D01*
Y210524D01*
X-7555Y210293D01*
X-7378Y210115D01*
X-7147Y210019D01*
X-6896D01*
X-6664Y210115D01*
X-6487Y210293D01*
X-6391Y210524D01*
Y210775D01*
X-6487Y211006D01*
X-6664Y211183D01*
X-6896Y211279D01*
D02*
G37*
G36*
X-14636D02*
X-14887D01*
X-15119Y211183D01*
X-15296Y211006D01*
X-15392Y210775D01*
Y210524D01*
X-15296Y210293D01*
X-15119Y210115D01*
X-14887Y210019D01*
X-14636D01*
X-14405Y210115D01*
X-14228Y210293D01*
X-14132Y210524D01*
Y210775D01*
X-14228Y211006D01*
X-14405Y211183D01*
X-14636Y211279D01*
D02*
G37*
G36*
X-16738D02*
X-16989D01*
X-17221Y211183D01*
X-17398Y211006D01*
X-17494Y210775D01*
Y210524D01*
X-17398Y210293D01*
X-17221Y210115D01*
X-16989Y210019D01*
X-16738D01*
X-16507Y210115D01*
X-16330Y210293D01*
X-16234Y210524D01*
Y210775D01*
X-16330Y211006D01*
X-16507Y211183D01*
X-16738Y211279D01*
D02*
G37*
G36*
X-24885D02*
X-25135D01*
X-25367Y211183D01*
X-25544Y211006D01*
X-25640Y210775D01*
Y210524D01*
X-25544Y210293D01*
X-25367Y210115D01*
X-25135Y210019D01*
X-24885D01*
X-24653Y210115D01*
X-24476Y210293D01*
X-24380Y210524D01*
Y210775D01*
X-24476Y211006D01*
X-24653Y211183D01*
X-24885Y211279D01*
D02*
G37*
G36*
X-26987D02*
X-27237D01*
X-27469Y211183D01*
X-27646Y211006D01*
X-27742Y210775D01*
Y210524D01*
X-27646Y210293D01*
X-27469Y210115D01*
X-27237Y210019D01*
X-26987D01*
X-26755Y210115D01*
X-26578Y210293D01*
X-26482Y210524D01*
Y210775D01*
X-26578Y211006D01*
X-26755Y211183D01*
X-26987Y211279D01*
D02*
G37*
G36*
X-35306D02*
X-35556D01*
X-35788Y211183D01*
X-35965Y211006D01*
X-36061Y210775D01*
Y210524D01*
X-35965Y210293D01*
X-35788Y210115D01*
X-35556Y210019D01*
X-35306D01*
X-35074Y210115D01*
X-34897Y210293D01*
X-34801Y210524D01*
Y210775D01*
X-34897Y211006D01*
X-35074Y211183D01*
X-35306Y211279D01*
D02*
G37*
G36*
X-37408D02*
X-37658D01*
X-37890Y211183D01*
X-38067Y211006D01*
X-38163Y210775D01*
Y210524D01*
X-38067Y210293D01*
X-37890Y210115D01*
X-37658Y210019D01*
X-37408D01*
X-37176Y210115D01*
X-36999Y210293D01*
X-36903Y210524D01*
Y210775D01*
X-36999Y211006D01*
X-37176Y211183D01*
X-37408Y211279D01*
D02*
G37*
G36*
X7008Y211279D02*
X6758D01*
X6526Y211183D01*
X6349Y211006D01*
X6253Y210774D01*
Y210524D01*
X6349Y210292D01*
X6526Y210115D01*
X6758Y210019D01*
X7008D01*
X7240Y210115D01*
X7417Y210292D01*
X7513Y210524D01*
Y210774D01*
X7417Y211006D01*
X7240Y211183D01*
X7008Y211279D01*
D02*
G37*
G36*
X4907D02*
X4656D01*
X4424Y211183D01*
X4247Y211006D01*
X4151Y210774D01*
Y210524D01*
X4247Y210292D01*
X4424Y210115D01*
X4656Y210019D01*
X4907D01*
X5138Y210115D01*
X5315Y210292D01*
X5411Y210524D01*
Y210774D01*
X5315Y211006D01*
X5138Y211183D01*
X4907Y211279D01*
D02*
G37*
G36*
X38008Y209442D02*
X37758D01*
X37526Y209347D01*
X37349Y209169D01*
X37253Y208938D01*
Y208687D01*
X37349Y208456D01*
X37526Y208278D01*
X37758Y208183D01*
X38008D01*
X38240Y208278D01*
X38417Y208456D01*
X38513Y208687D01*
Y208938D01*
X38417Y209169D01*
X38240Y209347D01*
X38008Y209442D01*
D02*
G37*
G36*
X35906D02*
X35656D01*
X35424Y209347D01*
X35247Y209169D01*
X35151Y208938D01*
Y208687D01*
X35247Y208456D01*
X35424Y208278D01*
X35656Y208183D01*
X35906D01*
X36138Y208278D01*
X36315Y208456D01*
X36411Y208687D01*
Y208938D01*
X36315Y209169D01*
X36138Y209347D01*
X35906Y209442D01*
D02*
G37*
G36*
X27009Y209442D02*
X26758D01*
X26526Y209346D01*
X26349Y209169D01*
X26253Y208938D01*
Y208687D01*
X26349Y208456D01*
X26526Y208278D01*
X26758Y208183D01*
X27009D01*
X27240Y208278D01*
X27417Y208456D01*
X27513Y208687D01*
Y208938D01*
X27417Y209169D01*
X27240Y209346D01*
X27009Y209442D01*
D02*
G37*
G36*
X24906D02*
X24656D01*
X24424Y209346D01*
X24247Y209169D01*
X24151Y208938D01*
Y208687D01*
X24247Y208456D01*
X24424Y208278D01*
X24656Y208183D01*
X24906D01*
X25138Y208278D01*
X25315Y208456D01*
X25411Y208687D01*
Y208938D01*
X25315Y209169D01*
X25138Y209346D01*
X24906Y209442D01*
D02*
G37*
G36*
X17008D02*
X16758D01*
X16526Y209346D01*
X16349Y209169D01*
X16253Y208938D01*
Y208687D01*
X16349Y208456D01*
X16526Y208278D01*
X16758Y208183D01*
X17008D01*
X17240Y208278D01*
X17417Y208456D01*
X17513Y208687D01*
Y208938D01*
X17417Y209169D01*
X17240Y209346D01*
X17008Y209442D01*
D02*
G37*
G36*
X14907D02*
X14656D01*
X14424Y209346D01*
X14247Y209169D01*
X14151Y208938D01*
Y208687D01*
X14247Y208456D01*
X14424Y208278D01*
X14656Y208183D01*
X14907D01*
X15138Y208278D01*
X15315Y208456D01*
X15411Y208687D01*
Y208938D01*
X15315Y209169D01*
X15138Y209346D01*
X14907Y209442D01*
D02*
G37*
G36*
X7008Y209322D02*
X6758D01*
X6526Y209226D01*
X6349Y209049D01*
X6253Y208817D01*
Y208567D01*
X6349Y208335D01*
X6526Y208158D01*
X6758Y208062D01*
X7008D01*
X7240Y208158D01*
X7417Y208335D01*
X7513Y208567D01*
Y208817D01*
X7417Y209049D01*
X7240Y209226D01*
X7008Y209322D01*
D02*
G37*
G36*
X4907D02*
X4656D01*
X4424Y209226D01*
X4247Y209049D01*
X4151Y208817D01*
Y208567D01*
X4247Y208335D01*
X4424Y208158D01*
X4656Y208062D01*
X4907D01*
X5138Y208158D01*
X5315Y208335D01*
X5411Y208567D01*
Y208817D01*
X5315Y209049D01*
X5138Y209226D01*
X4907Y209322D01*
D02*
G37*
G36*
X-4794Y209287D02*
X-5045D01*
X-5276Y209192D01*
X-5453Y209014D01*
X-5549Y208783D01*
Y208532D01*
X-5453Y208301D01*
X-5276Y208123D01*
X-5045Y208028D01*
X-4794D01*
X-4562Y208123D01*
X-4385Y208301D01*
X-4289Y208532D01*
Y208783D01*
X-4385Y209014D01*
X-4562Y209192D01*
X-4794Y209287D01*
D02*
G37*
G36*
X-6896D02*
X-7147D01*
X-7378Y209192D01*
X-7555Y209014D01*
X-7651Y208783D01*
Y208532D01*
X-7555Y208301D01*
X-7378Y208123D01*
X-7147Y208028D01*
X-6896D01*
X-6664Y208123D01*
X-6487Y208301D01*
X-6391Y208532D01*
Y208783D01*
X-6487Y209014D01*
X-6664Y209192D01*
X-6896Y209287D01*
D02*
G37*
G36*
X-14636D02*
X-14887D01*
X-15119Y209192D01*
X-15296Y209014D01*
X-15392Y208783D01*
Y208532D01*
X-15296Y208301D01*
X-15119Y208123D01*
X-14887Y208028D01*
X-14636D01*
X-14405Y208123D01*
X-14228Y208301D01*
X-14132Y208532D01*
Y208783D01*
X-14228Y209014D01*
X-14405Y209192D01*
X-14636Y209287D01*
D02*
G37*
G36*
X-16738D02*
X-16989D01*
X-17221Y209192D01*
X-17398Y209014D01*
X-17494Y208783D01*
Y208532D01*
X-17398Y208301D01*
X-17221Y208123D01*
X-16989Y208028D01*
X-16738D01*
X-16507Y208123D01*
X-16330Y208301D01*
X-16234Y208532D01*
Y208783D01*
X-16330Y209014D01*
X-16507Y209192D01*
X-16738Y209287D01*
D02*
G37*
G36*
X-24885D02*
X-25135D01*
X-25367Y209192D01*
X-25544Y209014D01*
X-25640Y208783D01*
Y208532D01*
X-25544Y208301D01*
X-25367Y208123D01*
X-25135Y208028D01*
X-24885D01*
X-24653Y208123D01*
X-24476Y208301D01*
X-24380Y208532D01*
Y208783D01*
X-24476Y209014D01*
X-24653Y209192D01*
X-24885Y209287D01*
D02*
G37*
G36*
X-26987D02*
X-27237D01*
X-27469Y209192D01*
X-27646Y209014D01*
X-27742Y208783D01*
Y208532D01*
X-27646Y208301D01*
X-27469Y208123D01*
X-27237Y208028D01*
X-26987D01*
X-26755Y208123D01*
X-26578Y208301D01*
X-26482Y208532D01*
Y208783D01*
X-26578Y209014D01*
X-26755Y209192D01*
X-26987Y209287D01*
D02*
G37*
G36*
X-35306D02*
X-35556D01*
X-35788Y209192D01*
X-35965Y209014D01*
X-36061Y208783D01*
Y208532D01*
X-35965Y208301D01*
X-35788Y208123D01*
X-35556Y208028D01*
X-35306D01*
X-35074Y208123D01*
X-34897Y208301D01*
X-34801Y208532D01*
Y208783D01*
X-34897Y209014D01*
X-35074Y209192D01*
X-35306Y209287D01*
D02*
G37*
G36*
X-37408D02*
X-37658D01*
X-37890Y209192D01*
X-38067Y209014D01*
X-38163Y208783D01*
Y208532D01*
X-38067Y208301D01*
X-37890Y208123D01*
X-37658Y208028D01*
X-37408D01*
X-37176Y208123D01*
X-36999Y208301D01*
X-36903Y208532D01*
Y208783D01*
X-36999Y209014D01*
X-37176Y209192D01*
X-37408Y209287D01*
D02*
G37*
G36*
X58839Y183077D02*
X58483D01*
X58155Y182941D01*
X57904Y182690D01*
X57767Y182361D01*
Y182006D01*
X57904Y181677D01*
X58155Y181426D01*
X58483Y181290D01*
X58839D01*
X59167Y181426D01*
X59419Y181677D01*
X59555Y182006D01*
Y182361D01*
X59419Y182690D01*
X59167Y182941D01*
X58839Y183077D01*
D02*
G37*
G36*
X-149993Y64410D02*
X-150243D01*
X-150475Y64314D01*
X-150652Y64136D01*
X-150748Y63905D01*
Y63654D01*
X-150652Y63423D01*
X-150475Y63246D01*
X-150243Y63150D01*
X-149993D01*
X-149761Y63246D01*
X-149584Y63423D01*
X-149488Y63654D01*
Y63905D01*
X-149584Y64136D01*
X-149761Y64314D01*
X-149993Y64410D01*
D02*
G37*
G36*
X-147906Y62441D02*
X-148157D01*
X-148388Y62345D01*
X-148566Y62168D01*
X-148661Y61936D01*
Y61686D01*
X-148566Y61454D01*
X-148388Y61277D01*
X-148157Y61181D01*
X-147906D01*
X-147675Y61277D01*
X-147497Y61454D01*
X-147402Y61686D01*
Y61936D01*
X-147497Y62168D01*
X-147675Y62345D01*
X-147906Y62441D01*
D02*
G37*
G36*
X-155111Y61457D02*
X-155361D01*
X-155593Y61361D01*
X-155770Y61184D01*
X-155866Y60952D01*
Y60702D01*
X-155770Y60470D01*
X-155593Y60293D01*
X-155361Y60197D01*
X-155111D01*
X-154879Y60293D01*
X-154702Y60470D01*
X-154606Y60702D01*
Y60952D01*
X-154702Y61184D01*
X-154879Y61361D01*
X-155111Y61457D01*
D02*
G37*
G36*
X-147908Y58502D02*
X-148159D01*
X-148391Y58406D01*
X-148568Y58229D01*
X-148664Y57997D01*
Y57746D01*
X-148568Y57515D01*
X-148391Y57338D01*
X-148159Y57242D01*
X-147908D01*
X-147677Y57338D01*
X-147500Y57515D01*
X-147404Y57746D01*
Y57997D01*
X-147500Y58229D01*
X-147677Y58406D01*
X-147908Y58502D01*
D02*
G37*
G36*
X-155111Y57520D02*
X-155361D01*
X-155593Y57424D01*
X-155770Y57247D01*
X-155866Y57015D01*
Y56765D01*
X-155770Y56533D01*
X-155593Y56356D01*
X-155361Y56260D01*
X-155111D01*
X-154879Y56356D01*
X-154702Y56533D01*
X-154606Y56765D01*
Y57015D01*
X-154702Y57247D01*
X-154879Y57424D01*
X-155111Y57520D01*
D02*
G37*
G36*
X-120675Y61614D02*
X-120925D01*
X-121157Y61518D01*
X-121334Y61341D01*
X-121430Y61110D01*
Y60859D01*
X-121334Y60627D01*
X-121157Y60450D01*
X-120925Y60354D01*
X-120675D01*
X-120443Y60450D01*
X-120266Y60627D01*
X-120170Y60859D01*
Y61110D01*
X-120266Y61341D01*
X-120443Y61518D01*
X-120675Y61614D01*
D02*
G37*
G36*
Y59331D02*
X-120925D01*
X-121157Y59235D01*
X-121334Y59058D01*
X-121430Y58826D01*
Y58575D01*
X-121334Y58344D01*
X-121157Y58167D01*
X-120925Y58071D01*
X-120675D01*
X-120443Y58167D01*
X-120266Y58344D01*
X-120170Y58575D01*
Y58826D01*
X-120266Y59058D01*
X-120443Y59235D01*
X-120675Y59331D01*
D02*
G37*
%LPD*%
D10*
X-25591Y93563D02*
X-23957Y91929D01*
X-25591Y93563D02*
Y98508D01*
X-27165Y100083D02*
X-25591Y98508D01*
X-6201Y165354D02*
Y167393D01*
X12598Y152264D02*
Y176469D01*
Y180198D01*
X12600Y180200D01*
Y180700D01*
X49213Y129929D02*
X49488Y130204D01*
X49213Y129823D02*
Y129929D01*
X49488Y130204D02*
Y170945D01*
X-21850Y134894D02*
Y151280D01*
X-39358Y134874D02*
X-39345Y134887D01*
X-39358Y129442D02*
Y134874D01*
X-39370Y129429D02*
X-39358Y129442D01*
X-19891Y149508D02*
Y151280D01*
X-18893Y135882D02*
Y148510D01*
X-19882Y134894D02*
X-18893Y135882D01*
X-19891Y149508D02*
X-18893Y148510D01*
X-37393Y109350D02*
Y114560D01*
X-37402Y121409D02*
X-37400Y122736D01*
X-14475Y121409D02*
Y128315D01*
X-39370Y154542D02*
Y156201D01*
X-15945Y145409D02*
Y151280D01*
Y154556D01*
X-16772Y135721D02*
X-15944Y134894D01*
X-16772Y135721D02*
Y144582D01*
X-15945Y145409D01*
X-39370Y160800D02*
Y162894D01*
X-13287Y148622D02*
Y160787D01*
X-13377Y160877D02*
X-13287Y160787D01*
Y132236D02*
Y148622D01*
X-39370Y116043D02*
X-39370Y116043D01*
X-39370Y116043D02*
Y120378D01*
X-12100Y120402D02*
Y129966D01*
X33345Y91084D02*
X35256Y92994D01*
Y93917D01*
X33345Y78740D02*
Y91084D01*
D14*
X-63507Y183000D02*
X-56725D01*
X-65731Y180777D02*
X-63507Y183000D01*
X-56725D02*
X-54778Y184947D01*
X-31102Y170101D02*
Y185679D01*
D16*
X-6700Y53090D02*
X-6615Y53175D01*
X-2100D01*
X50984Y129831D02*
Y159382D01*
X50976Y159390D02*
X50984Y159382D01*
Y129831D02*
X50992Y129823D01*
X-23649Y142815D02*
X-23643Y142808D01*
X-23649Y142815D02*
X-23643Y142822D01*
Y146660D02*
X-23636Y146667D01*
X-23643Y142822D02*
Y146660D01*
Y130274D02*
X-23636Y130268D01*
X-23643Y130274D02*
Y142808D01*
X-25450Y128299D02*
Y136124D01*
Y144682D01*
X33268Y33661D02*
X34935Y35329D01*
Y49336D01*
X33268Y31806D02*
Y33661D01*
X-14439Y128351D02*
Y144701D01*
X-14475Y128315D02*
X-14439Y128351D01*
X-12116Y130268D02*
X-12100Y130284D01*
Y146750D01*
X-53937Y172627D02*
Y179198D01*
X-53816Y124052D02*
Y172507D01*
Y124052D02*
X-53780Y124016D01*
X-53937Y172627D02*
X-53816Y172507D01*
X-52362Y179198D02*
X-51822Y178657D01*
Y157394D02*
Y178657D01*
X-55512Y171834D02*
Y179198D01*
X-55758Y171588D02*
X-55512Y171834D01*
X-55758Y164173D02*
Y171588D01*
X-57680Y117323D02*
Y173712D01*
X-57087Y174305D01*
Y179198D01*
D18*
X3757Y125200D02*
Y130637D01*
Y137143D01*
X3600Y137300D02*
X3709Y137408D01*
X3883D01*
X3600Y137300D02*
X3757Y137143D01*
D108*
X82911Y88039D02*
D03*
Y80165D02*
D03*
X78974Y111661D02*
D03*
Y103787D02*
D03*
X80943Y84102D02*
D03*
X78974Y80165D02*
D03*
X80943Y76228D02*
D03*
X78974Y72291D02*
D03*
X80943Y68354D02*
D03*
X78974Y64417D02*
D03*
X75037Y127409D02*
D03*
X77006Y123472D02*
D03*
Y107724D02*
D03*
X75037Y103787D02*
D03*
Y80165D02*
D03*
X71100Y151031D02*
D03*
X73069Y107724D02*
D03*
Y84102D02*
D03*
X71100Y80165D02*
D03*
X67163Y174653D02*
D03*
Y166779D02*
D03*
Y119535D02*
D03*
Y111661D02*
D03*
X69132Y107724D02*
D03*
X63226Y182527D02*
D03*
X65195Y178590D02*
D03*
Y170716D02*
D03*
Y131346D02*
D03*
Y123472D02*
D03*
Y84102D02*
D03*
X63226Y56543D02*
D03*
X61258Y186464D02*
D03*
Y170716D02*
D03*
X59289Y143157D02*
D03*
X61258Y68354D02*
D03*
Y60480D02*
D03*
X59289Y48669D02*
D03*
Y40795D02*
D03*
X57321Y186464D02*
D03*
Y131346D02*
D03*
Y68354D02*
D03*
Y60480D02*
D03*
X55352Y40795D02*
D03*
X57321Y36858D02*
D03*
X51415Y174653D02*
D03*
X53384Y170716D02*
D03*
Y162842D02*
D03*
Y84102D02*
D03*
Y68354D02*
D03*
X51415Y40795D02*
D03*
X53384Y36858D02*
D03*
X51415Y32921D02*
D03*
X49447Y107724D02*
D03*
Y68354D02*
D03*
X45509Y178590D02*
D03*
Y131346D02*
D03*
Y115598D02*
D03*
Y107724D02*
D03*
X41572Y162842D02*
D03*
X39604Y32921D02*
D03*
X41572Y28984D02*
D03*
X37635Y131346D02*
D03*
Y123472D02*
D03*
Y107724D02*
D03*
Y84102D02*
D03*
X35667Y72291D02*
D03*
Y56543D02*
D03*
X37635Y44732D02*
D03*
Y28984D02*
D03*
X31730Y174653D02*
D03*
Y135283D02*
D03*
X33698Y131346D02*
D03*
X31730Y127409D02*
D03*
X33698Y123472D02*
D03*
X31730Y119535D02*
D03*
X33698Y115598D02*
D03*
X31730Y95913D02*
D03*
Y80165D02*
D03*
X33698Y76228D02*
D03*
X31730Y72291D02*
D03*
Y56543D02*
D03*
X33698Y36858D02*
D03*
X29761Y178590D02*
D03*
X27793Y174653D02*
D03*
X29761Y139220D02*
D03*
X27793Y135283D02*
D03*
X29761Y131346D02*
D03*
X27793Y127409D02*
D03*
X29761Y123472D02*
D03*
X27793Y119535D02*
D03*
X29761Y115598D02*
D03*
Y107724D02*
D03*
Y84102D02*
D03*
X27793Y80165D02*
D03*
X29761Y76228D02*
D03*
X27793Y72291D02*
D03*
X29761Y68354D02*
D03*
X27793Y56543D02*
D03*
X29761Y28984D02*
D03*
X25824Y178590D02*
D03*
X23856Y174653D02*
D03*
X25824Y139220D02*
D03*
Y131346D02*
D03*
Y123472D02*
D03*
Y115598D02*
D03*
Y107724D02*
D03*
Y84102D02*
D03*
X23856Y80165D02*
D03*
X25824Y76228D02*
D03*
Y68354D02*
D03*
X23856Y40795D02*
D03*
X19919Y174653D02*
D03*
X21888Y139220D02*
D03*
X19919Y119535D02*
D03*
Y103787D02*
D03*
Y88039D02*
D03*
X21888Y84102D02*
D03*
X19919Y80165D02*
D03*
X21888Y76228D02*
D03*
X17951Y147094D02*
D03*
Y107724D02*
D03*
Y60480D02*
D03*
X8108Y182527D02*
D03*
Y151031D02*
D03*
X10076Y115598D02*
D03*
Y84102D02*
D03*
X8108Y80165D02*
D03*
X4171Y182527D02*
D03*
X6139Y178590D02*
D03*
X4171Y174653D02*
D03*
Y119535D02*
D03*
X6139Y115598D02*
D03*
Y107724D02*
D03*
X4171Y95913D02*
D03*
Y88039D02*
D03*
X6139Y84102D02*
D03*
X4171Y80165D02*
D03*
X6139Y76228D02*
D03*
X234Y151031D02*
D03*
Y143157D02*
D03*
X2202Y139220D02*
D03*
Y115598D02*
D03*
X-3703Y182527D02*
D03*
Y174653D02*
D03*
Y166779D02*
D03*
Y151031D02*
D03*
X-1735Y147094D02*
D03*
X-3703Y143157D02*
D03*
Y135283D02*
D03*
Y127409D02*
D03*
X-7640Y174653D02*
D03*
Y151031D02*
D03*
X-5672Y147094D02*
D03*
X-7640Y143157D02*
D03*
X-5672Y139220D02*
D03*
X-7640Y135283D02*
D03*
Y127409D02*
D03*
X-5672Y84102D02*
D03*
X-9609Y178590D02*
D03*
X-11577Y151031D02*
D03*
X-9609Y147094D02*
D03*
Y139220D02*
D03*
Y115598D02*
D03*
Y107724D02*
D03*
X-11577Y95913D02*
D03*
Y88039D02*
D03*
X-9609Y84102D02*
D03*
Y76228D02*
D03*
Y68354D02*
D03*
Y60480D02*
D03*
X-15514Y174653D02*
D03*
Y143157D02*
D03*
Y127409D02*
D03*
X-13546Y123472D02*
D03*
X-15514Y119535D02*
D03*
X-13546Y107724D02*
D03*
X-15514Y103787D02*
D03*
Y88039D02*
D03*
X-13546Y84102D02*
D03*
X-17483Y178590D02*
D03*
Y99850D02*
D03*
X-23388Y151031D02*
D03*
Y119535D02*
D03*
X-21420Y107724D02*
D03*
Y99850D02*
D03*
X-23388Y88039D02*
D03*
X-21420Y84102D02*
D03*
Y76228D02*
D03*
X-23388Y72291D02*
D03*
X-21420Y60480D02*
D03*
X-23388Y40795D02*
D03*
X-27325Y127409D02*
D03*
X-25357Y123472D02*
D03*
Y115598D02*
D03*
Y107724D02*
D03*
Y99850D02*
D03*
Y84102D02*
D03*
Y76228D02*
D03*
X-27325Y72291D02*
D03*
X-25357Y68354D02*
D03*
Y60480D02*
D03*
Y44732D02*
D03*
X-27325Y40795D02*
D03*
X-25357Y36858D02*
D03*
X-31262Y158905D02*
D03*
Y127409D02*
D03*
Y119535D02*
D03*
Y111661D02*
D03*
X-29294Y99850D02*
D03*
Y84102D02*
D03*
X-31262Y80165D02*
D03*
X-29294Y76228D02*
D03*
X-31262Y72291D02*
D03*
X-29294Y68354D02*
D03*
X-31262Y64417D02*
D03*
X-29294Y60480D02*
D03*
Y36858D02*
D03*
X-33231Y186464D02*
D03*
Y170716D02*
D03*
Y147094D02*
D03*
Y139220D02*
D03*
X-35199Y127409D02*
D03*
X-33231Y115598D02*
D03*
Y107724D02*
D03*
X-35199Y103787D02*
D03*
Y88039D02*
D03*
X-33231Y84102D02*
D03*
X-35199Y80165D02*
D03*
X-33231Y76228D02*
D03*
Y68354D02*
D03*
Y60480D02*
D03*
X-37168Y186464D02*
D03*
X-39136Y182527D02*
D03*
Y127409D02*
D03*
X-37168Y99850D02*
D03*
Y91976D02*
D03*
X-39136Y88039D02*
D03*
X-37168Y84102D02*
D03*
X-41105Y186464D02*
D03*
X-43073Y182527D02*
D03*
X-41105Y178590D02*
D03*
Y170716D02*
D03*
Y154968D02*
D03*
Y107724D02*
D03*
Y99850D02*
D03*
Y91976D02*
D03*
X-43073Y88039D02*
D03*
X-45042Y186464D02*
D03*
Y178590D02*
D03*
X-47010Y127409D02*
D03*
X-45042Y99850D02*
D03*
Y91976D02*
D03*
X-47010Y48669D02*
D03*
Y40795D02*
D03*
X-48979Y186464D02*
D03*
Y170716D02*
D03*
Y147094D02*
D03*
Y139220D02*
D03*
Y99850D02*
D03*
X-50947Y88039D02*
D03*
Y80165D02*
D03*
X-48979Y76228D02*
D03*
X-52916Y147094D02*
D03*
Y36858D02*
D03*
X-58821Y166779D02*
D03*
X-56853Y99850D02*
D03*
Y91976D02*
D03*
Y84102D02*
D03*
Y36858D02*
D03*
X-60790Y186464D02*
D03*
X-62758Y166779D02*
D03*
Y127409D02*
D03*
Y48669D02*
D03*
Y40795D02*
D03*
X-64727Y162842D02*
D03*
Y154968D02*
D03*
Y147094D02*
D03*
Y139220D02*
D03*
Y115598D02*
D03*
Y107724D02*
D03*
X-66695Y56543D02*
D03*
Y48669D02*
D03*
X-64727Y44732D02*
D03*
X-68664Y170716D02*
D03*
X-70632Y158905D02*
D03*
X-68664Y147094D02*
D03*
X-70632Y111661D02*
D03*
X-68664Y107724D02*
D03*
Y99850D02*
D03*
X-70632Y64417D02*
D03*
Y56543D02*
D03*
Y48669D02*
D03*
X-72601Y147094D02*
D03*
Y139220D02*
D03*
X-74569Y135283D02*
D03*
X-72601Y131346D02*
D03*
X-74569Y127409D02*
D03*
X-72601Y123472D02*
D03*
X-74569Y119535D02*
D03*
X-72601Y99850D02*
D03*
X-74569Y56543D02*
D03*
X-72601Y52606D02*
D03*
X-76538Y123472D02*
D03*
Y115598D02*
D03*
X-78506Y111661D02*
D03*
Y103787D02*
D03*
Y95913D02*
D03*
Y88039D02*
D03*
X-80475Y99850D02*
D03*
X-82443Y88039D02*
D03*
Y80165D02*
D03*
X-80475Y68354D02*
D03*
X74713Y218342D02*
D03*
X67203Y215338D02*
D03*
X65701Y218342D02*
D03*
X64199Y215338D02*
D03*
X53685Y218342D02*
D03*
X37163Y233362D02*
D03*
X38665Y230358D02*
D03*
X37163Y203323D02*
D03*
X38665Y200319D02*
D03*
X34159Y233362D02*
D03*
X35662Y230358D02*
D03*
X34159Y203323D02*
D03*
X35662Y200319D02*
D03*
X28152Y233362D02*
D03*
Y203323D02*
D03*
X25148Y233362D02*
D03*
X26650Y230358D02*
D03*
X25148Y203323D02*
D03*
X26650Y200319D02*
D03*
X22144Y233362D02*
D03*
X23646Y230358D02*
D03*
X22144Y203323D02*
D03*
X23646Y200319D02*
D03*
X16136Y233362D02*
D03*
Y203323D02*
D03*
X13132Y233362D02*
D03*
X14634Y230358D02*
D03*
X13132Y203323D02*
D03*
X14634Y200319D02*
D03*
X7124Y233362D02*
D03*
Y203323D02*
D03*
X4120Y233362D02*
D03*
X5622Y230358D02*
D03*
X4120Y203323D02*
D03*
X5622Y200319D02*
D03*
X1116Y233362D02*
D03*
X2618Y230358D02*
D03*
X1116Y203323D02*
D03*
X2618Y200319D02*
D03*
X-1888Y233362D02*
D03*
X-386Y230358D02*
D03*
X-1888Y203323D02*
D03*
X-386Y200319D02*
D03*
X-4892Y233362D02*
D03*
X-3390Y230358D02*
D03*
X-4892Y203323D02*
D03*
X-3390Y200319D02*
D03*
X-6394Y230358D02*
D03*
Y200319D02*
D03*
X-13904Y233362D02*
D03*
X-12402Y230358D02*
D03*
X-13904Y203323D02*
D03*
X-12402Y200319D02*
D03*
X-16907Y233362D02*
D03*
X-15405Y230358D02*
D03*
X-16907Y203323D02*
D03*
X-15405Y200319D02*
D03*
X-22915Y233362D02*
D03*
Y203323D02*
D03*
X-25919Y233362D02*
D03*
X-24417Y230358D02*
D03*
X-25919Y203323D02*
D03*
X-24417Y200319D02*
D03*
X-28923Y233362D02*
D03*
X-27421Y230358D02*
D03*
Y200319D02*
D03*
X-34931Y233362D02*
D03*
Y203323D02*
D03*
X-37935Y233362D02*
D03*
X-36433Y230358D02*
D03*
X-37935Y203323D02*
D03*
X-36433Y200319D02*
D03*
X-42441Y224350D02*
D03*
X-43943Y221346D02*
D03*
X-42441Y212335D02*
D03*
Y206327D02*
D03*
X-45445Y218342D02*
D03*
X-46947Y215338D02*
D03*
X-45445Y212335D02*
D03*
X-48449Y218342D02*
D03*
X-49951Y215338D02*
D03*
X-51453Y218342D02*
D03*
X-52955Y215338D02*
D03*
X-54457Y218342D02*
D03*
X-55959Y215338D02*
D03*
X-57461Y218342D02*
D03*
X-58963Y215338D02*
D03*
X-60465Y218342D02*
D03*
X-61967Y215338D02*
D03*
X-63469Y218342D02*
D03*
X-64970Y215338D02*
D03*
X-66473Y218342D02*
D03*
X-67975Y215338D02*
D03*
X-70978D02*
D03*
X-72480Y218342D02*
D03*
X-73982Y215338D02*
D03*
X-69400Y218300D02*
D03*
X-125400Y57400D02*
D03*
X-125500Y62700D02*
D03*
X-143800Y57200D02*
D03*
X-143900Y62700D02*
D03*
X-110000Y61811D02*
D03*
X-116102Y62795D02*
D03*
X177399Y300637D02*
D03*
X169525Y284889D02*
D03*
X177399Y269141D02*
D03*
X169525Y253393D02*
D03*
X177399Y237645D02*
D03*
Y206149D02*
D03*
X169525Y190401D02*
D03*
X177399Y174653D02*
D03*
X169525Y158905D02*
D03*
X177399Y143157D02*
D03*
X169525Y127409D02*
D03*
X177399Y111661D02*
D03*
Y80165D02*
D03*
X169525Y64416D02*
D03*
X177399Y48669D02*
D03*
Y17173D02*
D03*
X169525Y1424D02*
D03*
X177399Y-14324D02*
D03*
X169525Y-30072D02*
D03*
X153777Y284889D02*
D03*
Y253393D02*
D03*
X161651Y237645D02*
D03*
X153777Y221897D02*
D03*
X161651Y206149D02*
D03*
X153777Y190401D02*
D03*
Y158905D02*
D03*
X161651Y143157D02*
D03*
X153777Y127409D02*
D03*
X161651Y80165D02*
D03*
X153777Y64416D02*
D03*
X161651Y48669D02*
D03*
X153777Y32921D02*
D03*
Y1424D02*
D03*
X161651Y-14324D02*
D03*
X153777Y-30072D02*
D03*
X145903Y300637D02*
D03*
Y269141D02*
D03*
X138029Y253393D02*
D03*
X145903Y237645D02*
D03*
X138029Y221897D02*
D03*
X145903Y206149D02*
D03*
X138029Y190401D02*
D03*
Y158905D02*
D03*
X145903Y143157D02*
D03*
X138029Y127409D02*
D03*
X145903Y111661D02*
D03*
X138029Y95913D02*
D03*
X145903Y80165D02*
D03*
X138029Y32921D02*
D03*
X145903Y17173D02*
D03*
X138029Y1424D02*
D03*
X145903Y-14324D02*
D03*
X138029Y-30072D02*
D03*
X130155Y300637D02*
D03*
Y269141D02*
D03*
X122281Y253393D02*
D03*
X130155Y237645D02*
D03*
X122281Y221897D02*
D03*
X130155Y206149D02*
D03*
Y174653D02*
D03*
Y143157D02*
D03*
X122281Y127409D02*
D03*
X130155Y111661D02*
D03*
Y80165D02*
D03*
Y17173D02*
D03*
X122281Y1424D02*
D03*
X130155Y-14324D02*
D03*
X122281Y-30072D02*
D03*
X114407Y300637D02*
D03*
X106533Y284889D02*
D03*
X114407Y269141D02*
D03*
X106533Y253393D02*
D03*
X114407Y237645D02*
D03*
Y206149D02*
D03*
X106533Y190401D02*
D03*
X114407Y174653D02*
D03*
X106533Y158905D02*
D03*
X114407Y143157D02*
D03*
X106533Y127409D02*
D03*
X114407Y111661D02*
D03*
X106533Y95913D02*
D03*
X114407Y48669D02*
D03*
X106533Y32921D02*
D03*
X114407Y17173D02*
D03*
X106533Y1424D02*
D03*
X114407Y-14324D02*
D03*
X106533Y-30072D02*
D03*
X90785Y284889D02*
D03*
Y253393D02*
D03*
X98659Y237645D02*
D03*
Y206149D02*
D03*
Y17173D02*
D03*
Y-14324D02*
D03*
X90785Y-30072D02*
D03*
X75037Y284889D02*
D03*
Y253393D02*
D03*
Y-30072D02*
D03*
X67163Y300637D02*
D03*
Y269141D02*
D03*
X59289Y253393D02*
D03*
X51415Y300637D02*
D03*
X43540Y284889D02*
D03*
X51415Y269141D02*
D03*
X43540Y253393D02*
D03*
X35666Y300637D02*
D03*
X27793Y284889D02*
D03*
Y253393D02*
D03*
X12044Y284889D02*
D03*
Y-30072D02*
D03*
X4171Y300637D02*
D03*
X-3703Y284889D02*
D03*
Y253393D02*
D03*
X-11578Y300637D02*
D03*
Y269141D02*
D03*
X-19452Y-30072D02*
D03*
X-27326Y300637D02*
D03*
X-35200Y284889D02*
D03*
X-27326Y269141D02*
D03*
X-35200Y253393D02*
D03*
Y-30072D02*
D03*
X-50948Y284889D02*
D03*
Y253393D02*
D03*
X-66696Y284889D02*
D03*
Y253393D02*
D03*
Y-30072D02*
D03*
X-74570Y300637D02*
D03*
Y269141D02*
D03*
X-82444Y253393D02*
D03*
Y-30072D02*
D03*
X-90318Y300637D02*
D03*
Y269141D02*
D03*
X-98192Y253393D02*
D03*
Y221897D02*
D03*
Y190401D02*
D03*
Y158905D02*
D03*
Y127409D02*
D03*
Y32921D02*
D03*
X-106066Y300637D02*
D03*
X-113940Y284889D02*
D03*
X-106066Y269141D02*
D03*
X-113940Y253393D02*
D03*
X-106066Y237645D02*
D03*
X-113940Y221897D02*
D03*
X-106066Y206149D02*
D03*
X-113940Y190401D02*
D03*
X-106066Y174653D02*
D03*
X-113940Y158905D02*
D03*
X-106066Y143157D02*
D03*
X-113940Y127409D02*
D03*
X-106066Y48669D02*
D03*
X-113940Y32921D02*
D03*
X-106066Y17173D02*
D03*
X-129688Y284889D02*
D03*
Y253393D02*
D03*
X-121814Y237645D02*
D03*
X-129688Y221897D02*
D03*
X-121814Y206149D02*
D03*
X-129688Y190401D02*
D03*
X-121814Y174653D02*
D03*
X-129688Y158905D02*
D03*
X-121814Y143157D02*
D03*
X-129688Y127409D02*
D03*
X-121814Y111661D02*
D03*
X-129688Y95913D02*
D03*
X-121814Y80165D02*
D03*
X-129688Y32921D02*
D03*
X-121814Y17173D02*
D03*
Y-14324D02*
D03*
X-145436Y284889D02*
D03*
Y253393D02*
D03*
X-137562Y237645D02*
D03*
X-145436Y221897D02*
D03*
X-137562Y206149D02*
D03*
X-145436Y190401D02*
D03*
X-137562Y174653D02*
D03*
X-145436Y158905D02*
D03*
X-137562Y143157D02*
D03*
X-145436Y127409D02*
D03*
X-137562Y111661D02*
D03*
X-145436Y95913D02*
D03*
X-137562Y80165D02*
D03*
X-145436Y1424D02*
D03*
Y-30072D02*
D03*
X-153310Y300637D02*
D03*
Y269141D02*
D03*
X-161184Y253393D02*
D03*
X-153310Y237645D02*
D03*
X-161184Y221897D02*
D03*
X-153310Y206149D02*
D03*
X-161184Y190401D02*
D03*
X-153310Y174653D02*
D03*
X-161184Y158905D02*
D03*
X-153310Y143157D02*
D03*
X-161184Y127409D02*
D03*
X-153310Y111661D02*
D03*
X-161184Y95913D02*
D03*
Y32921D02*
D03*
Y1424D02*
D03*
Y-30072D02*
D03*
X-169058Y300637D02*
D03*
X-176932Y284889D02*
D03*
X-169058Y269141D02*
D03*
X-176932Y253393D02*
D03*
X-169058Y237645D02*
D03*
Y206149D02*
D03*
X-176932Y190401D02*
D03*
X-169058Y174653D02*
D03*
X-176932Y158905D02*
D03*
X-169058Y143157D02*
D03*
X-176932Y127409D02*
D03*
X-169058Y111661D02*
D03*
X-176932Y95913D02*
D03*
Y32921D02*
D03*
X-169058Y17173D02*
D03*
X-176932Y1424D02*
D03*
Y-30072D02*
D03*
X55800Y219081D02*
D03*
X52518Y71222D02*
D03*
X33386Y43639D02*
D03*
X-600Y107119D02*
D03*
X25300Y51800D02*
D03*
X-79843Y80213D02*
D03*
X-81020D02*
D03*
X-80434Y81250D02*
D03*
X79400Y93500D02*
D03*
D03*
X77087Y86531D02*
D03*
X77829Y87502D02*
D03*
X-650Y108316D02*
D03*
X7850Y45300D02*
D03*
X6789Y44706D02*
D03*
X14764Y106299D02*
D03*
X14764Y107500D02*
D03*
X14764Y104942D02*
D03*
X25291Y8436D02*
D03*
X25313Y9722D02*
D03*
X26578Y8436D02*
D03*
X26600Y9700D02*
D03*
X9000Y45020D02*
D03*
X58679Y151634D02*
D03*
X57086Y148819D02*
D03*
X54529Y88779D02*
D03*
X38300Y93675D02*
D03*
X4500Y10300D02*
D03*
D03*
X28306Y63651D02*
D03*
X25912D02*
D03*
X27109D02*
D03*
X25912Y64830D02*
D03*
X28306D02*
D03*
X-6730Y45524D02*
D03*
X-7316Y44488D02*
D03*
X-6139D02*
D03*
X1210Y11307D02*
D03*
X1795Y12344D02*
D03*
X619D02*
D03*
X-2023Y9027D02*
D03*
X33408Y42416D02*
D03*
Y44837D02*
D03*
X1791Y45213D02*
D03*
X614D02*
D03*
X1200Y46250D02*
D03*
X-107200Y81012D02*
D03*
X-105971D02*
D03*
X9016Y59638D02*
D03*
X10383D02*
D03*
Y58410D02*
D03*
X11750D02*
D03*
X9016D02*
D03*
X11750Y59638D02*
D03*
X58661Y182183D02*
D03*
X10500Y92300D02*
D03*
D03*
X38195Y94888D02*
D03*
X40425Y107337D02*
D03*
X40157Y144906D02*
D03*
D03*
X60236Y118110D02*
D03*
X58636Y100083D02*
D03*
X51575Y85259D02*
D03*
X50431Y106440D02*
D03*
X41732Y81988D02*
D03*
X18467Y166142D02*
D03*
X11200Y119257D02*
D03*
X-6595Y114665D02*
D03*
X-148034Y57872D02*
D03*
X-134252Y55412D02*
D03*
X-145276Y46752D02*
D03*
X-155236Y56890D02*
D03*
X-145200Y69000D02*
D03*
X-150118Y63780D02*
D03*
X-120800Y60984D02*
D03*
Y58701D02*
D03*
X-130512Y61811D02*
D03*
Y57874D02*
D03*
X-148032Y61811D02*
D03*
X-155236Y60827D02*
D03*
X79809Y100213D02*
D03*
X64639Y164338D02*
D03*
X16883Y208812D02*
D03*
X14781Y210770D02*
D03*
X16883Y212761D02*
D03*
X14781D02*
D03*
Y208812D02*
D03*
X26883D02*
D03*
X24781Y210770D02*
D03*
X26883Y212761D02*
D03*
X24781D02*
D03*
Y208812D02*
D03*
X37883Y208812D02*
D03*
X35781Y210770D02*
D03*
X37883Y212761D02*
D03*
X35781D02*
D03*
Y208812D02*
D03*
X38452Y219834D02*
D03*
X36350Y221792D02*
D03*
X38452Y223784D02*
D03*
X36350D02*
D03*
Y219834D02*
D03*
X27452D02*
D03*
X25350Y221792D02*
D03*
X27452Y223784D02*
D03*
X25350D02*
D03*
Y219834D02*
D03*
X17452D02*
D03*
X15350Y221792D02*
D03*
X17452Y223784D02*
D03*
X15350D02*
D03*
Y219834D02*
D03*
X7452D02*
D03*
X5350Y221792D02*
D03*
X7452Y223784D02*
D03*
X5350D02*
D03*
Y219834D02*
D03*
X6883Y208692D02*
D03*
X4781Y210649D02*
D03*
X6883Y212641D02*
D03*
X4781D02*
D03*
Y208692D02*
D03*
X-37533Y212607D02*
D03*
X-35431Y210649D02*
D03*
X-37533Y208658D02*
D03*
X-35431D02*
D03*
Y212607D02*
D03*
X-27112D02*
D03*
X-25010Y210649D02*
D03*
X-27112Y208658D02*
D03*
X-25010D02*
D03*
Y212607D02*
D03*
X-16864D02*
D03*
X-14762Y210649D02*
D03*
X-16864Y208658D02*
D03*
X-14762D02*
D03*
Y212607D02*
D03*
X-7021D02*
D03*
X-4919Y210649D02*
D03*
X-7021Y208658D02*
D03*
X-4919D02*
D03*
Y212607D02*
D03*
X-6372Y223749D02*
D03*
X-4270Y221792D02*
D03*
X-6372Y219800D02*
D03*
X-4270D02*
D03*
Y223749D02*
D03*
X-16214D02*
D03*
X-14112Y221792D02*
D03*
X-16214Y219800D02*
D03*
X-14112D02*
D03*
Y223749D02*
D03*
X-26405D02*
D03*
X-24303Y221792D02*
D03*
X-26405Y219800D02*
D03*
X-24303D02*
D03*
Y223749D02*
D03*
X-35300D02*
D03*
Y219800D02*
D03*
X-37402D02*
D03*
X-35300Y221792D02*
D03*
X-37402Y223749D02*
D03*
X-37533Y210649D02*
D03*
X-27112D02*
D03*
X-16864D02*
D03*
X-7021D02*
D03*
X6883Y210649D02*
D03*
X16883Y210770D02*
D03*
X26883D02*
D03*
X37883D02*
D03*
X38452Y221792D02*
D03*
X27452D02*
D03*
X17452D02*
D03*
X7452D02*
D03*
X-6372Y221792D02*
D03*
X-16214D02*
D03*
X-26405D02*
D03*
X-37402D02*
D03*
X27953Y218509D02*
D03*
X-68157Y89258D02*
D03*
Y90495D02*
D03*
Y91732D02*
D03*
Y85547D02*
D03*
Y86800D02*
D03*
Y84311D02*
D03*
Y88021D02*
D03*
Y83074D02*
D03*
X-18756Y107264D02*
D03*
X-142202Y-3197D02*
D03*
D03*
X-112202Y-3097D02*
D03*
D03*
X64276Y117460D02*
D03*
X65828Y112303D02*
D03*
X69759Y146600D02*
D03*
X67141Y149778D02*
D03*
X80400Y96900D02*
D03*
X55664Y61915D02*
D03*
X-18756Y108646D02*
D03*
X-18761Y105886D02*
D03*
X-27167Y92325D02*
D03*
X-27237Y89811D02*
D03*
X-27167Y94924D02*
D03*
X-27165Y100083D02*
D03*
X-23957Y91929D02*
D03*
X-20100Y103430D02*
D03*
X-38133Y172233D02*
D03*
X-65731D02*
D03*
X-38133Y174832D02*
D03*
X-38133Y177430D02*
D03*
Y180777D02*
D03*
X-65731Y174832D02*
D03*
X-65731Y180777D02*
D03*
X-107201Y-2776D02*
D03*
X-108701D02*
D03*
D03*
X-107201D02*
D03*
X-138479Y-2900D02*
D03*
X-137080D02*
D03*
X51841Y217521D02*
D03*
X50567D02*
D03*
X38021Y205340D02*
D03*
Y206613D02*
D03*
X27021Y205341D02*
D03*
Y206615D02*
D03*
X17021Y205341D02*
D03*
Y206615D02*
D03*
X7021Y205341D02*
D03*
Y206615D02*
D03*
X-37730Y205344D02*
D03*
Y206617D02*
D03*
X-27297Y205344D02*
D03*
Y206617D02*
D03*
X-17061Y205344D02*
D03*
Y206617D02*
D03*
X-7218Y205344D02*
D03*
Y206617D02*
D03*
X-6569Y225529D02*
D03*
Y226802D02*
D03*
X-16411Y225529D02*
D03*
Y226802D02*
D03*
X-26671Y225529D02*
D03*
Y226802D02*
D03*
X-37671Y225529D02*
D03*
Y226802D02*
D03*
X7590Y225527D02*
D03*
Y226800D02*
D03*
X17590Y225527D02*
D03*
Y226800D02*
D03*
X27590Y225526D02*
D03*
Y226800D02*
D03*
X38590D02*
D03*
Y225526D02*
D03*
X55352Y9299D02*
D03*
X51415D02*
D03*
X53384Y5362D02*
D03*
X47478Y9299D02*
D03*
X49447Y5362D02*
D03*
X43541Y9299D02*
D03*
X39604D02*
D03*
X41572Y5362D02*
D03*
X35667Y9299D02*
D03*
X31730D02*
D03*
X19919D02*
D03*
X15982D02*
D03*
X12045D02*
D03*
X10076Y5362D02*
D03*
Y-2512D02*
D03*
X-3703Y9299D02*
D03*
X-7640D02*
D03*
X-5672Y5362D02*
D03*
X-11577Y9299D02*
D03*
X-9609Y5362D02*
D03*
Y-2512D02*
D03*
X-15514Y9299D02*
D03*
X-13546Y5362D02*
D03*
X-19451Y9299D02*
D03*
X-17483Y5362D02*
D03*
X-23388Y9299D02*
D03*
X-21420Y5362D02*
D03*
X-27325Y9299D02*
D03*
X-25357Y5362D02*
D03*
Y-2512D02*
D03*
X-31262Y9299D02*
D03*
X-35199D02*
D03*
X-47010D02*
D03*
X-50947D02*
D03*
X-54884D02*
D03*
X30348Y98819D02*
D03*
X-4865Y51060D02*
D03*
Y52280D02*
D03*
X27109Y64830D02*
D03*
X65600Y58800D02*
D03*
X67192Y63513D02*
D03*
X68927Y66500D02*
D03*
X70502Y64913D02*
D03*
X68927D02*
D03*
X72077Y66487D02*
D03*
X-2581Y65050D02*
D03*
X-3753Y64200D02*
D03*
X-1400D02*
D03*
X-3681Y50050D02*
D03*
X-1328D02*
D03*
X-2500Y49200D02*
D03*
X59032Y61998D02*
D03*
X59042Y63500D02*
D03*
X64600Y61831D02*
D03*
Y63784D02*
D03*
X51673Y36220D02*
D03*
X3600Y9400D02*
D03*
X18281Y54235D02*
D03*
X4889Y56352D02*
D03*
X12782Y51451D02*
D03*
X11429Y51441D02*
D03*
X11358Y54425D02*
D03*
X15080Y59080D02*
D03*
X-40944Y12000D02*
D03*
D03*
X5709Y49188D02*
D03*
X6907D02*
D03*
X8091D02*
D03*
X24385Y128259D02*
D03*
X-7080Y131313D02*
D03*
X3757Y130637D02*
D03*
X-7099Y125205D02*
D03*
X21806Y137423D02*
D03*
X3757Y137408D02*
D03*
Y125200D02*
D03*
X45696Y89764D02*
D03*
X56496Y94685D02*
D03*
X3757Y122763D02*
D03*
X59289Y121378D02*
D03*
X52559Y94685D02*
D03*
X53642Y100437D02*
D03*
X20914Y100403D02*
D03*
Y164140D02*
D03*
X-6201Y167393D02*
D03*
Y165354D02*
D03*
X-56299Y180354D02*
D03*
X-56762Y170103D02*
D03*
X-56781Y167393D02*
D03*
X-52810Y184947D02*
D03*
X-6201Y168898D02*
D03*
X-50841Y170105D02*
D03*
X-50800Y180500D02*
D03*
X-56747Y184947D02*
D03*
X8268Y180800D02*
D03*
X12598Y152264D02*
D03*
X12600Y180800D02*
D03*
X22047Y154724D02*
D03*
X53600Y154200D02*
D03*
X52559Y98622D02*
D03*
X54528Y75197D02*
D03*
X7087D02*
D03*
X9232Y119257D02*
D03*
X-27165Y184207D02*
D03*
X-54778Y184947D02*
D03*
X-111969Y52400D02*
D03*
X-8661Y185571D02*
D03*
X-47357Y179494D02*
D03*
X-62199D02*
D03*
X-15113Y185532D02*
D03*
X-62199Y175547D02*
D03*
X-43711D02*
D03*
X60236Y148819D02*
D03*
X71850Y114862D02*
D03*
X58661Y148819D02*
D03*
X70472Y112303D02*
D03*
X-106200Y45600D02*
D03*
X22047Y152126D02*
D03*
X9449D02*
D03*
X-11422Y176766D02*
D03*
X39764Y83858D02*
D03*
X-18898Y112096D02*
D03*
X60433Y84842D02*
D03*
X-20472Y112096D02*
D03*
X59449Y83858D02*
D03*
X-67913Y75197D02*
D03*
X-43799Y90157D02*
D03*
X-67913Y71260D02*
D03*
X-43799Y86220D02*
D03*
X53520Y81890D02*
D03*
X460Y182283D02*
D03*
X46648Y103248D02*
D03*
X-33869Y175542D02*
D03*
X-19744Y177525D02*
D03*
X-2098Y185532D02*
D03*
X38583Y162992D02*
D03*
Y161713D02*
D03*
X-34587Y173589D02*
D03*
Y162992D02*
D03*
X36004Y175563D02*
D03*
X35433Y161713D02*
D03*
X-19744Y175557D02*
D03*
X-29134Y159390D02*
D03*
Y170105D02*
D03*
X50992Y129823D02*
D03*
X52756D02*
D03*
X50976Y159390D02*
D03*
X49213Y129823D02*
D03*
X-23225Y170945D02*
D03*
X49488D02*
D03*
X44685Y78937D02*
D03*
X38583Y146063D02*
D03*
X54905Y140157D02*
D03*
X48150D02*
D03*
X55512Y97638D02*
D03*
X36330Y75984D02*
D03*
Y144906D02*
D03*
X44685Y75984D02*
D03*
X51575Y104088D02*
D03*
X39331D02*
D03*
X52559Y78937D02*
D03*
X40157Y147638D02*
D03*
X52361Y114961D02*
D03*
X39400Y130000D02*
D03*
X50787Y113386D02*
D03*
X59449Y74255D02*
D03*
X64176Y74238D02*
D03*
X64193Y113386D02*
D03*
X52453D02*
D03*
X58465Y80906D02*
D03*
X42716Y82874D02*
D03*
X-94100Y114900D02*
D03*
X89370Y106711D02*
D03*
X103200Y106700D02*
D03*
X44685Y82874D02*
D03*
X-92200Y115700D02*
D03*
X90905Y107696D02*
D03*
X100000Y107500D02*
D03*
X50591Y78937D02*
D03*
X37894Y169528D02*
D03*
X45571Y183622D02*
D03*
Y177323D02*
D03*
X55511Y153196D02*
D03*
X46662Y88780D02*
D03*
X50591Y80906D02*
D03*
X29734Y172047D02*
D03*
X40748Y86811D02*
D03*
X43800Y181073D02*
D03*
X98500Y163487D02*
D03*
X98500Y175400D02*
D03*
X44685Y86811D02*
D03*
X96800Y162700D02*
D03*
Y173800D02*
D03*
X44882Y175571D02*
D03*
X-28949Y144095D02*
D03*
X-45164Y175547D02*
D03*
X-44460Y144082D02*
D03*
X-28937Y130709D02*
D03*
X-48107Y181471D02*
D03*
Y130709D02*
D03*
X-28937Y137402D02*
D03*
X-62199Y173589D02*
D03*
X-61700Y137300D02*
D03*
X-28937Y150787D02*
D03*
X-61437Y181500D02*
D03*
X-60800Y150900D02*
D03*
X43701Y89764D02*
D03*
X-75190Y109727D02*
D03*
X40748Y92717D02*
D03*
X-73527Y109727D02*
D03*
X40748Y98622D02*
D03*
X-74358Y108583D02*
D03*
X40748Y96654D02*
D03*
X-76021Y106299D02*
D03*
X-47206Y142717D02*
D03*
X40748Y90748D02*
D03*
X-47194Y129331D02*
D03*
X42716Y90748D02*
D03*
X-47194Y136024D02*
D03*
X42716Y92717D02*
D03*
X-47195Y149409D02*
D03*
X45394Y93458D02*
D03*
X-23636Y130268D02*
D03*
X-39382Y142815D02*
D03*
X-23649D02*
D03*
X-23636Y146667D02*
D03*
X-21850Y151280D02*
D03*
Y134894D02*
D03*
X-39370Y129429D02*
D03*
X-39345Y134887D02*
D03*
X-25450Y144682D02*
D03*
Y128299D02*
D03*
X-39370Y136122D02*
D03*
X-25450Y136124D02*
D03*
X-39370Y149508D02*
D03*
X-19891Y151280D02*
D03*
Y149508D02*
D03*
X-19882Y134894D02*
D03*
X61440Y58761D02*
D03*
X49213Y32677D02*
D03*
D03*
X53520Y79976D02*
D03*
X115067Y110512D02*
D03*
X90936Y103900D02*
D03*
X-24523Y141200D02*
D03*
Y126331D02*
D03*
X-22047Y86462D02*
D03*
X11122Y47787D02*
D03*
X46654Y96654D02*
D03*
X50591Y98622D02*
D03*
X9744Y72992D02*
D03*
X24705D02*
D03*
X52567Y92717D02*
D03*
X23327Y66378D02*
D03*
X8366Y66351D02*
D03*
X55511Y156345D02*
D03*
X-90469Y99600D02*
D03*
X58661Y156345D02*
D03*
X-90469Y100800D02*
D03*
X14168Y80144D02*
D03*
X-7425Y79933D02*
D03*
X-55413Y63386D02*
D03*
X-78445Y66732D02*
D03*
X-20500Y53500D02*
D03*
X-35827Y58024D02*
D03*
X42716Y86811D02*
D03*
X-72441Y63780D02*
D03*
X-74016Y66929D02*
D03*
X-69095Y64665D02*
D03*
X58465Y92715D02*
D03*
X-63484Y67323D02*
D03*
X44685Y84843D02*
D03*
X-62992Y165453D02*
D03*
X-59449D02*
D03*
X-50787Y158760D02*
D03*
X-59449D02*
D03*
X-62992D02*
D03*
X-50787Y152067D02*
D03*
X-59449D02*
D03*
X-62992D02*
D03*
X-50799Y145374D02*
D03*
X-59461D02*
D03*
X-63004D02*
D03*
X-50787Y138681D02*
D03*
X-59449D02*
D03*
X-62992D02*
D03*
X-50787Y131988D02*
D03*
X-62992D02*
D03*
X-50787Y125295D02*
D03*
X-62992D02*
D03*
X-50787Y118602D02*
D03*
X-59449D02*
D03*
X-62992D02*
D03*
Y111909D02*
D03*
X-2098Y182972D02*
D03*
X-8661Y183012D02*
D03*
X-15113Y182972D02*
D03*
X-15748Y177461D02*
D03*
X-31596Y91929D02*
D03*
X-32946D02*
D03*
X-50787Y165453D02*
D03*
X-65731Y177430D02*
D03*
X-59449Y125295D02*
D03*
Y131988D02*
D03*
Y111909D02*
D03*
X-50787D02*
D03*
X39405Y94721D02*
D03*
X-30906Y104214D02*
D03*
X-12992Y112087D02*
D03*
X-23957Y93898D02*
D03*
X-14685Y86024D02*
D03*
X-9662Y137597D02*
D03*
X-17913Y155989D02*
D03*
X-10100Y-13700D02*
D03*
X-39173Y75197D02*
D03*
X-26476Y82284D02*
D03*
X-26488Y81004D02*
D03*
X-44783Y79921D02*
D03*
X-61024Y78543D02*
D03*
X-56102Y78937D02*
D03*
Y73425D02*
D03*
X-61024Y73819D02*
D03*
X-54449Y67323D02*
D03*
X-44783Y70472D02*
D03*
X-44764Y67323D02*
D03*
X-19300Y82000D02*
D03*
X-15684Y78873D02*
D03*
X56496Y76969D02*
D03*
X17264Y177106D02*
D03*
X24384Y168140D02*
D03*
X17495Y170079D02*
D03*
X19407Y170079D02*
D03*
X-620Y172470D02*
D03*
Y161840D02*
D03*
X68897Y135244D02*
D03*
X70083D02*
D03*
X43169Y108035D02*
D03*
X46181Y113780D02*
D03*
X45965Y110630D02*
D03*
X41048Y155315D02*
D03*
X31621D02*
D03*
X32989D02*
D03*
X42394D02*
D03*
X34067Y142126D02*
D03*
X33749Y147638D02*
D03*
X38583Y149213D02*
D03*
X50787Y116535D02*
D03*
X45335Y123425D02*
D03*
X56953D02*
D03*
X55706D02*
D03*
X24562Y146654D02*
D03*
X46747Y123425D02*
D03*
X19583Y124732D02*
D03*
X17672Y124731D02*
D03*
X15137Y120197D02*
D03*
X15137Y118286D02*
D03*
X20151Y140656D02*
D03*
X4579Y140646D02*
D03*
X24385Y116043D02*
D03*
X24365Y119097D02*
D03*
X19082Y116021D02*
D03*
X46654Y94685D02*
D03*
X66925Y127788D02*
D03*
X72441Y142776D02*
D03*
X5905Y95312D02*
D03*
X21334Y95191D02*
D03*
X98Y65875D02*
D03*
Y64644D02*
D03*
Y63414D02*
D03*
Y62184D02*
D03*
X-9547Y53346D02*
D03*
X37500Y87046D02*
D03*
X-42913Y51819D02*
D03*
D03*
X20669Y11402D02*
D03*
D03*
X14764Y102756D02*
D03*
X46367Y57087D02*
D03*
X34935Y49336D02*
D03*
X33268Y33661D02*
D03*
Y31806D02*
D03*
X-600Y105921D02*
D03*
Y104724D02*
D03*
X46378Y53150D02*
D03*
X-2100Y53175D02*
D03*
X-39300Y9600D02*
D03*
X-39322Y8336D02*
D03*
X-40587Y9622D02*
D03*
X-40609Y8336D02*
D03*
X-6900Y88583D02*
D03*
X58465Y86811D02*
D03*
X72047Y87480D02*
D03*
X67126Y88780D02*
D03*
X58465D02*
D03*
X72113Y61938D02*
D03*
X65422Y90748D02*
D03*
X61388Y91732D02*
D03*
X72088Y57375D02*
D03*
X56496Y86811D02*
D03*
X68939Y57375D02*
D03*
X70686Y72539D02*
D03*
X68963Y61938D02*
D03*
X44685Y80906D02*
D03*
X101308Y104669D02*
D03*
X89278D02*
D03*
X42716Y80906D02*
D03*
X106400Y101300D02*
D03*
X89278Y103113D02*
D03*
X58465Y78937D02*
D03*
X-40551Y75197D02*
D03*
X56496Y80906D02*
D03*
X-71032Y108583D02*
D03*
X50591Y76969D02*
D03*
X-72695Y108565D02*
D03*
X48622Y78937D02*
D03*
X-76853Y109727D02*
D03*
X46654Y76969D02*
D03*
X-77684Y108565D02*
D03*
X45675Y79933D02*
D03*
X-71848Y109682D02*
D03*
X42716Y78937D02*
D03*
X-12598Y181951D02*
D03*
X-6063Y181826D02*
D03*
X57517Y77874D02*
D03*
X-47195Y109247D02*
D03*
X50591Y82874D02*
D03*
X-47194Y122638D02*
D03*
X48622Y76969D02*
D03*
X-47194Y156102D02*
D03*
X48622Y80906D02*
D03*
X-47194Y162795D02*
D03*
Y115945D02*
D03*
X46654Y78937D02*
D03*
X-52165Y76969D02*
D03*
X60433Y78937D02*
D03*
X-53050Y79823D02*
D03*
X-62992Y79921D02*
D03*
X62402Y76969D02*
D03*
X-56102D02*
D03*
X61417Y79921D02*
D03*
X-54134Y71457D02*
D03*
X-67900Y79100D02*
D03*
X12795Y103740D02*
D03*
X11811Y114193D02*
D03*
X13091Y97480D02*
D03*
X10500Y94291D02*
D03*
X4400Y112500D02*
D03*
X-2559Y103740D02*
D03*
X-3150Y114193D02*
D03*
X2008Y107480D02*
D03*
X-9979Y82622D02*
D03*
Y81284D02*
D03*
X-39961Y31800D02*
D03*
X-33268Y44488D02*
D03*
X46063Y213026D02*
D03*
D03*
X36300Y251427D02*
D03*
X49991Y172034D02*
D03*
X91000Y263800D02*
D03*
X46063Y214591D02*
D03*
D03*
X51502Y183880D02*
D03*
X-31102Y170101D02*
D03*
Y185679D02*
D03*
X27953Y213803D02*
D03*
X10966Y142407D02*
D03*
X11000Y182103D02*
D03*
X27953Y215378D02*
D03*
X-20874Y215155D02*
D03*
D03*
X-47357Y173589D02*
D03*
X-20874Y213580D02*
D03*
D03*
X-50841Y184947D02*
D03*
X46033Y217735D02*
D03*
D03*
X54700Y167600D02*
D03*
X46063Y216165D02*
D03*
D03*
X53111Y177594D02*
D03*
X-19771Y173530D02*
D03*
X13844Y142407D02*
D03*
Y178555D02*
D03*
X27953Y216953D02*
D03*
X-20874Y216730D02*
D03*
D03*
X-12200Y250900D02*
D03*
X-20874Y218304D02*
D03*
D03*
X60236Y123622D02*
D03*
X52362Y118110D02*
D03*
X-52270Y102300D02*
D03*
X-35361Y177523D02*
D03*
X-15748Y180020D02*
D03*
X-62224Y177526D02*
D03*
X49685Y57087D02*
D03*
X48720Y46555D02*
D03*
X62402Y96654D02*
D03*
X53583Y43996D02*
D03*
X-66043Y162780D02*
D03*
Y156102D02*
D03*
X-66047Y149409D02*
D03*
Y142717D02*
D03*
X-66043Y136024D02*
D03*
Y129307D02*
D03*
Y122638D02*
D03*
Y115945D02*
D03*
Y109252D02*
D03*
Y68071D02*
D03*
X-35827Y67520D02*
D03*
X40748Y78937D02*
D03*
X37244Y68012D02*
D03*
X-17323Y118612D02*
D03*
X-24523Y132236D02*
D03*
X-20472Y118612D02*
D03*
X-24508Y148622D02*
D03*
X52559Y96654D02*
D03*
X-10243Y97546D02*
D03*
X54529Y92690D02*
D03*
X-27159Y97546D02*
D03*
X62405Y84843D02*
D03*
X-23799Y86516D02*
D03*
X-37393Y114560D02*
D03*
X-39370Y109350D02*
D03*
X-21467Y114567D02*
D03*
X-37400Y109350D02*
D03*
X-14475Y121409D02*
D03*
X-37400Y122736D02*
D03*
X-39370D02*
D03*
X-37402Y121409D02*
D03*
X-14475Y128315D02*
D03*
Y144701D02*
D03*
X-39370Y156201D02*
D03*
Y154542D02*
D03*
X-15959D02*
D03*
X-15944Y134894D02*
D03*
X-15945Y151280D02*
D03*
X-39370Y160800D02*
D03*
Y162894D02*
D03*
X-13287Y160800D02*
D03*
Y132236D02*
D03*
Y148622D02*
D03*
X-12100Y146654D02*
D03*
X-39370Y116043D02*
D03*
X-39370Y120378D02*
D03*
X-12100D02*
D03*
Y130284D02*
D03*
X-40453Y90157D02*
D03*
X42716Y96654D02*
D03*
X24782Y47971D02*
D03*
X63544Y176800D02*
D03*
Y175600D02*
D03*
Y167481D02*
D03*
Y166300D02*
D03*
X63323Y179913D02*
D03*
X61923Y182036D02*
D03*
X53202Y175639D02*
D03*
X62483Y168946D02*
D03*
X48425Y169193D02*
D03*
X44193Y183622D02*
D03*
Y177323D02*
D03*
X41579Y177756D02*
D03*
X40354Y184055D02*
D03*
X41535D02*
D03*
X40295Y177756D02*
D03*
X39272Y169528D02*
D03*
X113300Y161137D02*
D03*
Y165300D02*
D03*
X156800Y159800D02*
D03*
X136500Y160947D02*
D03*
X64639Y162697D02*
D03*
X62205Y164338D02*
D03*
X67041Y162372D02*
D03*
X69679Y156328D02*
D03*
X156800Y155637D02*
D03*
X136500Y156784D02*
D03*
X69203Y137936D02*
D03*
X67331D02*
D03*
X61811Y153196D02*
D03*
X66811Y133858D02*
D03*
X66583Y131102D02*
D03*
X61020Y157920D02*
D03*
X60236Y154771D02*
D03*
X61811D02*
D03*
X58661D02*
D03*
X42394Y164764D02*
D03*
X41048D02*
D03*
X52362Y155236D02*
D03*
X60236Y153196D02*
D03*
X61540Y139862D02*
D03*
X58779Y139764D02*
D03*
X58661Y153196D02*
D03*
X52756Y143189D02*
D03*
X56445Y133268D02*
D03*
X46063D02*
D03*
X17323Y179646D02*
D03*
X35039Y169488D02*
D03*
X33071D02*
D03*
X37008Y146063D02*
D03*
X33749Y145039D02*
D03*
X32962Y164764D02*
D03*
X31678D02*
D03*
X27953Y171772D02*
D03*
X27665Y146654D02*
D03*
X30709Y146614D02*
D03*
X19748Y144193D02*
D03*
X1838Y183780D02*
D03*
X14961Y174594D02*
D03*
X14291Y183465D02*
D03*
X15400Y169100D02*
D03*
X15500Y161800D02*
D03*
X14400Y129800D02*
D03*
X14272Y180315D02*
D03*
X7800Y161800D02*
D03*
Y169100D02*
D03*
X7900Y129700D02*
D03*
X4577Y144025D02*
D03*
X76496Y100394D02*
D03*
X70197Y103543D02*
D03*
X68110Y129528D02*
D03*
X66811Y125197D02*
D03*
X71378Y96850D02*
D03*
X71398Y93346D02*
D03*
X70197Y100394D02*
D03*
X76118Y91718D02*
D03*
X74839Y89750D02*
D03*
X74819Y86994D02*
D03*
X68779Y86614D02*
D03*
X76890Y82677D02*
D03*
Y76378D02*
D03*
X76378Y72539D02*
D03*
X60354Y104331D02*
D03*
X62402Y90748D02*
D03*
X56496D02*
D03*
X49213Y113386D02*
D03*
X46654Y90748D02*
D03*
X52559Y86811D02*
D03*
X50591Y88780D02*
D03*
X46654Y84843D02*
D03*
X56496D02*
D03*
X56181Y71260D02*
D03*
X64760Y68303D02*
D03*
X49882Y71260D02*
D03*
X51181Y67835D02*
D03*
X48056Y67176D02*
D03*
X160254Y38361D02*
D03*
Y36261D02*
D03*
Y38361D02*
D03*
Y36261D02*
D03*
X159291Y37362D02*
D03*
D03*
X158154Y36261D02*
D03*
X160254Y15788D02*
D03*
D03*
Y17888D02*
D03*
D03*
X159291Y16890D02*
D03*
D03*
X70538Y60363D02*
D03*
X64760Y66349D02*
D03*
X70513Y55800D02*
D03*
X65900Y55380D02*
D03*
X55394Y65256D02*
D03*
X47756Y61417D02*
D03*
X46457Y65748D02*
D03*
X55610Y53543D02*
D03*
X53051Y59100D02*
D03*
X48720Y39213D02*
D03*
X158154Y36261D02*
D03*
Y17888D02*
D03*
Y15788D02*
D03*
Y17888D02*
D03*
Y15788D02*
D03*
Y38361D02*
D03*
D03*
X47480Y31988D02*
D03*
X42345Y113797D02*
D03*
X37795Y112463D02*
D03*
X24385Y125050D02*
D03*
X24365Y122151D02*
D03*
X19652Y122763D02*
D03*
X37697Y115495D02*
D03*
X34528Y109051D02*
D03*
X44685Y96654D02*
D03*
X35059Y89252D02*
D03*
Y83346D02*
D03*
X31714Y86462D02*
D03*
X20591Y98425D02*
D03*
X21334Y92041D02*
D03*
X26437Y86462D02*
D03*
X29734D02*
D03*
X24564D02*
D03*
X17710Y122731D02*
D03*
X14400Y123700D02*
D03*
X7900D02*
D03*
X12500Y112441D02*
D03*
X14468Y98858D02*
D03*
X5789Y112441D02*
D03*
X1870D02*
D03*
X2853Y105118D02*
D03*
X0Y98858D02*
D03*
X5076Y98622D02*
D03*
X18110Y87620D02*
D03*
Y88976D02*
D03*
X18063Y85271D02*
D03*
Y84055D02*
D03*
X16142Y84646D02*
D03*
X14370Y84055D02*
D03*
X5905Y92163D02*
D03*
X2756Y88189D02*
D03*
X14370Y85271D02*
D03*
X689Y84646D02*
D03*
X43976Y71260D02*
D03*
X42598Y55807D02*
D03*
X40748D02*
D03*
X41554Y48130D02*
D03*
X43409D02*
D03*
X38795D02*
D03*
X37677Y71260D02*
D03*
X35059Y80039D02*
D03*
X37244Y66634D02*
D03*
X31791Y67323D02*
D03*
X24705Y66378D02*
D03*
X41732Y36220D02*
D03*
X37165Y36516D02*
D03*
X34842Y3036D02*
D03*
X35079Y-1983D02*
D03*
X34055Y674D02*
D03*
X26772Y42126D02*
D03*
X24803Y36319D02*
D03*
X33155Y3036D02*
D03*
X33042Y-1983D02*
D03*
X26772Y30709D02*
D03*
X16142Y80197D02*
D03*
Y81693D02*
D03*
X20571Y74409D02*
D03*
X23327Y72992D02*
D03*
X16260Y77559D02*
D03*
X1299D02*
D03*
X787Y80906D02*
D03*
X8898Y76870D02*
D03*
X8366Y72992D02*
D03*
X5610Y74409D02*
D03*
X12736Y54425D02*
D03*
X9744Y66358D02*
D03*
X1279Y-2082D02*
D03*
X-96Y2800D02*
D03*
X-4685Y183780D02*
D03*
X-10039Y161811D02*
D03*
X-11221Y183780D02*
D03*
X-10039Y172441D02*
D03*
X-11909Y178228D02*
D03*
X-7064Y137597D02*
D03*
X-2461Y112441D02*
D03*
X-6063Y76870D02*
D03*
X-13046Y114681D02*
D03*
X-13839Y93898D02*
D03*
X-17582Y147085D02*
D03*
X-17323Y80315D02*
D03*
X-12598Y79016D02*
D03*
X-18874Y78730D02*
D03*
X-19882Y140827D02*
D03*
X-20512Y155989D02*
D03*
X-18898Y129283D02*
D03*
X-19882Y123673D02*
D03*
Y139114D02*
D03*
X-27165Y177526D02*
D03*
X-25197Y170105D02*
D03*
X-27165D02*
D03*
X-18898Y118612D02*
D03*
Y94882D02*
D03*
X-30906Y106004D02*
D03*
X-22047Y78873D02*
D03*
X-23799Y85138D02*
D03*
X-50745Y181721D02*
D03*
X-42913Y165453D02*
D03*
X-52810Y173600D02*
D03*
Y170105D02*
D03*
X-45423Y162795D02*
D03*
X-42913Y158760D02*
D03*
X-58619Y181721D02*
D03*
X-58800Y178555D02*
D03*
X-52955Y175547D02*
D03*
X-54778Y170105D02*
D03*
X-42913Y152067D02*
D03*
X-42925Y145374D02*
D03*
X-42913Y131988D02*
D03*
X-42808Y125273D02*
D03*
X-42913Y138681D02*
D03*
X-45423Y149409D02*
D03*
X-45499Y156102D02*
D03*
X-45435Y142717D02*
D03*
X-45423Y136024D02*
D03*
Y129331D02*
D03*
X-42966Y118562D02*
D03*
X-38511Y103740D02*
D03*
X-39272Y79921D02*
D03*
X-40079Y103740D02*
D03*
X-45423Y115945D02*
D03*
Y122638D02*
D03*
X-43029Y111871D02*
D03*
X-45423Y109252D02*
D03*
X-44983Y103800D02*
D03*
X-47060Y103961D02*
D03*
X-60236Y100995D02*
D03*
X-61772Y100394D02*
D03*
X-49047Y91142D02*
D03*
X-47778D02*
D03*
X-60236Y99709D02*
D03*
X-73266Y126142D02*
D03*
X-74614Y124665D02*
D03*
X-74892Y120866D02*
D03*
X-76185Y117961D02*
D03*
X-74904Y117921D02*
D03*
X-63440Y100995D02*
D03*
X-63361Y99709D02*
D03*
X-75554Y116892D02*
D03*
X-80413Y91836D02*
D03*
X-47778Y89173D02*
D03*
X-49007D02*
D03*
X-50197Y76969D02*
D03*
X-54586Y85242D02*
D03*
X-53287Y85236D02*
D03*
X-80413Y89961D02*
D03*
X-57874Y86909D02*
D03*
X-80315Y76654D02*
D03*
X-61024Y76575D02*
D03*
X-80413Y86462D02*
D03*
Y84252D02*
D03*
X-39272Y67323D02*
D03*
X-23857Y63854D02*
D03*
X-25884Y63189D02*
D03*
X-27908Y63854D02*
D03*
X-33366Y63386D02*
D03*
X-41929Y75197D02*
D03*
X-50197Y71457D02*
D03*
X-41831Y70472D02*
D03*
X-47362Y67323D02*
D03*
X-51850D02*
D03*
X-23857Y62598D02*
D03*
X-27908D02*
D03*
X-15945Y61713D02*
D03*
X-13976D02*
D03*
X-43307Y62795D02*
D03*
X-35827Y60583D02*
D03*
X-41535Y62500D02*
D03*
X-61024Y71850D02*
D03*
X-66903Y73204D02*
D03*
X-56102Y71457D02*
D03*
X-60925Y67323D02*
D03*
X-73266Y75197D02*
D03*
X-76021D02*
D03*
X-73266Y73228D02*
D03*
X-69095D02*
D03*
X-76021D02*
D03*
X-74016Y65354D02*
D03*
X-69095Y62894D02*
D03*
X-60925Y60236D02*
D03*
X-63583Y55807D02*
D03*
X-66437Y60236D02*
D03*
X-103898Y59016D02*
D03*
D03*
X-9547Y51378D02*
D03*
Y49409D02*
D03*
X-14961Y54331D02*
D03*
X-50059Y48819D02*
D03*
X-60431Y49081D02*
D03*
X-15945Y46949D02*
D03*
X-12008D02*
D03*
X-17913D02*
D03*
X-60431Y46621D02*
D03*
X-27166Y45276D02*
D03*
X-29528D02*
D03*
X-28346Y44364D02*
D03*
X-31102Y-1907D02*
D03*
X-50059Y35846D02*
D03*
X-60433Y39764D02*
D03*
Y43021D02*
D03*
X-31398Y3036D02*
D03*
X-32087Y674D02*
D03*
X-33071Y3036D02*
D03*
X-33169Y-1907D02*
D03*
X-63386Y53248D02*
D03*
X-98776Y-28839D02*
D03*
X-104606Y-8381D02*
D03*
D03*
X-96676Y-28839D02*
D03*
D03*
X-97638Y-29838D02*
D03*
X-96676Y-30939D02*
D03*
D03*
X-98776Y-28839D02*
D03*
X-97638Y-29838D02*
D03*
X-98776Y-30939D02*
D03*
D03*
X-134252Y64273D02*
D03*
D03*
Y62664D02*
D03*
X-145200Y71654D02*
D03*
X-134252Y65748D02*
D03*
X-145200Y71654D02*
D03*
X-134252Y65748D02*
D03*
X-114961Y45551D02*
D03*
D03*
X-119685Y42421D02*
D03*
X-134252Y62664D02*
D03*
X-145276Y49272D02*
D03*
X-119685Y42421D02*
D03*
X-145374Y33465D02*
D03*
X-146453Y71654D02*
D03*
D03*
X-147705D02*
D03*
D03*
X-145374Y33465D02*
D03*
X-172835Y34154D02*
D03*
D03*
X-146949Y28200D02*
D03*
D03*
Y29900D02*
D03*
D03*
X-151400Y4100D02*
D03*
X-134528Y-8381D02*
D03*
D03*
X-137080Y-2900D02*
D03*
X-138479D02*
D03*
X-151400Y-30939D02*
D03*
Y6200D02*
D03*
D03*
X-152362Y5202D02*
D03*
X-151400Y4100D02*
D03*
X-152362Y5202D02*
D03*
X-153500Y6200D02*
D03*
Y4100D02*
D03*
Y6200D02*
D03*
Y4100D02*
D03*
X-151400Y-28839D02*
D03*
D03*
Y-30939D02*
D03*
X-152362Y-29838D02*
D03*
D03*
X-153500Y-28839D02*
D03*
D03*
Y-30939D02*
D03*
D03*
X32480Y82874D02*
D03*
X69896Y117431D02*
D03*
X-28937Y110630D02*
D03*
D03*
X43800Y111677D02*
D03*
X57398Y184911D02*
D03*
X56494Y107480D02*
D03*
X60630D02*
D03*
X56496Y98622D02*
D03*
X27953Y169173D02*
D03*
X29652Y92224D02*
D03*
X31770D02*
D03*
X46575Y71260D02*
D03*
X40276D02*
D03*
X53169Y65236D02*
D03*
Y63780D02*
D03*
X59051Y68183D02*
D03*
X59042Y66681D02*
D03*
X62500Y71260D02*
D03*
X80384Y87127D02*
D03*
X70886Y106693D02*
D03*
X57756Y104331D02*
D03*
X-41535Y57776D02*
D03*
X-60827Y64665D02*
D03*
X35039Y85945D02*
D03*
Y77417D02*
D03*
X53248Y46555D02*
D03*
X102700Y98900D02*
D03*
X40448Y108877D02*
D03*
X72973Y140000D02*
D03*
X48622Y96654D02*
D03*
X16142Y88287D02*
D03*
X48622Y98622D02*
D03*
X8268Y116018D02*
D03*
X50591Y96654D02*
D03*
X8898Y78248D02*
D03*
X11122Y112441D02*
D03*
X48642Y94721D02*
D03*
X787Y88189D02*
D03*
X15157Y114193D02*
D03*
X1300D02*
D03*
X-6063Y79933D02*
D03*
X50591Y92717D02*
D03*
X-4986Y112106D02*
D03*
X-28937Y124016D02*
D03*
X-43298Y215942D02*
D03*
D03*
X-53937Y179198D02*
D03*
X-53780Y124016D02*
D03*
X-28937Y157480D02*
D03*
X-43298Y214367D02*
D03*
D03*
X-52362Y179198D02*
D03*
X-36100Y248000D02*
D03*
X-51822Y157394D02*
D03*
X-28937Y164173D02*
D03*
X-43298Y217517D02*
D03*
D03*
X-55512Y179198D02*
D03*
X-55758Y164173D02*
D03*
X-28937Y117323D02*
D03*
X-43298Y219092D02*
D03*
D03*
X-57087Y179198D02*
D03*
X-57680Y117323D02*
D03*
X57086Y157920D02*
D03*
X55511D02*
D03*
X47736Y87825D02*
D03*
X57086Y156345D02*
D03*
X134531Y165043D02*
D03*
X57086Y154771D02*
D03*
X40748Y88779D02*
D03*
X37165Y35138D02*
D03*
X28346Y29134D02*
D03*
X63386Y93701D02*
D03*
X28346Y40551D02*
D03*
X42520Y42421D02*
D03*
X42519Y39272D02*
D03*
X42716Y76960D02*
D03*
X25197Y40551D02*
D03*
X29724Y42111D02*
D03*
X25197Y29134D02*
D03*
X29558Y30709D02*
D03*
X55512Y91718D02*
D03*
X60433Y92717D02*
D03*
D03*
X92097Y215791D02*
D03*
Y216972D02*
D03*
Y215791D02*
D03*
Y216972D02*
D03*
X60433Y76969D02*
D03*
X-52165Y71457D02*
D03*
X-10236Y142717D02*
D03*
X58465Y82874D02*
D03*
X-15945Y140059D02*
D03*
X58476Y84842D02*
D03*
X60433Y86811D02*
D03*
X-17913Y139179D02*
D03*
X54528Y94688D02*
D03*
X-13459Y126323D02*
D03*
X54528Y96654D02*
D03*
X-15945Y122763D02*
D03*
X-17913Y124587D02*
D03*
X54528Y98622D02*
D03*
X35256Y93917D02*
D03*
X33345Y78740D02*
D03*
X56496Y78937D02*
D03*
X71850Y141319D02*
D03*
X30709Y81358D02*
D03*
D232*
X-172835Y42835D02*
D03*
Y76850D02*
D03*
D233*
X-151732Y42835D02*
D03*
Y76850D02*
D03*
D237*
X50706Y869D02*
D03*
X-50706D02*
D03*
D238*
X-15256D02*
D03*
X15256D02*
D03*
D243*
X10966Y182069D02*
X11000Y182103D01*
X10966Y142637D02*
Y182069D01*
X13844Y142407D02*
Y178555D01*
D251*
X79400Y93500D02*
Y95900D01*
X80400Y96900D01*
X39400Y104158D02*
Y145197D01*
X39331Y104088D02*
X39400Y104158D01*
Y145197D02*
Y146880D01*
X40157Y147638D01*
X59289Y121378D02*
X59394Y121273D01*
Y120989D02*
X59418Y120964D01*
Y97607D02*
Y101575D01*
Y120964D01*
X56496Y94685D02*
X59418Y97607D01*
X59394Y120989D02*
Y121273D01*
X60236Y118110D02*
Y123622D01*
X51575Y101575D02*
Y104088D01*
Y86579D02*
Y101575D01*
Y86579D02*
X52559Y85594D01*
Y78945D02*
Y85594D01*
X51575Y104088D02*
Y114175D01*
X52559Y78945D02*
X52567Y78937D01*
X51575Y114175D02*
X52361Y114961D01*
X-108701Y-2776D02*
X-108698Y-2779D01*
X-107201Y-2776D02*
X-107199Y-2779D01*
X72047Y66487D02*
Y87480D01*
X66127Y59327D02*
Y90043D01*
X65600Y58800D02*
X66127Y59327D01*
X65422Y90748D02*
X66127Y90043D01*
X67126Y63513D02*
Y88780D01*
X12782Y51451D02*
X12789Y51444D01*
Y50626D02*
Y51444D01*
X11122Y48959D02*
X12789Y50626D01*
X52559Y94685D02*
X53642Y95768D01*
Y100437D01*
X20914Y100403D02*
Y164140D01*
Y100403D02*
Y164140D01*
X-56764Y167410D02*
Y170101D01*
X-56760Y170105D02*
X-56747D01*
X-56781Y167393D02*
X-56764Y167410D01*
X-56299Y173128D02*
Y180354D01*
X-56747Y172681D02*
X-56299Y173128D01*
X-56764Y170101D02*
X-56760Y170105D01*
X-56747D02*
Y172681D01*
X-56299Y180354D02*
X-52810Y183844D01*
Y184947D01*
X-50841Y180459D02*
X-50800Y180500D01*
X-50841Y170105D02*
Y180459D01*
X52559Y98622D02*
Y111159D01*
X53600Y112200D01*
Y112205D02*
Y120866D01*
Y112200D02*
Y112205D01*
Y120866D02*
Y154200D01*
X7087Y117887D02*
X8457Y119257D01*
X9232D01*
X7087Y75197D02*
Y117887D01*
X38583Y161713D02*
Y162982D01*
X-34587Y162992D02*
Y173589D01*
X35433Y161713D02*
X36004Y162284D01*
Y175563D01*
X-29921Y160177D02*
X-29134Y159390D01*
X-29921Y169317D02*
X-29134Y170105D01*
X-29921Y160177D02*
Y169317D01*
X55512Y97638D02*
Y101575D01*
Y120472D01*
X54905Y121080D02*
Y140157D01*
Y121080D02*
X55512Y120472D01*
X36330Y75984D02*
Y144906D01*
X58465Y80138D02*
X59449Y79154D01*
X58465Y80138D02*
Y80906D01*
X59449Y74255D02*
Y79154D01*
X64193Y74222D02*
Y113386D01*
X-44460Y144082D02*
Y163692D01*
X-45164Y175547D02*
X-44460Y174844D01*
Y163692D02*
Y174844D01*
X-48107Y130709D02*
Y181471D01*
X-61700Y137300D02*
Y173008D01*
X-62277Y173585D02*
X-61700Y173008D01*
X-61437Y181500D02*
X-61318Y181381D01*
X-60800Y180863D01*
Y150900D02*
Y180863D01*
X11122Y47787D02*
Y48959D01*
X-72441Y63780D02*
Y65354D01*
X-74016Y66929D02*
X-72441Y65354D01*
X12795Y110195D02*
X13600Y111000D01*
X12795Y103740D02*
Y110195D01*
X13600Y111000D02*
Y113100D01*
X12507Y114193D02*
X13600Y113100D01*
X11811Y114193D02*
X12507D01*
X-3209Y109239D02*
Y114134D01*
X-2559Y103740D02*
Y108589D01*
X-3209Y114134D02*
X-3150Y114193D01*
X-3209Y109239D02*
X-2559Y108589D01*
X-66043Y68071D02*
Y162796D01*
X160254Y38361D02*
X160256Y38358D01*
X160254Y36261D02*
X160256Y36258D01*
X160254Y17888D02*
X160256Y17886D01*
X159291Y37362D02*
X159294Y37360D01*
X158154Y38361D02*
X158156Y38358D01*
X158154Y36261D02*
X158156Y36258D01*
X158154Y17888D02*
X158156Y17886D01*
X159291Y16890D02*
X159294Y16887D01*
X160254Y15788D02*
X160256Y15786D01*
X158154Y15788D02*
X158156Y15786D01*
X-103898Y59002D02*
Y59016D01*
X-98776Y-28839D02*
X-98773Y-28842D01*
X-96676Y-28839D02*
X-96673Y-28842D01*
X-104606Y-8381D02*
X-104604Y-8383D01*
X-96676Y-30939D02*
X-96673Y-30942D01*
X-97638Y-29838D02*
X-97635Y-29840D01*
X-98776Y-30939D02*
X-98773Y-30942D01*
X-145200Y71654D02*
X-145198Y71651D01*
X-134252Y64273D02*
X-134250Y64271D01*
X-134252Y62664D02*
X-134250Y62661D01*
X-134252Y65748D02*
X-134250Y65746D01*
X-115000Y45512D02*
X-114961Y45551D01*
X-119700Y42406D02*
X-119685Y42421D01*
X-172835Y34154D02*
X-172832Y34151D01*
X-145374Y33465D02*
X-145372Y33462D01*
X-137080Y-2900D02*
X-137077Y-2902D01*
X-138479Y-2900D02*
X-138477Y-2902D01*
X-146949Y29900D02*
X-146946Y29898D01*
X-146949Y28200D02*
X-146946Y28198D01*
X-151400Y6200D02*
X-151398Y6198D01*
X-151400Y4100D02*
X-151398Y4098D01*
X-134528Y-8381D02*
X-134525Y-8383D01*
X-151400Y-30939D02*
X-151398Y-30942D01*
X-151400Y-28839D02*
X-151398Y-28842D01*
X-152362Y5202D02*
X-152360Y5199D01*
X-153500Y6200D02*
X-153498Y6198D01*
X-153500Y4100D02*
X-153498Y4098D01*
X-153500Y-28839D02*
X-153498Y-28842D01*
X-152362Y-29838D02*
X-152360Y-29840D01*
X-153500Y-30939D02*
X-153498Y-30942D01*
X56494Y98624D02*
X56496Y98622D01*
X56494Y98624D02*
Y107480D01*
D254*
X43800Y111677D02*
Y171333D01*
X57378Y184911D01*
D262*
X164000Y182673D02*
D03*
X171000Y182673D02*
D03*
X164000Y177673D02*
D03*
X171000D02*
D03*
X164000Y172673D02*
D03*
X171000D02*
D03*
X164000Y167673D02*
D03*
X171000Y167673D02*
D03*
X164000Y162673D02*
D03*
X171000D02*
D03*
X164000Y111063D02*
D03*
X171000Y111063D02*
D03*
X164000Y106063D02*
D03*
X171000D02*
D03*
X164000Y101063D02*
D03*
X171000D02*
D03*
X164000Y96063D02*
D03*
X171000Y96063D02*
D03*
X164000Y91063D02*
D03*
X171000D02*
D03*
D263*
X160000Y271402D02*
D03*
Y311402D02*
D03*
X140000Y271405D02*
D03*
Y311405D02*
D03*
X119958Y271405D02*
D03*
Y311405D02*
D03*
X100000Y271402D02*
D03*
Y311402D02*
D03*
X80000Y271402D02*
D03*
Y311402D02*
D03*
X60000Y271402D02*
D03*
Y311402D02*
D03*
X40400Y271500D02*
D03*
Y311500D02*
D03*
X20000D02*
D03*
Y271500D02*
D03*
X0Y271402D02*
D03*
Y311402D02*
D03*
X-20000D02*
D03*
Y271402D02*
D03*
X-40000D02*
D03*
Y311402D02*
D03*
X-60000Y271402D02*
D03*
Y311402D02*
D03*
X-80000D02*
D03*
Y271402D02*
D03*
X-100000Y311402D02*
D03*
Y271402D02*
D03*
X-120000Y311402D02*
D03*
Y271402D02*
D03*
X-140000Y311402D02*
D03*
Y271402D02*
D03*
X-160000Y311402D02*
D03*
Y271402D02*
D03*
D264*
X144016Y147673D02*
D03*
Y157673D02*
D03*
Y167673D02*
D03*
Y177673D02*
D03*
Y187673D02*
D03*
X123031Y32126D02*
D03*
Y42126D02*
D03*
Y22126D02*
D03*
Y187673D02*
D03*
Y147673D02*
D03*
Y157673D02*
D03*
Y167673D02*
D03*
Y177673D02*
D03*
Y106063D02*
D03*
Y116063D02*
D03*
Y76063D02*
D03*
Y86063D02*
D03*
Y96063D02*
D03*
X-130000Y-27200D02*
D03*
X-120000D02*
D03*
X-110000D02*
D03*
X144016Y116063D02*
D03*
Y106063D02*
D03*
X-50000Y-27200D02*
D03*
X60000D02*
D03*
X15000D02*
D03*
X40000D02*
D03*
X-5000D02*
D03*
X144016Y86063D02*
D03*
Y96063D02*
D03*
Y76063D02*
D03*
X-30000Y-27200D02*
D03*
X5000D02*
D03*
X50000D02*
D03*
X-40000D02*
D03*
D265*
X144016Y137673D02*
D03*
X123031Y12126D02*
D03*
Y137673D02*
D03*
Y66063D02*
D03*
X144016D02*
D03*
D266*
X-140000Y-27200D02*
D03*
X-15000D02*
D03*
X30000D02*
D03*
X-60000D02*
D03*
D267*
X63386Y43307D02*
D03*
X68420Y47722D02*
D03*
X-44488Y31102D02*
D03*
X-24803D02*
D03*
X41754Y201170D02*
D03*
X30927D02*
D03*
X20100D02*
D03*
X9273D02*
D03*
X-9231D02*
D03*
X-20057D02*
D03*
X41754Y231092D02*
D03*
X30927D02*
D03*
X20100D02*
D03*
X9273D02*
D03*
X-9231D02*
D03*
X-20057D02*
D03*
X61045Y216131D02*
D03*
X-30884Y201170D02*
D03*
X-41711D02*
D03*
X-30884Y231092D02*
D03*
X-41711D02*
D03*
X114373Y216300D02*
D03*
X70494Y216131D02*
D03*
D268*
X-600Y107119D02*
Y108266D01*
Y105921D02*
Y107119D01*
Y104724D02*
Y105921D01*
X6895Y45020D02*
X11400D01*
X14764Y102756D02*
X14764Y102756D01*
X14764Y102756D02*
Y107500D01*
X11400Y45020D02*
X15068Y48688D01*
X-6700Y53090D02*
Y68891D01*
X-3150Y72441D02*
Y100487D01*
X-6700Y68891D02*
X-3150Y72441D01*
X-6700Y44827D02*
Y53090D01*
X15068Y59068D02*
X15080Y59080D01*
X11900Y64457D02*
X15080Y61277D01*
X15068Y48688D02*
Y59068D01*
X15080Y59080D02*
Y61277D01*
X17717Y94506D02*
Y99803D01*
X14764Y102756D02*
X17717Y99803D01*
X11900Y88689D02*
X17717Y94506D01*
X11900Y64457D02*
Y88689D01*
X-600Y103036D02*
Y104724D01*
X-3150Y100487D02*
X-600Y103036D01*
D269*
X-13839Y95866D02*
D03*
X70083Y122503D02*
D03*
X68897Y122497D02*
D03*
X-58715Y170105D02*
D03*
Y184947D02*
D03*
X69803Y163619D02*
D03*
M02*
