G04*
G04 #@! TF.GenerationSoftware,Altium Limited,Altium Designer,24.10.1 (45)*
G04*
G04 Layer_Physical_Order=7*
G04 Layer_Color=8388736*
%FSLAX25Y25*%
%MOIN*%
G70*
G04*
G04 #@! TF.SameCoordinates,083811C0-BB5A-407D-82B1-07892853DE6B*
G04*
G04*
G04 #@! TF.FilePolarity,Positive*
G04*
G01*
G75*
%ADD10C,0.00394*%
%ADD16C,0.00500*%
%ADD108C,0.00787*%
G04:AMPARAMS|DCode=232|XSize=102.36mil|YSize=43.31mil|CornerRadius=21.65mil|HoleSize=0mil|Usage=FLASHONLY|Rotation=0.000|XOffset=0mil|YOffset=0mil|HoleType=Round|Shape=RoundedRectangle|*
%AMROUNDEDRECTD232*
21,1,0.10236,0.00000,0,0,0.0*
21,1,0.05906,0.04331,0,0,0.0*
1,1,0.04331,0.02953,0.00000*
1,1,0.04331,-0.02953,0.00000*
1,1,0.04331,-0.02953,0.00000*
1,1,0.04331,0.02953,0.00000*
%
%ADD232ROUNDEDRECTD232*%
G04:AMPARAMS|DCode=233|XSize=82.68mil|YSize=43.31mil|CornerRadius=21.65mil|HoleSize=0mil|Usage=FLASHONLY|Rotation=0.000|XOffset=0mil|YOffset=0mil|HoleType=Round|Shape=RoundedRectangle|*
%AMROUNDEDRECTD233*
21,1,0.08268,0.00000,0,0,0.0*
21,1,0.03937,0.04331,0,0,0.0*
1,1,0.04331,0.01968,0.00000*
1,1,0.04331,-0.01968,0.00000*
1,1,0.04331,-0.01968,0.00000*
1,1,0.04331,0.01968,0.00000*
%
%ADD233ROUNDEDRECTD233*%
%ADD237C,0.04724*%
%ADD238C,0.06299*%
%ADD251C,0.00236*%
%ADD262O,0.06200X0.03740*%
%ADD263C,0.06890*%
%ADD264C,0.06102*%
%ADD265R,0.06102X0.06102*%
%ADD266R,0.06102X0.06102*%
%ADD267C,0.04331*%
%ADD269C,0.00276*%
G36*
X-19443Y185802D02*
X-19406Y185788D01*
X-19355Y185775D01*
X-19291Y185765D01*
X-19121Y185749D01*
X-18763Y185736D01*
X-18616Y185735D01*
Y185342D01*
X-18763Y185341D01*
X-19355Y185302D01*
X-19406Y185289D01*
X-19443Y185275D01*
X-19466Y185260D01*
Y185817D01*
X-19443Y185802D01*
D02*
G37*
G36*
X-20022Y185260D02*
X-20046Y185275D01*
X-20083Y185289D01*
X-20133Y185302D01*
X-20198Y185312D01*
X-20368Y185329D01*
X-20726Y185341D01*
X-20873Y185342D01*
Y185735D01*
X-20726Y185736D01*
X-20133Y185775D01*
X-20083Y185788D01*
X-20046Y185802D01*
X-20022Y185817D01*
Y185260D01*
D02*
G37*
G36*
X-33567Y185802D02*
X-33530Y185788D01*
X-33479Y185775D01*
X-33415Y185765D01*
X-33245Y185749D01*
X-32887Y185736D01*
X-32740Y185735D01*
Y185342D01*
X-32887Y185341D01*
X-33479Y185302D01*
X-33530Y185289D01*
X-33567Y185275D01*
X-33590Y185260D01*
Y185817D01*
X-33567Y185802D01*
D02*
G37*
G36*
X-2378Y185255D02*
X-2402Y185271D01*
X-2440Y185286D01*
X-2491Y185299D01*
X-2556Y185310D01*
X-2726Y185328D01*
X-2951Y185338D01*
X-3231Y185342D01*
X-3223Y185735D01*
X-3076Y185736D01*
X-2484Y185773D01*
X-2434Y185784D01*
X-2397Y185797D01*
X-2375Y185812D01*
X-2378Y185255D01*
D02*
G37*
G36*
X-8940Y179216D02*
X-8953Y179221D01*
X-8981Y179226D01*
X-9025Y179230D01*
X-9246Y179240D01*
X-9753Y179244D01*
Y179744D01*
X-8940Y179773D01*
Y179216D01*
D02*
G37*
G36*
X-47065Y179768D02*
X-47037Y179763D01*
X-46993Y179758D01*
X-46772Y179749D01*
X-46265Y179744D01*
Y179244D01*
X-47079Y179216D01*
Y179773D01*
X-47065Y179768D01*
D02*
G37*
G36*
X-47635Y179216D02*
X-47649Y179221D01*
X-47677Y179226D01*
X-47720Y179230D01*
X-47942Y179240D01*
X-48449Y179244D01*
Y179744D01*
X-47635Y179773D01*
Y179216D01*
D02*
G37*
G36*
X-61908Y179768D02*
X-61879Y179763D01*
X-61836Y179758D01*
X-61615Y179749D01*
X-61108Y179744D01*
Y179244D01*
X-61921Y179216D01*
Y179773D01*
X-61908Y179768D01*
D02*
G37*
G36*
X-61908Y177773D02*
X-61859Y177746D01*
X-61799Y177722D01*
X-61727Y177701D01*
X-61644Y177683D01*
X-61550Y177668D01*
X-61328Y177649D01*
X-61061Y177643D01*
X-61062Y177407D01*
X-61201Y177405D01*
X-61551Y177381D01*
X-61645Y177367D01*
X-61728Y177349D01*
X-61800Y177328D01*
X-61860Y177304D01*
X-61909Y177277D01*
X-61946Y177247D01*
X-61946Y177804D01*
X-61908Y177773D01*
D02*
G37*
G36*
X-16026Y177246D02*
X-16064Y177276D01*
X-16113Y177304D01*
X-16173Y177328D01*
X-16245Y177348D01*
X-16327Y177366D01*
X-16421Y177380D01*
X-16644Y177400D01*
X-16911Y177406D01*
X-16911Y177642D01*
X-16772Y177644D01*
X-16422Y177668D01*
X-16328Y177682D01*
X-16245Y177700D01*
X-16174Y177721D01*
X-16113Y177745D01*
X-16064Y177772D01*
X-16026Y177803D01*
X-16026Y177246D01*
D02*
G37*
G36*
X-35639Y177245D02*
X-35677Y177276D01*
X-35726Y177303D01*
X-35787Y177327D01*
X-35858Y177348D01*
X-35941Y177366D01*
X-36035Y177381D01*
X-36257Y177400D01*
X-36524Y177407D01*
X-36524Y177643D01*
X-36384Y177644D01*
X-36034Y177668D01*
X-35940Y177683D01*
X-35857Y177700D01*
X-35786Y177721D01*
X-35726Y177745D01*
X-35677Y177772D01*
X-35639Y177802D01*
X-35639Y177245D01*
D02*
G37*
G36*
X-35045Y177772D02*
X-34996Y177744D01*
X-34936Y177720D01*
X-34864Y177700D01*
X-34782Y177682D01*
X-34687Y177668D01*
X-34465Y177648D01*
X-34198Y177642D01*
X-34198Y177406D01*
X-34337Y177404D01*
X-34687Y177380D01*
X-34781Y177366D01*
X-34864Y177348D01*
X-34935Y177327D01*
X-34996Y177303D01*
X-35045Y177276D01*
X-35083Y177245D01*
X-35083Y177802D01*
X-35045Y177772D01*
D02*
G37*
G36*
X-43395Y175795D02*
X-43346Y175768D01*
X-43286Y175744D01*
X-43214Y175723D01*
X-43131Y175705D01*
X-43037Y175691D01*
X-42815Y175672D01*
X-42548Y175665D01*
Y175429D01*
X-42687Y175427D01*
X-43037Y175403D01*
X-43131Y175389D01*
X-43214Y175371D01*
X-43286Y175350D01*
X-43346Y175326D01*
X-43395Y175299D01*
X-43433Y175268D01*
Y175826D01*
X-43395Y175795D01*
D02*
G37*
G36*
X-43989Y175268D02*
X-44027Y175299D01*
X-44076Y175326D01*
X-44136Y175350D01*
X-44208Y175371D01*
X-44291Y175389D01*
X-44385Y175403D01*
X-44607Y175423D01*
X-44874Y175429D01*
Y175665D01*
X-44735Y175667D01*
X-44385Y175691D01*
X-44291Y175705D01*
X-44208Y175723D01*
X-44136Y175744D01*
X-44076Y175768D01*
X-44027Y175795D01*
X-43989Y175826D01*
Y175268D01*
D02*
G37*
G36*
X-61883Y175795D02*
X-61834Y175768D01*
X-61774Y175744D01*
X-61703Y175723D01*
X-61620Y175705D01*
X-61525Y175691D01*
X-61304Y175672D01*
X-61036Y175665D01*
Y175429D01*
X-61176Y175427D01*
X-61525Y175403D01*
X-61620Y175389D01*
X-61703Y175371D01*
X-61774Y175350D01*
X-61834Y175326D01*
X-61883Y175299D01*
X-61921Y175268D01*
Y175826D01*
X-61883Y175795D01*
D02*
G37*
G36*
X-17214Y175259D02*
X-17252Y175291D01*
X-17302Y175319D01*
X-17362Y175343D01*
X-17434Y175365D01*
X-17517Y175383D01*
X-17611Y175398D01*
X-17833Y175417D01*
X-18099Y175424D01*
X-18096Y175660D01*
X-17956Y175662D01*
X-17606Y175685D01*
X-17512Y175699D01*
X-17429Y175716D01*
X-17358Y175737D01*
X-17298Y175760D01*
X-17249Y175787D01*
X-17212Y175817D01*
X-17214Y175259D01*
D02*
G37*
G36*
X65822Y167821D02*
X65784Y167852D01*
X65735Y167879D01*
X65675Y167903D01*
X65603Y167924D01*
X65520Y167942D01*
X65426Y167956D01*
X65204Y167975D01*
X64937Y167982D01*
Y168218D01*
X65076Y168220D01*
X65426Y168244D01*
X65520Y168258D01*
X65603Y168276D01*
X65675Y168297D01*
X65735Y168321D01*
X65784Y168348D01*
X65822Y168379D01*
Y167821D01*
D02*
G37*
G36*
X19373Y166881D02*
X19275Y166781D01*
X19045Y166517D01*
X18989Y166440D01*
X18942Y166369D01*
X18906Y166303D01*
X18881Y166244D01*
X18866Y166190D01*
X18860Y166142D01*
X18466Y166535D01*
X18515Y166541D01*
X18569Y166556D01*
X18628Y166582D01*
X18694Y166618D01*
X18765Y166664D01*
X18842Y166720D01*
X19012Y166863D01*
X19206Y167048D01*
X19373Y166881D01*
D02*
G37*
G36*
X-34605Y162517D02*
X-34643Y162547D01*
X-34692Y162574D01*
X-34752Y162599D01*
X-34824Y162619D01*
X-34907Y162637D01*
X-35001Y162651D01*
X-35223Y162671D01*
X-35490Y162677D01*
Y162913D01*
X-35351Y162915D01*
X-35001Y162939D01*
X-34907Y162953D01*
X-34824Y162971D01*
X-34752Y162992D01*
X-34692Y163016D01*
X-34643Y163043D01*
X-34605Y163074D01*
Y162517D01*
D02*
G37*
G36*
X-46878Y163043D02*
X-46829Y163016D01*
X-46769Y162992D01*
X-46698Y162971D01*
X-46615Y162953D01*
X-46521Y162939D01*
X-46299Y162920D01*
X-46031Y162913D01*
Y162677D01*
X-46171Y162675D01*
X-46521Y162651D01*
X-46615Y162637D01*
X-46698Y162619D01*
X-46769Y162599D01*
X-46829Y162574D01*
X-46878Y162547D01*
X-46916Y162517D01*
Y163074D01*
X-46878Y163043D01*
D02*
G37*
G36*
X58085Y157091D02*
X58240Y156956D01*
X58312Y156901D01*
X58382Y156854D01*
X58448Y156815D01*
X58512Y156783D01*
X58572Y156760D01*
X58629Y156745D01*
X58683Y156738D01*
X58268Y156324D01*
X58261Y156378D01*
X58246Y156435D01*
X58223Y156495D01*
X58192Y156558D01*
X58153Y156625D01*
X58106Y156694D01*
X58051Y156767D01*
X57916Y156921D01*
X57837Y157003D01*
X58003Y157170D01*
X58085Y157091D01*
D02*
G37*
G36*
X55233Y156067D02*
X55195Y156097D01*
X55146Y156125D01*
X55086Y156149D01*
X55014Y156169D01*
X54931Y156187D01*
X54837Y156202D01*
X54615Y156221D01*
X54348Y156227D01*
X54348Y156464D01*
X54488Y156465D01*
X54837Y156489D01*
X54931Y156504D01*
X55014Y156521D01*
X55086Y156542D01*
X55146Y156566D01*
X55195Y156594D01*
X55233Y156624D01*
Y156067D01*
D02*
G37*
G36*
X-36302Y155824D02*
X-36340Y155854D01*
X-36389Y155882D01*
X-36449Y155906D01*
X-36520Y155927D01*
X-36603Y155944D01*
X-36697Y155959D01*
X-36919Y155978D01*
X-37187Y155984D01*
Y156220D01*
X-37047Y156222D01*
X-36697Y156246D01*
X-36603Y156261D01*
X-36520Y156278D01*
X-36449Y156299D01*
X-36389Y156323D01*
X-36340Y156351D01*
X-36302Y156381D01*
Y155824D01*
D02*
G37*
G36*
X-46878Y156351D02*
X-46829Y156323D01*
X-46769Y156299D01*
X-46698Y156278D01*
X-46615Y156261D01*
X-46521Y156246D01*
X-46299Y156227D01*
X-46031Y156220D01*
Y155984D01*
X-46171Y155983D01*
X-46521Y155959D01*
X-46615Y155944D01*
X-46698Y155927D01*
X-46769Y155906D01*
X-46829Y155882D01*
X-46878Y155854D01*
X-46916Y155824D01*
Y156381D01*
X-46878Y156351D01*
D02*
G37*
G36*
X58995Y151882D02*
X59044Y151855D01*
X59104Y151831D01*
X59175Y151810D01*
X59258Y151792D01*
X59352Y151778D01*
X59574Y151758D01*
X59842Y151752D01*
Y151516D01*
X59702Y151514D01*
X59352Y151490D01*
X59258Y151476D01*
X59175Y151458D01*
X59104Y151437D01*
X59044Y151413D01*
X58995Y151386D01*
X58957Y151355D01*
Y151912D01*
X58995Y151882D01*
D02*
G37*
G36*
X-37960Y149131D02*
X-37997Y149161D01*
X-38046Y149189D01*
X-38107Y149213D01*
X-38178Y149233D01*
X-38261Y149251D01*
X-38355Y149266D01*
X-38577Y149285D01*
X-38844Y149291D01*
Y149528D01*
X-38705Y149529D01*
X-38355Y149553D01*
X-38261Y149568D01*
X-38178Y149585D01*
X-38107Y149606D01*
X-38046Y149630D01*
X-37997Y149657D01*
X-37960Y149688D01*
Y149131D01*
D02*
G37*
G36*
X-46879Y149657D02*
X-46830Y149630D01*
X-46769Y149606D01*
X-46698Y149585D01*
X-46615Y149568D01*
X-46521Y149553D01*
X-46299Y149534D01*
X-46032Y149528D01*
Y149291D01*
X-46171Y149290D01*
X-46521Y149266D01*
X-46615Y149251D01*
X-46698Y149233D01*
X-46769Y149213D01*
X-46830Y149189D01*
X-46879Y149161D01*
X-46916Y149131D01*
Y149688D01*
X-46879Y149657D01*
D02*
G37*
G36*
X56808Y148540D02*
X56770Y148571D01*
X56721Y148598D01*
X56661Y148622D01*
X56589Y148643D01*
X56507Y148661D01*
X56413Y148675D01*
X56190Y148694D01*
X55923Y148701D01*
X55923Y148937D01*
X56062Y148939D01*
X56412Y148963D01*
X56506Y148977D01*
X56589Y148995D01*
X56661Y149016D01*
X56721Y149040D01*
X56770Y149067D01*
X56808Y149098D01*
X56808Y148540D01*
D02*
G37*
G36*
X37344Y149067D02*
X37393Y149040D01*
X37453Y149015D01*
X37525Y148995D01*
X37607Y148977D01*
X37701Y148963D01*
X37923Y148943D01*
X38191Y148937D01*
Y148701D01*
X38051Y148699D01*
X37701Y148675D01*
X37607Y148661D01*
X37525Y148643D01*
X37453Y148622D01*
X37393Y148598D01*
X37344Y148571D01*
X37306Y148540D01*
Y149097D01*
X37344Y149067D01*
D02*
G37*
G36*
X-20778Y148343D02*
X-20816Y148374D01*
X-20865Y148401D01*
X-20925Y148425D01*
X-20997Y148446D01*
X-21080Y148464D01*
X-21174Y148478D01*
X-21396Y148497D01*
X-21663Y148504D01*
Y148740D01*
X-21524Y148742D01*
X-21174Y148766D01*
X-21080Y148780D01*
X-20997Y148798D01*
X-20925Y148819D01*
X-20865Y148843D01*
X-20816Y148870D01*
X-20778Y148900D01*
Y148343D01*
D02*
G37*
G36*
X-24192Y148870D02*
X-24143Y148843D01*
X-24083Y148819D01*
X-24011Y148798D01*
X-23928Y148780D01*
X-23834Y148766D01*
X-23612Y148747D01*
X-23345Y148740D01*
Y148504D01*
X-23484Y148502D01*
X-23834Y148478D01*
X-23928Y148464D01*
X-24011Y148446D01*
X-24083Y148425D01*
X-24143Y148401D01*
X-24192Y148374D01*
X-24230Y148343D01*
Y148900D01*
X-24192Y148870D01*
D02*
G37*
G36*
X64577Y148794D02*
X64842Y148564D01*
X64918Y148507D01*
X64989Y148461D01*
X65055Y148425D01*
X65114Y148400D01*
X65168Y148384D01*
X65217Y148379D01*
X64823Y147985D01*
X64818Y148034D01*
X64802Y148088D01*
X64777Y148147D01*
X64741Y148213D01*
X64695Y148284D01*
X64638Y148360D01*
X64495Y148531D01*
X64311Y148724D01*
X64478Y148891D01*
X64577Y148794D01*
D02*
G37*
G36*
X38304Y145784D02*
X38267Y145815D01*
X38218Y145842D01*
X38157Y145866D01*
X38086Y145887D01*
X38003Y145905D01*
X37909Y145919D01*
X37687Y145939D01*
X37420Y145945D01*
Y146181D01*
X37559Y146183D01*
X37909Y146207D01*
X38003Y146221D01*
X38086Y146239D01*
X38157Y146260D01*
X38218Y146284D01*
X38267Y146311D01*
X38304Y146342D01*
Y145784D01*
D02*
G37*
G36*
X35355Y146311D02*
X35405Y146284D01*
X35465Y146260D01*
X35536Y146239D01*
X35619Y146221D01*
X35713Y146207D01*
X35935Y146187D01*
X36202Y146181D01*
Y145945D01*
X36063Y145943D01*
X35713Y145919D01*
X35619Y145905D01*
X35536Y145887D01*
X35465Y145866D01*
X35405Y145842D01*
X35355Y145815D01*
X35318Y145784D01*
Y146342D01*
X35355Y146311D01*
D02*
G37*
G36*
X-71188Y146041D02*
X-71163Y145692D01*
X-71148Y145598D01*
X-71130Y145515D01*
X-71108Y145443D01*
X-71083Y145382D01*
X-71055Y145333D01*
X-71023Y145294D01*
X-71580Y145290D01*
X-71551Y145327D01*
X-71525Y145375D01*
X-71501Y145435D01*
X-71482Y145507D01*
X-71465Y145589D01*
X-71451Y145683D01*
X-71432Y145906D01*
X-71426Y146174D01*
X-71190Y146180D01*
X-71188Y146041D01*
D02*
G37*
G36*
X57260Y142438D02*
X57222Y142469D01*
X57173Y142496D01*
X57113Y142520D01*
X57041Y142541D01*
X56959Y142558D01*
X56864Y142573D01*
X56642Y142592D01*
X56375Y142598D01*
Y142835D01*
X56515Y142836D01*
X56864Y142860D01*
X56959Y142875D01*
X57041Y142893D01*
X57113Y142913D01*
X57173Y142937D01*
X57222Y142965D01*
X57260Y142995D01*
Y142438D01*
D02*
G37*
G36*
X-9920Y142965D02*
X-9871Y142937D01*
X-9811Y142913D01*
X-9739Y142893D01*
X-9656Y142875D01*
X-9562Y142860D01*
X-9340Y142841D01*
X-9073Y142835D01*
Y142598D01*
X-9212Y142597D01*
X-9562Y142573D01*
X-9656Y142558D01*
X-9739Y142541D01*
X-9811Y142520D01*
X-9871Y142496D01*
X-9920Y142469D01*
X-9958Y142438D01*
Y142995D01*
X-9920Y142965D01*
D02*
G37*
G36*
X-39523Y142438D02*
X-39561Y142469D01*
X-39610Y142496D01*
X-39670Y142520D01*
X-39742Y142541D01*
X-39825Y142558D01*
X-39919Y142573D01*
X-40141Y142592D01*
X-40408Y142598D01*
Y142835D01*
X-40268Y142836D01*
X-39919Y142860D01*
X-39825Y142875D01*
X-39742Y142893D01*
X-39670Y142913D01*
X-39610Y142937D01*
X-39561Y142965D01*
X-39523Y142995D01*
Y142438D01*
D02*
G37*
G36*
X-46890Y142965D02*
X-46841Y142937D01*
X-46781Y142913D01*
X-46709Y142893D01*
X-46627Y142875D01*
X-46532Y142860D01*
X-46310Y142841D01*
X-46043Y142835D01*
Y142598D01*
X-46183Y142597D01*
X-46532Y142573D01*
X-46627Y142558D01*
X-46709Y142541D01*
X-46781Y142520D01*
X-46841Y142496D01*
X-46890Y142469D01*
X-46928Y142438D01*
Y142995D01*
X-46890Y142965D01*
D02*
G37*
G36*
X-71980Y143097D02*
X-71952Y142750D01*
X-71936Y142656D01*
X-71916Y142573D01*
X-71892Y142501D01*
X-71864Y142439D01*
X-71833Y142388D01*
X-71798Y142348D01*
X-72356Y142333D01*
X-72329Y142368D01*
X-72306Y142415D01*
X-72285Y142474D01*
X-72268Y142544D01*
X-72253Y142626D01*
X-72230Y142826D01*
X-72220Y143073D01*
X-72218Y143215D01*
X-71982Y143234D01*
X-71980Y143097D01*
D02*
G37*
G36*
X31025Y141586D02*
X31074Y141559D01*
X31134Y141535D01*
X31206Y141514D01*
X31288Y141497D01*
X31383Y141482D01*
X31605Y141463D01*
X31872Y141456D01*
X31872Y141220D01*
X31732Y141218D01*
X31382Y141194D01*
X31288Y141180D01*
X31205Y141163D01*
X31134Y141142D01*
X31074Y141118D01*
X31025Y141090D01*
X30987Y141060D01*
X30987Y141617D01*
X31025Y141586D01*
D02*
G37*
G36*
X71572Y141041D02*
X71534Y141071D01*
X71485Y141098D01*
X71425Y141122D01*
X71354Y141143D01*
X71271Y141161D01*
X71176Y141175D01*
X70955Y141195D01*
X70687Y141201D01*
X70688Y141438D01*
X70827Y141439D01*
X71177Y141463D01*
X71271Y141478D01*
X71354Y141495D01*
X71425Y141516D01*
X71486Y141540D01*
X71535Y141567D01*
X71572Y141598D01*
X71572Y141041D01*
D02*
G37*
G36*
X63186Y139780D02*
X63148Y139811D01*
X63099Y139838D01*
X63039Y139862D01*
X62967Y139883D01*
X62884Y139901D01*
X62790Y139915D01*
X62568Y139935D01*
X62301Y139941D01*
Y140177D01*
X62440Y140179D01*
X62790Y140203D01*
X62884Y140217D01*
X62967Y140235D01*
X63039Y140256D01*
X63099Y140280D01*
X63148Y140307D01*
X63186Y140338D01*
Y139780D01*
D02*
G37*
G36*
X-15629Y140307D02*
X-15580Y140280D01*
X-15520Y140256D01*
X-15448Y140235D01*
X-15365Y140217D01*
X-15271Y140203D01*
X-15049Y140183D01*
X-14782Y140177D01*
Y139941D01*
X-14921Y139939D01*
X-15271Y139915D01*
X-15365Y139901D01*
X-15448Y139883D01*
X-15520Y139862D01*
X-15580Y139838D01*
X-15629Y139811D01*
X-15667Y139780D01*
Y140338D01*
X-15629Y140307D01*
D02*
G37*
G36*
X61139Y138900D02*
X61101Y138931D01*
X61052Y138958D01*
X60992Y138982D01*
X60920Y139003D01*
X60838Y139021D01*
X60743Y139035D01*
X60522Y139054D01*
X60254Y139061D01*
Y139297D01*
X60394Y139299D01*
X60743Y139323D01*
X60838Y139337D01*
X60920Y139355D01*
X60992Y139376D01*
X61052Y139400D01*
X61101Y139427D01*
X61139Y139457D01*
Y138900D01*
D02*
G37*
G36*
X-17597Y139427D02*
X-17548Y139400D01*
X-17488Y139376D01*
X-17416Y139355D01*
X-17334Y139337D01*
X-17240Y139323D01*
X-17018Y139303D01*
X-16750Y139297D01*
Y139061D01*
X-16890Y139059D01*
X-17240Y139035D01*
X-17334Y139021D01*
X-17416Y139003D01*
X-17488Y138982D01*
X-17548Y138958D01*
X-17597Y138931D01*
X-17635Y138900D01*
Y139457D01*
X-17597Y139427D01*
D02*
G37*
G36*
X-46878Y136272D02*
X-46829Y136244D01*
X-46769Y136220D01*
X-46698Y136199D01*
X-46615Y136182D01*
X-46521Y136167D01*
X-46299Y136148D01*
X-46031Y136142D01*
Y135906D01*
X-46171Y135904D01*
X-46521Y135880D01*
X-46615Y135865D01*
X-46698Y135848D01*
X-46769Y135827D01*
X-46829Y135803D01*
X-46878Y135775D01*
X-46916Y135745D01*
Y136302D01*
X-46878Y136272D01*
D02*
G37*
G36*
X-41186Y135744D02*
X-41224Y135775D01*
X-41273Y135802D01*
X-41334Y135827D01*
X-41405Y135847D01*
X-41488Y135865D01*
X-41582Y135880D01*
X-41804Y135899D01*
X-42071Y135906D01*
X-42071Y136142D01*
X-41931Y136143D01*
X-41581Y136167D01*
X-41487Y136182D01*
X-41404Y136199D01*
X-41333Y136220D01*
X-41273Y136244D01*
X-41224Y136271D01*
X-41186Y136301D01*
X-41186Y135744D01*
D02*
G37*
G36*
X-17170Y132014D02*
X-17190Y132025D01*
X-17223Y132035D01*
X-17271Y132043D01*
X-17334Y132051D01*
X-17606Y132066D01*
X-18008Y132071D01*
X-18045Y132465D01*
X-17900Y132466D01*
X-17371Y132503D01*
X-17305Y132517D01*
X-17252Y132533D01*
X-17212Y132551D01*
X-17186Y132571D01*
X-17170Y132014D01*
D02*
G37*
G36*
X-24233Y132511D02*
X-24199Y132501D01*
X-24151Y132493D01*
X-24089Y132485D01*
X-23817Y132470D01*
X-23415Y132465D01*
X-23378Y132071D01*
X-23523Y132070D01*
X-24051Y132033D01*
X-24117Y132019D01*
X-24171Y132003D01*
X-24210Y131985D01*
X-24237Y131965D01*
X-24252Y132522D01*
X-24233Y132511D01*
D02*
G37*
G36*
X-42730Y129052D02*
X-42768Y129083D01*
X-42817Y129110D01*
X-42878Y129134D01*
X-42949Y129155D01*
X-43032Y129173D01*
X-43126Y129187D01*
X-43348Y129206D01*
X-43615Y129213D01*
Y129449D01*
X-43476Y129451D01*
X-43126Y129475D01*
X-43032Y129489D01*
X-42949Y129507D01*
X-42878Y129527D01*
X-42817Y129552D01*
X-42768Y129579D01*
X-42730Y129609D01*
Y129052D01*
D02*
G37*
G36*
X-46878Y129579D02*
X-46829Y129552D01*
X-46769Y129527D01*
X-46698Y129507D01*
X-46615Y129489D01*
X-46521Y129475D01*
X-46299Y129455D01*
X-46031Y129449D01*
Y129213D01*
X-46171Y129211D01*
X-46521Y129187D01*
X-46615Y129173D01*
X-46698Y129155D01*
X-46769Y129134D01*
X-46829Y129110D01*
X-46878Y129083D01*
X-46916Y129052D01*
Y129609D01*
X-46878Y129579D01*
D02*
G37*
G36*
X47889Y128201D02*
X47938Y128174D01*
X47999Y128149D01*
X48070Y128129D01*
X48153Y128111D01*
X48247Y128097D01*
X48469Y128077D01*
X48736Y128071D01*
X48736Y127835D01*
X48597Y127833D01*
X48247Y127809D01*
X48153Y127795D01*
X48070Y127777D01*
X47999Y127756D01*
X47938Y127732D01*
X47889Y127705D01*
X47851Y127674D01*
X47851Y128231D01*
X47889Y128201D01*
D02*
G37*
G36*
X66612Y127548D02*
X66564Y127603D01*
X66507Y127651D01*
X66442Y127694D01*
X66368Y127732D01*
X66286Y127763D01*
X66195Y127789D01*
X66096Y127809D01*
X65988Y127823D01*
X65871Y127832D01*
X65746Y127835D01*
X65864Y128071D01*
X66692Y128106D01*
X66612Y127548D01*
D02*
G37*
G36*
X55234Y126052D02*
X55196Y126083D01*
X55147Y126110D01*
X55086Y126134D01*
X55015Y126155D01*
X54932Y126172D01*
X54838Y126187D01*
X54616Y126206D01*
X54349Y126213D01*
Y126449D01*
X54488Y126450D01*
X54838Y126474D01*
X54932Y126489D01*
X55015Y126506D01*
X55086Y126527D01*
X55147Y126551D01*
X55196Y126579D01*
X55234Y126609D01*
Y126052D01*
D02*
G37*
G36*
X-13145Y126574D02*
X-13097Y126548D01*
X-13037Y126524D01*
X-12966Y126504D01*
X-12883Y126487D01*
X-12789Y126473D01*
X-12566Y126455D01*
X-12298Y126449D01*
X-12293Y126213D01*
X-12432Y126211D01*
X-12781Y126186D01*
X-12875Y126171D01*
X-12958Y126153D01*
X-13030Y126131D01*
X-13091Y126106D01*
X-13140Y126078D01*
X-13179Y126046D01*
X-13182Y126603D01*
X-13145Y126574D01*
D02*
G37*
G36*
X-17597Y124835D02*
X-17548Y124807D01*
X-17488Y124783D01*
X-17416Y124762D01*
X-17334Y124745D01*
X-17240Y124730D01*
X-17018Y124711D01*
X-16750Y124705D01*
Y124469D01*
X-16890Y124467D01*
X-17240Y124443D01*
X-17334Y124428D01*
X-17416Y124411D01*
X-17488Y124390D01*
X-17548Y124366D01*
X-17597Y124338D01*
X-17635Y124308D01*
Y124865D01*
X-17597Y124835D01*
D02*
G37*
G36*
X54237Y124267D02*
X54195Y124306D01*
X54143Y124340D01*
X54080Y124370D01*
X54007Y124396D01*
X53924Y124418D01*
X53830Y124436D01*
X53726Y124450D01*
X53487Y124467D01*
X53352Y124469D01*
X53386Y124705D01*
X53529Y124706D01*
X53978Y124735D01*
X54059Y124748D01*
X54128Y124763D01*
X54185Y124781D01*
X54230Y124802D01*
X54263Y124825D01*
X54237Y124267D01*
D02*
G37*
G36*
X-15625Y123006D02*
X-15575Y122977D01*
X-15514Y122951D01*
X-15442Y122929D01*
X-15359Y122910D01*
X-15265Y122895D01*
X-15043Y122874D01*
X-14778Y122868D01*
X-14786Y122632D01*
X-14927Y122630D01*
X-15278Y122608D01*
X-15372Y122594D01*
X-15455Y122578D01*
X-15526Y122558D01*
X-15586Y122535D01*
X-15633Y122510D01*
X-15670Y122481D01*
X-15664Y123039D01*
X-15625Y123006D01*
D02*
G37*
G36*
X53363Y122471D02*
X53326Y122502D01*
X53277Y122529D01*
X53216Y122553D01*
X53145Y122574D01*
X53062Y122591D01*
X52968Y122606D01*
X52746Y122625D01*
X52479Y122632D01*
Y122868D01*
X52618Y122869D01*
X52968Y122893D01*
X53062Y122908D01*
X53145Y122925D01*
X53216Y122946D01*
X53277Y122970D01*
X53326Y122998D01*
X53363Y123028D01*
Y122471D01*
D02*
G37*
G36*
X-44328Y122359D02*
X-44366Y122390D01*
X-44415Y122417D01*
X-44475Y122441D01*
X-44547Y122462D01*
X-44629Y122480D01*
X-44724Y122494D01*
X-44946Y122513D01*
X-45213Y122520D01*
Y122756D01*
X-45074Y122757D01*
X-44724Y122782D01*
X-44629Y122796D01*
X-44547Y122814D01*
X-44475Y122835D01*
X-44415Y122859D01*
X-44366Y122886D01*
X-44328Y122916D01*
Y122359D01*
D02*
G37*
G36*
X-46878Y122886D02*
X-46829Y122859D01*
X-46769Y122835D01*
X-46698Y122814D01*
X-46615Y122796D01*
X-46521Y122782D01*
X-46299Y122762D01*
X-46031Y122756D01*
Y122520D01*
X-46171Y122518D01*
X-46521Y122494D01*
X-46615Y122480D01*
X-46698Y122462D01*
X-46769Y122441D01*
X-46829Y122417D01*
X-46878Y122390D01*
X-46916Y122359D01*
Y122916D01*
X-46878Y122886D01*
D02*
G37*
G36*
X68322Y118978D02*
X68284Y119009D01*
X68235Y119036D01*
X68175Y119060D01*
X68103Y119081D01*
X68020Y119099D01*
X67926Y119113D01*
X67704Y119132D01*
X67437Y119139D01*
Y119375D01*
X67576Y119377D01*
X67926Y119401D01*
X68020Y119415D01*
X68103Y119433D01*
X68175Y119454D01*
X68235Y119478D01*
X68284Y119505D01*
X68322Y119536D01*
Y118978D01*
D02*
G37*
G36*
X11516Y119505D02*
X11565Y119478D01*
X11625Y119454D01*
X11697Y119433D01*
X11780Y119415D01*
X11874Y119401D01*
X12096Y119381D01*
X12363Y119375D01*
Y119139D01*
X12224Y119137D01*
X11874Y119113D01*
X11780Y119099D01*
X11697Y119081D01*
X11625Y119060D01*
X11565Y119036D01*
X11516Y119009D01*
X11478Y118978D01*
Y119536D01*
X11516Y119505D01*
D02*
G37*
G36*
X69618Y117153D02*
X69580Y117183D01*
X69531Y117210D01*
X69470Y117234D01*
X69399Y117255D01*
X69316Y117273D01*
X69222Y117287D01*
X69000Y117307D01*
X68733Y117313D01*
Y117549D01*
X68872Y117551D01*
X69222Y117575D01*
X69316Y117589D01*
X69399Y117607D01*
X69470Y117628D01*
X69531Y117652D01*
X69580Y117679D01*
X69618Y117710D01*
Y117153D01*
D02*
G37*
G36*
X32796Y117679D02*
X32845Y117652D01*
X32906Y117628D01*
X32977Y117607D01*
X33060Y117589D01*
X33154Y117575D01*
X33376Y117556D01*
X33643Y117549D01*
Y117313D01*
X33504Y117311D01*
X33154Y117287D01*
X33060Y117273D01*
X32977Y117255D01*
X32906Y117234D01*
X32845Y117210D01*
X32796Y117183D01*
X32759Y117153D01*
Y117710D01*
X32796Y117679D01*
D02*
G37*
G36*
X-45892Y115666D02*
X-45930Y115697D01*
X-45979Y115724D01*
X-46039Y115748D01*
X-46111Y115769D01*
X-46194Y115787D01*
X-46288Y115801D01*
X-46391Y115810D01*
X-46521Y115801D01*
X-46615Y115787D01*
X-46698Y115769D01*
X-46769Y115748D01*
X-46829Y115724D01*
X-46878Y115697D01*
X-46916Y115666D01*
Y116223D01*
X-46878Y116193D01*
X-46829Y116166D01*
X-46769Y116141D01*
X-46698Y116121D01*
X-46615Y116103D01*
X-46521Y116089D01*
X-46417Y116080D01*
X-46288Y116089D01*
X-46194Y116103D01*
X-46111Y116121D01*
X-46039Y116141D01*
X-45979Y116166D01*
X-45930Y116193D01*
X-45892Y116223D01*
Y115666D01*
D02*
G37*
G36*
X8605Y116238D02*
X8659Y116201D01*
X8722Y116169D01*
X8796Y116141D01*
X8879Y116117D01*
X8972Y116097D01*
X9076Y116082D01*
X9313Y116065D01*
X9446Y116063D01*
X9399Y115827D01*
X9255Y115826D01*
X8724Y115789D01*
X8656Y115775D01*
X8601Y115760D01*
X8558Y115742D01*
X8528Y115722D01*
X8562Y116279D01*
X8605Y116238D01*
D02*
G37*
G36*
X48362Y115649D02*
X48322Y115683D01*
X48248Y115740D01*
X48212Y115763D01*
X48179Y115782D01*
X48146Y115798D01*
X48116Y115811D01*
X48086Y115820D01*
X48058Y115825D01*
X48031Y115827D01*
Y116063D01*
X48058Y116065D01*
X48086Y116070D01*
X48116Y116079D01*
X48146Y116091D01*
X48179Y116107D01*
X48212Y116127D01*
X48248Y116150D01*
X48322Y116206D01*
X48362Y116240D01*
Y115649D01*
D02*
G37*
G36*
X60545Y115117D02*
X60594Y115090D01*
X60655Y115066D01*
X60726Y115045D01*
X60809Y115027D01*
X60903Y115013D01*
X61125Y114993D01*
X61392Y114987D01*
X61392Y114750D01*
X61253Y114749D01*
X60903Y114725D01*
X60809Y114711D01*
X60726Y114693D01*
X60654Y114672D01*
X60594Y114648D01*
X60545Y114621D01*
X60507Y114591D01*
X60508Y115148D01*
X60545Y115117D01*
D02*
G37*
G36*
X71572Y114584D02*
X71534Y114614D01*
X71485Y114642D01*
X71425Y114666D01*
X71353Y114687D01*
X71271Y114704D01*
X71176Y114719D01*
X70955Y114738D01*
X70687Y114745D01*
X70688Y114981D01*
X70827Y114982D01*
X71177Y115006D01*
X71271Y115021D01*
X71354Y115038D01*
X71425Y115059D01*
X71486Y115083D01*
X71535Y115111D01*
X71572Y115141D01*
X71572Y114584D01*
D02*
G37*
G36*
X14879Y113914D02*
X14841Y113945D01*
X14792Y113972D01*
X14732Y113996D01*
X14661Y114017D01*
X14578Y114035D01*
X14484Y114049D01*
X14262Y114068D01*
X13995Y114075D01*
Y114311D01*
X14134Y114313D01*
X14484Y114337D01*
X14578Y114351D01*
X14661Y114369D01*
X14732Y114390D01*
X14792Y114414D01*
X14841Y114441D01*
X14879Y114472D01*
Y113914D01*
D02*
G37*
G36*
X1616Y114441D02*
X1665Y114414D01*
X1725Y114390D01*
X1797Y114369D01*
X1880Y114351D01*
X1974Y114337D01*
X2196Y114318D01*
X2463Y114311D01*
Y114075D01*
X2324Y114073D01*
X1974Y114049D01*
X1880Y114035D01*
X1797Y114017D01*
X1725Y113996D01*
X1665Y113972D01*
X1616Y113945D01*
X1578Y113914D01*
Y114472D01*
X1616Y114441D01*
D02*
G37*
G36*
X13822Y113121D02*
X13784Y113152D01*
X13735Y113179D01*
X13675Y113203D01*
X13603Y113224D01*
X13520Y113242D01*
X13426Y113256D01*
X13204Y113276D01*
X12937Y113282D01*
Y113518D01*
X13076Y113520D01*
X13426Y113544D01*
X13520Y113558D01*
X13603Y113576D01*
X13675Y113597D01*
X13735Y113621D01*
X13784Y113648D01*
X13822Y113679D01*
Y113121D01*
D02*
G37*
G36*
X5306Y113239D02*
X5209Y113139D01*
X4978Y112875D01*
X4922Y112798D01*
X4876Y112727D01*
X4840Y112662D01*
X4814Y112602D01*
X4799Y112548D01*
X4794Y112500D01*
X4400Y112894D01*
X4448Y112899D01*
X4502Y112914D01*
X4562Y112940D01*
X4627Y112976D01*
X4698Y113022D01*
X4775Y113078D01*
X4945Y113222D01*
X5139Y113406D01*
X5306Y113239D01*
D02*
G37*
G36*
X11438Y112689D02*
X11487Y112662D01*
X11547Y112638D01*
X11619Y112617D01*
X11702Y112599D01*
X11796Y112585D01*
X12018Y112566D01*
X12285Y112559D01*
Y112323D01*
X12146Y112321D01*
X11796Y112297D01*
X11702Y112283D01*
X11619Y112265D01*
X11547Y112244D01*
X11487Y112220D01*
X11438Y112193D01*
X11400Y112162D01*
Y112720D01*
X11438Y112689D01*
D02*
G37*
G36*
X51313Y112131D02*
X51271Y112168D01*
X51220Y112200D01*
X51157Y112229D01*
X51085Y112254D01*
X51001Y112275D01*
X50907Y112292D01*
X50803Y112306D01*
X50563Y112321D01*
X50427Y112323D01*
X50453Y112559D01*
X50595Y112560D01*
X51043Y112591D01*
X51125Y112606D01*
X51194Y112622D01*
X51252Y112642D01*
X51298Y112664D01*
X51332Y112688D01*
X51313Y112131D01*
D02*
G37*
G36*
X58977Y112551D02*
X59026Y112524D01*
X59087Y112500D01*
X59158Y112479D01*
X59241Y112461D01*
X59335Y112447D01*
X59557Y112428D01*
X59824Y112421D01*
X59824Y112185D01*
X59685Y112183D01*
X59335Y112160D01*
X59241Y112145D01*
X59158Y112127D01*
X59087Y112107D01*
X59026Y112083D01*
X58977Y112055D01*
X58939Y112025D01*
X58940Y112582D01*
X58977Y112551D01*
D02*
G37*
G36*
X70194Y112025D02*
X70156Y112055D01*
X70107Y112082D01*
X70047Y112107D01*
X69976Y112127D01*
X69893Y112145D01*
X69799Y112159D01*
X69577Y112179D01*
X69310Y112185D01*
X69310Y112421D01*
X69449Y112423D01*
X69799Y112447D01*
X69893Y112461D01*
X69976Y112479D01*
X70047Y112500D01*
X70107Y112524D01*
X70157Y112551D01*
X70194Y112582D01*
X70194Y112025D01*
D02*
G37*
G36*
X52281Y109958D02*
X52243Y109988D01*
X52194Y110015D01*
X52134Y110039D01*
X52062Y110060D01*
X51979Y110078D01*
X51885Y110092D01*
X51663Y110112D01*
X51396Y110118D01*
Y110354D01*
X51535Y110356D01*
X51885Y110380D01*
X51979Y110394D01*
X52062Y110412D01*
X52134Y110433D01*
X52194Y110457D01*
X52243Y110484D01*
X52281Y110515D01*
Y109958D01*
D02*
G37*
G36*
X-9927Y110484D02*
X-9878Y110457D01*
X-9817Y110433D01*
X-9746Y110412D01*
X-9663Y110394D01*
X-9569Y110380D01*
X-9347Y110361D01*
X-9080Y110354D01*
Y110118D01*
X-9219Y110117D01*
X-9569Y110092D01*
X-9663Y110078D01*
X-9746Y110060D01*
X-9817Y110039D01*
X-9878Y110015D01*
X-9927Y109988D01*
X-9964Y109958D01*
Y110515D01*
X-9927Y110484D01*
D02*
G37*
G36*
X-18585Y109740D02*
X-18535Y109712D01*
X-18475Y109687D01*
X-18403Y109666D01*
X-18320Y109648D01*
X-18226Y109633D01*
X-18004Y109613D01*
X-17738Y109606D01*
X-17741Y109370D01*
X-17881Y109369D01*
X-18232Y109345D01*
X-18326Y109331D01*
X-18408Y109314D01*
X-18480Y109293D01*
X-18540Y109270D01*
X-18588Y109244D01*
X-18626Y109214D01*
X-18623Y109771D01*
X-18585Y109740D01*
D02*
G37*
G36*
X61238Y109091D02*
X61200Y109122D01*
X61151Y109149D01*
X61090Y109173D01*
X61019Y109194D01*
X60936Y109212D01*
X60842Y109226D01*
X60620Y109246D01*
X60353Y109252D01*
Y109488D01*
X60492Y109490D01*
X60842Y109514D01*
X60936Y109528D01*
X61019Y109546D01*
X61090Y109567D01*
X61151Y109591D01*
X61200Y109618D01*
X61238Y109649D01*
Y109091D01*
D02*
G37*
G36*
X39054Y108466D02*
X39017Y108495D01*
X38968Y108522D01*
X38908Y108545D01*
X38837Y108566D01*
X38754Y108583D01*
X38660Y108597D01*
X38438Y108616D01*
X38170Y108622D01*
X38166Y108858D01*
X38305Y108860D01*
X38654Y108884D01*
X38748Y108899D01*
X38831Y108917D01*
X38903Y108939D01*
X38963Y108964D01*
X39013Y108992D01*
X39051Y109023D01*
X39054Y108466D01*
D02*
G37*
G36*
X-30584Y108988D02*
X-30535Y108961D01*
X-30474Y108937D01*
X-30403Y108916D01*
X-30320Y108898D01*
X-30226Y108884D01*
X-30004Y108864D01*
X-29737Y108858D01*
Y108622D01*
X-29876Y108620D01*
X-30226Y108596D01*
X-30320Y108582D01*
X-30403Y108564D01*
X-30474Y108543D01*
X-30535Y108519D01*
X-30584Y108492D01*
X-30621Y108461D01*
Y109018D01*
X-30584Y108988D01*
D02*
G37*
G36*
X50312Y104663D02*
X50275Y104694D01*
X50226Y104721D01*
X50165Y104745D01*
X50094Y104766D01*
X50011Y104784D01*
X49917Y104798D01*
X49695Y104817D01*
X49428Y104824D01*
Y105060D01*
X49567Y105061D01*
X49917Y105086D01*
X50011Y105100D01*
X50094Y105118D01*
X50165Y105139D01*
X50226Y105163D01*
X50275Y105190D01*
X50312Y105220D01*
Y104663D01*
D02*
G37*
G36*
X25119Y105190D02*
X25168Y105163D01*
X25229Y105139D01*
X25300Y105118D01*
X25383Y105100D01*
X25477Y105086D01*
X25699Y105066D01*
X25966Y105060D01*
Y104824D01*
X25827Y104822D01*
X25477Y104798D01*
X25383Y104784D01*
X25300Y104766D01*
X25229Y104745D01*
X25168Y104721D01*
X25119Y104694D01*
X25082Y104663D01*
Y105220D01*
X25119Y105190D01*
D02*
G37*
G36*
X24525Y104663D02*
X24487Y104694D01*
X24438Y104721D01*
X24378Y104745D01*
X24306Y104766D01*
X24224Y104784D01*
X24129Y104798D01*
X23779Y104822D01*
X23640Y104824D01*
Y105060D01*
X23907Y105066D01*
X24129Y105086D01*
X24224Y105100D01*
X24306Y105118D01*
X24378Y105139D01*
X24438Y105163D01*
X24487Y105190D01*
X24525Y105220D01*
Y104663D01*
D02*
G37*
G36*
X10056Y105182D02*
X10104Y105157D01*
X10164Y105134D01*
X10235Y105114D01*
X10317Y105098D01*
X10412Y105084D01*
X10634Y105066D01*
X10903Y105060D01*
X10911Y104824D01*
X10772Y104822D01*
X10424Y104797D01*
X10330Y104781D01*
X10247Y104763D01*
X10175Y104741D01*
X10114Y104715D01*
X10064Y104686D01*
X10025Y104654D01*
X10019Y105211D01*
X10056Y105182D01*
D02*
G37*
G36*
X49318Y103810D02*
X49281Y103840D01*
X49231Y103868D01*
X49171Y103892D01*
X49099Y103912D01*
X49017Y103930D01*
X48923Y103945D01*
X48701Y103964D01*
X48434Y103970D01*
Y104207D01*
X48573Y104208D01*
X48923Y104232D01*
X49017Y104247D01*
X49099Y104264D01*
X49171Y104285D01*
X49231Y104309D01*
X49281Y104337D01*
X49318Y104367D01*
Y103810D01*
D02*
G37*
G36*
X16458Y104336D02*
X16507Y104309D01*
X16567Y104285D01*
X16638Y104264D01*
X16721Y104247D01*
X16815Y104232D01*
X17038Y104213D01*
X17305Y104207D01*
X17305Y103970D01*
X17165Y103969D01*
X16815Y103945D01*
X16721Y103930D01*
X16639Y103912D01*
X16567Y103892D01*
X16507Y103868D01*
X16458Y103840D01*
X16420Y103810D01*
X16420Y104367D01*
X16458Y104336D01*
D02*
G37*
G36*
X46369Y102969D02*
X46332Y103000D01*
X46283Y103027D01*
X46222Y103051D01*
X46151Y103072D01*
X46068Y103090D01*
X45974Y103104D01*
X45752Y103123D01*
X45485Y103130D01*
Y103366D01*
X45624Y103368D01*
X45974Y103392D01*
X46068Y103406D01*
X46151Y103424D01*
X46222Y103445D01*
X46283Y103469D01*
X46332Y103496D01*
X46369Y103526D01*
Y102969D01*
D02*
G37*
G36*
X776Y103496D02*
X825Y103469D01*
X885Y103445D01*
X957Y103424D01*
X1040Y103406D01*
X1134Y103392D01*
X1356Y103373D01*
X1623Y103366D01*
Y103130D01*
X1484Y103128D01*
X1134Y103104D01*
X1040Y103090D01*
X957Y103072D01*
X885Y103051D01*
X825Y103027D01*
X776Y103000D01*
X738Y102969D01*
Y103526D01*
X776Y103496D01*
D02*
G37*
G36*
X12694Y102394D02*
X12746Y102360D01*
X12809Y102330D01*
X12882Y102304D01*
X12965Y102282D01*
X13059Y102264D01*
X13163Y102251D01*
X13402Y102235D01*
X13538Y102233D01*
X13505Y101996D01*
X13363Y101995D01*
X12914Y101966D01*
X12832Y101953D01*
X12763Y101937D01*
X12706Y101918D01*
X12661Y101898D01*
X12628Y101875D01*
X12652Y102432D01*
X12694Y102394D01*
D02*
G37*
G36*
X46316Y101797D02*
X46274Y101835D01*
X46221Y101869D01*
X46159Y101899D01*
X46086Y101925D01*
X46002Y101946D01*
X45909Y101964D01*
X45805Y101978D01*
X45565Y101994D01*
X45430Y101996D01*
X45462Y102233D01*
X45605Y102234D01*
X46054Y102263D01*
X46135Y102276D01*
X46205Y102292D01*
X46262Y102310D01*
X46307Y102331D01*
X46340Y102354D01*
X46316Y101797D01*
D02*
G37*
G36*
X59171Y100804D02*
X59133Y100835D01*
X59084Y100862D01*
X59023Y100886D01*
X58952Y100907D01*
X58869Y100925D01*
X58775Y100939D01*
X58553Y100958D01*
X58286Y100965D01*
Y101201D01*
X58425Y101202D01*
X58775Y101227D01*
X58869Y101241D01*
X58952Y101259D01*
X59023Y101279D01*
X59084Y101304D01*
X59133Y101331D01*
X59171Y101361D01*
Y100804D01*
D02*
G37*
G36*
X-20087Y101331D02*
X-20038Y101304D01*
X-19978Y101279D01*
X-19906Y101259D01*
X-19823Y101241D01*
X-19729Y101227D01*
X-19507Y101207D01*
X-19240Y101201D01*
Y100965D01*
X-19379Y100963D01*
X-19729Y100939D01*
X-19823Y100925D01*
X-19906Y100907D01*
X-19978Y100886D01*
X-20038Y100862D01*
X-20087Y100835D01*
X-20125Y100804D01*
Y101361D01*
X-20087Y101331D01*
D02*
G37*
G36*
X58358Y99804D02*
X58320Y99835D01*
X58271Y99862D01*
X58210Y99886D01*
X58139Y99907D01*
X58056Y99925D01*
X57962Y99939D01*
X57740Y99958D01*
X57473Y99965D01*
Y100201D01*
X57612Y100203D01*
X57962Y100227D01*
X58056Y100241D01*
X58139Y100259D01*
X58210Y100280D01*
X58271Y100304D01*
X58320Y100331D01*
X58358Y100362D01*
Y99804D01*
D02*
G37*
G36*
X-69763Y100331D02*
X-69714Y100304D01*
X-69653Y100280D01*
X-69582Y100259D01*
X-69499Y100241D01*
X-69405Y100227D01*
X-69183Y100207D01*
X-68916Y100201D01*
Y99965D01*
X-69055Y99963D01*
X-69405Y99939D01*
X-69499Y99925D01*
X-69582Y99907D01*
X-69653Y99886D01*
X-69714Y99862D01*
X-69763Y99835D01*
X-69801Y99804D01*
Y100362D01*
X-69763Y100331D01*
D02*
G37*
G36*
X62422Y98343D02*
X62399Y98359D01*
X62362Y98373D01*
X62311Y98385D01*
X62247Y98396D01*
X62076Y98412D01*
X61718Y98424D01*
X61572Y98425D01*
Y98819D01*
X61718Y98820D01*
X62311Y98859D01*
X62362Y98871D01*
X62399Y98885D01*
X62422Y98901D01*
Y98343D01*
D02*
G37*
G36*
X58766Y98885D02*
X58803Y98871D01*
X58854Y98859D01*
X58918Y98848D01*
X59088Y98832D01*
X59446Y98820D01*
X59593Y98819D01*
Y98425D01*
X59446Y98424D01*
X58854Y98385D01*
X58803Y98373D01*
X58766Y98359D01*
X58743Y98343D01*
Y98901D01*
X58766Y98885D01*
D02*
G37*
G36*
X-74042Y98870D02*
X-73993Y98843D01*
X-73933Y98819D01*
X-73861Y98798D01*
X-73778Y98780D01*
X-73684Y98766D01*
X-73462Y98747D01*
X-73195Y98740D01*
Y98504D01*
X-73334Y98502D01*
X-73684Y98478D01*
X-73778Y98464D01*
X-73861Y98446D01*
X-73933Y98425D01*
X-73993Y98401D01*
X-74042Y98374D01*
X-74080Y98343D01*
Y98901D01*
X-74042Y98870D01*
D02*
G37*
G36*
X40757Y98228D02*
X40687Y98225D01*
X40559Y98210D01*
X40501Y98199D01*
X40448Y98184D01*
X40398Y98167D01*
X40354Y98146D01*
X40313Y98123D01*
X40276Y98097D01*
X40244Y98068D01*
X40077Y98235D01*
X40120Y98281D01*
X40197Y98373D01*
X40231Y98421D01*
X40262Y98469D01*
X40289Y98517D01*
X40313Y98566D01*
X40334Y98616D01*
X40352Y98667D01*
X40366Y98718D01*
X40757Y98228D01*
D02*
G37*
G36*
X56218Y97359D02*
X56180Y97390D01*
X56131Y97417D01*
X56071Y97441D01*
X55999Y97462D01*
X55916Y97480D01*
X55822Y97494D01*
X55600Y97513D01*
X55333Y97520D01*
Y97756D01*
X55472Y97758D01*
X55822Y97782D01*
X55916Y97796D01*
X55999Y97814D01*
X56071Y97834D01*
X56131Y97859D01*
X56180Y97886D01*
X56218Y97916D01*
Y97359D01*
D02*
G37*
G36*
X-26876Y97829D02*
X-26835Y97814D01*
X-26781Y97800D01*
X-26714Y97788D01*
X-26541Y97770D01*
X-26316Y97759D01*
X-26038Y97756D01*
X-25978Y97520D01*
X-26110Y97517D01*
X-26345Y97499D01*
X-26447Y97483D01*
X-26540Y97462D01*
X-26624Y97437D01*
X-26697Y97407D01*
X-26761Y97372D01*
X-26816Y97333D01*
X-26860Y97289D01*
X-26904Y97846D01*
X-26876Y97829D01*
D02*
G37*
G36*
X-75694Y96925D02*
X-75642Y96892D01*
X-75580Y96864D01*
X-75507Y96840D01*
X-75424Y96819D01*
X-75330Y96802D01*
X-75226Y96789D01*
X-74985Y96774D01*
X-74849Y96772D01*
X-74872Y96535D01*
X-75014Y96534D01*
X-75461Y96502D01*
X-75543Y96488D01*
X-75613Y96471D01*
X-75671Y96451D01*
X-75718Y96428D01*
X-75752Y96403D01*
X-75735Y96960D01*
X-75694Y96925D01*
D02*
G37*
G36*
X62718Y96902D02*
X62767Y96874D01*
X62827Y96850D01*
X62898Y96829D01*
X62981Y96812D01*
X63076Y96797D01*
X63297Y96778D01*
X63565Y96772D01*
Y96535D01*
X63425Y96534D01*
X63076Y96510D01*
X62981Y96495D01*
X62898Y96478D01*
X62827Y96457D01*
X62767Y96433D01*
X62718Y96406D01*
X62680Y96375D01*
Y96932D01*
X62718Y96902D01*
D02*
G37*
G36*
X40470Y96375D02*
X40432Y96406D01*
X40383Y96433D01*
X40323Y96457D01*
X40251Y96478D01*
X40168Y96495D01*
X40074Y96510D01*
X39852Y96529D01*
X39585Y96535D01*
Y96772D01*
X39724Y96773D01*
X40074Y96797D01*
X40168Y96812D01*
X40251Y96829D01*
X40323Y96850D01*
X40383Y96874D01*
X40432Y96902D01*
X40470Y96932D01*
Y96375D01*
D02*
G37*
G36*
X67438Y96374D02*
X67401Y96405D01*
X67352Y96432D01*
X67291Y96456D01*
X67220Y96477D01*
X67137Y96495D01*
X67043Y96509D01*
X66821Y96529D01*
X66554Y96535D01*
Y96771D01*
X66693Y96773D01*
X67043Y96797D01*
X67137Y96811D01*
X67220Y96829D01*
X67291Y96850D01*
X67352Y96874D01*
X67401Y96901D01*
X67438Y96932D01*
Y96374D01*
D02*
G37*
G36*
X42722Y96260D02*
X42697Y96254D01*
X42663Y96238D01*
X42621Y96210D01*
X42569Y96172D01*
X42440Y96062D01*
X42179Y95816D01*
X42074Y95713D01*
X41784Y95979D01*
X41887Y96083D01*
X42237Y96480D01*
X42275Y96534D01*
X42302Y96581D01*
X42318Y96619D01*
X42323Y96649D01*
X42722Y96260D01*
D02*
G37*
G36*
X-39764Y96075D02*
X-39724Y96056D01*
X-39670Y96039D01*
X-39603Y96025D01*
X-39524Y96012D01*
X-39326Y95994D01*
X-39075Y95986D01*
X-38931Y95984D01*
X-38976Y95591D01*
X-39125Y95590D01*
X-39792Y95549D01*
X-39810Y95539D01*
X-39792Y96096D01*
X-39764Y96075D01*
D02*
G37*
G36*
X49800Y95306D02*
X49752Y95301D01*
X49698Y95286D01*
X49638Y95260D01*
X49573Y95224D01*
X49502Y95178D01*
X49425Y95122D01*
X49255Y94978D01*
X49061Y94794D01*
X48894Y94961D01*
X48991Y95061D01*
X49222Y95325D01*
X49278Y95402D01*
X49324Y95473D01*
X49360Y95538D01*
X49386Y95598D01*
X49401Y95652D01*
X49406Y95700D01*
X49800Y95306D01*
D02*
G37*
G36*
X42139Y94905D02*
X42188Y94878D01*
X42249Y94854D01*
X42320Y94833D01*
X42403Y94815D01*
X42497Y94801D01*
X42719Y94781D01*
X42986Y94775D01*
Y94539D01*
X42847Y94537D01*
X42497Y94513D01*
X42403Y94499D01*
X42320Y94481D01*
X42249Y94460D01*
X42188Y94436D01*
X42139Y94409D01*
X42101Y94378D01*
Y94935D01*
X42139Y94905D01*
D02*
G37*
G36*
X-19171Y94308D02*
X-19209Y94339D01*
X-19258Y94366D01*
X-19319Y94390D01*
X-19390Y94411D01*
X-19473Y94428D01*
X-19567Y94443D01*
X-19789Y94462D01*
X-20056Y94468D01*
Y94705D01*
X-19917Y94706D01*
X-19567Y94730D01*
X-19473Y94745D01*
X-19390Y94762D01*
X-19319Y94783D01*
X-19258Y94807D01*
X-19209Y94835D01*
X-19171Y94865D01*
Y94308D01*
D02*
G37*
G36*
X-23483Y94835D02*
X-23434Y94807D01*
X-23374Y94783D01*
X-23302Y94762D01*
X-23219Y94745D01*
X-23125Y94730D01*
X-22903Y94711D01*
X-22636Y94705D01*
Y94468D01*
X-22775Y94467D01*
X-23125Y94443D01*
X-23219Y94428D01*
X-23302Y94411D01*
X-23374Y94390D01*
X-23434Y94366D01*
X-23483Y94339D01*
X-23521Y94308D01*
Y94865D01*
X-23483Y94835D01*
D02*
G37*
G36*
X45189Y93121D02*
X45142Y93148D01*
X45094Y93172D01*
X45043Y93193D01*
X44991Y93211D01*
X44938Y93227D01*
X44883Y93239D01*
X44826Y93249D01*
X44707Y93260D01*
X44646Y93262D01*
Y93498D01*
X44689Y93500D01*
X44734Y93508D01*
X44779Y93520D01*
X44826Y93537D01*
X44873Y93559D01*
X44921Y93587D01*
X44971Y93619D01*
X45021Y93656D01*
X45124Y93745D01*
X45189Y93121D01*
D02*
G37*
G36*
X-73211Y93307D02*
X-73162Y93280D01*
X-73101Y93256D01*
X-73030Y93235D01*
X-72947Y93217D01*
X-72853Y93203D01*
X-72631Y93183D01*
X-72364Y93177D01*
Y92941D01*
X-72503Y92939D01*
X-72853Y92915D01*
X-72947Y92901D01*
X-73030Y92883D01*
X-73101Y92862D01*
X-73162Y92838D01*
X-73211Y92811D01*
X-73248Y92780D01*
Y93337D01*
X-73211Y93307D01*
D02*
G37*
G36*
X50312Y92438D02*
X50275Y92469D01*
X50226Y92496D01*
X50165Y92520D01*
X50094Y92541D01*
X50011Y92558D01*
X49917Y92573D01*
X49695Y92592D01*
X49428Y92598D01*
Y92835D01*
X49567Y92836D01*
X49917Y92860D01*
X50011Y92875D01*
X50094Y92892D01*
X50165Y92913D01*
X50226Y92937D01*
X50275Y92965D01*
X50312Y92995D01*
Y92438D01*
D02*
G37*
G36*
X40470D02*
X40432Y92469D01*
X40383Y92496D01*
X40323Y92520D01*
X40251Y92541D01*
X40168Y92558D01*
X40074Y92573D01*
X39852Y92592D01*
X39585Y92598D01*
Y92835D01*
X39724Y92836D01*
X40074Y92860D01*
X40168Y92875D01*
X40251Y92892D01*
X40323Y92913D01*
X40383Y92937D01*
X40432Y92965D01*
X40470Y92995D01*
Y92438D01*
D02*
G37*
G36*
X77888Y92436D02*
X77865Y92452D01*
X77828Y92466D01*
X77777Y92478D01*
X77713Y92489D01*
X77543Y92505D01*
X77185Y92517D01*
X77038Y92518D01*
Y92912D01*
X77185Y92913D01*
X77777Y92952D01*
X77828Y92964D01*
X77865Y92978D01*
X77888Y92993D01*
Y92436D01*
D02*
G37*
G36*
X58766Y92978D02*
X58803Y92964D01*
X58854Y92952D01*
X58918Y92941D01*
X59088Y92925D01*
X59446Y92913D01*
X59593Y92912D01*
Y92518D01*
X59446Y92517D01*
X58854Y92478D01*
X58803Y92466D01*
X58766Y92452D01*
X58743Y92436D01*
Y92993D01*
X58766Y92978D01*
D02*
G37*
G36*
X42717Y92323D02*
X42668Y92318D01*
X42614Y92302D01*
X42555Y92277D01*
X42489Y92241D01*
X42418Y92195D01*
X42342Y92138D01*
X42171Y91995D01*
X41978Y91811D01*
X41811Y91978D01*
X41908Y92077D01*
X42138Y92342D01*
X42195Y92418D01*
X42241Y92490D01*
X42277Y92555D01*
X42302Y92615D01*
X42318Y92669D01*
X42323Y92717D01*
X42717Y92323D01*
D02*
G37*
G36*
X-40582Y91804D02*
X-40533Y91776D01*
X-40472Y91751D01*
X-40400Y91729D01*
X-40317Y91711D01*
X-40223Y91697D01*
X-40002Y91677D01*
X-39735Y91670D01*
X-39739Y91434D01*
X-39878Y91432D01*
X-40229Y91409D01*
X-40323Y91395D01*
X-40406Y91378D01*
X-40477Y91357D01*
X-40537Y91334D01*
X-40586Y91307D01*
X-40623Y91278D01*
X-40620Y91835D01*
X-40582Y91804D01*
D02*
G37*
G36*
X-38929Y90996D02*
X-38880Y90969D01*
X-38819Y90945D01*
X-38748Y90924D01*
X-38665Y90906D01*
X-38571Y90892D01*
X-38349Y90873D01*
X-38082Y90866D01*
X-38082Y90630D01*
X-38221Y90628D01*
X-38571Y90604D01*
X-38665Y90590D01*
X-38748Y90572D01*
X-38820Y90551D01*
X-38880Y90527D01*
X-38929Y90500D01*
X-38967Y90469D01*
X-38967Y91027D01*
X-38929Y90996D01*
D02*
G37*
G36*
X40470Y90469D02*
X40432Y90500D01*
X40383Y90527D01*
X40323Y90551D01*
X40251Y90572D01*
X40168Y90590D01*
X40074Y90604D01*
X39852Y90623D01*
X39585Y90630D01*
Y90866D01*
X39724Y90868D01*
X40074Y90892D01*
X40168Y90906D01*
X40251Y90924D01*
X40323Y90945D01*
X40383Y90969D01*
X40432Y90996D01*
X40470Y91027D01*
Y90469D01*
D02*
G37*
G36*
X46012Y90012D02*
X46061Y89985D01*
X46121Y89960D01*
X46192Y89940D01*
X46275Y89922D01*
X46369Y89908D01*
X46591Y89888D01*
X46859Y89882D01*
Y89646D01*
X46719Y89644D01*
X46369Y89620D01*
X46275Y89606D01*
X46192Y89588D01*
X46121Y89567D01*
X46061Y89543D01*
X46012Y89516D01*
X45974Y89485D01*
Y90042D01*
X46012Y90012D01*
D02*
G37*
G36*
X65836Y89408D02*
X65784Y89453D01*
X65682Y89529D01*
X65633Y89560D01*
X65584Y89586D01*
X65536Y89608D01*
X65489Y89624D01*
X65443Y89636D01*
X65398Y89643D01*
X65354Y89646D01*
Y89882D01*
X65413Y89883D01*
X65471Y89888D01*
X65527Y89895D01*
X65582Y89906D01*
X65637Y89920D01*
X65689Y89936D01*
X65741Y89956D01*
X65792Y89978D01*
X65841Y90004D01*
X65889Y90033D01*
X65836Y89408D01*
D02*
G37*
G36*
X-37086Y89618D02*
X-37036Y89591D01*
X-36976Y89567D01*
X-36905Y89546D01*
X-36822Y89528D01*
X-36728Y89514D01*
X-36506Y89495D01*
X-36239Y89488D01*
Y89252D01*
X-36378Y89250D01*
X-36728Y89226D01*
X-36822Y89212D01*
X-36905Y89194D01*
X-36976Y89173D01*
X-37036Y89149D01*
X-37086Y89122D01*
X-37123Y89091D01*
Y89649D01*
X-37086Y89618D01*
D02*
G37*
G36*
X43979Y89486D02*
X43949Y89448D01*
X43922Y89399D01*
X43898Y89338D01*
X43877Y89267D01*
X43859Y89184D01*
X43845Y89090D01*
X43825Y88868D01*
X43819Y88601D01*
X43583Y88601D01*
X43581Y88740D01*
X43557Y89090D01*
X43543Y89184D01*
X43525Y89267D01*
X43504Y89338D01*
X43480Y89399D01*
X43453Y89448D01*
X43422Y89486D01*
X43979Y89486D01*
D02*
G37*
G36*
X-4670Y88831D02*
X-4621Y88803D01*
X-4561Y88779D01*
X-4489Y88759D01*
X-4406Y88741D01*
X-4312Y88727D01*
X-4090Y88707D01*
X-3823Y88701D01*
Y88465D01*
X-3962Y88463D01*
X-4312Y88439D01*
X-4406Y88424D01*
X-4489Y88407D01*
X-4561Y88386D01*
X-4621Y88362D01*
X-4670Y88335D01*
X-4708Y88304D01*
Y88861D01*
X-4670Y88831D01*
D02*
G37*
G36*
X41558Y87596D02*
X41525Y87619D01*
X41480Y87639D01*
X41423Y87657D01*
X41354Y87673D01*
X41272Y87686D01*
X41072Y87706D01*
X40824Y87715D01*
X40681Y87717D01*
X40648Y87953D01*
X40783Y87955D01*
X41126Y87985D01*
X41220Y88003D01*
X41304Y88025D01*
X41377Y88051D01*
X41439Y88081D01*
X41491Y88115D01*
X41533Y88153D01*
X41558Y87596D01*
D02*
G37*
G36*
X-42136Y88083D02*
X-42087Y88055D01*
X-42027Y88031D01*
X-41955Y88011D01*
X-41872Y87993D01*
X-41778Y87978D01*
X-41556Y87959D01*
X-41289Y87953D01*
Y87717D01*
X-41428Y87715D01*
X-41778Y87691D01*
X-41872Y87676D01*
X-41955Y87659D01*
X-42027Y87638D01*
X-42087Y87614D01*
X-42136Y87587D01*
X-42174Y87556D01*
Y88113D01*
X-42136Y88083D01*
D02*
G37*
G36*
X37222Y86768D02*
X37184Y86798D01*
X37135Y86825D01*
X37075Y86849D01*
X37003Y86870D01*
X36920Y86888D01*
X36826Y86902D01*
X36604Y86922D01*
X36337Y86928D01*
Y87164D01*
X36476Y87166D01*
X36826Y87190D01*
X36920Y87204D01*
X37003Y87222D01*
X37075Y87243D01*
X37135Y87267D01*
X37184Y87294D01*
X37222Y87325D01*
Y86768D01*
D02*
G37*
G36*
X-9231Y87294D02*
X-9182Y87267D01*
X-9122Y87243D01*
X-9050Y87222D01*
X-8967Y87204D01*
X-8873Y87190D01*
X-8651Y87171D01*
X-8384Y87164D01*
Y86928D01*
X-8523Y86926D01*
X-8873Y86902D01*
X-8967Y86888D01*
X-9050Y86870D01*
X-9122Y86849D01*
X-9182Y86825D01*
X-9231Y86798D01*
X-9269Y86768D01*
Y87325D01*
X-9231Y87294D01*
D02*
G37*
G36*
X65980Y86532D02*
X65942Y86563D01*
X65893Y86590D01*
X65833Y86614D01*
X65761Y86635D01*
X65679Y86653D01*
X65584Y86667D01*
X65362Y86686D01*
X65095Y86693D01*
Y86929D01*
X65235Y86931D01*
X65584Y86955D01*
X65679Y86969D01*
X65761Y86987D01*
X65833Y87008D01*
X65893Y87032D01*
X65942Y87059D01*
X65980Y87090D01*
Y86532D01*
D02*
G37*
G36*
X56812Y87059D02*
X56861Y87032D01*
X56921Y87008D01*
X56993Y86987D01*
X57076Y86969D01*
X57170Y86955D01*
X57392Y86936D01*
X57659Y86929D01*
Y86693D01*
X57520Y86691D01*
X57170Y86667D01*
X57076Y86653D01*
X56993Y86635D01*
X56921Y86614D01*
X56861Y86590D01*
X56812Y86563D01*
X56774Y86532D01*
Y87090D01*
X56812Y87059D01*
D02*
G37*
G36*
X42721Y86417D02*
X42697Y86412D01*
X42663Y86395D01*
X42620Y86367D01*
X42569Y86329D01*
X42439Y86220D01*
X42178Y85974D01*
X42074Y85870D01*
X41784Y86137D01*
X41886Y86241D01*
X42237Y86637D01*
X42275Y86692D01*
X42302Y86739D01*
X42318Y86777D01*
X42323Y86807D01*
X42721Y86417D01*
D02*
G37*
G36*
X-36707Y85933D02*
X-36670Y85919D01*
X-36619Y85906D01*
X-36555Y85896D01*
X-36384Y85879D01*
X-36026Y85867D01*
X-35880Y85866D01*
Y85473D01*
X-36026Y85472D01*
X-36619Y85433D01*
X-36670Y85421D01*
X-36707Y85407D01*
X-36730Y85391D01*
Y85948D01*
X-36707Y85933D01*
D02*
G37*
G36*
X-74881Y85091D02*
X-74832Y85063D01*
X-74771Y85039D01*
X-74700Y85018D01*
X-74617Y85001D01*
X-74523Y84986D01*
X-74301Y84967D01*
X-74034Y84961D01*
Y84724D01*
X-74173Y84723D01*
X-74523Y84699D01*
X-74617Y84684D01*
X-74700Y84667D01*
X-74771Y84646D01*
X-74832Y84622D01*
X-74881Y84595D01*
X-74919Y84564D01*
Y85121D01*
X-74881Y85091D01*
D02*
G37*
G36*
X64435Y84564D02*
X64397Y84594D01*
X64348Y84622D01*
X64288Y84646D01*
X64216Y84667D01*
X64133Y84684D01*
X64039Y84699D01*
X63817Y84718D01*
X63550Y84724D01*
Y84961D01*
X63689Y84962D01*
X64039Y84986D01*
X64133Y85001D01*
X64216Y85018D01*
X64288Y85039D01*
X64348Y85063D01*
X64397Y85091D01*
X64435Y85121D01*
Y84564D01*
D02*
G37*
G36*
X58792Y85091D02*
X58841Y85063D01*
X58902Y85039D01*
X58973Y85018D01*
X59056Y85001D01*
X59150Y84986D01*
X59372Y84967D01*
X59639Y84961D01*
Y84724D01*
X59500Y84723D01*
X59150Y84699D01*
X59056Y84684D01*
X58973Y84667D01*
X58902Y84646D01*
X58841Y84622D01*
X58792Y84594D01*
X58755Y84564D01*
Y85121D01*
X58792Y85091D01*
D02*
G37*
G36*
X51395Y83580D02*
X51357Y83610D01*
X51308Y83638D01*
X51248Y83662D01*
X51176Y83683D01*
X51094Y83700D01*
X50999Y83715D01*
X50777Y83734D01*
X50510Y83740D01*
Y83977D01*
X50649Y83978D01*
X50999Y84002D01*
X51094Y84017D01*
X51176Y84034D01*
X51248Y84055D01*
X51308Y84079D01*
X51357Y84106D01*
X51395Y84137D01*
Y83580D01*
D02*
G37*
G36*
X39486Y83580D02*
X39448Y83610D01*
X39399Y83637D01*
X39338Y83662D01*
X39267Y83682D01*
X39184Y83700D01*
X39090Y83714D01*
X38868Y83734D01*
X38601Y83740D01*
Y83976D01*
X38740Y83978D01*
X39090Y84002D01*
X39184Y84016D01*
X39267Y84034D01*
X39338Y84055D01*
X39399Y84079D01*
X39448Y84106D01*
X39486Y84137D01*
Y83580D01*
D02*
G37*
G36*
X-11101Y84106D02*
X-11052Y84079D01*
X-10992Y84055D01*
X-10921Y84034D01*
X-10838Y84016D01*
X-10744Y84002D01*
X-10521Y83983D01*
X-10254Y83976D01*
Y83740D01*
X-10394Y83738D01*
X-10744Y83714D01*
X-10838Y83700D01*
X-10921Y83682D01*
X-10992Y83662D01*
X-11052Y83637D01*
X-11101Y83610D01*
X-11139Y83580D01*
Y84137D01*
X-11101Y84106D01*
D02*
G37*
G36*
X68348Y83498D02*
X68321Y83514D01*
X68281Y83528D01*
X68228Y83541D01*
X68161Y83552D01*
X67989Y83568D01*
X67763Y83578D01*
X67485Y83582D01*
X67419Y83818D01*
X67550Y83820D01*
X67784Y83839D01*
X67886Y83856D01*
X67979Y83877D01*
X68063Y83903D01*
X68136Y83934D01*
X68200Y83970D01*
X68255Y84010D01*
X68300Y84055D01*
X68348Y83498D01*
D02*
G37*
G36*
X23643Y83138D02*
X23692Y83111D01*
X23752Y83087D01*
X23823Y83066D01*
X23906Y83049D01*
X24000Y83034D01*
X24222Y83015D01*
X24490Y83009D01*
X24490Y82772D01*
X24351Y82771D01*
X24001Y82747D01*
X23907Y82732D01*
X23824Y82714D01*
X23752Y82694D01*
X23692Y82670D01*
X23643Y82642D01*
X23605Y82612D01*
X23605Y83169D01*
X23643Y83138D01*
D02*
G37*
G36*
X59722Y82221D02*
X59684Y82252D01*
X59635Y82279D01*
X59575Y82303D01*
X59503Y82324D01*
X59420Y82342D01*
X59326Y82356D01*
X59104Y82376D01*
X58837Y82382D01*
Y82618D01*
X58976Y82620D01*
X59326Y82644D01*
X59420Y82658D01*
X59503Y82676D01*
X59575Y82697D01*
X59635Y82721D01*
X59684Y82748D01*
X59722Y82779D01*
Y82221D01*
D02*
G37*
G36*
X54426Y82629D02*
X54328Y82529D01*
X54098Y82265D01*
X54041Y82188D01*
X53996Y82117D01*
X53960Y82051D01*
X53934Y81992D01*
X53919Y81938D01*
X53913Y81889D01*
X53519Y82284D01*
X53568Y82289D01*
X53622Y82304D01*
X53681Y82330D01*
X53747Y82366D01*
X53818Y82412D01*
X53895Y82468D01*
X54065Y82611D01*
X54259Y82796D01*
X54426Y82629D01*
D02*
G37*
G36*
X41454Y81710D02*
X41416Y81740D01*
X41367Y81767D01*
X41307Y81792D01*
X41235Y81812D01*
X41153Y81830D01*
X41058Y81844D01*
X40836Y81864D01*
X40569Y81870D01*
Y82106D01*
X40709Y82108D01*
X41058Y82132D01*
X41153Y82146D01*
X41235Y82164D01*
X41307Y82185D01*
X41367Y82209D01*
X41416Y82236D01*
X41454Y82267D01*
Y81710D01*
D02*
G37*
G36*
X-5688Y82236D02*
X-5639Y82209D01*
X-5579Y82185D01*
X-5507Y82164D01*
X-5424Y82146D01*
X-5330Y82132D01*
X-5108Y82113D01*
X-4841Y82106D01*
Y81870D01*
X-4980Y81868D01*
X-5330Y81844D01*
X-5424Y81830D01*
X-5507Y81812D01*
X-5579Y81792D01*
X-5639Y81767D01*
X-5688Y81740D01*
X-5726Y81710D01*
Y82267D01*
X-5688Y82236D01*
D02*
G37*
G36*
X47458Y81611D02*
X47420Y81642D01*
X47371Y81669D01*
X47311Y81693D01*
X47239Y81714D01*
X47157Y81731D01*
X47062Y81746D01*
X46840Y81765D01*
X46573Y81772D01*
Y82008D01*
X46712Y82010D01*
X47062Y82033D01*
X47157Y82048D01*
X47239Y82066D01*
X47311Y82086D01*
X47371Y82111D01*
X47420Y82138D01*
X47458Y82168D01*
Y81611D01*
D02*
G37*
G36*
X1103Y81258D02*
X1152Y81231D01*
X1213Y81207D01*
X1284Y81186D01*
X1367Y81168D01*
X1461Y81154D01*
X1683Y81134D01*
X1950Y81128D01*
Y80892D01*
X1811Y80890D01*
X1461Y80866D01*
X1367Y80852D01*
X1284Y80834D01*
X1213Y80813D01*
X1152Y80789D01*
X1103Y80762D01*
X1066Y80731D01*
Y81288D01*
X1103Y81258D01*
D02*
G37*
G36*
X50591Y80512D02*
X50543Y80507D01*
X50489Y80491D01*
X50429Y80466D01*
X50364Y80430D01*
X50293Y80384D01*
X50216Y80327D01*
X50045Y80184D01*
X49852Y80000D01*
X49685Y80167D01*
X49782Y80266D01*
X50012Y80531D01*
X50069Y80607D01*
X50115Y80679D01*
X50151Y80744D01*
X50176Y80804D01*
X50192Y80858D01*
X50197Y80906D01*
X50591Y80512D01*
D02*
G37*
G36*
X53836Y80225D02*
X53885Y80197D01*
X53945Y80173D01*
X54017Y80152D01*
X54100Y80135D01*
X54194Y80120D01*
X54416Y80101D01*
X54683Y80094D01*
Y79858D01*
X54544Y79857D01*
X54194Y79833D01*
X54100Y79818D01*
X54017Y79800D01*
X53945Y79780D01*
X53885Y79756D01*
X53836Y79728D01*
X53798Y79698D01*
Y80255D01*
X53836Y80225D01*
D02*
G37*
G36*
X30050Y80181D02*
X30099Y80154D01*
X30160Y80130D01*
X30231Y80109D01*
X30314Y80091D01*
X30408Y80077D01*
X30630Y80058D01*
X30897Y80051D01*
Y79815D01*
X30758Y79813D01*
X30408Y79789D01*
X30314Y79775D01*
X30231Y79757D01*
X30160Y79736D01*
X30099Y79712D01*
X30050Y79685D01*
X30013Y79654D01*
Y80212D01*
X30050Y80181D01*
D02*
G37*
G36*
X-12282Y79362D02*
X-12233Y79335D01*
X-12173Y79311D01*
X-12101Y79290D01*
X-12019Y79272D01*
X-11925Y79258D01*
X-11703Y79239D01*
X-11435Y79232D01*
Y78996D01*
X-11575Y78995D01*
X-11925Y78970D01*
X-12019Y78956D01*
X-12101Y78938D01*
X-12173Y78917D01*
X-12233Y78893D01*
X-12282Y78866D01*
X-12320Y78836D01*
Y79393D01*
X-12282Y79362D01*
D02*
G37*
G36*
X42402Y78701D02*
X42353Y78757D01*
X42296Y78807D01*
X42231Y78851D01*
X42157Y78890D01*
X42075Y78922D01*
X41985Y78949D01*
X41886Y78970D01*
X41779Y78984D01*
X41664Y78993D01*
X41540Y78996D01*
X41578Y79232D01*
X42488Y79258D01*
X42402Y78701D01*
D02*
G37*
G36*
X62122Y78521D02*
X62084Y78552D01*
X62035Y78579D01*
X61975Y78603D01*
X61903Y78624D01*
X61820Y78642D01*
X61726Y78656D01*
X61504Y78676D01*
X61237Y78682D01*
Y78918D01*
X61376Y78920D01*
X61726Y78944D01*
X61820Y78958D01*
X61903Y78976D01*
X61975Y78997D01*
X62035Y79021D01*
X62084Y79048D01*
X62122Y79079D01*
Y78521D01*
D02*
G37*
G36*
X10844Y77969D02*
X10806Y78000D01*
X10757Y78027D01*
X10697Y78051D01*
X10625Y78072D01*
X10542Y78090D01*
X10448Y78104D01*
X10226Y78123D01*
X9992Y78129D01*
X9921Y78128D01*
X9572Y78104D01*
X9477Y78090D01*
X9394Y78072D01*
X9323Y78051D01*
X9263Y78027D01*
X9214Y78000D01*
X9176Y77969D01*
Y78527D01*
X9214Y78496D01*
X9263Y78469D01*
X9323Y78445D01*
X9394Y78424D01*
X9477Y78406D01*
X9572Y78392D01*
X9793Y78373D01*
X10028Y78367D01*
X10098Y78368D01*
X10448Y78392D01*
X10542Y78406D01*
X10625Y78424D01*
X10697Y78445D01*
X10757Y78469D01*
X10806Y78496D01*
X10844Y78527D01*
Y77969D01*
D02*
G37*
G36*
X43423Y77654D02*
X43399Y77670D01*
X43362Y77684D01*
X43312Y77696D01*
X43247Y77707D01*
X43077Y77723D01*
X42719Y77735D01*
X42573Y77736D01*
Y78130D01*
X42719Y78131D01*
X43312Y78170D01*
X43362Y78182D01*
X43399Y78196D01*
X43423Y78211D01*
Y77654D01*
D02*
G37*
G36*
X-63108Y78196D02*
X-63071Y78182D01*
X-63020Y78170D01*
X-62956Y78159D01*
X-62786Y78143D01*
X-62428Y78131D01*
X-62281Y78130D01*
Y77736D01*
X-62428Y77735D01*
X-63020Y77696D01*
X-63071Y77684D01*
X-63108Y77670D01*
X-63131Y77654D01*
Y78211D01*
X-63108Y78196D01*
D02*
G37*
G36*
X-23484Y76248D02*
X-23435Y76221D01*
X-23375Y76197D01*
X-23303Y76176D01*
X-23220Y76158D01*
X-23126Y76144D01*
X-22904Y76125D01*
X-22637Y76118D01*
Y75882D01*
X-22776Y75880D01*
X-23126Y75856D01*
X-23220Y75842D01*
X-23303Y75824D01*
X-23375Y75803D01*
X-23435Y75779D01*
X-23484Y75752D01*
X-23522Y75721D01*
Y76279D01*
X-23484Y76248D01*
D02*
G37*
G36*
X44413Y75016D02*
X44377Y75043D01*
X44330Y75067D01*
X44271Y75088D01*
X44200Y75107D01*
X44118Y75122D01*
X44024Y75135D01*
X43801Y75152D01*
X43530Y75158D01*
X43515Y75394D01*
X43653Y75396D01*
X44000Y75423D01*
X44094Y75439D01*
X44177Y75459D01*
X44249Y75482D01*
X44311Y75508D01*
X44361Y75539D01*
X44401Y75573D01*
X44413Y75016D01*
D02*
G37*
G36*
X35347Y75509D02*
X35395Y75485D01*
X35454Y75464D01*
X35524Y75445D01*
X35607Y75430D01*
X35701Y75417D01*
X35924Y75400D01*
X36194Y75394D01*
X36209Y75158D01*
X36072Y75156D01*
X35725Y75129D01*
X35631Y75113D01*
X35548Y75094D01*
X35475Y75070D01*
X35414Y75043D01*
X35363Y75013D01*
X35323Y74979D01*
X35312Y75536D01*
X35347Y75509D01*
D02*
G37*
G36*
X-43734Y74795D02*
X-43685Y74768D01*
X-43624Y74744D01*
X-43553Y74723D01*
X-43470Y74705D01*
X-43376Y74691D01*
X-43154Y74672D01*
X-42887Y74665D01*
Y74429D01*
X-43026Y74427D01*
X-43376Y74403D01*
X-43470Y74389D01*
X-43553Y74371D01*
X-43624Y74351D01*
X-43685Y74326D01*
X-43734Y74299D01*
X-43772Y74269D01*
Y74826D01*
X-43734Y74795D01*
D02*
G37*
G36*
X52325Y74258D02*
X52292Y74283D01*
X52246Y74304D01*
X52188Y74323D01*
X52119Y74340D01*
X52037Y74354D01*
X51837Y74374D01*
X51589Y74385D01*
X51446Y74386D01*
X51419Y74622D01*
X51555Y74624D01*
X51899Y74653D01*
X51993Y74670D01*
X52077Y74692D01*
X52149Y74717D01*
X52212Y74746D01*
X52263Y74779D01*
X52305Y74816D01*
X52325Y74258D01*
D02*
G37*
G36*
X70408Y72261D02*
X70370Y72291D01*
X70321Y72319D01*
X70261Y72343D01*
X70189Y72364D01*
X70106Y72381D01*
X70012Y72396D01*
X69790Y72415D01*
X69523Y72421D01*
Y72658D01*
X69662Y72659D01*
X70012Y72683D01*
X70106Y72698D01*
X70189Y72715D01*
X70261Y72736D01*
X70321Y72760D01*
X70370Y72787D01*
X70408Y72818D01*
Y72261D01*
D02*
G37*
G36*
X66574Y72787D02*
X66623Y72760D01*
X66684Y72736D01*
X66755Y72715D01*
X66838Y72698D01*
X66932Y72683D01*
X67154Y72664D01*
X67421Y72658D01*
Y72421D01*
X67282Y72420D01*
X66932Y72396D01*
X66838Y72381D01*
X66755Y72364D01*
X66684Y72343D01*
X66623Y72319D01*
X66574Y72291D01*
X66536Y72261D01*
Y72818D01*
X66574Y72787D01*
D02*
G37*
G36*
X51395Y71921D02*
X51357Y71952D01*
X51308Y71979D01*
X51248Y72003D01*
X51176Y72024D01*
X51094Y72042D01*
X50999Y72056D01*
X50777Y72075D01*
X50510Y72082D01*
Y72318D01*
X50649Y72320D01*
X50999Y72344D01*
X51094Y72358D01*
X51176Y72376D01*
X51248Y72397D01*
X51308Y72421D01*
X51357Y72448D01*
X51395Y72479D01*
Y71921D01*
D02*
G37*
G36*
X-33984Y72448D02*
X-33935Y72421D01*
X-33875Y72397D01*
X-33803Y72376D01*
X-33720Y72358D01*
X-33626Y72344D01*
X-33404Y72325D01*
X-33137Y72318D01*
Y72082D01*
X-33276Y72080D01*
X-33626Y72056D01*
X-33720Y72042D01*
X-33803Y72024D01*
X-33875Y72003D01*
X-33935Y71979D01*
X-33984Y71952D01*
X-34022Y71921D01*
Y72479D01*
X-33984Y72448D01*
D02*
G37*
G36*
X47458Y71075D02*
X47420Y71105D01*
X47371Y71133D01*
X47311Y71157D01*
X47239Y71178D01*
X47157Y71195D01*
X47062Y71210D01*
X46840Y71229D01*
X46573Y71236D01*
Y71472D01*
X46712Y71473D01*
X47062Y71497D01*
X47157Y71512D01*
X47239Y71530D01*
X47311Y71550D01*
X47371Y71574D01*
X47420Y71602D01*
X47458Y71632D01*
Y71075D01*
D02*
G37*
G36*
X-45298Y71602D02*
X-45249Y71574D01*
X-45188Y71550D01*
X-45117Y71530D01*
X-45034Y71512D01*
X-44940Y71497D01*
X-44718Y71478D01*
X-44451Y71472D01*
Y71236D01*
X-44590Y71234D01*
X-44940Y71210D01*
X-45034Y71195D01*
X-45117Y71178D01*
X-45188Y71157D01*
X-45249Y71133D01*
X-45298Y71105D01*
X-45336Y71075D01*
Y71632D01*
X-45298Y71602D01*
D02*
G37*
G36*
X48344Y69449D02*
X48306Y69479D01*
X48257Y69506D01*
X48197Y69530D01*
X48125Y69551D01*
X48042Y69569D01*
X47948Y69583D01*
X47726Y69603D01*
X47459Y69609D01*
Y69845D01*
X47598Y69847D01*
X47948Y69871D01*
X48042Y69885D01*
X48125Y69903D01*
X48197Y69924D01*
X48257Y69948D01*
X48306Y69975D01*
X48344Y70006D01*
Y69449D01*
D02*
G37*
G36*
X-35708Y69975D02*
X-35659Y69948D01*
X-35598Y69924D01*
X-35527Y69903D01*
X-35444Y69885D01*
X-35350Y69871D01*
X-35128Y69852D01*
X-34861Y69845D01*
Y69609D01*
X-35000Y69608D01*
X-35350Y69583D01*
X-35444Y69569D01*
X-35527Y69551D01*
X-35598Y69530D01*
X-35659Y69506D01*
X-35708Y69479D01*
X-35745Y69449D01*
Y70006D01*
X-35708Y69975D01*
D02*
G37*
G36*
X-70357Y69406D02*
X-70395Y69437D01*
X-70444Y69464D01*
X-70504Y69488D01*
X-70576Y69509D01*
X-70658Y69527D01*
X-70753Y69541D01*
X-70975Y69560D01*
X-71242Y69567D01*
Y69803D01*
X-71102Y69805D01*
X-70753Y69829D01*
X-70658Y69843D01*
X-70576Y69861D01*
X-70504Y69882D01*
X-70444Y69906D01*
X-70395Y69933D01*
X-70357Y69964D01*
Y69406D01*
D02*
G37*
G36*
X23049Y67832D02*
X23011Y67862D01*
X22962Y67889D01*
X22901Y67914D01*
X22830Y67934D01*
X22747Y67952D01*
X22653Y67966D01*
X22431Y67986D01*
X22164Y67992D01*
Y68228D01*
X22303Y68230D01*
X22653Y68254D01*
X22747Y68268D01*
X22830Y68286D01*
X22901Y68307D01*
X22962Y68331D01*
X23011Y68358D01*
X23049Y68389D01*
Y67832D01*
D02*
G37*
G36*
X8682Y68358D02*
X8731Y68331D01*
X8792Y68307D01*
X8863Y68286D01*
X8946Y68268D01*
X9040Y68254D01*
X9262Y68235D01*
X9529Y68228D01*
Y67992D01*
X9390Y67990D01*
X9040Y67966D01*
X8946Y67952D01*
X8863Y67934D01*
X8792Y67914D01*
X8731Y67889D01*
X8682Y67862D01*
X8644Y67832D01*
Y68389D01*
X8682Y68358D01*
D02*
G37*
G36*
X41571Y67808D02*
X41544Y67825D01*
X41503Y67839D01*
X41450Y67852D01*
X41383Y67863D01*
X41211Y67880D01*
X40985Y67890D01*
X40707Y67894D01*
X40643Y68130D01*
X40774Y68132D01*
X41008Y68151D01*
X41110Y68168D01*
X41203Y68189D01*
X41286Y68215D01*
X41360Y68245D01*
X41424Y68281D01*
X41479Y68321D01*
X41524Y68366D01*
X41571Y67808D01*
D02*
G37*
G36*
X37560Y68260D02*
X37609Y68233D01*
X37669Y68208D01*
X37741Y68188D01*
X37824Y68170D01*
X37918Y68156D01*
X38140Y68136D01*
X38407Y68130D01*
Y67894D01*
X38268Y67892D01*
X37918Y67868D01*
X37824Y67854D01*
X37741Y67836D01*
X37669Y67815D01*
X37609Y67791D01*
X37560Y67764D01*
X37522Y67733D01*
Y68290D01*
X37560Y68260D01*
D02*
G37*
G36*
X-73896Y67953D02*
X-73872Y67603D01*
X-73857Y67509D01*
X-73840Y67426D01*
X-73819Y67355D01*
X-73795Y67294D01*
X-73768Y67245D01*
X-73737Y67207D01*
X-74294D01*
X-74264Y67245D01*
X-74237Y67294D01*
X-74212Y67355D01*
X-74192Y67426D01*
X-74174Y67509D01*
X-74159Y67603D01*
X-74140Y67825D01*
X-74134Y68092D01*
X-73898D01*
X-73896Y67953D01*
D02*
G37*
G36*
X-46928Y67472D02*
X-46879Y67445D01*
X-46819Y67421D01*
X-46747Y67400D01*
X-46664Y67383D01*
X-46570Y67368D01*
X-46348Y67349D01*
X-46081Y67343D01*
Y67106D01*
X-46220Y67105D01*
X-46570Y67081D01*
X-46664Y67066D01*
X-46747Y67049D01*
X-46819Y67028D01*
X-46879Y67004D01*
X-46928Y66976D01*
X-46966Y66946D01*
Y67503D01*
X-46928Y67472D01*
D02*
G37*
G36*
X57245Y66945D02*
X57207Y66976D01*
X57158Y67003D01*
X57098Y67027D01*
X57026Y67048D01*
X56943Y67066D01*
X56849Y67080D01*
X56627Y67100D01*
X56360Y67106D01*
X56361Y67343D01*
X56500Y67344D01*
X56850Y67368D01*
X56944Y67383D01*
X57027Y67400D01*
X57099Y67421D01*
X57159Y67445D01*
X57208Y67472D01*
X57245Y67502D01*
X57245Y66945D01*
D02*
G37*
G36*
X68649Y66221D02*
X68611Y66252D01*
X68562Y66279D01*
X68502Y66303D01*
X68430Y66324D01*
X68348Y66342D01*
X68253Y66356D01*
X68031Y66375D01*
X67764Y66382D01*
Y66618D01*
X67904Y66620D01*
X68253Y66644D01*
X68348Y66658D01*
X68430Y66676D01*
X68502Y66697D01*
X68562Y66721D01*
X68611Y66748D01*
X68649Y66779D01*
Y66221D01*
D02*
G37*
G36*
X66651Y66748D02*
X66700Y66721D01*
X66760Y66697D01*
X66832Y66676D01*
X66915Y66658D01*
X67009Y66644D01*
X67231Y66624D01*
X67498Y66618D01*
Y66382D01*
X67359Y66380D01*
X67009Y66356D01*
X66915Y66342D01*
X66832Y66324D01*
X66760Y66303D01*
X66700Y66279D01*
X66651Y66252D01*
X66613Y66221D01*
Y66779D01*
X66651Y66748D01*
D02*
G37*
G36*
X45397Y65221D02*
X45359Y65252D01*
X45310Y65279D01*
X45250Y65303D01*
X45178Y65324D01*
X45096Y65342D01*
X45001Y65356D01*
X44779Y65376D01*
X44512Y65382D01*
Y65618D01*
X44651Y65620D01*
X45001Y65644D01*
X45096Y65658D01*
X45178Y65676D01*
X45250Y65697D01*
X45310Y65721D01*
X45359Y65748D01*
X45397Y65779D01*
Y65221D01*
D02*
G37*
G36*
X-71534Y65748D02*
X-71485Y65721D01*
X-71425Y65697D01*
X-71354Y65676D01*
X-71271Y65658D01*
X-71177Y65644D01*
X-70955Y65624D01*
X-70687Y65618D01*
Y65382D01*
X-70827Y65380D01*
X-71177Y65356D01*
X-71271Y65342D01*
X-71354Y65324D01*
X-71425Y65303D01*
X-71485Y65279D01*
X-71534Y65252D01*
X-71572Y65221D01*
Y65779D01*
X-71534Y65748D01*
D02*
G37*
G36*
X77875Y64643D02*
X77852Y64658D01*
X77815Y64672D01*
X77764Y64684D01*
X77700Y64695D01*
X77530Y64711D01*
X77172Y64724D01*
X77025Y64724D01*
Y65118D01*
X77172Y65119D01*
X77764Y65158D01*
X77815Y65170D01*
X77852Y65184D01*
X77875Y65200D01*
Y64643D01*
D02*
G37*
G36*
X-68793Y64928D02*
X-68756Y64915D01*
X-68705Y64902D01*
X-68641Y64892D01*
X-68471Y64875D01*
X-68113Y64863D01*
X-67966Y64862D01*
Y64468D01*
X-68113Y64468D01*
X-68705Y64429D01*
X-68756Y64416D01*
X-68793Y64402D01*
X-68816Y64387D01*
Y64944D01*
X-68793Y64928D01*
D02*
G37*
G36*
X49597Y64330D02*
X49548Y64324D01*
X49494Y64309D01*
X49435Y64284D01*
X49369Y64248D01*
X49298Y64202D01*
X49222Y64145D01*
X49051Y64002D01*
X48858Y63818D01*
X48691Y63985D01*
X48788Y64084D01*
X49018Y64349D01*
X49075Y64425D01*
X49121Y64496D01*
X49157Y64562D01*
X49182Y64621D01*
X49198Y64675D01*
X49203Y64724D01*
X49597Y64330D01*
D02*
G37*
G36*
X-76454Y64675D02*
X-76438Y64621D01*
X-76413Y64562D01*
X-76377Y64496D01*
X-76331Y64425D01*
X-76275Y64349D01*
X-76131Y64178D01*
X-75947Y63985D01*
X-76114Y63818D01*
X-76214Y63915D01*
X-76478Y64145D01*
X-76555Y64202D01*
X-76626Y64248D01*
X-76691Y64284D01*
X-76751Y64309D01*
X-76805Y64324D01*
X-76853Y64330D01*
X-76459Y64724D01*
X-76454Y64675D01*
D02*
G37*
G36*
X55748Y62668D02*
X55700Y62663D01*
X55646Y62648D01*
X55586Y62622D01*
X55521Y62586D01*
X55450Y62540D01*
X55373Y62484D01*
X55203Y62340D01*
X55009Y62156D01*
X54842Y62323D01*
X54939Y62423D01*
X55170Y62687D01*
X55226Y62764D01*
X55272Y62835D01*
X55308Y62900D01*
X55334Y62960D01*
X55349Y63014D01*
X55354Y63062D01*
X55748Y62668D01*
D02*
G37*
G36*
X-70784Y62715D02*
X-70811Y62666D01*
X-70835Y62605D01*
X-70856Y62534D01*
X-70874Y62451D01*
X-70888Y62357D01*
X-70907Y62135D01*
X-70914Y61868D01*
X-71150D01*
X-71152Y62007D01*
X-71176Y62357D01*
X-71190Y62451D01*
X-71208Y62534D01*
X-71229Y62605D01*
X-71253Y62666D01*
X-71280Y62715D01*
X-71311Y62752D01*
X-70753D01*
X-70784Y62715D01*
D02*
G37*
G36*
X68685Y61659D02*
X68647Y61690D01*
X68598Y61717D01*
X68538Y61741D01*
X68466Y61762D01*
X68384Y61780D01*
X68290Y61794D01*
X68067Y61814D01*
X67800Y61820D01*
Y62056D01*
X67940Y62058D01*
X68290Y62082D01*
X68384Y62096D01*
X68466Y62114D01*
X68538Y62135D01*
X68598Y62159D01*
X68647Y62186D01*
X68685Y62217D01*
Y61659D01*
D02*
G37*
G36*
X66651Y62186D02*
X66700Y62159D01*
X66760Y62135D01*
X66832Y62114D01*
X66915Y62096D01*
X67009Y62082D01*
X67231Y62063D01*
X67498Y62056D01*
Y61820D01*
X67359Y61818D01*
X67009Y61794D01*
X66915Y61780D01*
X66832Y61762D01*
X66760Y61741D01*
X66700Y61717D01*
X66651Y61690D01*
X66613Y61659D01*
Y62217D01*
X66651Y62186D01*
D02*
G37*
G36*
X50312Y60846D02*
X50275Y60876D01*
X50226Y60903D01*
X50165Y60927D01*
X50094Y60948D01*
X50011Y60966D01*
X49917Y60980D01*
X49695Y61000D01*
X49428Y61006D01*
Y61242D01*
X49567Y61244D01*
X49917Y61268D01*
X50011Y61282D01*
X50094Y61300D01*
X50165Y61321D01*
X50226Y61345D01*
X50275Y61372D01*
X50312Y61403D01*
Y60846D01*
D02*
G37*
G36*
X-67752Y61372D02*
X-67703Y61345D01*
X-67642Y61321D01*
X-67571Y61300D01*
X-67488Y61282D01*
X-67394Y61268D01*
X-67172Y61249D01*
X-66905Y61242D01*
Y61006D01*
X-67044Y61005D01*
X-67394Y60980D01*
X-67488Y60966D01*
X-67571Y60948D01*
X-67642Y60927D01*
X-67703Y60903D01*
X-67752Y60876D01*
X-67790Y60846D01*
Y61403D01*
X-67752Y61372D01*
D02*
G37*
G36*
X-151043Y64400D02*
X-151041Y64399D01*
X-150748Y63905D01*
Y63654D01*
X-150652Y63423D01*
X-150475Y63246D01*
X-150243Y63150D01*
X-149993D01*
X-149761Y63246D01*
X-149584Y63423D01*
X-149488Y63654D01*
Y63900D01*
X-149488Y63905D01*
X-149195Y64399D01*
X-149193Y64400D01*
X-108200Y64400D01*
Y54800D01*
X-133320D01*
X-133622Y55287D01*
Y55537D01*
X-133718Y55769D01*
X-133895Y55946D01*
X-134127Y56042D01*
X-134377D01*
X-134609Y55946D01*
X-134786Y55769D01*
X-134882Y55537D01*
Y55287D01*
X-135184Y54800D01*
X-156300D01*
Y56506D01*
X-155800Y56605D01*
X-155770Y56533D01*
X-155593Y56356D01*
X-155361Y56260D01*
X-155111D01*
X-154879Y56356D01*
X-154702Y56533D01*
X-154606Y56765D01*
Y57015D01*
X-154702Y57247D01*
X-154879Y57424D01*
X-155111Y57520D01*
X-155361D01*
X-155593Y57424D01*
X-155770Y57247D01*
X-155800Y57175D01*
X-156300Y57274D01*
Y60443D01*
X-155800Y60542D01*
X-155770Y60470D01*
X-155593Y60293D01*
X-155361Y60197D01*
X-155111D01*
X-154879Y60293D01*
X-154702Y60470D01*
X-154606Y60702D01*
Y60952D01*
X-154702Y61184D01*
X-154879Y61361D01*
X-155111Y61457D01*
X-155361D01*
X-155593Y61361D01*
X-155770Y61184D01*
X-155800Y61112D01*
X-156300Y61211D01*
Y64400D01*
X-151043Y64400D01*
D02*
G37*
G36*
X-76459Y59611D02*
X-76441Y59563D01*
X-76420Y59515D01*
X-76370Y59424D01*
X-76341Y59380D01*
X-76276Y59293D01*
X-76239Y59252D01*
X-76200Y59211D01*
X-76367Y59044D01*
X-76393Y59066D01*
X-76423Y59085D01*
X-76458Y59101D01*
X-76499Y59116D01*
X-76544Y59128D01*
X-76595Y59138D01*
X-76651Y59145D01*
X-76778Y59153D01*
X-76849Y59153D01*
X-76476Y59660D01*
X-76459Y59611D01*
D02*
G37*
G36*
X45929Y58784D02*
X45891Y58814D01*
X45842Y58841D01*
X45782Y58865D01*
X45710Y58886D01*
X45627Y58904D01*
X45533Y58918D01*
X45311Y58938D01*
X45044Y58944D01*
X45044Y59181D01*
X45183Y59182D01*
X45533Y59206D01*
X45627Y59220D01*
X45710Y59238D01*
X45782Y59259D01*
X45842Y59283D01*
X45891Y59310D01*
X45929Y59341D01*
X45929Y58784D01*
D02*
G37*
G36*
X56218Y57570D02*
X56180Y57601D01*
X56131Y57628D01*
X56071Y57652D01*
X55999Y57673D01*
X55916Y57691D01*
X55822Y57705D01*
X55600Y57724D01*
X55333Y57731D01*
Y57967D01*
X55472Y57969D01*
X55822Y57993D01*
X55916Y58007D01*
X55999Y58025D01*
X56071Y58046D01*
X56131Y58070D01*
X56180Y58097D01*
X56218Y58127D01*
Y57570D01*
D02*
G37*
G36*
X-15368Y58097D02*
X-15319Y58070D01*
X-15258Y58046D01*
X-15187Y58025D01*
X-15104Y58007D01*
X-15010Y57993D01*
X-14788Y57973D01*
X-14521Y57967D01*
Y57731D01*
X-14660Y57729D01*
X-15010Y57705D01*
X-15104Y57691D01*
X-15187Y57673D01*
X-15258Y57652D01*
X-15319Y57628D01*
X-15368Y57601D01*
X-15405Y57570D01*
Y58127D01*
X-15368Y58097D01*
D02*
G37*
G36*
X68660Y57096D02*
X68623Y57127D01*
X68574Y57154D01*
X68513Y57178D01*
X68442Y57199D01*
X68359Y57217D01*
X68265Y57231D01*
X68043Y57250D01*
X67776Y57257D01*
Y57493D01*
X67915Y57494D01*
X68265Y57519D01*
X68359Y57533D01*
X68442Y57551D01*
X68513Y57572D01*
X68574Y57596D01*
X68623Y57623D01*
X68660Y57653D01*
Y57096D01*
D02*
G37*
G36*
X66716Y57623D02*
X66765Y57596D01*
X66825Y57572D01*
X66897Y57551D01*
X66980Y57533D01*
X67074Y57519D01*
X67296Y57499D01*
X67563Y57493D01*
Y57257D01*
X67424Y57255D01*
X67074Y57231D01*
X66980Y57217D01*
X66897Y57199D01*
X66825Y57178D01*
X66765Y57154D01*
X66716Y57127D01*
X66678Y57096D01*
Y57653D01*
X66716Y57623D01*
D02*
G37*
G36*
X60155Y54921D02*
X60117Y54952D01*
X60068Y54979D01*
X60008Y55003D01*
X59936Y55024D01*
X59853Y55042D01*
X59759Y55056D01*
X59537Y55076D01*
X59270Y55082D01*
Y55318D01*
X59409Y55320D01*
X59759Y55344D01*
X59853Y55358D01*
X59936Y55376D01*
X60008Y55397D01*
X60068Y55421D01*
X60117Y55448D01*
X60155Y55479D01*
Y54921D01*
D02*
G37*
G36*
X-51849Y55448D02*
X-51800Y55421D01*
X-51740Y55397D01*
X-51669Y55376D01*
X-51586Y55358D01*
X-51491Y55344D01*
X-51270Y55325D01*
X-51002Y55318D01*
Y55082D01*
X-51142Y55080D01*
X-51491Y55056D01*
X-51586Y55042D01*
X-51669Y55024D01*
X-51740Y55003D01*
X-51800Y54979D01*
X-51849Y54952D01*
X-51887Y54921D01*
Y55479D01*
X-51849Y55448D01*
D02*
G37*
G36*
X62127Y54084D02*
X62090Y54115D01*
X62040Y54142D01*
X61980Y54166D01*
X61909Y54187D01*
X61826Y54204D01*
X61732Y54219D01*
X61510Y54238D01*
X61243Y54245D01*
Y54481D01*
X61382Y54482D01*
X61732Y54506D01*
X61826Y54521D01*
X61909Y54539D01*
X61980Y54559D01*
X62040Y54583D01*
X62090Y54611D01*
X62127Y54641D01*
Y54084D01*
D02*
G37*
G36*
X-55797Y54591D02*
X-55751Y54568D01*
X-55692Y54547D01*
X-55622Y54530D01*
X-55540Y54515D01*
X-55340Y54493D01*
X-55092Y54482D01*
X-54951Y54481D01*
X-54931Y54245D01*
X-55068Y54243D01*
X-55414Y54215D01*
X-55508Y54198D01*
X-55591Y54178D01*
X-55663Y54154D01*
X-55725Y54126D01*
X-55776Y54095D01*
X-55817Y54060D01*
X-55832Y54617D01*
X-55797Y54591D01*
D02*
G37*
G36*
X59171Y52389D02*
X59133Y52419D01*
X59084Y52446D01*
X59023Y52470D01*
X58952Y52491D01*
X58869Y52509D01*
X58775Y52523D01*
X58553Y52543D01*
X58286Y52549D01*
Y52785D01*
X58425Y52787D01*
X58775Y52811D01*
X58869Y52825D01*
X58952Y52843D01*
X59023Y52864D01*
X59084Y52888D01*
X59133Y52915D01*
X59171Y52946D01*
Y52389D01*
D02*
G37*
G36*
X-52734Y52915D02*
X-52685Y52888D01*
X-52625Y52864D01*
X-52553Y52843D01*
X-52470Y52825D01*
X-52376Y52811D01*
X-52154Y52792D01*
X-51887Y52785D01*
Y52549D01*
X-52026Y52548D01*
X-52376Y52523D01*
X-52470Y52509D01*
X-52553Y52491D01*
X-52625Y52470D01*
X-52685Y52446D01*
X-52734Y52419D01*
X-52772Y52389D01*
Y52946D01*
X-52734Y52915D01*
D02*
G37*
G36*
X58186Y50484D02*
X58149Y50514D01*
X58100Y50542D01*
X58039Y50566D01*
X57968Y50586D01*
X57885Y50604D01*
X57791Y50619D01*
X57569Y50638D01*
X57302Y50644D01*
Y50880D01*
X57441Y50882D01*
X57791Y50906D01*
X57885Y50921D01*
X57968Y50938D01*
X58039Y50959D01*
X58100Y50983D01*
X58149Y51011D01*
X58186Y51041D01*
Y50484D01*
D02*
G37*
G36*
X-40235Y51011D02*
X-40186Y50983D01*
X-40126Y50959D01*
X-40054Y50938D01*
X-39971Y50921D01*
X-39877Y50906D01*
X-39655Y50887D01*
X-39388Y50880D01*
Y50644D01*
X-39527Y50643D01*
X-39877Y50619D01*
X-39971Y50604D01*
X-40054Y50586D01*
X-40126Y50566D01*
X-40186Y50542D01*
X-40235Y50514D01*
X-40273Y50484D01*
Y51041D01*
X-40235Y51011D01*
D02*
G37*
G36*
X61139Y48934D02*
X61101Y48965D01*
X61052Y48992D01*
X60992Y49016D01*
X60920Y49037D01*
X60838Y49054D01*
X60743Y49069D01*
X60522Y49088D01*
X60254Y49095D01*
Y49331D01*
X60394Y49332D01*
X60743Y49356D01*
X60838Y49371D01*
X60920Y49389D01*
X60992Y49409D01*
X61052Y49433D01*
X61101Y49461D01*
X61139Y49491D01*
Y48934D01*
D02*
G37*
G36*
X-53818Y49461D02*
X-53769Y49433D01*
X-53708Y49409D01*
X-53637Y49389D01*
X-53554Y49371D01*
X-53460Y49356D01*
X-53238Y49337D01*
X-52971Y49331D01*
Y49095D01*
X-53110Y49093D01*
X-53460Y49069D01*
X-53554Y49054D01*
X-53637Y49037D01*
X-53708Y49016D01*
X-53769Y48992D01*
X-53818Y48965D01*
X-53856Y48934D01*
Y49491D01*
X-53818Y49461D01*
D02*
G37*
G36*
X42241Y46091D02*
X42204Y46122D01*
X42155Y46149D01*
X42094Y46173D01*
X42023Y46194D01*
X41940Y46211D01*
X41846Y46226D01*
X41624Y46245D01*
X41357Y46252D01*
Y46488D01*
X41496Y46489D01*
X41846Y46514D01*
X41940Y46528D01*
X42023Y46545D01*
X42094Y46566D01*
X42155Y46591D01*
X42204Y46618D01*
X42241Y46648D01*
Y46091D01*
D02*
G37*
G36*
X-1298Y46618D02*
X-1249Y46591D01*
X-1188Y46566D01*
X-1117Y46545D01*
X-1034Y46528D01*
X-940Y46514D01*
X-718Y46494D01*
X-451Y46488D01*
Y46252D01*
X-590Y46250D01*
X-940Y46226D01*
X-1034Y46211D01*
X-1117Y46194D01*
X-1188Y46173D01*
X-1249Y46149D01*
X-1298Y46122D01*
X-1335Y46091D01*
Y46648D01*
X-1298Y46618D01*
D02*
G37*
G36*
X59724Y43735D02*
X59687Y43764D01*
X59639Y43790D01*
X59579Y43813D01*
X59508Y43833D01*
X59425Y43850D01*
X59331Y43863D01*
X59109Y43882D01*
X58840Y43888D01*
X58834Y44124D01*
X58973Y44126D01*
X59321Y44151D01*
X59415Y44166D01*
X59498Y44185D01*
X59570Y44207D01*
X59631Y44232D01*
X59681Y44260D01*
X59720Y44292D01*
X59724Y43735D01*
D02*
G37*
G36*
X53895Y44248D02*
X53944Y44222D01*
X54003Y44199D01*
X54075Y44179D01*
X54157Y44162D01*
X54251Y44149D01*
X54474Y44130D01*
X54742Y44124D01*
X54749Y43888D01*
X54610Y43886D01*
X54261Y43861D01*
X54167Y43846D01*
X54084Y43827D01*
X54012Y43806D01*
X53952Y43780D01*
X53902Y43752D01*
X53863Y43720D01*
X53858Y44277D01*
X53895Y44248D01*
D02*
G37*
G36*
X51395Y41833D02*
X51357Y41863D01*
X51308Y41890D01*
X51248Y41914D01*
X51176Y41935D01*
X51094Y41953D01*
X50999Y41967D01*
X50777Y41987D01*
X50510Y41993D01*
Y42229D01*
X50649Y42231D01*
X50999Y42255D01*
X51094Y42269D01*
X51176Y42287D01*
X51248Y42308D01*
X51308Y42332D01*
X51357Y42359D01*
X51395Y42390D01*
Y41833D01*
D02*
G37*
G36*
X30040Y42359D02*
X30089Y42332D01*
X30150Y42308D01*
X30221Y42287D01*
X30304Y42269D01*
X30398Y42255D01*
X30620Y42236D01*
X30887Y42229D01*
Y41993D01*
X30748Y41991D01*
X30398Y41967D01*
X30304Y41953D01*
X30221Y41935D01*
X30150Y41914D01*
X30089Y41890D01*
X30040Y41863D01*
X30003Y41833D01*
Y42390D01*
X30040Y42359D01*
D02*
G37*
G36*
X29446Y41833D02*
X29408Y41863D01*
X29359Y41890D01*
X29299Y41914D01*
X29228Y41935D01*
X29145Y41953D01*
X29051Y41967D01*
X28829Y41987D01*
X28561Y41993D01*
Y42229D01*
X28701Y42231D01*
X29051Y42255D01*
X29145Y42269D01*
X29228Y42287D01*
X29299Y42308D01*
X29359Y42332D01*
X29408Y42359D01*
X29446Y42390D01*
Y41833D01*
D02*
G37*
G36*
X26103Y41290D02*
X26005Y41190D01*
X25775Y40926D01*
X25719Y40849D01*
X25673Y40778D01*
X25637Y40713D01*
X25611Y40653D01*
X25596Y40599D01*
X25591Y40551D01*
X25197Y40945D01*
X25245Y40950D01*
X25299Y40965D01*
X25359Y40991D01*
X25424Y41027D01*
X25495Y41073D01*
X25572Y41129D01*
X25742Y41273D01*
X25936Y41457D01*
X26103Y41290D01*
D02*
G37*
G36*
X56879Y34859D02*
X56841Y34890D01*
X56792Y34917D01*
X56732Y34941D01*
X56660Y34962D01*
X56577Y34980D01*
X56483Y34994D01*
X56261Y35013D01*
X55994Y35020D01*
Y35256D01*
X56133Y35258D01*
X56483Y35282D01*
X56577Y35296D01*
X56660Y35314D01*
X56732Y35335D01*
X56792Y35359D01*
X56841Y35386D01*
X56879Y35416D01*
Y34859D01*
D02*
G37*
G36*
X37481Y35386D02*
X37530Y35359D01*
X37591Y35335D01*
X37662Y35314D01*
X37745Y35296D01*
X37839Y35282D01*
X38061Y35262D01*
X38328Y35256D01*
Y35020D01*
X38189Y35018D01*
X37839Y34994D01*
X37745Y34980D01*
X37662Y34962D01*
X37591Y34941D01*
X37530Y34917D01*
X37481Y34890D01*
X37444Y34859D01*
Y35416D01*
X37481Y35386D01*
D02*
G37*
G36*
X36887Y34859D02*
X36849Y34890D01*
X36800Y34917D01*
X36740Y34941D01*
X36669Y34962D01*
X36586Y34980D01*
X36492Y34994D01*
X36270Y35013D01*
X36002Y35020D01*
Y35256D01*
X36142Y35258D01*
X36492Y35282D01*
X36586Y35296D01*
X36669Y35314D01*
X36740Y35335D01*
X36800Y35359D01*
X36849Y35386D01*
X36887Y35416D01*
Y34859D01*
D02*
G37*
G36*
X28662Y35386D02*
X28712Y35359D01*
X28772Y35335D01*
X28843Y35314D01*
X28926Y35296D01*
X29020Y35282D01*
X29242Y35262D01*
X29509Y35256D01*
Y35020D01*
X29370Y35018D01*
X29020Y34994D01*
X28926Y34980D01*
X28843Y34962D01*
X28772Y34941D01*
X28712Y34917D01*
X28662Y34890D01*
X28625Y34859D01*
Y35416D01*
X28662Y35386D01*
D02*
G37*
G36*
X52756Y32283D02*
X52708Y32278D01*
X52654Y32263D01*
X52594Y32237D01*
X52529Y32201D01*
X52458Y32155D01*
X52381Y32099D01*
X52210Y31956D01*
X52017Y31771D01*
X51850Y31938D01*
X51947Y32038D01*
X52178Y32302D01*
X52234Y32379D01*
X52280Y32450D01*
X52316Y32516D01*
X52342Y32575D01*
X52357Y32629D01*
X52362Y32677D01*
X52756Y32283D01*
D02*
G37*
G36*
X29874Y30957D02*
X29923Y30929D01*
X29983Y30905D01*
X30055Y30885D01*
X30138Y30867D01*
X30232Y30852D01*
X30454Y30833D01*
X30721Y30827D01*
Y30591D01*
X30582Y30589D01*
X30232Y30565D01*
X30138Y30550D01*
X30055Y30533D01*
X29983Y30512D01*
X29923Y30488D01*
X29874Y30461D01*
X29836Y30430D01*
Y30987D01*
X29874Y30957D01*
D02*
G37*
G36*
X29558Y30315D02*
X29510Y30310D01*
X29456Y30294D01*
X29396Y30269D01*
X29331Y30233D01*
X29260Y30187D01*
X29183Y30130D01*
X29013Y29987D01*
X28819Y29803D01*
X28652Y29970D01*
X28749Y30069D01*
X28980Y30334D01*
X29036Y30411D01*
X29082Y30482D01*
X29118Y30547D01*
X29144Y30607D01*
X29159Y30661D01*
X29164Y30709D01*
X29558Y30315D01*
D02*
G37*
G36*
X25513Y29382D02*
X25562Y29355D01*
X25622Y29331D01*
X25694Y29310D01*
X25777Y29292D01*
X25871Y29278D01*
X26093Y29258D01*
X26360Y29252D01*
Y29016D01*
X26221Y29014D01*
X25871Y28990D01*
X25777Y28976D01*
X25694Y28958D01*
X25622Y28937D01*
X25562Y28913D01*
X25513Y28886D01*
X25475Y28855D01*
Y29412D01*
X25513Y29382D01*
D02*
G37*
%LPC*%
G36*
X-130386Y62441D02*
X-130637D01*
X-130869Y62345D01*
X-131046Y62168D01*
X-131142Y61936D01*
Y61686D01*
X-131046Y61454D01*
X-130869Y61277D01*
X-130637Y61181D01*
X-130386D01*
X-130155Y61277D01*
X-129978Y61454D01*
X-129882Y61686D01*
Y61936D01*
X-129978Y62168D01*
X-130155Y62345D01*
X-130386Y62441D01*
D02*
G37*
G36*
X-147906D02*
X-148157D01*
X-148388Y62345D01*
X-148566Y62168D01*
X-148661Y61936D01*
Y61686D01*
X-148566Y61454D01*
X-148388Y61277D01*
X-148157Y61181D01*
X-147906D01*
X-147675Y61277D01*
X-147497Y61454D01*
X-147402Y61686D01*
Y61936D01*
X-147497Y62168D01*
X-147675Y62345D01*
X-147906Y62441D01*
D02*
G37*
G36*
X-120675Y61614D02*
X-120925D01*
X-121157Y61518D01*
X-121334Y61341D01*
X-121430Y61110D01*
Y60859D01*
X-121334Y60627D01*
X-121157Y60450D01*
X-120925Y60354D01*
X-120675D01*
X-120443Y60450D01*
X-120266Y60627D01*
X-120170Y60859D01*
Y61110D01*
X-120266Y61341D01*
X-120443Y61518D01*
X-120675Y61614D01*
D02*
G37*
G36*
Y59331D02*
X-120925D01*
X-121157Y59235D01*
X-121334Y59058D01*
X-121430Y58826D01*
Y58575D01*
X-121334Y58344D01*
X-121157Y58167D01*
X-120925Y58071D01*
X-120675D01*
X-120443Y58167D01*
X-120266Y58344D01*
X-120170Y58575D01*
Y58826D01*
X-120266Y59058D01*
X-120443Y59235D01*
X-120675Y59331D01*
D02*
G37*
G36*
X-130386Y58504D02*
X-130637D01*
X-130869Y58408D01*
X-131046Y58231D01*
X-131142Y57999D01*
Y57749D01*
X-131046Y57517D01*
X-130869Y57340D01*
X-130637Y57244D01*
X-130386D01*
X-130155Y57340D01*
X-129978Y57517D01*
X-129882Y57749D01*
Y57999D01*
X-129978Y58231D01*
X-130155Y58408D01*
X-130386Y58504D01*
D02*
G37*
G36*
X-147908Y58502D02*
X-148159D01*
X-148391Y58406D01*
X-148568Y58229D01*
X-148664Y57997D01*
Y57746D01*
X-148568Y57515D01*
X-148391Y57338D01*
X-148159Y57242D01*
X-147908D01*
X-147677Y57338D01*
X-147500Y57515D01*
X-147404Y57746D01*
Y57997D01*
X-147500Y58229D01*
X-147677Y58406D01*
X-147908Y58502D01*
D02*
G37*
%LPD*%
D10*
X-40040Y95788D02*
X37795D01*
X-40079Y95827D02*
X-40040Y95788D01*
X37795D02*
X41871D01*
X42716Y96633D01*
X-33869Y185539D02*
X-19744D01*
X-2190D01*
X42716Y86791D02*
Y86811D01*
X41595Y85670D02*
X42716Y86791D01*
X-37008Y85670D02*
X41595D01*
X59178Y65550D02*
X59807Y64921D01*
X58465Y92715D02*
X78166D01*
X59807Y64921D02*
X78153D01*
X47044Y64665D02*
X47929Y65550D01*
X59178D01*
X-69095Y64665D02*
X47044D01*
X58465Y98622D02*
X62700D01*
X12124Y77933D02*
X43701D01*
X11464Y77273D02*
X12124Y77933D01*
X-25589Y77273D02*
X11464D01*
X-63410Y77933D02*
X-26249D01*
X-25589Y77273D01*
X-16932Y132268D02*
X-16900Y132300D01*
X-24523Y132236D02*
X-24491Y132268D01*
X-16932D01*
X42716Y96633D02*
Y96654D01*
D16*
X-62199Y179494D02*
X-47357D01*
X-8661D01*
D108*
X75139Y220480D02*
D03*
X72139D02*
D03*
X73639Y211480D02*
D03*
X69139Y220480D02*
D03*
X70639Y211480D02*
D03*
X66139Y220480D02*
D03*
X67639Y217480D02*
D03*
X66139Y214480D02*
D03*
X67639Y211480D02*
D03*
X63139Y220480D02*
D03*
X64639Y217480D02*
D03*
Y211480D02*
D03*
X60139Y220480D02*
D03*
X61639Y211480D02*
D03*
X57139Y220480D02*
D03*
Y214480D02*
D03*
X54139Y220480D02*
D03*
X55639Y217480D02*
D03*
X51139Y220480D02*
D03*
X48139D02*
D03*
X45139D02*
D03*
X46639Y211480D02*
D03*
X42139Y226480D02*
D03*
X43639Y223480D02*
D03*
X42139Y220480D02*
D03*
X43639Y211480D02*
D03*
X42139Y208480D02*
D03*
X43639Y205480D02*
D03*
X39139Y226480D02*
D03*
X40639Y223480D02*
D03*
X39139Y220480D02*
D03*
X40639Y211480D02*
D03*
X39139Y208480D02*
D03*
X40639Y205480D02*
D03*
X37639Y229480D02*
D03*
Y223480D02*
D03*
Y211480D02*
D03*
X36139Y202480D02*
D03*
X37639Y199480D02*
D03*
X33139Y226480D02*
D03*
Y220480D02*
D03*
Y208480D02*
D03*
X34639Y199480D02*
D03*
X30139Y226480D02*
D03*
X31639Y223480D02*
D03*
X30139Y220480D02*
D03*
X31639Y211480D02*
D03*
X30139Y208480D02*
D03*
X31639Y205480D02*
D03*
X27139Y232480D02*
D03*
X28639Y229480D02*
D03*
X27139Y226480D02*
D03*
X28639Y223480D02*
D03*
X27139Y220480D02*
D03*
Y214480D02*
D03*
X28639Y211480D02*
D03*
X27139Y208480D02*
D03*
X28639Y205480D02*
D03*
X27139Y202480D02*
D03*
X28639Y199480D02*
D03*
X24139Y232480D02*
D03*
Y226480D02*
D03*
Y220480D02*
D03*
Y214480D02*
D03*
Y208480D02*
D03*
Y202480D02*
D03*
X25639Y199480D02*
D03*
X22639Y229480D02*
D03*
X21139Y226480D02*
D03*
X22639Y223480D02*
D03*
X21139Y220480D02*
D03*
X22639Y217480D02*
D03*
X21139Y214480D02*
D03*
X22639Y211480D02*
D03*
X21139Y208480D02*
D03*
X22639Y205480D02*
D03*
Y199480D02*
D03*
X18139Y226480D02*
D03*
X19639Y223480D02*
D03*
X18139Y220480D02*
D03*
X19639Y217480D02*
D03*
X18139Y214480D02*
D03*
X19639Y211480D02*
D03*
X18139Y208480D02*
D03*
X19639Y205480D02*
D03*
X16639Y229480D02*
D03*
Y223480D02*
D03*
Y217480D02*
D03*
Y211480D02*
D03*
Y205480D02*
D03*
X15139Y202480D02*
D03*
X16639Y199480D02*
D03*
X13639Y229480D02*
D03*
X12139Y226480D02*
D03*
X13639Y223480D02*
D03*
X12139Y220480D02*
D03*
X13639Y217480D02*
D03*
X12139Y214480D02*
D03*
X13639Y211480D02*
D03*
X12139Y208480D02*
D03*
X13639Y199480D02*
D03*
X9139Y226480D02*
D03*
X10639Y223480D02*
D03*
X9139Y220480D02*
D03*
X10639Y217480D02*
D03*
X9139Y214480D02*
D03*
X10639Y211480D02*
D03*
X9139Y208480D02*
D03*
X10639Y205480D02*
D03*
X6139Y232480D02*
D03*
Y226480D02*
D03*
X7639Y223480D02*
D03*
X6139Y220480D02*
D03*
X7639Y217480D02*
D03*
X6139Y214480D02*
D03*
X7639Y211480D02*
D03*
X6139Y208480D02*
D03*
X7639Y205480D02*
D03*
X6139Y202480D02*
D03*
X3139Y232480D02*
D03*
X4639Y229480D02*
D03*
X3139Y226480D02*
D03*
X4639Y223480D02*
D03*
X3139Y220480D02*
D03*
X4639Y217480D02*
D03*
X3139Y214480D02*
D03*
X4639Y211480D02*
D03*
X3139Y208480D02*
D03*
X4639Y205480D02*
D03*
X3139Y202480D02*
D03*
X4639Y199480D02*
D03*
X139Y232480D02*
D03*
X1639Y229480D02*
D03*
X139Y226480D02*
D03*
X1639Y223480D02*
D03*
X139Y220480D02*
D03*
X1639Y217480D02*
D03*
X139Y214480D02*
D03*
X1639Y211480D02*
D03*
X139Y208480D02*
D03*
X1639Y205480D02*
D03*
X139Y202480D02*
D03*
X1639Y199480D02*
D03*
X-2861Y232480D02*
D03*
X-1361Y229480D02*
D03*
X-2861Y226480D02*
D03*
X-1361Y223480D02*
D03*
X-2861Y220480D02*
D03*
X-1361Y217480D02*
D03*
X-2861Y214480D02*
D03*
X-1361Y211480D02*
D03*
X-2861Y208480D02*
D03*
X-1361Y205480D02*
D03*
X-2861Y202480D02*
D03*
X-1361Y199480D02*
D03*
X-5861Y232480D02*
D03*
X-4361Y229480D02*
D03*
X-5861Y226480D02*
D03*
X-4361Y223480D02*
D03*
X-5861Y220480D02*
D03*
X-4361Y217480D02*
D03*
X-5861Y214480D02*
D03*
X-4361Y211480D02*
D03*
X-5861Y208480D02*
D03*
X-4361Y205480D02*
D03*
X-5861Y202480D02*
D03*
X-4361Y199480D02*
D03*
X-8861Y226480D02*
D03*
X-7361Y223480D02*
D03*
X-8861Y220480D02*
D03*
X-7361Y217480D02*
D03*
X-8861Y214480D02*
D03*
X-7361Y211480D02*
D03*
X-8861Y208480D02*
D03*
X-7361Y205480D02*
D03*
X-11861Y226480D02*
D03*
X-10361Y223480D02*
D03*
X-11861Y220480D02*
D03*
X-10361Y217480D02*
D03*
X-11861Y214480D02*
D03*
X-10361Y211480D02*
D03*
X-11861Y208480D02*
D03*
X-10361Y205480D02*
D03*
X-14861Y226480D02*
D03*
Y220480D02*
D03*
Y214480D02*
D03*
Y208480D02*
D03*
Y202480D02*
D03*
X-17861Y226480D02*
D03*
Y220480D02*
D03*
Y214480D02*
D03*
Y208480D02*
D03*
X-16361Y199480D02*
D03*
X-20861Y226480D02*
D03*
X-19361Y223480D02*
D03*
X-20861Y220480D02*
D03*
X-19361Y217480D02*
D03*
Y211480D02*
D03*
X-20861Y208480D02*
D03*
X-19361Y205480D02*
D03*
X-23861Y232480D02*
D03*
X-22361Y229480D02*
D03*
X-23861Y226480D02*
D03*
X-22361Y223480D02*
D03*
X-23861Y220480D02*
D03*
X-22361Y211480D02*
D03*
X-23861Y208480D02*
D03*
X-22361Y205480D02*
D03*
X-23861Y202480D02*
D03*
X-22361Y199480D02*
D03*
X-26861Y202480D02*
D03*
X-28361Y229480D02*
D03*
X-29861Y226480D02*
D03*
X-28361Y223480D02*
D03*
X-29861Y220480D02*
D03*
X-28361Y211480D02*
D03*
X-29861Y208480D02*
D03*
X-28361Y205480D02*
D03*
Y199480D02*
D03*
X-32861Y226480D02*
D03*
X-31361Y223480D02*
D03*
X-32861Y220480D02*
D03*
X-31361Y211480D02*
D03*
X-32861Y208480D02*
D03*
X-31361Y205480D02*
D03*
X-34361D02*
D03*
X-35861Y202480D02*
D03*
X-34361Y199480D02*
D03*
X-37361Y229480D02*
D03*
X-38861Y226480D02*
D03*
X-37361Y223480D02*
D03*
X-38861Y220480D02*
D03*
X-37361Y211480D02*
D03*
X-38861Y208480D02*
D03*
X-41861Y226480D02*
D03*
X-40361Y223480D02*
D03*
X-41861Y220480D02*
D03*
X-40361Y211480D02*
D03*
X-41861Y208480D02*
D03*
X-40361Y205480D02*
D03*
X-43361Y223480D02*
D03*
X-44861Y220480D02*
D03*
X-43361Y211480D02*
D03*
Y205480D02*
D03*
X-47861Y220480D02*
D03*
X-46361Y211480D02*
D03*
X-50861Y220480D02*
D03*
X-53861D02*
D03*
X-56861D02*
D03*
X-55361Y217480D02*
D03*
X-56861Y214480D02*
D03*
X-59861Y220480D02*
D03*
X-58361Y217480D02*
D03*
X-59861Y214480D02*
D03*
X-58361Y211480D02*
D03*
X-62861Y220480D02*
D03*
X-61361Y217480D02*
D03*
X-62861Y214480D02*
D03*
X-61361Y211480D02*
D03*
X-65861Y220480D02*
D03*
X-64361Y217480D02*
D03*
X-65861Y214480D02*
D03*
X-64361Y211480D02*
D03*
X-68861Y220480D02*
D03*
X-67361Y217480D02*
D03*
X-68861Y214480D02*
D03*
X-67361Y211480D02*
D03*
X-71861Y220480D02*
D03*
X-70361Y217480D02*
D03*
X-71861Y214480D02*
D03*
X-70361Y211480D02*
D03*
X-74861Y220480D02*
D03*
X-73361Y217480D02*
D03*
X-74861Y214480D02*
D03*
X-73361Y211480D02*
D03*
X38676Y230351D02*
D03*
X35675Y200308D02*
D03*
X23646Y200324D02*
D03*
X14628Y200341D02*
D03*
X-3389Y200332D02*
D03*
X-12399Y200317D02*
D03*
X-24422Y200330D02*
D03*
X-36427Y200310D02*
D03*
X-53200Y218800D02*
D03*
X-125400Y57400D02*
D03*
X-125500Y62700D02*
D03*
X-143800Y57200D02*
D03*
X-143900Y62700D02*
D03*
X-110000Y61811D02*
D03*
X-116102Y62795D02*
D03*
X177399Y300637D02*
D03*
X169525Y284889D02*
D03*
X177399Y269141D02*
D03*
X169525Y253393D02*
D03*
X177399Y237645D02*
D03*
Y206149D02*
D03*
X169525Y190401D02*
D03*
X177399Y174653D02*
D03*
X169525Y158905D02*
D03*
X177399Y143157D02*
D03*
X169525Y127409D02*
D03*
X177399Y111661D02*
D03*
Y80165D02*
D03*
X169525Y64416D02*
D03*
X177399Y48669D02*
D03*
Y17173D02*
D03*
X169525Y1424D02*
D03*
X177399Y-14324D02*
D03*
X169525Y-30072D02*
D03*
X153777Y284889D02*
D03*
Y253393D02*
D03*
X161651Y237645D02*
D03*
X153777Y221897D02*
D03*
X161651Y206149D02*
D03*
X153777Y190401D02*
D03*
Y158905D02*
D03*
X161651Y143157D02*
D03*
X153777Y127409D02*
D03*
X161651Y80165D02*
D03*
X153777Y64416D02*
D03*
X161651Y48669D02*
D03*
X153777Y32921D02*
D03*
Y1424D02*
D03*
X161651Y-14324D02*
D03*
X153777Y-30072D02*
D03*
X145903Y300637D02*
D03*
Y269141D02*
D03*
X138029Y253393D02*
D03*
X145903Y237645D02*
D03*
X138029Y221897D02*
D03*
X145903Y206149D02*
D03*
X138029Y190401D02*
D03*
Y158905D02*
D03*
X145903Y143157D02*
D03*
X138029Y127409D02*
D03*
X145903Y111661D02*
D03*
X138029Y95913D02*
D03*
X145903Y80165D02*
D03*
X138029Y32921D02*
D03*
X145903Y17173D02*
D03*
X138029Y1424D02*
D03*
X145903Y-14324D02*
D03*
X138029Y-30072D02*
D03*
X130155Y300637D02*
D03*
Y269141D02*
D03*
X122281Y253393D02*
D03*
X130155Y237645D02*
D03*
X122281Y221897D02*
D03*
X130155Y206149D02*
D03*
Y174653D02*
D03*
Y143157D02*
D03*
X122281Y127409D02*
D03*
X130155Y111661D02*
D03*
Y80165D02*
D03*
Y17173D02*
D03*
X122281Y1424D02*
D03*
X130155Y-14324D02*
D03*
X122281Y-30072D02*
D03*
X114407Y300637D02*
D03*
X106533Y284889D02*
D03*
X114407Y269141D02*
D03*
X106533Y253393D02*
D03*
X114407Y237645D02*
D03*
Y206149D02*
D03*
X106533Y190401D02*
D03*
X114407Y174653D02*
D03*
X106533Y158905D02*
D03*
X114407Y143157D02*
D03*
X106533Y127409D02*
D03*
X114407Y111661D02*
D03*
X106533Y95913D02*
D03*
X114407Y48669D02*
D03*
X106533Y32921D02*
D03*
X114407Y17173D02*
D03*
X106533Y1424D02*
D03*
X114407Y-14324D02*
D03*
X106533Y-30072D02*
D03*
X90785Y284889D02*
D03*
Y253393D02*
D03*
X98659Y237645D02*
D03*
Y206149D02*
D03*
Y17173D02*
D03*
Y-14324D02*
D03*
X90785Y-30072D02*
D03*
X75037Y284889D02*
D03*
Y253393D02*
D03*
Y-30072D02*
D03*
X67163Y300637D02*
D03*
Y269141D02*
D03*
X59289Y253393D02*
D03*
X51415Y300637D02*
D03*
X43540Y284889D02*
D03*
X51415Y269141D02*
D03*
X43540Y253393D02*
D03*
X35666Y300637D02*
D03*
X27793Y284889D02*
D03*
Y253393D02*
D03*
X12044Y284889D02*
D03*
Y-30072D02*
D03*
X4171Y300637D02*
D03*
X-3703Y284889D02*
D03*
Y253393D02*
D03*
X-11578Y300637D02*
D03*
Y269141D02*
D03*
X-19452Y-30072D02*
D03*
X-27326Y300637D02*
D03*
X-35200Y284889D02*
D03*
X-27326Y269141D02*
D03*
X-35200Y253393D02*
D03*
Y-30072D02*
D03*
X-50948Y284889D02*
D03*
Y253393D02*
D03*
X-66696Y284889D02*
D03*
Y253393D02*
D03*
Y-30072D02*
D03*
X-74570Y300637D02*
D03*
Y269141D02*
D03*
X-82444Y253393D02*
D03*
Y-30072D02*
D03*
X-90318Y300637D02*
D03*
Y269141D02*
D03*
X-98192Y253393D02*
D03*
Y221897D02*
D03*
Y190401D02*
D03*
Y158905D02*
D03*
Y127409D02*
D03*
Y32921D02*
D03*
X-106066Y300637D02*
D03*
X-113940Y284889D02*
D03*
X-106066Y269141D02*
D03*
X-113940Y253393D02*
D03*
X-106066Y237645D02*
D03*
X-113940Y221897D02*
D03*
X-106066Y206149D02*
D03*
X-113940Y190401D02*
D03*
X-106066Y174653D02*
D03*
X-113940Y158905D02*
D03*
X-106066Y143157D02*
D03*
X-113940Y127409D02*
D03*
X-106066Y48669D02*
D03*
X-113940Y32921D02*
D03*
X-106066Y17173D02*
D03*
X-129688Y284889D02*
D03*
Y253393D02*
D03*
X-121814Y237645D02*
D03*
X-129688Y221897D02*
D03*
X-121814Y206149D02*
D03*
X-129688Y190401D02*
D03*
X-121814Y174653D02*
D03*
X-129688Y158905D02*
D03*
X-121814Y143157D02*
D03*
X-129688Y127409D02*
D03*
X-121814Y111661D02*
D03*
X-129688Y95913D02*
D03*
X-121814Y80165D02*
D03*
X-129688Y32921D02*
D03*
X-121814Y17173D02*
D03*
Y-14324D02*
D03*
X-145436Y284889D02*
D03*
Y253393D02*
D03*
X-137562Y237645D02*
D03*
X-145436Y221897D02*
D03*
X-137562Y206149D02*
D03*
X-145436Y190401D02*
D03*
X-137562Y174653D02*
D03*
X-145436Y158905D02*
D03*
X-137562Y143157D02*
D03*
X-145436Y127409D02*
D03*
X-137562Y111661D02*
D03*
X-145436Y95913D02*
D03*
X-137562Y80165D02*
D03*
X-145436Y1424D02*
D03*
Y-30072D02*
D03*
X-153310Y300637D02*
D03*
Y269141D02*
D03*
X-161184Y253393D02*
D03*
X-153310Y237645D02*
D03*
X-161184Y221897D02*
D03*
X-153310Y206149D02*
D03*
X-161184Y190401D02*
D03*
X-153310Y174653D02*
D03*
X-161184Y158905D02*
D03*
X-153310Y143157D02*
D03*
X-161184Y127409D02*
D03*
X-153310Y111661D02*
D03*
X-161184Y95913D02*
D03*
Y32921D02*
D03*
Y1424D02*
D03*
Y-30072D02*
D03*
X-169058Y300637D02*
D03*
X-176932Y284889D02*
D03*
X-169058Y269141D02*
D03*
X-176932Y253393D02*
D03*
X-169058Y237645D02*
D03*
Y206149D02*
D03*
X-176932Y190401D02*
D03*
X-169058Y174653D02*
D03*
X-176932Y158905D02*
D03*
X-169058Y143157D02*
D03*
X-176932Y127409D02*
D03*
X-169058Y111661D02*
D03*
X-176932Y95913D02*
D03*
Y32921D02*
D03*
X-169058Y17173D02*
D03*
X-176932Y1424D02*
D03*
Y-30072D02*
D03*
X52518Y71222D02*
D03*
X33386Y43639D02*
D03*
X-600Y107119D02*
D03*
X25300Y51800D02*
D03*
X79400Y93500D02*
D03*
D03*
X11772Y44663D02*
D03*
D03*
X58679Y151634D02*
D03*
X57086Y148819D02*
D03*
X46605Y102064D02*
D03*
X38300Y93675D02*
D03*
X-791Y44656D02*
D03*
D03*
X-1614Y46370D02*
D03*
X-107200Y81012D02*
D03*
D03*
X-105971D02*
D03*
D03*
X10500Y92300D02*
D03*
D03*
X38195Y94888D02*
D03*
D03*
X58636Y100083D02*
D03*
X51575Y85259D02*
D03*
D03*
X41732Y81988D02*
D03*
X18467Y166142D02*
D03*
X11200Y119257D02*
D03*
X-6595Y114665D02*
D03*
D03*
X-148034Y57872D02*
D03*
X-134252Y55412D02*
D03*
X-145276Y46752D02*
D03*
X-155236Y56890D02*
D03*
X-145200Y69000D02*
D03*
X-150118Y63780D02*
D03*
X-120800Y60984D02*
D03*
Y58701D02*
D03*
X-130512Y61811D02*
D03*
Y57874D02*
D03*
X-148032Y61811D02*
D03*
X-155236Y60827D02*
D03*
X-18756Y107264D02*
D03*
D03*
X72113Y61938D02*
D03*
X65600Y58800D02*
D03*
D03*
X64400D02*
D03*
D03*
X66400Y57375D02*
D03*
X66335Y61938D02*
D03*
X72077Y66487D02*
D03*
X68927Y66500D02*
D03*
X66335D02*
D03*
X72077Y66487D02*
D03*
X51673Y36220D02*
D03*
X4889Y56352D02*
D03*
D03*
X-4140Y45480D02*
D03*
D03*
X-3233Y44657D02*
D03*
D03*
X45696Y89764D02*
D03*
X66100Y89700D02*
D03*
Y168100D02*
D03*
X-111969Y52400D02*
D03*
D03*
X-8661Y179494D02*
D03*
X-47357D02*
D03*
X-62199D02*
D03*
X-16935Y175537D02*
D03*
X-62199Y175547D02*
D03*
X-43711D02*
D03*
X60229Y114869D02*
D03*
X71850Y114862D02*
D03*
X70472Y112303D02*
D03*
X58661Y112303D02*
D03*
X65216Y147986D02*
D03*
X-106200Y45600D02*
D03*
D03*
X-11417Y83858D02*
D03*
X39764D02*
D03*
X61516Y109370D02*
D03*
X-18902Y109494D02*
D03*
X-20403Y101083D02*
D03*
X59449D02*
D03*
X-67913Y75197D02*
D03*
D03*
X-43799Y90157D02*
D03*
D03*
X-67913Y71260D02*
D03*
D03*
X-43799Y86220D02*
D03*
D03*
X53520Y81890D02*
D03*
X68600Y83800D02*
D03*
Y119257D02*
D03*
X460Y103248D02*
D03*
X46648D02*
D03*
X-33869Y185539D02*
D03*
X-19744D02*
D03*
X-2098Y185532D02*
D03*
X35039Y146063D02*
D03*
X44685Y75300D02*
D03*
X35039Y75252D02*
D03*
X38583Y146063D02*
D03*
D03*
X52361Y114961D02*
D03*
D03*
X39400Y130000D02*
D03*
D03*
X50787Y113386D02*
D03*
D03*
X42716Y82874D02*
D03*
D03*
X-94100Y114900D02*
D03*
D03*
X89370Y106711D02*
D03*
D03*
X103200Y106700D02*
D03*
D03*
X44685Y82874D02*
D03*
D03*
X-92200Y115700D02*
D03*
D03*
X90905Y107696D02*
D03*
D03*
X100000Y107500D02*
D03*
D03*
X49800Y95700D02*
D03*
X41823Y94657D02*
D03*
X37894Y169528D02*
D03*
D03*
X55511Y153196D02*
D03*
D03*
X46662Y88780D02*
D03*
D03*
X29734Y79933D02*
D03*
X50591Y80906D02*
D03*
X29734Y172047D02*
D03*
D03*
X40748Y86811D02*
D03*
D03*
X43800Y181073D02*
D03*
D03*
X98500Y163487D02*
D03*
D03*
X98500Y175400D02*
D03*
D03*
X44685Y86811D02*
D03*
D03*
X96800Y162700D02*
D03*
D03*
Y173800D02*
D03*
D03*
X44882Y175571D02*
D03*
D03*
X-75197Y84843D02*
D03*
X43701Y89764D02*
D03*
X40748Y92717D02*
D03*
X-73527Y93059D02*
D03*
X-74358Y98622D02*
D03*
X40748D02*
D03*
X-76021Y96690D02*
D03*
X40748Y96654D02*
D03*
X-39245Y142717D02*
D03*
X-47206D02*
D03*
X-39245Y90748D02*
D03*
X40748Y90748D02*
D03*
X-42452Y129331D02*
D03*
X-47194D02*
D03*
X41823Y87887D02*
D03*
X-42452Y87835D02*
D03*
X-40908Y136023D02*
D03*
X-47194Y136024D02*
D03*
X42716Y92717D02*
D03*
X-40900Y91558D02*
D03*
X-37681Y149409D02*
D03*
X-47195D02*
D03*
X-37402Y89370D02*
D03*
X45394Y93458D02*
D03*
X49213Y32677D02*
D03*
D03*
X4416Y44706D02*
D03*
D03*
X53520Y79976D02*
D03*
D03*
X60000Y82500D02*
D03*
X115067Y110512D02*
D03*
D03*
X90936Y103900D02*
D03*
D03*
X12362Y102165D02*
D03*
X24803Y104942D02*
D03*
X9744Y104930D02*
D03*
X50591Y104942D02*
D03*
X9744Y72992D02*
D03*
D03*
X51673Y83858D02*
D03*
X23327Y82890D02*
D03*
X8366Y68110D02*
D03*
X23327D02*
D03*
X8366Y66351D02*
D03*
D03*
X55511Y156345D02*
D03*
D03*
X-90469Y99600D02*
D03*
D03*
X-71299Y145014D02*
D03*
X58661Y156345D02*
D03*
D03*
X-90469Y100800D02*
D03*
D03*
X-72070Y142062D02*
D03*
X14168Y80144D02*
D03*
D03*
X-7425Y79933D02*
D03*
D03*
X-20500Y53500D02*
D03*
D03*
X-78445Y66732D02*
D03*
D03*
X-37008Y85670D02*
D03*
X42716Y86811D02*
D03*
X-35827Y58024D02*
D03*
D03*
X-70079Y69685D02*
D03*
X-74016Y66929D02*
D03*
X-70079Y100083D02*
D03*
Y106299D02*
D03*
D03*
X-69095Y64665D02*
D03*
X58465Y92715D02*
D03*
X78166D02*
D03*
X78153Y64921D02*
D03*
X58465Y98622D02*
D03*
X62700D02*
D03*
D03*
X43701Y77933D02*
D03*
X-63410D02*
D03*
X-63484Y67323D02*
D03*
D03*
X-13700Y169900D02*
D03*
D03*
X-30900Y108740D02*
D03*
X39331Y108746D02*
D03*
X-30900Y108740D02*
D03*
X-10000Y153200D02*
D03*
D03*
X-4000Y13604D02*
D03*
D03*
X-10100Y-13700D02*
D03*
D03*
X-19300Y82000D02*
D03*
D03*
X56496Y57849D02*
D03*
X-15684D02*
D03*
X24765Y133937D02*
D03*
D03*
X47573Y127953D02*
D03*
X66925Y127788D02*
D03*
X72441Y142776D02*
D03*
D03*
X600Y99100D02*
D03*
D03*
X-9547Y87046D02*
D03*
X37500D02*
D03*
X-42913Y51819D02*
D03*
D03*
X-791Y9027D02*
D03*
D03*
X46367Y57087D02*
D03*
D03*
X-5199Y13590D02*
D03*
D03*
X-6900Y88583D02*
D03*
D03*
X72113Y61938D02*
D03*
X56496Y86811D02*
D03*
X66258D02*
D03*
X68939Y57375D02*
D03*
X68963Y61938D02*
D03*
X70686Y72539D02*
D03*
X66258D02*
D03*
X70686D02*
D03*
X44685Y80906D02*
D03*
D03*
X89278Y104669D02*
D03*
X101308D02*
D03*
D03*
X89278D02*
D03*
X42716Y80906D02*
D03*
D03*
X106400Y101300D02*
D03*
D03*
X89278Y103113D02*
D03*
D03*
X58465Y50762D02*
D03*
X-40551D02*
D03*
X-71032Y63031D02*
D03*
X55748Y63062D02*
D03*
X50591Y61124D02*
D03*
X-68068D02*
D03*
X-76853Y64723D02*
D03*
X49596D02*
D03*
X-76853Y59547D02*
D03*
X46207Y59062D02*
D03*
X45675Y65500D02*
D03*
X-71850D02*
D03*
X42716Y78937D02*
D03*
X-12598Y79114D02*
D03*
X-6004Y81988D02*
D03*
X-47244Y67224D02*
D03*
X57523Y67224D02*
D03*
X-44050Y122638D02*
D03*
X-47194D02*
D03*
X52593Y74547D02*
D03*
X-44050D02*
D03*
X-36024Y156102D02*
D03*
X-47194D02*
D03*
X-36024Y69727D02*
D03*
X48622D02*
D03*
X-34327Y162795D02*
D03*
X-47194D02*
D03*
X-34300Y72200D02*
D03*
X51673D02*
D03*
X-45614Y71354D02*
D03*
Y115945D02*
D03*
X-47194D02*
D03*
X47736Y71354D02*
D03*
X-52165Y76969D02*
D03*
D03*
X-53050Y52667D02*
D03*
X59449Y52667D02*
D03*
X-62992Y79921D02*
D03*
D03*
X-56102Y54331D02*
D03*
X62405Y54363D02*
D03*
X-54134Y49213D02*
D03*
X61417D02*
D03*
X-67900Y79100D02*
D03*
D03*
X10500Y94291D02*
D03*
D03*
X4400Y112500D02*
D03*
X14100Y113400D02*
D03*
X2008Y107480D02*
D03*
D03*
X27500Y79933D02*
D03*
D03*
X-39961Y31800D02*
D03*
D03*
X-33268Y44488D02*
D03*
D03*
X36300Y251427D02*
D03*
D03*
X91000Y263800D02*
D03*
D03*
X-12200Y250900D02*
D03*
D03*
X-52270Y102300D02*
D03*
D03*
X-35361Y177523D02*
D03*
X-15748Y177525D02*
D03*
X-62224Y177526D02*
D03*
X49685Y57087D02*
D03*
D03*
X48720Y46555D02*
D03*
D03*
X60000Y44016D02*
D03*
X62402Y96654D02*
D03*
X53583Y43996D02*
D03*
X67717Y96653D02*
D03*
X62402Y96654D02*
D03*
X37244Y68012D02*
D03*
X41823Y68110D02*
D03*
D03*
X-16900Y132300D02*
D03*
X-24523Y132236D02*
D03*
X-24508Y148622D02*
D03*
X-20500D02*
D03*
X52559Y110236D02*
D03*
X-10243Y110236D02*
D03*
D03*
X56496Y97638D02*
D03*
X-27159Y97546D02*
D03*
D03*
X62400Y78800D02*
D03*
X-23800Y76000D02*
D03*
X-23799Y94587D02*
D03*
X-18893D02*
D03*
X-68157Y86800D02*
D03*
D03*
X-40079Y95827D02*
D03*
X42716Y96654D02*
D03*
D03*
X53202Y175639D02*
D03*
X113300Y161137D02*
D03*
D03*
X136500Y160947D02*
D03*
X113300Y165300D02*
D03*
D03*
X156800Y159800D02*
D03*
D03*
X136500Y160947D02*
D03*
Y156784D02*
D03*
X156800Y155637D02*
D03*
D03*
X136500Y156784D02*
D03*
X38795Y48130D02*
D03*
X-73266Y126142D02*
D03*
X-74614Y124665D02*
D03*
X-74892Y120866D02*
D03*
X-76185Y117961D02*
D03*
X-74904Y117921D02*
D03*
X-75554Y116892D02*
D03*
X32480Y117431D02*
D03*
X69896D02*
D03*
D03*
X102700Y98900D02*
D03*
D03*
X49596Y104088D02*
D03*
X16142Y104088D02*
D03*
X48622Y115945D02*
D03*
X8268Y116018D02*
D03*
D03*
X8898Y78248D02*
D03*
X11122D02*
D03*
Y112441D02*
D03*
D03*
X51600Y112400D02*
D03*
X47736Y81890D02*
D03*
X787Y81010D02*
D03*
X15157Y114193D02*
D03*
X1300D02*
D03*
X50591Y92717D02*
D03*
X-4986Y112106D02*
D03*
D03*
Y88583D02*
D03*
X-36100Y248000D02*
D03*
D03*
X57086Y157920D02*
D03*
D03*
X55511D02*
D03*
D03*
Y170000D02*
D03*
D03*
X47736Y87825D02*
D03*
D03*
X57086Y156345D02*
D03*
D03*
X134531Y165043D02*
D03*
D03*
X57086Y154771D02*
D03*
D03*
X37028Y148819D02*
D03*
X37165Y35138D02*
D03*
X57157D02*
D03*
X28346D02*
D03*
D03*
X42519Y39272D02*
D03*
D03*
X42520Y46370D02*
D03*
X42716Y76960D02*
D03*
D03*
X25197Y40551D02*
D03*
X29724Y42111D02*
D03*
X51673D02*
D03*
X25197Y40551D02*
D03*
Y29134D02*
D03*
X29558Y30709D02*
D03*
X52756Y32677D02*
D03*
X73000Y90000D02*
D03*
D03*
X-52165Y55200D02*
D03*
X60433D02*
D03*
X-10236Y142717D02*
D03*
X57538D02*
D03*
X-15945Y140059D02*
D03*
X63464D02*
D03*
X58476Y84842D02*
D03*
X64713D02*
D03*
X61417Y139179D02*
D03*
X-17913D02*
D03*
X55512Y126331D02*
D03*
X-13459Y126323D02*
D03*
X53642Y122750D02*
D03*
X-15945Y122763D02*
D03*
X-17913Y124587D02*
D03*
X54528Y124533D02*
D03*
X30709Y141339D02*
D03*
X71850Y141319D02*
D03*
D232*
X-172835Y42835D02*
D03*
Y76850D02*
D03*
D233*
X-151732Y42835D02*
D03*
Y76850D02*
D03*
D237*
X50706Y869D02*
D03*
X-50706D02*
D03*
D238*
X-15256D02*
D03*
X15256D02*
D03*
D251*
X20001Y52667D02*
X46668D01*
X-53050D02*
X20001D01*
X46668D02*
X59449Y52667D01*
X64101Y149101D02*
X65216Y147986D01*
X58679Y151634D02*
X61568D01*
X64101Y149101D01*
X57086Y148819D02*
X57086Y148819D01*
X42736Y148819D02*
X57086D01*
X37028D02*
X42736D01*
X12413Y102114D02*
X46554D01*
X12362Y102165D02*
X12413Y102114D01*
X46554D02*
X46605Y102064D01*
X42567Y78937D02*
X42716D01*
X37795Y79114D02*
X42390D01*
X20001D02*
X37795D01*
X42390D02*
X42567Y78937D01*
X11141Y92717D02*
X37795D01*
X40748D01*
X10799Y93059D02*
X11141Y92717D01*
X-73527Y93059D02*
X10799D01*
X38300Y93675D02*
X38325Y93700D01*
Y93771D01*
X42251Y46370D02*
X42371Y46250D01*
X-1614Y46370D02*
X42251D01*
X42371Y46250D02*
X42520D01*
X-107200Y81012D02*
X-107124D01*
X-107091Y81045D01*
X-106004D02*
X-105971Y81012D01*
X37795Y91552D02*
X41552D01*
X-40894D02*
X37795D01*
X41552D02*
X42716Y92717D01*
X-70079Y100083D02*
X58636Y100083D01*
X37795Y81010D02*
X41785D01*
X42665Y81890D02*
X47736D01*
X41785Y81010D02*
X42665Y81890D01*
X20001Y81988D02*
X41732D01*
X-6004D02*
X20001D01*
X66400Y57375D02*
X68939D01*
X66335Y61938D02*
X68963D01*
X66442Y66500D02*
X68927D01*
X66335Y66607D02*
X66442Y66500D01*
X66036Y89764D02*
X66100Y89700D01*
X45696Y89764D02*
X65354D01*
X66036D01*
X18467Y166142D02*
X20425Y168100D01*
X39092D02*
X66100D01*
X20425D02*
X39092D01*
X-39769Y175542D02*
X-16940D01*
X-16935Y175537D01*
X-62199Y175547D02*
X-43711D01*
X-39774D01*
X-39769Y175542D01*
X60229Y114869D02*
X71850Y114862D01*
X70472Y112303D02*
X70472Y112303D01*
X58661Y112303D02*
X58661Y112303D01*
X70472D01*
X-11417Y83858D02*
X39764D01*
X15724Y109488D02*
X15730Y109494D01*
X50203Y109370D02*
X61516D01*
X15730Y109494D02*
X50079D01*
X50203Y109370D01*
X-18902Y109494D02*
X-18897Y109488D01*
X15724D01*
X-20403Y101083D02*
X59449D01*
X53520Y81890D02*
X55330Y83700D01*
X68500D01*
X68600Y83800D01*
X11200Y119257D02*
X68526D01*
X460Y103248D02*
X46648D01*
X35063Y75276D02*
X44661D01*
X35039Y75252D02*
X35063Y75276D01*
X44661D02*
X44685Y75300D01*
X38684Y145900D02*
X38721D01*
X35039Y146063D02*
X38521D01*
X38684Y145900D01*
X50787Y113386D02*
Y113387D01*
X50800Y113400D01*
X48757Y94657D02*
X49800Y95700D01*
X41823Y94657D02*
X48757D01*
X49618Y79933D02*
X50591Y80906D01*
X29734Y79933D02*
X49618D01*
X-75197Y84843D02*
X41929D01*
X43701Y86614D01*
Y89764D02*
X43701Y89764D01*
X43701Y86614D02*
Y89764D01*
X37795Y98152D02*
X40160D01*
X-26707D02*
X20001D01*
X-74358Y98622D02*
X-27177D01*
X40630D02*
X40748D01*
X-27177D02*
X-26707Y98152D01*
X20001D02*
X37795D01*
X40160D02*
X40630Y98622D01*
X-76021Y96654D02*
X40748D01*
X-47206Y142717D02*
X-39245D01*
X37795Y90748D02*
X40748D01*
X-39245Y90748D02*
X-39245Y90748D01*
X37795D01*
X-47194Y129331D02*
X-42452D01*
X41772Y87835D02*
X41823Y87887D01*
X37795Y87835D02*
X41772D01*
X-42452D02*
X37795D01*
X-40909Y136024D02*
X-40908Y136023D01*
X-47194Y136024D02*
X-40909D01*
X-40900Y91558D02*
X-40894Y91552D01*
X-47195Y149409D02*
X-37681D01*
X20001Y89370D02*
X37795D01*
X40636D01*
X44646Y93380D01*
X45316D01*
X45394Y93458D01*
X-37402Y89370D02*
X20001D01*
X53520Y79976D02*
X55423D01*
X57947Y82500D02*
X60000D01*
X55423Y79976D02*
X57947Y82500D01*
X9744Y104930D02*
X9756Y104942D01*
X50591D01*
X23327Y82890D02*
X23327Y82891D01*
X41709D01*
X42677Y83858D01*
X51673D01*
X8366Y68110D02*
X23327D01*
X55511Y156345D02*
X55511Y156345D01*
X-33566Y153049D02*
X-30269Y156345D01*
X55511D01*
X-71308Y145023D02*
X-71299Y145014D01*
X-71308Y145023D02*
Y147735D01*
X-65995Y153049D02*
X-33566D01*
X-71308Y147735D02*
X-65995Y153049D01*
X57920Y157087D02*
X58661Y156345D01*
X54606Y157087D02*
X57920D01*
X-30361Y157087D02*
X54606D01*
X54606Y157087D01*
X-33927Y153521D02*
X-30361Y157087D01*
X-66321Y153521D02*
X-33927D01*
X-72100Y147742D02*
X-66321Y153521D01*
X-72100Y142092D02*
X-72070Y142062D01*
X-72100Y142092D02*
Y147742D01*
X-74016Y66929D02*
Y68898D01*
X-73228Y69685D01*
X-70079D01*
X-30900Y108740D02*
X39325D01*
X-30906Y108734D02*
X-30900Y108740D01*
X39325D02*
X39331Y108746D01*
X-15684Y57849D02*
X56496D01*
X47573Y127953D02*
X47573Y127953D01*
X66760D02*
X66925Y127788D01*
X47573Y127953D02*
X66760D01*
X20001Y87046D02*
X37500D01*
X-9547D02*
X20001D01*
X56496Y86811D02*
X66258D01*
Y72539D02*
X70686D01*
X-40551Y50762D02*
X58465D01*
X52667Y59981D02*
X55748Y63062D01*
X19953Y59981D02*
X20001D01*
X52667D01*
X19946Y59974D02*
X19953Y59981D01*
X-71032Y61780D02*
Y63031D01*
X-69226Y59974D02*
X19946D01*
X-71032Y61780D02*
X-69226Y59974D01*
X-68068Y61124D02*
X20001D01*
X50591D01*
X-76853Y64723D02*
X-75929Y63800D01*
X20001D01*
X48673D02*
X49596Y64723D01*
X20001Y63800D02*
X48673D01*
X-67797Y59128D02*
X20001Y59077D01*
X46207Y59062D01*
X-76284Y59128D02*
X-67797D01*
X-76704Y59547D02*
X-76284Y59128D01*
X-76853Y59547D02*
X-76704D01*
X-71850Y65500D02*
X45675D01*
X-12598Y79114D02*
X20001D01*
X57523Y67224D02*
X57523Y67224D01*
X-47244Y67224D02*
X57523D01*
X-47194Y122638D02*
X-44050D01*
X-4245Y74547D02*
X-4201Y74504D01*
X-44050Y74547D02*
X-4245D01*
X-4201Y74504D02*
X20001D01*
X37795D02*
X52550D01*
X52593Y74547D01*
X20001Y74504D02*
X37795D01*
X-47194Y156102D02*
X-36024D01*
Y69727D02*
X48622D01*
X-47194Y162795D02*
X-34327D01*
X-34300Y72200D02*
X20001D01*
X51673D01*
X-47194Y115945D02*
X-45614D01*
Y71354D02*
X47736D01*
X-56102Y54331D02*
X-56071Y54363D01*
X62405D01*
X-54134Y49213D02*
X61417D01*
X4400Y112500D02*
X5300Y113400D01*
X14100D01*
X-15749Y177524D02*
X-15748Y177525D01*
X-35362D02*
X-35362Y177524D01*
X-15749D01*
X-62223Y177525D02*
X-35362D01*
X-62224Y177526D02*
X-62223Y177525D01*
X59990Y44006D02*
X60000Y44016D01*
X53583Y43996D02*
X53593Y44006D01*
X59990D01*
X62402Y96654D02*
X62402Y96653D01*
X62402Y96654D02*
X64931D01*
X64932Y96653D02*
X67717D01*
X64931Y96654D02*
X64932Y96653D01*
X41725Y68012D02*
X41823Y68110D01*
X37244Y68012D02*
X41725D01*
X-24508Y148622D02*
X-20500D01*
X-10243Y110236D02*
X52559Y110236D01*
X-27159Y97546D02*
X-27067Y97638D01*
X56496D01*
X46800Y78800D02*
X62400D01*
X44000Y76000D02*
X46800Y78800D01*
X-23800Y76000D02*
X44000D01*
X-23799Y94587D02*
X-18893D01*
X32480Y117431D02*
X69896D01*
X16142Y104088D02*
X49596D01*
X48031Y115945D02*
X48622D01*
X8268Y116018D02*
X8340Y115945D01*
X8268Y116018D02*
X8340Y115945D01*
X48031D01*
X8340D02*
X48031D01*
X8898Y78248D02*
X11122D01*
Y112441D02*
X48031D01*
X51559D02*
X51600Y112400D01*
X48031Y112441D02*
X51559D01*
X20001Y81010D02*
X37795D01*
X787D02*
X20001D01*
X1300Y114193D02*
X15157D01*
X45172Y92717D02*
X50591D01*
X41038Y88583D02*
X45172Y92717D01*
X-4986Y88583D02*
X41038D01*
X28346Y35138D02*
X37165D01*
X57157D01*
X42716Y76960D02*
Y76964D01*
X25197Y40551D02*
X26757Y42111D01*
X29724D01*
X51673D01*
X25197Y29134D02*
X27983D01*
X29558Y30709D01*
X50787D02*
X52756Y32677D01*
X29558Y30709D02*
X50787D01*
X49201Y55200D02*
X60433D01*
X20001D02*
X49201D01*
X-52165D02*
X20001D01*
X-10236Y142717D02*
X20001D01*
X57538D01*
X-15945Y140059D02*
X63464D01*
X58476Y84842D02*
X64713D01*
X-17913Y139179D02*
X61417D01*
X-13451Y126331D02*
X55512D01*
X-13459Y126323D02*
X-13451Y126331D01*
X-15945Y122763D02*
X-15932Y122750D01*
X53642D01*
X54475Y124587D02*
X54528Y124533D01*
X-17913Y124587D02*
X54475D01*
X30709Y141339D02*
X71850Y141319D01*
D262*
X164000Y182673D02*
D03*
X171000Y182673D02*
D03*
X164000Y177673D02*
D03*
X171000D02*
D03*
X164000Y172673D02*
D03*
X171000D02*
D03*
X164000Y167673D02*
D03*
X171000Y167673D02*
D03*
X164000Y162673D02*
D03*
X171000D02*
D03*
X164000Y111063D02*
D03*
X171000Y111063D02*
D03*
X164000Y106063D02*
D03*
X171000D02*
D03*
X164000Y101063D02*
D03*
X171000D02*
D03*
X164000Y96063D02*
D03*
X171000Y96063D02*
D03*
X164000Y91063D02*
D03*
X171000D02*
D03*
D263*
X160000Y271402D02*
D03*
Y311402D02*
D03*
X140000Y271405D02*
D03*
Y311405D02*
D03*
X119958Y271405D02*
D03*
Y311405D02*
D03*
X100000Y271402D02*
D03*
Y311402D02*
D03*
X80000Y271402D02*
D03*
Y311402D02*
D03*
X60000Y271402D02*
D03*
Y311402D02*
D03*
X40400Y271500D02*
D03*
Y311500D02*
D03*
X20000D02*
D03*
Y271500D02*
D03*
X0Y271402D02*
D03*
Y311402D02*
D03*
X-20000D02*
D03*
Y271402D02*
D03*
X-40000D02*
D03*
Y311402D02*
D03*
X-60000Y271402D02*
D03*
Y311402D02*
D03*
X-80000D02*
D03*
Y271402D02*
D03*
X-100000Y311402D02*
D03*
Y271402D02*
D03*
X-120000Y311402D02*
D03*
Y271402D02*
D03*
X-140000Y311402D02*
D03*
Y271402D02*
D03*
X-160000Y311402D02*
D03*
Y271402D02*
D03*
D264*
X144016Y147673D02*
D03*
Y157673D02*
D03*
Y167673D02*
D03*
Y177673D02*
D03*
Y187673D02*
D03*
X123031Y32126D02*
D03*
Y42126D02*
D03*
Y22126D02*
D03*
Y187673D02*
D03*
Y147673D02*
D03*
Y157673D02*
D03*
Y167673D02*
D03*
Y177673D02*
D03*
Y106063D02*
D03*
Y116063D02*
D03*
Y76063D02*
D03*
Y86063D02*
D03*
Y96063D02*
D03*
X-130000Y-27200D02*
D03*
X-120000D02*
D03*
X-110000D02*
D03*
X144016Y116063D02*
D03*
Y106063D02*
D03*
X-50000Y-27200D02*
D03*
X60000D02*
D03*
X15000D02*
D03*
X40000D02*
D03*
X-5000D02*
D03*
X144016Y86063D02*
D03*
Y96063D02*
D03*
Y76063D02*
D03*
X-30000Y-27200D02*
D03*
X5000D02*
D03*
X50000D02*
D03*
X-40000D02*
D03*
D265*
X144016Y137673D02*
D03*
X123031Y12126D02*
D03*
Y137673D02*
D03*
Y66063D02*
D03*
X144016D02*
D03*
D266*
X-140000Y-27200D02*
D03*
X-15000D02*
D03*
X30000D02*
D03*
X-60000D02*
D03*
D267*
X63386Y43307D02*
D03*
X68420Y47722D02*
D03*
X-44488Y31102D02*
D03*
X-24803D02*
D03*
X41754Y201170D02*
D03*
X30927D02*
D03*
X20100D02*
D03*
X9273D02*
D03*
X-9231D02*
D03*
X-20057D02*
D03*
X41754Y231092D02*
D03*
X30927D02*
D03*
X20100D02*
D03*
X9273D02*
D03*
X-9231D02*
D03*
X-20057D02*
D03*
X61045Y216131D02*
D03*
X-30884Y201170D02*
D03*
X-41711D02*
D03*
X-30884Y231092D02*
D03*
X-41711D02*
D03*
X114373Y216300D02*
D03*
X70494Y216131D02*
D03*
D269*
X64639Y164338D02*
D03*
X11122Y47787D02*
D03*
D03*
X63544Y176800D02*
D03*
Y175600D02*
D03*
Y167481D02*
D03*
Y166300D02*
D03*
X63323Y179913D02*
D03*
X61923Y182036D02*
D03*
X62483Y168946D02*
D03*
X69803Y163619D02*
D03*
X64639Y162697D02*
D03*
M02*
