G04*
G04 #@! TF.GenerationSoftware,Altium Limited,Altium Designer,24.10.1 (45)*
G04*
G04 Layer_Color=16711935*
%FSLAX25Y25*%
%MOIN*%
G70*
G04*
G04 #@! TF.SameCoordinates,083811C0-BB5A-407D-82B1-07892853DE6B*
G04*
G04*
G04 #@! TF.FilePolarity,Negative*
G04*
G01*
G75*
%ADD35C,0.00800*%
%ADD147C,0.11811*%
%ADD161C,0.04134*%
%ADD230O,0.06800X0.04340*%
%ADD231C,0.07480*%
G04:AMPARAMS|DCode=232|XSize=102.36mil|YSize=43.31mil|CornerRadius=21.65mil|HoleSize=0mil|Usage=FLASHONLY|Rotation=0.000|XOffset=0mil|YOffset=0mil|HoleType=Round|Shape=RoundedRectangle|*
%AMROUNDEDRECTD232*
21,1,0.10236,0.00000,0,0,0.0*
21,1,0.05906,0.04331,0,0,0.0*
1,1,0.04331,0.02953,0.00000*
1,1,0.04331,-0.02953,0.00000*
1,1,0.04331,-0.02953,0.00000*
1,1,0.04331,0.02953,0.00000*
%
%ADD232ROUNDEDRECTD232*%
G04:AMPARAMS|DCode=233|XSize=82.68mil|YSize=43.31mil|CornerRadius=21.65mil|HoleSize=0mil|Usage=FLASHONLY|Rotation=0.000|XOffset=0mil|YOffset=0mil|HoleType=Round|Shape=RoundedRectangle|*
%AMROUNDEDRECTD233*
21,1,0.08268,0.00000,0,0,0.0*
21,1,0.03937,0.04331,0,0,0.0*
1,1,0.04331,0.01968,0.00000*
1,1,0.04331,-0.01968,0.00000*
1,1,0.04331,-0.01968,0.00000*
1,1,0.04331,0.01968,0.00000*
%
%ADD233ROUNDEDRECTD233*%
%ADD234C,0.06693*%
%ADD235R,0.06693X0.06693*%
%ADD236R,0.06693X0.06693*%
%ADD237C,0.04724*%
%ADD238C,0.06299*%
%ADD239C,0.04921*%
%ADD240C,0.00803*%
%ADD275C,0.04016*%
D35*
X170000Y221402D02*
D03*
X-170000D02*
D03*
X170000Y-7200D02*
D03*
D147*
X-170000Y-27200D02*
D03*
Y241402D02*
D03*
X170000Y-27200D02*
D03*
D161*
X50000Y170000D02*
D03*
X60000D02*
D03*
X20000Y160000D02*
D03*
X-60000Y130000D02*
D03*
Y120000D02*
D03*
X10000Y130000D02*
D03*
X30000D02*
D03*
X50000Y110000D02*
D03*
X-70000D02*
D03*
X30000Y90000D02*
D03*
X-70000Y120000D02*
D03*
X40000Y160000D02*
D03*
X30000Y180000D02*
D03*
X60000Y60000D02*
D03*
X40000Y30000D02*
D03*
X10000Y50000D02*
D03*
X10000Y70000D02*
D03*
Y60000D02*
D03*
X50000Y160000D02*
D03*
X-60000Y90000D02*
D03*
Y100000D02*
D03*
X10000Y80000D02*
D03*
X-10000D02*
D03*
X80000D02*
D03*
X-20000Y50000D02*
D03*
X-30000Y60000D02*
D03*
X-60000Y110000D02*
D03*
X60000D02*
D03*
X-60000Y50000D02*
D03*
X-10000Y170000D02*
D03*
X-40000Y110000D02*
D03*
X-10000Y150000D02*
D03*
X30000Y30000D02*
D03*
X-9974Y59974D02*
D03*
X-20000Y90000D02*
D03*
X20000Y130000D02*
D03*
X70000Y140000D02*
D03*
X10000Y100000D02*
D03*
X-40000Y50000D02*
D03*
X30000D02*
D03*
X0D02*
D03*
X50000Y60000D02*
D03*
X10000Y90000D02*
D03*
X20000Y60000D02*
D03*
X-10000Y50000D02*
D03*
X0Y110000D02*
D03*
X-10000Y90000D02*
D03*
X70000Y70000D02*
D03*
X70000Y60000D02*
D03*
X60000Y50000D02*
D03*
X70000Y80000D02*
D03*
X20000Y90000D02*
D03*
X-50000Y80000D02*
D03*
X-60000D02*
D03*
X-70000D02*
D03*
X0Y90000D02*
D03*
X10000Y110000D02*
D03*
X30000Y80000D02*
D03*
X0Y60000D02*
D03*
X-40000Y40000D02*
D03*
X-30000Y50000D02*
D03*
X-50000Y110000D02*
D03*
X40000Y60000D02*
D03*
X50000Y40000D02*
D03*
X40000Y70000D02*
D03*
X-10000Y100000D02*
D03*
X-30000D02*
D03*
X-20000Y110000D02*
D03*
X-70000Y90000D02*
D03*
X70000Y130000D02*
D03*
X60000Y70000D02*
D03*
X20000Y120000D02*
D03*
X40000Y50000D02*
D03*
X20000Y80000D02*
D03*
X-50000Y120000D02*
D03*
X-20000Y60000D02*
D03*
X70000Y120000D02*
D03*
X50000Y70000D02*
D03*
X0Y120000D02*
D03*
X20000Y110000D02*
D03*
X-10000Y120000D02*
D03*
X-20000Y120000D02*
D03*
X50000Y150000D02*
D03*
X30000Y40000D02*
D03*
X40000D02*
D03*
X30000Y70000D02*
D03*
X20000Y50000D02*
D03*
X70000Y90000D02*
D03*
D230*
X164000Y182673D02*
D03*
X171000Y182673D02*
D03*
X164000Y177673D02*
D03*
X171000D02*
D03*
X164000Y172673D02*
D03*
X171000D02*
D03*
X164000Y167673D02*
D03*
X171000Y167673D02*
D03*
X164000Y162673D02*
D03*
X171000D02*
D03*
X164000Y111063D02*
D03*
X171000Y111063D02*
D03*
X164000Y106063D02*
D03*
X171000D02*
D03*
X164000Y101063D02*
D03*
X171000D02*
D03*
X164000Y96063D02*
D03*
X171000Y96063D02*
D03*
X164000Y91063D02*
D03*
X171000D02*
D03*
D231*
X160000Y271402D02*
D03*
Y311402D02*
D03*
X140000Y271405D02*
D03*
Y311405D02*
D03*
X119958Y271405D02*
D03*
Y311405D02*
D03*
X100000Y271402D02*
D03*
Y311402D02*
D03*
X80000Y271402D02*
D03*
Y311402D02*
D03*
X60000Y271402D02*
D03*
Y311402D02*
D03*
X40400Y271500D02*
D03*
Y311500D02*
D03*
X20000D02*
D03*
Y271500D02*
D03*
X0Y271402D02*
D03*
Y311402D02*
D03*
X-20000D02*
D03*
Y271402D02*
D03*
X-40000D02*
D03*
Y311402D02*
D03*
X-60000Y271402D02*
D03*
Y311402D02*
D03*
X-80000D02*
D03*
Y271402D02*
D03*
X-100000Y311402D02*
D03*
Y271402D02*
D03*
X-120000Y311402D02*
D03*
Y271402D02*
D03*
X-140000Y311402D02*
D03*
Y271402D02*
D03*
X-160000Y311402D02*
D03*
Y271402D02*
D03*
D232*
X-172835Y42835D02*
D03*
Y76850D02*
D03*
D233*
X-151732Y42835D02*
D03*
Y76850D02*
D03*
D234*
X144016Y147673D02*
D03*
Y157673D02*
D03*
Y167673D02*
D03*
Y177673D02*
D03*
Y187673D02*
D03*
X123031Y32126D02*
D03*
Y42126D02*
D03*
Y22126D02*
D03*
Y187673D02*
D03*
Y147673D02*
D03*
Y157673D02*
D03*
Y167673D02*
D03*
Y177673D02*
D03*
Y106063D02*
D03*
Y116063D02*
D03*
Y76063D02*
D03*
Y86063D02*
D03*
Y96063D02*
D03*
X-130000Y-27200D02*
D03*
X-120000D02*
D03*
X-110000D02*
D03*
X144016Y116063D02*
D03*
Y106063D02*
D03*
X-50000Y-27200D02*
D03*
X60000D02*
D03*
X15000D02*
D03*
X40000D02*
D03*
X-5000D02*
D03*
X144016Y86063D02*
D03*
Y96063D02*
D03*
Y76063D02*
D03*
X-30000Y-27200D02*
D03*
X5000D02*
D03*
X50000D02*
D03*
X-40000D02*
D03*
D235*
X144016Y137673D02*
D03*
X123031Y12126D02*
D03*
Y137673D02*
D03*
Y66063D02*
D03*
X144016D02*
D03*
D236*
X-140000Y-27200D02*
D03*
X-15000D02*
D03*
X30000D02*
D03*
X-60000D02*
D03*
D237*
X50706Y869D02*
D03*
X-50706D02*
D03*
D238*
X-15256D02*
D03*
X15256D02*
D03*
D239*
X63386Y43307D02*
D03*
X68420Y47722D02*
D03*
X-44488Y31102D02*
D03*
X-24803D02*
D03*
X41754Y201170D02*
D03*
X30927D02*
D03*
X20100D02*
D03*
X9273D02*
D03*
X-9231D02*
D03*
X-20057D02*
D03*
X41754Y231092D02*
D03*
X30927D02*
D03*
X20100D02*
D03*
X9273D02*
D03*
X-9231D02*
D03*
X-20057D02*
D03*
X61045Y216131D02*
D03*
X-30884Y201170D02*
D03*
X-41711D02*
D03*
X-30884Y231092D02*
D03*
X-41711D02*
D03*
X114373Y216300D02*
D03*
X70494Y216131D02*
D03*
D240*
X-170000Y-7200D02*
D03*
D275*
X40000Y150000D02*
D03*
X50000Y120000D02*
D03*
X40000Y90000D02*
D03*
X60000Y80000D02*
D03*
Y150000D02*
D03*
X40000Y80000D02*
D03*
X60000Y100000D02*
D03*
X40000D02*
D03*
X50000D02*
D03*
M02*
