G04*
G04 #@! TF.GenerationSoftware,Altium Limited,Altium Designer,24.10.1 (45)*
G04*
G04 Layer_Color=65535*
%FSLAX25Y25*%
%MOIN*%
G70*
G04*
G04 #@! TF.SameCoordinates,083811C0-BB5A-407D-82B1-07892853DE6B*
G04*
G04*
G04 #@! TF.FilePolarity,Positive*
G04*
G01*
G75*
%ADD10C,0.00394*%
%ADD11C,0.00984*%
%ADD12C,0.00591*%
%ADD13C,0.01181*%
%ADD14C,0.00787*%
%ADD15C,0.00197*%
%ADD16C,0.00500*%
%ADD17C,0.00197*%
%ADD18C,0.00400*%
%ADD19C,0.00800*%
%ADD20C,0.00600*%
%ADD21C,0.00300*%
%ADD22C,0.00453*%
G36*
X171000Y86811D02*
X168252Y84063D01*
X173748D01*
X171000Y86811D01*
D02*
G37*
G36*
X171000Y158421D02*
X168252Y155673D01*
X173748D01*
X171000Y158421D01*
D02*
G37*
D10*
X-139029Y742D02*
G03*
X-139029Y742I-197J0D01*
G01*
X-109229Y865D02*
G03*
X-109229Y865I-197J0D01*
G01*
X48600Y217840D02*
G03*
X48600Y217446I0J-197D01*
G01*
D02*
G03*
X48600Y217840I0J197D01*
G01*
X-4994Y206084D02*
G03*
X-4994Y206084I-197J0D01*
G01*
X5640Y226267D02*
G03*
X5640Y226267I-197J0D01*
G01*
X-35544Y226171D02*
G03*
X-35544Y226171I-197J0D01*
G01*
X15740Y226267D02*
G03*
X15740Y226267I-197J0D01*
G01*
X36071Y206081D02*
G03*
X36071Y206081I-197J0D01*
G01*
X25171Y206082D02*
G03*
X25171Y206082I-197J0D01*
G01*
X-24444Y226270D02*
G03*
X-24444Y226270I-197J0D01*
G01*
X-14845Y206084D02*
G03*
X-14845Y206084I-197J0D01*
G01*
X-14344Y226270D02*
G03*
X-14344Y226270I-197J0D01*
G01*
X15271Y206081D02*
G03*
X15271Y206081I-197J0D01*
G01*
X5471Y206082D02*
G03*
X5471Y206082I-197J0D01*
G01*
X36640Y226234D02*
G03*
X36640Y226234I-197J0D01*
G01*
X25840D02*
G03*
X25840Y226234I-197J0D01*
G01*
X-25094Y206084D02*
G03*
X-25094Y206084I-197J0D01*
G01*
X-35494D02*
G03*
X-35494Y206084I-197J0D01*
G01*
X-4344Y226270D02*
G03*
X-4344Y226270I-197J0D01*
G01*
D11*
X153992Y16626D02*
G03*
X153992Y16626I-492J0D01*
G01*
X103032Y132673D02*
Y153950D01*
X113031D01*
Y132673D02*
Y153950D01*
X103032Y132673D02*
X113031D01*
X103032Y121063D02*
X113031D01*
X103032Y101063D02*
Y121063D01*
X113031Y101063D02*
Y121063D01*
X103032Y101063D02*
X113031D01*
D12*
X-128380Y66499D02*
G03*
X-128467Y66491I-65J233D01*
G01*
X62744Y122391D02*
G03*
X62744Y122391I-220J0D01*
G01*
D13*
X-151862Y654D02*
G03*
X-151862Y654I-500J0D01*
G01*
Y-34385D02*
G03*
X-151862Y-34385I-500J0D01*
G01*
X-97138D02*
G03*
X-97138Y-34385I-500J0D01*
G01*
D14*
X-47380Y82948D02*
G03*
X-47380Y82948I-220J0D01*
G01*
X21084Y89567D02*
G03*
X21084Y89567I-220J0D01*
G01*
X5020Y89468D02*
G03*
X5020Y89468I-220J0D01*
G01*
X139016Y193421D02*
X149016D01*
Y131925D02*
Y193421D01*
X139016Y131925D02*
X149016D01*
X139016D02*
Y193421D01*
X128032Y6378D02*
Y47874D01*
X118032D02*
X128032D01*
X118032Y6378D02*
X128032D01*
X118032D02*
Y47874D01*
Y131925D02*
Y193421D01*
Y131925D02*
X128032D01*
Y193421D01*
X118032D02*
X128032D01*
X118032Y121811D02*
X128032D01*
Y60315D02*
Y121811D01*
X118032Y60315D02*
X128032D01*
X118032D02*
Y121811D01*
X-145748Y-22200D02*
X-104252D01*
X-145748Y-32200D02*
Y-22200D01*
X-104252Y-32200D02*
Y-22200D01*
X-145748Y-32200D02*
X-104252D01*
X-20748D02*
X20748D01*
Y-22200D01*
X-20748Y-32200D02*
Y-22200D01*
X20748D01*
X24252Y-32200D02*
X65748D01*
Y-22200D01*
X24252Y-32200D02*
Y-22200D01*
X65748D01*
X-65748Y-32200D02*
X-24252D01*
Y-22200D01*
X-65748Y-32200D02*
Y-22200D01*
X-24252D01*
X139016Y60315D02*
Y121811D01*
Y60315D02*
X149016D01*
Y121811D01*
X139016D02*
X149016D01*
D15*
X-57284Y75787D02*
X-56496D01*
X-57284D02*
Y76575D01*
Y70276D02*
X-56496D01*
X-57284D02*
Y71063D01*
X35827Y144980D02*
Y146063D01*
Y144980D02*
X36909D01*
X48031Y112303D02*
Y113386D01*
Y112303D02*
X49114D01*
X-116890Y66338D02*
Y68846D01*
Y68846D02*
X-114567Y68846D01*
X-21325Y108471D02*
Y109871D01*
X-19859D01*
X67766Y63633D02*
X68750D01*
X67766D02*
Y64893D01*
X-62849Y169455D02*
Y171425D01*
Y169455D02*
X-60879D01*
X15396Y146175D02*
X17650D01*
X17650Y146176D01*
X3129Y118629D02*
Y120598D01*
Y118629D02*
X5098D01*
X19271D02*
Y120598D01*
X17302Y118629D02*
X19271D01*
X3129Y132802D02*
Y134771D01*
X5098D01*
X19271Y132606D02*
Y134574D01*
X7100Y146149D02*
X9338D01*
X65210Y157320D02*
Y158258D01*
X66096D01*
X-20177Y82972D02*
X-18799D01*
X-20177Y81595D02*
Y82972D01*
X29700Y168140D02*
X31200D01*
X29700D02*
Y169508D01*
X12008Y96398D02*
X12992D01*
X12008D02*
Y97382D01*
X78677Y93785D02*
Y94966D01*
X77299D02*
X78677D01*
X-76210Y80600D02*
X-72700D01*
X65551Y74016D02*
Y77756D01*
X-49213Y94488D02*
Y98425D01*
X51181Y56398D02*
Y57815D01*
X57205Y56398D02*
Y57600D01*
X56004D02*
X57205D01*
X62697Y159298D02*
X64665D01*
Y157330D02*
Y159298D01*
X-25591Y150787D02*
Y152362D01*
X-24016D01*
X-21850Y61417D02*
Y63189D01*
X-20079D01*
X3150Y174213D02*
X5118D01*
X-54108Y146949D02*
X-52730D01*
Y145571D02*
Y146949D01*
X-53526Y55276D02*
X-51162D01*
X-75295Y67106D02*
Y68091D01*
X-74035D01*
X-25197Y101181D02*
X-23228D01*
X-35236Y169455D02*
X-33266D01*
X-35236D02*
Y171425D01*
X-22539Y119331D02*
X-21600D01*
X-22539Y117126D02*
Y119331D01*
X-25591Y134401D02*
Y135976D01*
X-24016D01*
X67106Y95098D02*
X68701D01*
X67106Y93307D02*
Y95098D01*
X10900Y10123D02*
Y14060D01*
X1098Y48070D02*
X2615D01*
X114D02*
X1098D01*
X2615D02*
X3600D01*
X-31398Y10123D02*
Y14060D01*
X-45669Y34232D02*
X-43209D01*
X-45689Y47224D02*
X-43209D01*
X-51280Y41760D02*
X-48828D01*
X-51280Y46075D02*
X-48828D01*
X-8800Y674D02*
Y3072D01*
X34252Y38268D02*
X36614D01*
X34252Y32992D02*
X36614D01*
X7087Y105900D02*
X10998D01*
X-7105Y105789D02*
X-5494D01*
X12318Y5398D02*
Y7761D01*
X-53472Y5398D02*
Y7761D01*
X-52658Y112106D02*
Y113484D01*
X-54035D02*
X-52658D01*
X-52657Y125492D02*
Y126870D01*
X-54035D02*
X-52657D01*
X-52658Y158957D02*
Y160335D01*
X-54035D02*
X-52658D01*
X-54035Y167028D02*
X-52658D01*
Y165650D02*
Y167028D01*
X-52657Y118799D02*
Y120177D01*
X-54035D02*
X-52657D01*
X47933Y63091D02*
X49311D01*
Y64469D01*
X28524Y31988D02*
X29508D01*
Y30728D02*
Y31988D01*
X28524Y43500D02*
X29508D01*
Y42146D02*
Y43500D01*
X69390Y132382D02*
X70768D01*
Y131004D02*
Y132382D01*
X67802Y59084D02*
X68786D01*
X67802D02*
Y60344D01*
X67777Y54520D02*
X68761D01*
X67777D02*
Y55780D01*
X-64380Y75197D02*
Y76575D01*
Y75197D02*
X-62992D01*
X-64363Y70472D02*
Y71850D01*
Y70472D02*
X-62992D01*
X-43127Y72598D02*
X-41732D01*
X-43127D02*
Y74016D01*
X-3354Y96398D02*
X-2370D01*
X-3354D02*
Y97382D01*
X51181Y51914D02*
Y54331D01*
X-52658Y152264D02*
Y153642D01*
X-54035D02*
X-52658D01*
Y138878D02*
Y140256D01*
X-54035D02*
X-52658D01*
X-52657Y132185D02*
Y133563D01*
X-54035D02*
X-52657D01*
X44067Y122244D02*
Y124547D01*
X58326Y122352D02*
Y124488D01*
X30268Y154252D02*
Y156400D01*
X43792Y156299D02*
X43800Y154300D01*
X44067Y128600D02*
Y130814D01*
X58326Y130806D02*
X58335Y128600D01*
X30276Y160177D02*
Y162205D01*
X43712Y162205D02*
X43719Y160248D01*
X-1811Y174500D02*
X627D01*
X-1772Y163800D02*
X546D01*
X-7603Y174500D02*
X-5279D01*
X-7520Y159843D02*
X-5366Y159851D01*
D16*
X151000Y268902D02*
X155500D01*
X151000D02*
Y313902D01*
X155000D01*
X164500D02*
X169000D01*
Y268902D02*
Y313902D01*
X165000Y268902D02*
X169000D01*
X131000Y268905D02*
X135500D01*
X131000D02*
Y313905D01*
X135000D01*
X144500D02*
X149000D01*
Y268905D02*
Y313905D01*
X145000Y268905D02*
X149000D01*
X110958D02*
X115458D01*
X110958D02*
Y313905D01*
X114958D01*
X124458D02*
X128958D01*
Y268905D02*
Y313905D01*
X124958Y268905D02*
X128958D01*
X91000Y268901D02*
X95500D01*
X91000D02*
Y313901D01*
X95000D01*
X104500D02*
X109000D01*
Y268901D02*
Y313901D01*
X105000Y268901D02*
X109000D01*
X71000Y268902D02*
X75500D01*
X71000D02*
Y313902D01*
X75000D01*
X84500D02*
X89000D01*
Y268902D02*
Y313902D01*
X85000Y268902D02*
X89000D01*
X51000D02*
X55500D01*
X51000D02*
Y313902D01*
X55000D01*
X64500D02*
X69000D01*
Y268902D02*
Y313902D01*
X65000Y268902D02*
X69000D01*
X45400Y269000D02*
X49400D01*
Y314000D01*
X44900D02*
X49400D01*
X31400D02*
X35400D01*
X31400Y269000D02*
Y314000D01*
Y269000D02*
X35900D01*
X25000D02*
X29000D01*
Y314000D01*
X24500D02*
X29000D01*
X11000D02*
X15000D01*
X11000Y269000D02*
Y314000D01*
Y269000D02*
X15500D01*
X-9000Y268902D02*
X-4500D01*
X-9000D02*
Y313902D01*
X-5000D01*
X4500D02*
X9000D01*
Y268902D02*
Y313902D01*
X5000Y268902D02*
X9000D01*
X-15000D02*
X-11000D01*
Y313902D01*
X-15500D02*
X-11000D01*
X-29000D02*
X-25000D01*
X-29000Y268902D02*
Y313902D01*
Y268902D02*
X-24500D01*
X-49000D02*
X-44500D01*
X-49000D02*
Y313902D01*
X-45000D01*
X-35500D02*
X-31000D01*
Y268902D02*
Y313902D01*
X-35000Y268902D02*
X-31000D01*
X-69000D02*
X-64500D01*
X-69000D02*
Y313902D01*
X-65000D01*
X-55500D02*
X-51000D01*
Y268902D02*
Y313902D01*
X-55000Y268902D02*
X-51000D01*
X-75000D02*
X-71000D01*
Y313902D01*
X-75500D02*
X-71000D01*
X-89000D02*
X-85000D01*
X-89000Y268902D02*
Y313902D01*
Y268902D02*
X-84500D01*
X-95000D02*
X-91000D01*
Y313902D01*
X-95500D02*
X-91000D01*
X-109000D02*
X-105000D01*
X-109000Y268902D02*
Y313902D01*
Y268902D02*
X-104500D01*
X-115000D02*
X-111000D01*
Y313902D01*
X-115500D02*
X-111000D01*
X-129000D02*
X-125000D01*
X-129000Y268902D02*
Y313902D01*
Y268902D02*
X-124500D01*
X-135000D02*
X-131000D01*
Y313902D01*
X-135500D02*
X-131000D01*
X-149000D02*
X-145000D01*
X-149000Y268902D02*
Y313902D01*
Y268902D02*
X-144500D01*
X-155000D02*
X-151000D01*
Y313902D01*
X-155500D02*
X-151000D01*
X-169000D02*
X-165000D01*
X-169000Y268902D02*
Y313902D01*
Y268902D02*
X-164500D01*
X154516Y59305D02*
Y194305D01*
X167475Y146959D02*
X167500Y142964D01*
X160700Y135025D02*
Y138995D01*
Y142964D01*
X160700Y146984D01*
X160700Y150904D02*
X160700Y146984D01*
X167475Y146959D02*
X167475Y150904D01*
X167475Y138995D02*
X167500Y142964D01*
X167475Y138995D02*
X167500Y135025D01*
X160700Y146984D02*
X174300Y146934D01*
X160700Y142964D02*
X174300D01*
X160700Y135025D02*
X174300D01*
X160700Y138995D02*
X174300D01*
X160700Y150904D02*
X174300D01*
Y135025D02*
Y139073D01*
Y143373D01*
Y150773D02*
Y154873D01*
Y146923D02*
X174300Y143373D01*
X174300Y146923D02*
X174300Y150773D01*
X167475Y150904D02*
Y154873D01*
X160700Y150904D02*
Y154873D01*
X167475Y154873D01*
X174300D01*
X134508Y59305D02*
Y194305D01*
X103700Y126819D02*
X177100Y126819D01*
X160700Y67385D02*
X174300D01*
X160700Y63415D02*
X174300D01*
Y67463D01*
X160700Y71354D02*
X174300D01*
X160700Y75374D02*
X174300Y75324D01*
X160700Y79293D02*
X174300D01*
Y67463D02*
Y71763D01*
Y75313D02*
X174300Y71763D01*
X174300Y75313D02*
X174300Y79163D01*
X174300D02*
Y83263D01*
X167475Y83263D02*
X174300D01*
X160700Y83263D02*
X167475Y83263D01*
Y79293D02*
Y83263D01*
Y75349D02*
X167475Y79293D01*
X167475Y75349D02*
X167500Y71354D01*
X167475Y67385D02*
X167500Y71354D01*
X160700Y79293D02*
Y83263D01*
Y79293D02*
X160700Y75374D01*
X160700Y71354D02*
X160700Y75374D01*
X160700Y67385D02*
Y71354D01*
X167475Y67385D02*
X167500Y63415D01*
X160700D02*
Y67385D01*
X161218Y122099D02*
X159552D01*
X160385D01*
Y117934D01*
X159552Y117101D01*
X158719D01*
X157886Y117934D01*
X162884Y122099D02*
X166217D01*
X164550D01*
Y117101D01*
X167883D02*
Y120433D01*
X169549Y122099D01*
X171215Y120433D01*
Y117101D01*
Y119600D01*
X167883D01*
X176213Y121266D02*
X175380Y122099D01*
X173714D01*
X172881Y121266D01*
Y117934D01*
X173714Y117101D01*
X175380D01*
X176213Y117934D01*
Y119600D01*
X174547D01*
X140811Y56774D02*
X139978Y57607D01*
X138312D01*
X137479Y56774D01*
Y55941D01*
X138312Y55108D01*
X139978D01*
X140811Y54275D01*
Y53442D01*
X139978Y52609D01*
X138312D01*
X137479Y53442D01*
X142477Y57607D02*
Y52609D01*
X144143Y54275D01*
X145809Y52609D01*
Y57607D01*
X147475D02*
Y52609D01*
X149975D01*
X150808Y53442D01*
Y56774D01*
X149975Y57607D01*
X147475D01*
X110534Y64532D02*
X109701Y63699D01*
Y62033D01*
X110534Y61200D01*
X111367D01*
X112200Y62033D01*
Y63699D01*
X113033Y64532D01*
X113866D01*
X114699Y63699D01*
Y62033D01*
X113866Y61200D01*
X109701Y69531D02*
Y66198D01*
X114699D01*
Y69531D01*
X112200Y66198D02*
Y67865D01*
X114699Y71197D02*
X109701D01*
Y73696D01*
X110534Y74529D01*
X112200D01*
X113033Y73696D01*
Y71197D01*
Y72863D02*
X114699Y74529D01*
X109701Y76195D02*
Y77861D01*
Y77028D01*
X114699D01*
Y76195D01*
Y77861D01*
Y80361D02*
X111367D01*
X109701Y82027D01*
X111367Y83693D01*
X114699D01*
X112200D01*
Y80361D01*
X109701Y85359D02*
X114699D01*
Y88691D01*
X110461Y167445D02*
X109628Y166612D01*
Y164946D01*
X110461Y164113D01*
X111294D01*
X112127Y164946D01*
Y166612D01*
X112960Y167445D01*
X113793D01*
X114626Y166612D01*
Y164946D01*
X113793Y164113D01*
X109628Y172443D02*
Y169111D01*
X114626D01*
Y172443D01*
X112127Y169111D02*
Y170777D01*
X114626Y174109D02*
X109628D01*
Y176609D01*
X110461Y177442D01*
X112127D01*
X112960Y176609D01*
Y174109D01*
Y175776D02*
X114626Y177442D01*
X109628Y179108D02*
Y180774D01*
Y179941D01*
X114626D01*
Y179108D01*
Y180774D01*
Y183273D02*
X111294D01*
X109628Y184939D01*
X111294Y186605D01*
X114626D01*
X112127D01*
Y183273D01*
X109628Y188272D02*
X114626D01*
Y191604D01*
X154949Y263188D02*
X152063D01*
Y258859D01*
X154949D01*
X152063Y261024D02*
X153506D01*
X156392Y258859D02*
Y263188D01*
X159278Y258859D01*
Y263188D01*
X163608Y262467D02*
X162886Y263188D01*
X161443D01*
X160722Y262467D01*
Y259580D01*
X161443Y258859D01*
X162886D01*
X163608Y259580D01*
X165051Y263188D02*
Y258859D01*
X167937D01*
X135310Y262467D02*
X134588Y263188D01*
X133145D01*
X132424Y262467D01*
Y259580D01*
X133145Y258859D01*
X134588D01*
X135310Y259580D01*
X136753Y263188D02*
Y258859D01*
Y261024D01*
X139639D01*
Y263188D01*
Y258859D01*
X141082D02*
X142525D01*
X141804D01*
Y263188D01*
X141082Y262467D01*
X147576Y263188D02*
X146133Y262467D01*
X144690Y261024D01*
Y259580D01*
X145412Y258859D01*
X146855D01*
X147576Y259580D01*
Y260302D01*
X146855Y261024D01*
X144690D01*
X115310Y262467D02*
X114588Y263188D01*
X113145D01*
X112424Y262467D01*
Y259580D01*
X113145Y258859D01*
X114588D01*
X115310Y259580D01*
X116753Y263188D02*
Y258859D01*
Y261024D01*
X119639D01*
Y263188D01*
Y258859D01*
X121082D02*
X122525D01*
X121804D01*
Y263188D01*
X121082Y262467D01*
X127576Y263188D02*
X124690D01*
Y261024D01*
X126133Y261745D01*
X126855D01*
X127576Y261024D01*
Y259580D01*
X126855Y258859D01*
X125412D01*
X124690Y259580D01*
X95310Y262467D02*
X94588Y263188D01*
X93145D01*
X92424Y262467D01*
Y259580D01*
X93145Y258859D01*
X94588D01*
X95310Y259580D01*
X96753Y263188D02*
Y258859D01*
Y261024D01*
X99639D01*
Y263188D01*
Y258859D01*
X101082D02*
X102525D01*
X101804D01*
Y263188D01*
X101082Y262467D01*
X106855Y258859D02*
Y263188D01*
X104690Y261024D01*
X107576D01*
X75310Y262467D02*
X74588Y263188D01*
X73145D01*
X72424Y262467D01*
Y259580D01*
X73145Y258859D01*
X74588D01*
X75310Y259580D01*
X76753Y263188D02*
Y258859D01*
Y261024D01*
X79639D01*
Y263188D01*
Y258859D01*
X81082D02*
X82525D01*
X81804D01*
Y263188D01*
X81082Y262467D01*
X84690D02*
X85412Y263188D01*
X86855D01*
X87576Y262467D01*
Y261745D01*
X86855Y261024D01*
X86133D01*
X86855D01*
X87576Y260302D01*
Y259580D01*
X86855Y258859D01*
X85412D01*
X84690Y259580D01*
X55310Y262467D02*
X54588Y263188D01*
X53145D01*
X52424Y262467D01*
Y259580D01*
X53145Y258859D01*
X54588D01*
X55310Y259580D01*
X56753Y263188D02*
Y258859D01*
Y261024D01*
X59639D01*
Y263188D01*
Y258859D01*
X61082D02*
X62525D01*
X61804D01*
Y263188D01*
X61082Y262467D01*
X67576Y258859D02*
X64690D01*
X67576Y261745D01*
Y262467D01*
X66855Y263188D01*
X65412D01*
X64690Y262467D01*
X15732D02*
X15010Y263188D01*
X13567D01*
X12845Y262467D01*
Y259580D01*
X13567Y258859D01*
X15010D01*
X15732Y259580D01*
X17175Y263188D02*
Y258859D01*
Y261024D01*
X20061D01*
Y263188D01*
Y258859D01*
X21504D02*
X22947D01*
X22225D01*
Y263188D01*
X21504Y262467D01*
X25112Y258859D02*
X26555D01*
X25833D01*
Y263188D01*
X25112Y262467D01*
X35810D02*
X35088Y263188D01*
X33645D01*
X32924Y262467D01*
Y259580D01*
X33645Y258859D01*
X35088D01*
X35810Y259580D01*
X37253Y263188D02*
Y258859D01*
Y261024D01*
X40139D01*
Y263188D01*
Y258859D01*
X41582D02*
X43025D01*
X42304D01*
Y263188D01*
X41582Y262467D01*
X45190D02*
X45912Y263188D01*
X47355D01*
X48076Y262467D01*
Y259580D01*
X47355Y258859D01*
X45912D01*
X45190Y259580D01*
Y262467D01*
X-2886D02*
X-3608Y263188D01*
X-5051D01*
X-5772Y262467D01*
Y259580D01*
X-5051Y258859D01*
X-3608D01*
X-2886Y259580D01*
X-1443Y263188D02*
Y258859D01*
Y261024D01*
X1443D01*
Y263188D01*
Y258859D01*
X2886Y259580D02*
X3608Y258859D01*
X5051D01*
X5772Y259580D01*
Y262467D01*
X5051Y263188D01*
X3608D01*
X2886Y262467D01*
Y261745D01*
X3608Y261024D01*
X5772D01*
X-22886Y262467D02*
X-23608Y263188D01*
X-25051D01*
X-25772Y262467D01*
Y259580D01*
X-25051Y258859D01*
X-23608D01*
X-22886Y259580D01*
X-21443Y263188D02*
Y258859D01*
Y261024D01*
X-18557D01*
Y263188D01*
Y258859D01*
X-17114Y262467D02*
X-16392Y263188D01*
X-14949D01*
X-14228Y262467D01*
Y261745D01*
X-14949Y261024D01*
X-14228Y260302D01*
Y259580D01*
X-14949Y258859D01*
X-16392D01*
X-17114Y259580D01*
Y260302D01*
X-16392Y261024D01*
X-17114Y261745D01*
Y262467D01*
X-16392Y261024D02*
X-14949D01*
X-42886Y262467D02*
X-43608Y263188D01*
X-45051D01*
X-45772Y262467D01*
Y259580D01*
X-45051Y258859D01*
X-43608D01*
X-42886Y259580D01*
X-41443Y263188D02*
Y258859D01*
Y261024D01*
X-38557D01*
Y263188D01*
Y258859D01*
X-37114Y263188D02*
X-34228D01*
Y262467D01*
X-37114Y259580D01*
Y258859D01*
X-62886Y262467D02*
X-63608Y263188D01*
X-65051D01*
X-65772Y262467D01*
Y259580D01*
X-65051Y258859D01*
X-63608D01*
X-62886Y259580D01*
X-61443Y263188D02*
Y258859D01*
Y261024D01*
X-58557D01*
Y263188D01*
Y258859D01*
X-54228Y263188D02*
X-55671Y262467D01*
X-57114Y261024D01*
Y259580D01*
X-56392Y258859D01*
X-54949D01*
X-54228Y259580D01*
Y260302D01*
X-54949Y261024D01*
X-57114D01*
X-82886Y262467D02*
X-83608Y263188D01*
X-85051D01*
X-85772Y262467D01*
Y259580D01*
X-85051Y258859D01*
X-83608D01*
X-82886Y259580D01*
X-81443Y263188D02*
Y258859D01*
Y261024D01*
X-78557D01*
Y263188D01*
Y258859D01*
X-74228Y263188D02*
X-77114D01*
Y261024D01*
X-75671Y261745D01*
X-74949D01*
X-74228Y261024D01*
Y259580D01*
X-74949Y258859D01*
X-76392D01*
X-77114Y259580D01*
X-102886Y262467D02*
X-103608Y263188D01*
X-105051D01*
X-105772Y262467D01*
Y259580D01*
X-105051Y258859D01*
X-103608D01*
X-102886Y259580D01*
X-101443Y263188D02*
Y258859D01*
Y261024D01*
X-98557D01*
Y263188D01*
Y258859D01*
X-94949D02*
Y263188D01*
X-97114Y261024D01*
X-94228D01*
X-122886Y262467D02*
X-123608Y263188D01*
X-125051D01*
X-125772Y262467D01*
Y259580D01*
X-125051Y258859D01*
X-123608D01*
X-122886Y259580D01*
X-121443Y263188D02*
Y258859D01*
Y261024D01*
X-118557D01*
Y263188D01*
Y258859D01*
X-117114Y262467D02*
X-116392Y263188D01*
X-114949D01*
X-114228Y262467D01*
Y261745D01*
X-114949Y261024D01*
X-115671D01*
X-114949D01*
X-114228Y260302D01*
Y259580D01*
X-114949Y258859D01*
X-116392D01*
X-117114Y259580D01*
X-142886Y262467D02*
X-143608Y263188D01*
X-145051D01*
X-145772Y262467D01*
Y259580D01*
X-145051Y258859D01*
X-143608D01*
X-142886Y259580D01*
X-141443Y263188D02*
Y258859D01*
Y261024D01*
X-138557D01*
Y263188D01*
Y258859D01*
X-134228D02*
X-137114D01*
X-134228Y261745D01*
Y262467D01*
X-134949Y263188D01*
X-136392D01*
X-137114Y262467D01*
X-162165D02*
X-162886Y263188D01*
X-164329D01*
X-165051Y262467D01*
Y259580D01*
X-164329Y258859D01*
X-162886D01*
X-162165Y259580D01*
X-160722Y263188D02*
Y258859D01*
Y261024D01*
X-157835D01*
Y263188D01*
Y258859D01*
X-156392D02*
X-154949D01*
X-155671D01*
Y263188D01*
X-156392Y262467D01*
X-104095Y255966D02*
X-104678Y256549D01*
X-105844D01*
X-106427Y255966D01*
Y255383D01*
X-105844Y254800D01*
X-104678D01*
X-104095Y254217D01*
Y253634D01*
X-104678Y253051D01*
X-105844D01*
X-106427Y253634D01*
X-102928Y253051D02*
Y256549D01*
X-100596Y253051D01*
Y256549D01*
X-97097Y255966D02*
X-97680Y256549D01*
X-98846D01*
X-99429Y255966D01*
Y255383D01*
X-98846Y254800D01*
X-97680D01*
X-97097Y254217D01*
Y253634D01*
X-97680Y253051D01*
X-98846D01*
X-99429Y253634D01*
X-94181Y253051D02*
Y256549D01*
X-95930Y254800D01*
X-93598D01*
X-85844Y256549D02*
Y254217D01*
X-84678Y253051D01*
X-83511Y254217D01*
Y256549D01*
X-82345Y253051D02*
Y256549D01*
X-80013Y253051D01*
Y256549D01*
X-78846D02*
Y253051D01*
X-77097D01*
X-76514Y253634D01*
Y254217D01*
X-77097Y254800D01*
X-78846D01*
X-77097D01*
X-76514Y255383D01*
Y255966D01*
X-77097Y256549D01*
X-78846D01*
X-75347Y253051D02*
X-74181D01*
X-74764D01*
Y256549D01*
X-75347Y255966D01*
X-64107Y250326D02*
X-66440D01*
Y246827D01*
X-64107D01*
X-66440Y248576D02*
X-65273D01*
X-62941Y246827D02*
Y250326D01*
X-60608Y246827D01*
Y250326D01*
X-57109Y249743D02*
X-57692Y250326D01*
X-58859D01*
X-59442Y249743D01*
Y247410D01*
X-58859Y246827D01*
X-57692D01*
X-57109Y247410D01*
Y248576D01*
X-58276D01*
X-55943D02*
X-53610D01*
X-84107Y250326D02*
X-86440D01*
Y246827D01*
X-84107D01*
X-86440Y248576D02*
X-85273D01*
X-82941Y246827D02*
Y250326D01*
X-80608Y246827D01*
Y250326D01*
X-77109Y249743D02*
X-77693Y250326D01*
X-78859D01*
X-79442Y249743D01*
Y247410D01*
X-78859Y246827D01*
X-77693D01*
X-77109Y247410D01*
Y248576D01*
X-78276D01*
X-75943D02*
X-73611D01*
X-74777Y249743D02*
Y247410D01*
X-46427Y256549D02*
Y254217D01*
X-45261Y253051D01*
X-44095Y254217D01*
Y256549D01*
X-42928Y253051D02*
Y256549D01*
X-40596Y253051D01*
Y256549D01*
X-39429D02*
Y253051D01*
X-37680D01*
X-37097Y253634D01*
Y254217D01*
X-37680Y254800D01*
X-39429D01*
X-37680D01*
X-37097Y255383D01*
Y255966D01*
X-37680Y256549D01*
X-39429D01*
X-35930Y255966D02*
X-35347Y256549D01*
X-34181D01*
X-33598Y255966D01*
Y255383D01*
X-34181Y254800D01*
X-34764D01*
X-34181D01*
X-33598Y254217D01*
Y253634D01*
X-34181Y253051D01*
X-35347D01*
X-35930Y253634D01*
X-26427Y256549D02*
Y254217D01*
X-25261Y253051D01*
X-24095Y254217D01*
Y256549D01*
X-22928Y253051D02*
Y256549D01*
X-20596Y253051D01*
Y256549D01*
X-19429D02*
Y253051D01*
X-17680D01*
X-17097Y253634D01*
Y254217D01*
X-17680Y254800D01*
X-19429D01*
X-17680D01*
X-17097Y255383D01*
Y255966D01*
X-17680Y256549D01*
X-19429D01*
X-14181Y253051D02*
Y256549D01*
X-15931Y254800D01*
X-13598D01*
X-66427Y256549D02*
Y254217D01*
X-65261Y253051D01*
X-64095Y254217D01*
Y256549D01*
X-62928Y253051D02*
Y256549D01*
X-60596Y253051D01*
Y256549D01*
X-59429D02*
Y253051D01*
X-57680D01*
X-57097Y253634D01*
Y254217D01*
X-57680Y254800D01*
X-59429D01*
X-57680D01*
X-57097Y255383D01*
Y255966D01*
X-57680Y256549D01*
X-59429D01*
X-53598Y253051D02*
X-55931D01*
X-53598Y255383D01*
Y255966D01*
X-54181Y256549D01*
X-55347D01*
X-55931Y255966D01*
X-163511D02*
X-164095Y256549D01*
X-165261D01*
X-165844Y255966D01*
Y255383D01*
X-165261Y254800D01*
X-164095D01*
X-163511Y254217D01*
Y253634D01*
X-164095Y253051D01*
X-165261D01*
X-165844Y253634D01*
X-162345Y253051D02*
Y256549D01*
X-160013Y253051D01*
Y256549D01*
X-156514Y255966D02*
X-157097Y256549D01*
X-158263D01*
X-158846Y255966D01*
Y255383D01*
X-158263Y254800D01*
X-157097D01*
X-156514Y254217D01*
Y253634D01*
X-157097Y253051D01*
X-158263D01*
X-158846Y253634D01*
X-155347Y253051D02*
X-154181D01*
X-154764D01*
Y256549D01*
X-155347Y255966D01*
X-144095D02*
X-144678Y256549D01*
X-145844D01*
X-146427Y255966D01*
Y255383D01*
X-145844Y254800D01*
X-144678D01*
X-144095Y254217D01*
Y253634D01*
X-144678Y253051D01*
X-145844D01*
X-146427Y253634D01*
X-142928Y253051D02*
Y256549D01*
X-140596Y253051D01*
Y256549D01*
X-137097Y255966D02*
X-137680Y256549D01*
X-138846D01*
X-139429Y255966D01*
Y255383D01*
X-138846Y254800D01*
X-137680D01*
X-137097Y254217D01*
Y253634D01*
X-137680Y253051D01*
X-138846D01*
X-139429Y253634D01*
X-133598Y253051D02*
X-135931D01*
X-133598Y255383D01*
Y255966D01*
X-134181Y256549D01*
X-135347D01*
X-135931Y255966D01*
X-124095D02*
X-124678Y256549D01*
X-125844D01*
X-126427Y255966D01*
Y255383D01*
X-125844Y254800D01*
X-124678D01*
X-124095Y254217D01*
Y253634D01*
X-124678Y253051D01*
X-125844D01*
X-126427Y253634D01*
X-122928Y253051D02*
Y256549D01*
X-120596Y253051D01*
Y256549D01*
X-117097Y255966D02*
X-117680Y256549D01*
X-118846D01*
X-119429Y255966D01*
Y255383D01*
X-118846Y254800D01*
X-117680D01*
X-117097Y254217D01*
Y253634D01*
X-117680Y253051D01*
X-118846D01*
X-119429Y253634D01*
X-115930Y255966D02*
X-115347Y256549D01*
X-114181D01*
X-113598Y255966D01*
Y255383D01*
X-114181Y254800D01*
X-114764D01*
X-114181D01*
X-113598Y254217D01*
Y253634D01*
X-114181Y253051D01*
X-115347D01*
X-115930Y253634D01*
X-25857Y250326D02*
X-28189D01*
Y246827D01*
X-25857D01*
X-28189Y248576D02*
X-27023D01*
X-24690Y246827D02*
Y250326D01*
X-23524Y249160D01*
X-22358Y250326D01*
Y246827D01*
X-18859Y249743D02*
X-19442Y250326D01*
X-20608D01*
X-21192Y249743D01*
Y247410D01*
X-20608Y246827D01*
X-19442D01*
X-18859Y247410D01*
Y248576D01*
X-20025D01*
X-15360Y246827D02*
X-17693D01*
X-15360Y249160D01*
Y249743D01*
X-15943Y250326D01*
X-17109D01*
X-17693Y249743D01*
X-14194Y248576D02*
X-11861D01*
X-13027Y249743D02*
Y247410D01*
X-5552Y256549D02*
X-7885D01*
Y253051D01*
X-5552D01*
X-7885Y254800D02*
X-6719D01*
X-4386Y253051D02*
Y256549D01*
X-3220Y255383D01*
X-2054Y256549D01*
Y253051D01*
X1445Y255966D02*
X862Y256549D01*
X-304D01*
X-887Y255966D01*
Y253634D01*
X-304Y253051D01*
X862D01*
X1445Y253634D01*
Y254800D01*
X279D01*
X2612Y253051D02*
X3778D01*
X3195D01*
Y256549D01*
X2612Y255966D01*
X5527Y254800D02*
X7860D01*
X6694Y255966D02*
Y253634D01*
X-45668Y250137D02*
X-48000D01*
Y246638D01*
X-45668D01*
X-48000Y248388D02*
X-46834D01*
X-44501Y246638D02*
Y250137D01*
X-43335Y248971D01*
X-42169Y250137D01*
Y246638D01*
X-38670Y249554D02*
X-39253Y250137D01*
X-40419D01*
X-41003Y249554D01*
Y247221D01*
X-40419Y246638D01*
X-39253D01*
X-38670Y247221D01*
Y248388D01*
X-39836D01*
X-35171Y246638D02*
X-37504D01*
X-35171Y248971D01*
Y249554D01*
X-35754Y250137D01*
X-36920D01*
X-37504Y249554D01*
X-34005Y248388D02*
X-31672D01*
X35835Y250326D02*
Y246827D01*
Y248576D01*
X38167D01*
Y250326D01*
Y246827D01*
X39334D02*
Y250326D01*
X41083D01*
X41666Y249743D01*
Y248576D01*
X41083Y247993D01*
X39334D01*
X40500D02*
X41666Y246827D01*
X42833Y248576D02*
X45165D01*
X43999Y249743D02*
Y247410D01*
X35835Y253051D02*
Y256549D01*
X37584D01*
X38167Y255966D01*
Y254800D01*
X37584Y254217D01*
X35835D01*
X37001D02*
X38167Y253051D01*
X39334D02*
Y256549D01*
X41083D01*
X41666Y255966D01*
Y254800D01*
X41083Y254217D01*
X39334D01*
X40500D02*
X41666Y253051D01*
X42833Y254800D02*
X45165D01*
X43999Y255966D02*
Y253634D01*
X14160Y256549D02*
X11828D01*
Y253051D01*
X14160D01*
X11828Y254800D02*
X12994D01*
X15326Y253051D02*
Y256549D01*
X16493Y255383D01*
X17659Y256549D01*
Y253051D01*
X21158Y255966D02*
X20575Y256549D01*
X19408D01*
X18825Y255966D01*
Y253634D01*
X19408Y253051D01*
X20575D01*
X21158Y253634D01*
Y254800D01*
X19992D01*
X22324Y253051D02*
X23491D01*
X22907D01*
Y256549D01*
X22324Y255966D01*
X25240Y254800D02*
X27573D01*
X77655Y255966D02*
X77072Y256549D01*
X75905D01*
X75322Y255966D01*
Y255383D01*
X75905Y254800D01*
X77072D01*
X77655Y254217D01*
Y253634D01*
X77072Y253051D01*
X75905D01*
X75322Y253634D01*
X81154Y255966D02*
X80571Y256549D01*
X79404D01*
X78821Y255966D01*
Y253634D01*
X79404Y253051D01*
X80571D01*
X81154Y253634D01*
X82320Y256549D02*
Y253051D01*
X84653D01*
X55322D02*
Y256549D01*
X57072D01*
X57655Y255966D01*
Y254800D01*
X57072Y254217D01*
X55322D01*
X56489D02*
X57655Y253051D01*
X58821D02*
Y256549D01*
X60571D01*
X61154Y255966D01*
Y254800D01*
X60571Y254217D01*
X58821D01*
X59987D02*
X61154Y253051D01*
X62320Y254800D02*
X64653D01*
X55310Y250326D02*
Y246827D01*
Y248576D01*
X57642D01*
Y250326D01*
Y246827D01*
X58809D02*
Y250326D01*
X60558D01*
X61141Y249743D01*
Y248576D01*
X60558Y247993D01*
X58809D01*
X59975D02*
X61141Y246827D01*
X62308Y248576D02*
X64640D01*
X95335Y253051D02*
Y255383D01*
X96501Y256549D01*
X97667Y255383D01*
Y253051D01*
Y254800D01*
X95335D01*
X101166Y255966D02*
X100583Y256549D01*
X99417D01*
X98834Y255966D01*
Y253634D01*
X99417Y253051D01*
X100583D01*
X101166Y253634D01*
X104665Y255966D02*
X104082Y256549D01*
X102916D01*
X102333Y255966D01*
Y253634D01*
X102916Y253051D01*
X104082D01*
X104665Y253634D01*
X137116Y255966D02*
X136533Y256549D01*
X135367D01*
X134784Y255966D01*
Y253634D01*
X135367Y253051D01*
X136533D01*
X137116Y253634D01*
Y254800D01*
X135950D01*
X138282Y253051D02*
Y256549D01*
X140615Y253051D01*
Y256549D01*
X141781D02*
Y253051D01*
X143531D01*
X144114Y253634D01*
Y255966D01*
X143531Y256549D01*
X141781D01*
X117339Y255966D02*
X116756Y256549D01*
X115590D01*
X115006Y255966D01*
Y255383D01*
X115590Y254800D01*
X116756D01*
X117339Y254217D01*
Y253634D01*
X116756Y253051D01*
X115590D01*
X115006Y253634D01*
X118505Y256549D02*
Y253051D01*
X120255D01*
X120838Y253634D01*
Y255966D01*
X120255Y256549D01*
X118505D01*
X122004Y253051D02*
Y255383D01*
X123170Y256549D01*
X124337Y255383D01*
Y253051D01*
Y254800D01*
X122004D01*
X161332Y193460D02*
X159666D01*
X160499D01*
Y189295D01*
X159666Y188461D01*
X158833D01*
X158000Y189295D01*
X162998Y193460D02*
X166331D01*
X164665D01*
Y188461D01*
X167997D02*
Y191794D01*
X169663Y193460D01*
X171329Y191794D01*
Y188461D01*
Y190961D01*
X167997D01*
X176327Y192627D02*
X175494Y193460D01*
X173828D01*
X172995Y192627D01*
Y189295D01*
X173828Y188461D01*
X175494D01*
X176327Y189295D01*
Y190961D01*
X174661D01*
X140932Y201266D02*
X140099Y202099D01*
X138433D01*
X137600Y201266D01*
Y200433D01*
X138433Y199600D01*
X140099D01*
X140932Y198767D01*
Y197934D01*
X140099Y197101D01*
X138433D01*
X137600Y197934D01*
X142598Y202099D02*
Y197101D01*
X144264Y198767D01*
X145931Y197101D01*
Y202099D01*
X147597D02*
Y197101D01*
X150096D01*
X150929Y197934D01*
Y201266D01*
X150096Y202099D01*
X147597D01*
X110532Y20878D02*
Y22544D01*
Y21711D01*
X115531D01*
Y20878D01*
Y22544D01*
Y28376D02*
Y25043D01*
X112198Y28376D01*
X111365D01*
X110532Y27542D01*
Y25876D01*
X111365Y25043D01*
Y33374D02*
X110532Y32541D01*
Y30875D01*
X111365Y30042D01*
X114698D01*
X115531Y30875D01*
Y32541D01*
X114698Y33374D01*
X-151219Y-12023D02*
X-153581D01*
Y-10842D01*
X-153187Y-10449D01*
X-152400D01*
X-152006Y-10842D01*
Y-12023D01*
Y-11236D02*
X-151219Y-10449D01*
Y-9661D02*
Y-8874D01*
Y-9268D01*
X-153581D01*
X-153187Y-9661D01*
X-151219Y-6119D02*
Y-7694D01*
X-152794Y-6119D01*
X-153187D01*
X-153581Y-6513D01*
Y-7300D01*
X-153187Y-7694D01*
X-151219Y-5332D02*
Y-4545D01*
Y-4939D01*
X-153581D01*
X-153187Y-5332D01*
X-151219Y-3364D02*
Y-2577D01*
Y-2971D01*
X-153581D01*
X-153187Y-3364D01*
X-155719Y16787D02*
X-158081D01*
Y17967D01*
X-157687Y18361D01*
X-156900D01*
X-156506Y17967D01*
Y16787D01*
Y17574D02*
X-155719Y18361D01*
Y19148D02*
Y19935D01*
Y19542D01*
X-158081D01*
X-157687Y19148D01*
X-155719Y22690D02*
Y21116D01*
X-157294Y22690D01*
X-157687D01*
X-158081Y22297D01*
Y21510D01*
X-157687Y21116D01*
Y23478D02*
X-158081Y23871D01*
Y24658D01*
X-157687Y25052D01*
X-156113D01*
X-155719Y24658D01*
Y23871D01*
X-156113Y23478D01*
X-157687D01*
X-158081Y27413D02*
Y25839D01*
X-156900D01*
X-157294Y26626D01*
Y27020D01*
X-156900Y27413D01*
X-156113D01*
X-155719Y27020D01*
Y26232D01*
X-156113Y25839D01*
X-146787Y-3839D02*
X-147181Y-4233D01*
Y-5020D01*
X-146787Y-5413D01*
X-145213D01*
X-144819Y-5020D01*
Y-4233D01*
X-145213Y-3839D01*
X-144819Y-3052D02*
Y-2265D01*
Y-2658D01*
X-147181D01*
X-146787Y-3052D01*
X-144819Y490D02*
Y-1084D01*
X-146394Y490D01*
X-146787D01*
X-147181Y97D01*
Y-690D01*
X-146787Y-1084D01*
Y1278D02*
X-147181Y1671D01*
Y2458D01*
X-146787Y2852D01*
X-145213D01*
X-144819Y2458D01*
Y1671D01*
X-145213Y1278D01*
X-146787D01*
X-147181Y3639D02*
Y5213D01*
X-146787D01*
X-145213Y3639D01*
X-144819D01*
X-116787Y-2839D02*
X-117181Y-3232D01*
Y-4020D01*
X-116787Y-4413D01*
X-115213D01*
X-114819Y-4020D01*
Y-3232D01*
X-115213Y-2839D01*
X-114819Y-2052D02*
Y-1265D01*
Y-1658D01*
X-117181D01*
X-116787Y-2052D01*
X-114819Y1490D02*
Y-84D01*
X-116394Y1490D01*
X-116787D01*
X-117181Y1097D01*
Y310D01*
X-116787Y-84D01*
Y2277D02*
X-117181Y2671D01*
Y3458D01*
X-116787Y3852D01*
X-115213D01*
X-114819Y3458D01*
Y2671D01*
X-115213Y2277D01*
X-116787D01*
Y4639D02*
X-117181Y5032D01*
Y5820D01*
X-116787Y6213D01*
X-115213D01*
X-114819Y5820D01*
Y5032D01*
X-115213Y4639D01*
X-116787D01*
X121062Y217874D02*
X120013D01*
X120537D01*
Y215250D01*
X120013Y214726D01*
X119488D01*
X118963Y215250D01*
X123686Y214726D02*
Y217874D01*
X122112Y216300D01*
X124211D01*
X125260Y214726D02*
X126310D01*
X125785D01*
Y217874D01*
X125260Y217350D01*
X127884D02*
X128409Y217874D01*
X129458D01*
X129983Y217350D01*
Y216825D01*
X129458Y216300D01*
X129983Y215775D01*
Y215250D01*
X129458Y214726D01*
X128409D01*
X127884Y215250D01*
Y215775D01*
X128409Y216300D01*
X127884Y216825D01*
Y217350D01*
X128409Y216300D02*
X129458D01*
X-159581Y-31713D02*
X-157219D01*
Y-30533D01*
X-157613Y-30139D01*
X-159187D01*
X-159581Y-30533D01*
Y-31713D01*
X-157219Y-29352D02*
Y-28565D01*
Y-28958D01*
X-159581D01*
X-159187Y-29352D01*
X-157219Y-25810D02*
Y-27384D01*
X-158794Y-25810D01*
X-159187D01*
X-159581Y-26203D01*
Y-26990D01*
X-159187Y-27384D01*
Y-25023D02*
X-159581Y-24629D01*
Y-23842D01*
X-159187Y-23448D01*
X-157613D01*
X-157219Y-23842D01*
Y-24629D01*
X-157613Y-25023D01*
X-159187D01*
X-157219Y-21480D02*
X-159581D01*
X-158400Y-22661D01*
Y-21087D01*
X-159781Y2887D02*
X-157419D01*
Y4067D01*
X-157813Y4461D01*
X-159387D01*
X-159781Y4067D01*
Y2887D01*
X-157419Y5248D02*
Y6035D01*
Y5642D01*
X-159781D01*
X-159387Y5248D01*
X-157419Y8790D02*
Y7216D01*
X-158994Y8790D01*
X-159387D01*
X-159781Y8397D01*
Y7610D01*
X-159387Y7216D01*
Y9578D02*
X-159781Y9971D01*
Y10758D01*
X-159387Y11152D01*
X-157813D01*
X-157419Y10758D01*
Y9971D01*
X-157813Y9578D01*
X-159387D01*
X-157419Y13513D02*
Y11939D01*
X-158994Y13513D01*
X-159387D01*
X-159781Y13120D01*
Y12332D01*
X-159387Y11939D01*
X-99619Y75087D02*
X-101981D01*
Y76267D01*
X-101587Y76661D01*
X-100800D01*
X-100406Y76267D01*
Y75087D01*
Y75874D02*
X-99619Y76661D01*
Y77448D02*
Y78235D01*
Y77842D01*
X-101981D01*
X-101587Y77448D01*
X-99619Y80990D02*
Y79416D01*
X-101194Y80990D01*
X-101587D01*
X-101981Y80597D01*
Y79810D01*
X-101587Y79416D01*
Y81778D02*
X-101981Y82171D01*
Y82958D01*
X-101587Y83352D01*
X-100013D01*
X-99619Y82958D01*
Y82171D01*
X-100013Y81778D01*
X-101587D01*
X-99619Y85320D02*
X-101981D01*
X-100800Y84139D01*
Y85713D01*
X-105519Y82287D02*
X-107881D01*
Y83468D01*
X-107487Y83861D01*
X-106700D01*
X-106306Y83468D01*
Y82287D01*
Y83074D02*
X-105519Y83861D01*
Y84648D02*
Y85435D01*
Y85042D01*
X-107881D01*
X-107487Y84648D01*
X-105519Y88190D02*
Y86616D01*
X-107094Y88190D01*
X-107487D01*
X-107881Y87797D01*
Y87010D01*
X-107487Y86616D01*
Y88977D02*
X-107881Y89371D01*
Y90158D01*
X-107487Y90552D01*
X-105913D01*
X-105519Y90158D01*
Y89371D01*
X-105913Y88977D01*
X-107487D01*
Y91339D02*
X-107881Y91733D01*
Y92520D01*
X-107487Y92913D01*
X-105913D01*
X-105519Y92520D01*
Y91733D01*
X-105913Y91339D01*
X-107487D01*
X-137613Y4981D02*
Y3013D01*
X-137220Y2619D01*
X-136433D01*
X-136039Y3013D01*
Y4981D01*
X-135252Y2619D02*
X-134465D01*
X-134858D01*
Y4981D01*
X-135252Y4587D01*
X-131710Y2619D02*
X-133284D01*
X-131710Y4194D01*
Y4587D01*
X-132103Y4981D01*
X-132890D01*
X-133284Y4587D01*
X-130922D02*
X-130529Y4981D01*
X-129742D01*
X-129348Y4587D01*
Y3013D01*
X-129742Y2619D01*
X-130529D01*
X-130922Y3013D01*
Y4587D01*
X-128561D02*
X-128167Y4981D01*
X-127380D01*
X-126987Y4587D01*
Y4194D01*
X-127380Y3800D01*
X-127774D01*
X-127380D01*
X-126987Y3406D01*
Y3013D01*
X-127380Y2619D01*
X-128167D01*
X-128561Y3013D01*
X-109813Y5581D02*
Y3613D01*
X-109420Y3219D01*
X-108633D01*
X-108239Y3613D01*
Y5581D01*
X-107452Y3219D02*
X-106665D01*
X-107058D01*
Y5581D01*
X-107452Y5187D01*
X-103910Y3219D02*
X-105484D01*
X-103910Y4794D01*
Y5187D01*
X-104303Y5581D01*
X-105090D01*
X-105484Y5187D01*
X-103122D02*
X-102729Y5581D01*
X-101942D01*
X-101548Y5187D01*
Y3613D01*
X-101942Y3219D01*
X-102729D01*
X-103122Y3613D01*
Y5187D01*
X-99187Y3219D02*
X-100761D01*
X-99187Y4794D01*
Y5187D01*
X-99580Y5581D01*
X-100367D01*
X-100761Y5187D01*
X-101881Y41380D02*
X-99913D01*
X-99519Y41774D01*
Y42561D01*
X-99913Y42955D01*
X-101881D01*
X-99519Y43742D02*
Y44529D01*
Y44135D01*
X-101881D01*
X-101487Y43742D01*
X-99519Y47284D02*
Y45710D01*
X-101094Y47284D01*
X-101487D01*
X-101881Y46890D01*
Y46103D01*
X-101487Y45710D01*
Y48071D02*
X-101881Y48465D01*
Y49252D01*
X-101487Y49645D01*
X-99913D01*
X-99519Y49252D01*
Y48465D01*
X-99913Y48071D01*
X-101487D01*
X-99519Y50432D02*
Y51220D01*
Y50826D01*
X-101881D01*
X-101487Y50432D01*
X-111819Y82287D02*
X-114181D01*
Y83468D01*
X-113787Y83861D01*
X-113000D01*
X-112606Y83468D01*
Y82287D01*
Y83074D02*
X-111819Y83861D01*
Y84648D02*
Y85435D01*
Y85042D01*
X-114181D01*
X-113787Y84648D01*
X-111819Y88190D02*
Y86616D01*
X-113394Y88190D01*
X-113787D01*
X-114181Y87797D01*
Y87010D01*
X-113787Y86616D01*
Y88977D02*
X-114181Y89371D01*
Y90158D01*
X-113787Y90552D01*
X-112213D01*
X-111819Y90158D01*
Y89371D01*
X-112213Y88977D01*
X-113787D01*
X-114181Y91339D02*
Y92913D01*
X-113787D01*
X-112213Y91339D01*
X-111819D01*
X-118119Y75487D02*
X-120481D01*
Y76667D01*
X-120087Y77061D01*
X-119300D01*
X-118906Y76667D01*
Y75487D01*
Y76274D02*
X-118119Y77061D01*
Y77848D02*
Y78635D01*
Y78242D01*
X-120481D01*
X-120087Y77848D01*
X-118119Y81390D02*
Y79816D01*
X-119694Y81390D01*
X-120087D01*
X-120481Y80997D01*
Y80210D01*
X-120087Y79816D01*
Y82178D02*
X-120481Y82571D01*
Y83358D01*
X-120087Y83752D01*
X-118513D01*
X-118119Y83358D01*
Y82571D01*
X-118513Y82178D01*
X-120087D01*
X-120481Y86113D02*
X-120087Y85326D01*
X-119300Y84539D01*
X-118513D01*
X-118119Y84933D01*
Y85720D01*
X-118513Y86113D01*
X-118906D01*
X-119300Y85720D01*
Y84539D01*
X-107619Y31387D02*
X-109981D01*
Y32568D01*
X-109587Y32961D01*
X-108800D01*
X-108406Y32568D01*
Y31387D01*
Y32174D02*
X-107619Y32961D01*
Y33748D02*
Y34535D01*
Y34142D01*
X-109981D01*
X-109587Y33748D01*
X-107619Y37290D02*
Y35716D01*
X-109194Y37290D01*
X-109587D01*
X-109981Y36897D01*
Y36110D01*
X-109587Y35716D01*
Y38078D02*
X-109981Y38471D01*
Y39258D01*
X-109587Y39652D01*
X-108013D01*
X-107619Y39258D01*
Y38471D01*
X-108013Y38078D01*
X-109587D01*
Y40439D02*
X-109981Y40832D01*
Y41620D01*
X-109587Y42013D01*
X-109194D01*
X-108800Y41620D01*
Y41226D01*
Y41620D01*
X-108406Y42013D01*
X-108013D01*
X-107619Y41620D01*
Y40832D01*
X-108013Y40439D01*
X-157245Y83881D02*
X-158033D01*
X-157639D01*
Y81913D01*
X-158033Y81519D01*
X-158426D01*
X-158820Y81913D01*
X-156458Y81519D02*
X-155671D01*
X-156065D01*
Y83881D01*
X-156458Y83487D01*
X-152916Y81519D02*
X-154490D01*
X-152916Y83094D01*
Y83487D01*
X-153310Y83881D01*
X-154097D01*
X-154490Y83487D01*
X-152129D02*
X-151735Y83881D01*
X-150948D01*
X-150555Y83487D01*
Y81913D01*
X-150948Y81519D01*
X-151735D01*
X-152129Y81913D01*
Y83487D01*
X-149767Y81519D02*
X-148980D01*
X-149374D01*
Y83881D01*
X-149767Y83487D01*
X119751Y52181D02*
X118964D01*
X119358D01*
Y50213D01*
X118964Y49819D01*
X118571D01*
X118177Y50213D01*
X120539Y49819D02*
X121326D01*
X120932D01*
Y52181D01*
X120539Y51787D01*
X122506Y49819D02*
X123294D01*
X122900D01*
Y52181D01*
X122506Y51787D01*
X124474D02*
X124868Y52181D01*
X125655D01*
X126049Y51787D01*
Y50213D01*
X125655Y49819D01*
X124868D01*
X124474Y50213D01*
Y51787D01*
X126836Y49819D02*
X127623D01*
X127229D01*
Y52181D01*
X126836Y51787D01*
X135137Y291979D02*
X134153D01*
X134645D01*
Y289519D01*
X134153Y289027D01*
X133661D01*
X133169Y289519D01*
X136121Y289027D02*
X137105D01*
X136613D01*
Y291979D01*
X136121Y291487D01*
X138581D02*
X139073Y291979D01*
X140057D01*
X140549Y291487D01*
Y289519D01*
X140057Y289027D01*
X139073D01*
X138581Y289519D01*
Y291487D01*
X141533D02*
X142025Y291979D01*
X143009D01*
X143501Y291487D01*
Y290995D01*
X143009Y290503D01*
X142517D01*
X143009D01*
X143501Y290011D01*
Y289519D01*
X143009Y289027D01*
X142025D01*
X141533Y289519D01*
X144485Y291487D02*
X144977Y291979D01*
X145961D01*
X146453Y291487D01*
Y290995D01*
X145961Y290503D01*
X145469D01*
X145961D01*
X146453Y290011D01*
Y289519D01*
X145961Y289027D01*
X144977D01*
X144485Y289519D01*
X-45074Y292076D02*
X-46058D01*
X-45566D01*
Y289616D01*
X-46058Y289124D01*
X-46550D01*
X-47042Y289616D01*
X-44090Y289124D02*
X-43106D01*
X-43598D01*
Y292076D01*
X-44090Y291584D01*
X-41630D02*
X-41138Y292076D01*
X-40154D01*
X-39662Y291584D01*
Y289616D01*
X-40154Y289124D01*
X-41138D01*
X-41630Y289616D01*
Y291584D01*
X-38678D02*
X-38186Y292076D01*
X-37202D01*
X-36710Y291584D01*
Y291092D01*
X-37202Y290600D01*
X-37694D01*
X-37202D01*
X-36710Y290108D01*
Y289616D01*
X-37202Y289124D01*
X-38186D01*
X-38678Y289616D01*
X-33758Y289124D02*
X-35726D01*
X-33758Y291092D01*
Y291584D01*
X-34250Y292076D01*
X-35234D01*
X-35726Y291584D01*
X55729Y291979D02*
X54745D01*
X55237D01*
Y289519D01*
X54745Y289027D01*
X54253D01*
X53761Y289519D01*
X56713Y289027D02*
X57697D01*
X57205D01*
Y291979D01*
X56713Y291487D01*
X59173D02*
X59665Y291979D01*
X60649D01*
X61141Y291487D01*
Y289519D01*
X60649Y289027D01*
X59665D01*
X59173Y289519D01*
Y291487D01*
X62125D02*
X62617Y291979D01*
X63601D01*
X64093Y291487D01*
Y290995D01*
X63601Y290503D01*
X63109D01*
X63601D01*
X64093Y290011D01*
Y289519D01*
X63601Y289027D01*
X62617D01*
X62125Y289519D01*
X65077Y289027D02*
X66061D01*
X65569D01*
Y291979D01*
X65077Y291487D01*
X-104663Y291979D02*
X-105647D01*
X-105155D01*
Y289519D01*
X-105647Y289027D01*
X-106139D01*
X-106631Y289519D01*
X-103679Y289027D02*
X-102695D01*
X-103187D01*
Y291979D01*
X-103679Y291487D01*
X-101219D02*
X-100727Y291979D01*
X-99743D01*
X-99251Y291487D01*
Y289519D01*
X-99743Y289027D01*
X-100727D01*
X-101219Y289519D01*
Y291487D01*
X-98267D02*
X-97775Y291979D01*
X-96791D01*
X-96299Y291487D01*
Y290995D01*
X-96791Y290503D01*
X-97283D01*
X-96791D01*
X-96299Y290011D01*
Y289519D01*
X-96791Y289027D01*
X-97775D01*
X-98267Y289519D01*
X-95315Y291487D02*
X-94823Y291979D01*
X-93839D01*
X-93347Y291487D01*
Y289519D01*
X-93839Y289027D01*
X-94823D01*
X-95315Y289519D01*
Y291487D01*
X95437Y291979D02*
X94453D01*
X94945D01*
Y289519D01*
X94453Y289027D01*
X93961D01*
X93470Y289519D01*
X96421Y289027D02*
X97405D01*
X96913D01*
Y291979D01*
X96421Y291487D01*
X98881D02*
X99373Y291979D01*
X100357D01*
X100849Y291487D01*
Y289519D01*
X100357Y289027D01*
X99373D01*
X98881Y289519D01*
Y291487D01*
X103801Y289027D02*
X101833D01*
X103801Y290995D01*
Y291487D01*
X103309Y291979D01*
X102325D01*
X101833Y291487D01*
X104785Y289519D02*
X105277Y289027D01*
X106261D01*
X106753Y289519D01*
Y291487D01*
X106261Y291979D01*
X105277D01*
X104785Y291487D01*
Y290995D01*
X105277Y290503D01*
X106753D01*
X-64974Y291876D02*
X-65958D01*
X-65466D01*
Y289416D01*
X-65958Y288924D01*
X-66450D01*
X-66942Y289416D01*
X-63990Y288924D02*
X-63006D01*
X-63498D01*
Y291876D01*
X-63990Y291384D01*
X-61530D02*
X-61038Y291876D01*
X-60054D01*
X-59562Y291384D01*
Y289416D01*
X-60054Y288924D01*
X-61038D01*
X-61530Y289416D01*
Y291384D01*
X-56610Y288924D02*
X-58578D01*
X-56610Y290892D01*
Y291384D01*
X-57102Y291876D01*
X-58086D01*
X-58578Y291384D01*
X-55626D02*
X-55134Y291876D01*
X-54150D01*
X-53658Y291384D01*
Y290892D01*
X-54150Y290400D01*
X-53658Y289908D01*
Y289416D01*
X-54150Y288924D01*
X-55134D01*
X-55626Y289416D01*
Y289908D01*
X-55134Y290400D01*
X-55626Y290892D01*
Y291384D01*
X-55134Y290400D02*
X-54150D01*
X36437Y291979D02*
X35453D01*
X35945D01*
Y289519D01*
X35453Y289027D01*
X34961D01*
X34470Y289519D01*
X37421Y289027D02*
X38405D01*
X37913D01*
Y291979D01*
X37421Y291487D01*
X39881D02*
X40373Y291979D01*
X41357D01*
X41849Y291487D01*
Y289519D01*
X41357Y289027D01*
X40373D01*
X39881Y289519D01*
Y291487D01*
X44801Y289027D02*
X42833D01*
X44801Y290995D01*
Y291487D01*
X44309Y291979D01*
X43325D01*
X42833Y291487D01*
X45785Y291979D02*
X47753D01*
Y291487D01*
X45785Y289519D01*
Y289027D01*
X-144263Y291979D02*
X-145247D01*
X-144755D01*
Y289519D01*
X-145247Y289027D01*
X-145738D01*
X-146230Y289519D01*
X-143279Y289027D02*
X-142295D01*
X-142787D01*
Y291979D01*
X-143279Y291487D01*
X-140819D02*
X-140327Y291979D01*
X-139343D01*
X-138851Y291487D01*
Y289519D01*
X-139343Y289027D01*
X-140327D01*
X-140819Y289519D01*
Y291487D01*
X-135899Y289027D02*
X-137867D01*
X-135899Y290995D01*
Y291487D01*
X-136391Y291979D01*
X-137375D01*
X-137867Y291487D01*
X-132947Y291979D02*
X-133931Y291487D01*
X-134915Y290503D01*
Y289519D01*
X-134423Y289027D01*
X-133439D01*
X-132947Y289519D01*
Y290011D01*
X-133439Y290503D01*
X-134915D01*
X115354Y291979D02*
X114370D01*
X114862D01*
Y289519D01*
X114370Y289027D01*
X113878D01*
X113386Y289519D01*
X116338Y289027D02*
X117322D01*
X116830D01*
Y291979D01*
X116338Y291487D01*
X118798D02*
X119290Y291979D01*
X120274D01*
X120766Y291487D01*
Y289519D01*
X120274Y289027D01*
X119290D01*
X118798Y289519D01*
Y291487D01*
X123717Y289027D02*
X121750D01*
X123717Y290995D01*
Y291487D01*
X123225Y291979D01*
X122241D01*
X121750Y291487D01*
X126669Y291979D02*
X124701D01*
Y290503D01*
X125685Y290995D01*
X126177D01*
X126669Y290503D01*
Y289519D01*
X126177Y289027D01*
X125193D01*
X124701Y289519D01*
X-84263Y291979D02*
X-85247D01*
X-84755D01*
Y289519D01*
X-85247Y289027D01*
X-85738D01*
X-86230Y289519D01*
X-83279Y289027D02*
X-82295D01*
X-82787D01*
Y291979D01*
X-83279Y291487D01*
X-80819D02*
X-80327Y291979D01*
X-79343D01*
X-78851Y291487D01*
Y289519D01*
X-79343Y289027D01*
X-80327D01*
X-80819Y289519D01*
Y291487D01*
X-75899Y289027D02*
X-77867D01*
X-75899Y290995D01*
Y291487D01*
X-76391Y291979D01*
X-77375D01*
X-77867Y291487D01*
X-73439Y289027D02*
Y291979D01*
X-74915Y290503D01*
X-72947D01*
X15037Y291979D02*
X14053D01*
X14545D01*
Y289519D01*
X14053Y289027D01*
X13561D01*
X13070Y289519D01*
X16021Y289027D02*
X17005D01*
X16513D01*
Y291979D01*
X16021Y291487D01*
X18481D02*
X18973Y291979D01*
X19957D01*
X20449Y291487D01*
Y289519D01*
X19957Y289027D01*
X18973D01*
X18481Y289519D01*
Y291487D01*
X23401Y289027D02*
X21433D01*
X23401Y290995D01*
Y291487D01*
X22909Y291979D01*
X21925D01*
X21433Y291487D01*
X24385D02*
X24877Y291979D01*
X25861D01*
X26353Y291487D01*
Y290995D01*
X25861Y290503D01*
X25369D01*
X25861D01*
X26353Y290011D01*
Y289519D01*
X25861Y289027D01*
X24877D01*
X24385Y289519D01*
X-124263Y291979D02*
X-125247D01*
X-124755D01*
Y289519D01*
X-125247Y289027D01*
X-125739D01*
X-126231Y289519D01*
X-123279Y289027D02*
X-122295D01*
X-122787D01*
Y291979D01*
X-123279Y291487D01*
X-120819D02*
X-120327Y291979D01*
X-119343D01*
X-118851Y291487D01*
Y289519D01*
X-119343Y289027D01*
X-120327D01*
X-120819Y289519D01*
Y291487D01*
X-115899Y289027D02*
X-117867D01*
X-115899Y290995D01*
Y291487D01*
X-116391Y291979D01*
X-117375D01*
X-117867Y291487D01*
X-112947Y289027D02*
X-114915D01*
X-112947Y290995D01*
Y291487D01*
X-113439Y291979D01*
X-114423D01*
X-114915Y291487D01*
X76123Y291979D02*
X75139D01*
X75631D01*
Y289519D01*
X75139Y289027D01*
X74647D01*
X74155Y289519D01*
X77107Y289027D02*
X78091D01*
X77599D01*
Y291979D01*
X77107Y291487D01*
X79567D02*
X80059Y291979D01*
X81043D01*
X81535Y291487D01*
Y289519D01*
X81043Y289027D01*
X80059D01*
X79567Y289519D01*
Y291487D01*
X84486Y289027D02*
X82519D01*
X84486Y290995D01*
Y291487D01*
X83994Y291979D01*
X83011D01*
X82519Y291487D01*
X85470Y289027D02*
X86454D01*
X85962D01*
Y291979D01*
X85470Y291487D01*
X-24763Y291979D02*
X-25747D01*
X-25255D01*
Y289519D01*
X-25747Y289027D01*
X-26239D01*
X-26730Y289519D01*
X-23779Y289027D02*
X-22795D01*
X-23287D01*
Y291979D01*
X-23779Y291487D01*
X-21319D02*
X-20827Y291979D01*
X-19843D01*
X-19351Y291487D01*
Y289519D01*
X-19843Y289027D01*
X-20827D01*
X-21319Y289519D01*
Y291487D01*
X-16399Y289027D02*
X-18367D01*
X-16399Y290995D01*
Y291487D01*
X-16891Y291979D01*
X-17875D01*
X-18367Y291487D01*
X-15415D02*
X-14923Y291979D01*
X-13939D01*
X-13447Y291487D01*
Y289519D01*
X-13939Y289027D01*
X-14923D01*
X-15415Y289519D01*
Y291487D01*
X-4417Y291979D02*
X-5401D01*
X-4909D01*
Y289519D01*
X-5401Y289027D01*
X-5893D01*
X-6385Y289519D01*
X-3433Y289027D02*
X-2449D01*
X-2941D01*
Y291979D01*
X-3433Y291487D01*
X-973D02*
X-481Y291979D01*
X503D01*
X995Y291487D01*
Y289519D01*
X503Y289027D01*
X-481D01*
X-973Y289519D01*
Y291487D01*
X1979Y289027D02*
X2963D01*
X2471D01*
Y291979D01*
X1979Y291487D01*
X4439Y289519D02*
X4931Y289027D01*
X5915D01*
X6407Y289519D01*
Y291487D01*
X5915Y291979D01*
X4931D01*
X4439Y291487D01*
Y290995D01*
X4931Y290503D01*
X6407D01*
X-164917Y291979D02*
X-165901D01*
X-165409D01*
Y289519D01*
X-165901Y289027D01*
X-166393D01*
X-166885Y289519D01*
X-163933Y289027D02*
X-162949D01*
X-163441D01*
Y291979D01*
X-163933Y291487D01*
X-161473D02*
X-160981Y291979D01*
X-159997D01*
X-159505Y291487D01*
Y289519D01*
X-159997Y289027D01*
X-160981D01*
X-161473Y289519D01*
Y291487D01*
X-158521Y289027D02*
X-157537D01*
X-158029D01*
Y291979D01*
X-158521Y291487D01*
X-156061D02*
X-155569Y291979D01*
X-154585D01*
X-154093Y291487D01*
Y290995D01*
X-154585Y290503D01*
X-154093Y290011D01*
Y289519D01*
X-154585Y289027D01*
X-155569D01*
X-156061Y289519D01*
Y290011D01*
X-155569Y290503D01*
X-156061Y290995D01*
Y291487D01*
X-155569Y290503D02*
X-154585D01*
X155983Y291979D02*
X154999D01*
X155491D01*
Y289519D01*
X154999Y289027D01*
X154508D01*
X154016Y289519D01*
X156967Y289027D02*
X157951D01*
X157459D01*
Y291979D01*
X156967Y291487D01*
X159427D02*
X159919Y291979D01*
X160903D01*
X161395Y291487D01*
Y289519D01*
X160903Y289027D01*
X159919D01*
X159427Y289519D01*
Y291487D01*
X162379Y289027D02*
X163363D01*
X162871D01*
Y291979D01*
X162379Y291487D01*
X164839Y291979D02*
X166807D01*
Y291487D01*
X164839Y289519D01*
Y289027D01*
X-126623Y55278D02*
X-124261D01*
Y56459D01*
X-124655Y56852D01*
X-126229D01*
X-126623Y56459D01*
Y55278D01*
X-124261Y57639D02*
Y58427D01*
Y58033D01*
X-126623D01*
X-126229Y57639D01*
X-124261Y61182D02*
Y59607D01*
X-125836Y61182D01*
X-126229D01*
X-126623Y60788D01*
Y60001D01*
X-126229Y59607D01*
Y61969D02*
X-126623Y62362D01*
Y63149D01*
X-126229Y63543D01*
X-124655D01*
X-124261Y63149D01*
Y62362D01*
X-124655Y61969D01*
X-126229D01*
X-124261Y64330D02*
Y65117D01*
Y64724D01*
X-126623D01*
X-126229Y64330D01*
X-142139Y-11213D02*
X-142533Y-10819D01*
X-143320D01*
X-143713Y-11213D01*
Y-12787D01*
X-143320Y-13181D01*
X-142533D01*
X-142139Y-12787D01*
X-141352Y-13181D02*
X-140565D01*
X-140958D01*
Y-10819D01*
X-141352Y-11213D01*
X-137810Y-13181D02*
X-139384D01*
X-137810Y-11606D01*
Y-11213D01*
X-138203Y-10819D01*
X-138990D01*
X-139384Y-11213D01*
X-137022D02*
X-136629Y-10819D01*
X-135842D01*
X-135448Y-11213D01*
Y-12787D01*
X-135842Y-13181D01*
X-136629D01*
X-137022Y-12787D01*
Y-11213D01*
X-133087Y-10819D02*
X-133874Y-11213D01*
X-134661Y-12000D01*
Y-12787D01*
X-134267Y-13181D01*
X-133480D01*
X-133087Y-12787D01*
Y-12394D01*
X-133480Y-12000D01*
X-134661D01*
X-112039Y-11213D02*
X-112433Y-10819D01*
X-113220D01*
X-113613Y-11213D01*
Y-12787D01*
X-113220Y-13181D01*
X-112433D01*
X-112039Y-12787D01*
X-111252Y-13181D02*
X-110465D01*
X-110858D01*
Y-10819D01*
X-111252Y-11213D01*
X-107710Y-13181D02*
X-109284D01*
X-107710Y-11606D01*
Y-11213D01*
X-108103Y-10819D01*
X-108890D01*
X-109284Y-11213D01*
X-106922D02*
X-106529Y-10819D01*
X-105742D01*
X-105348Y-11213D01*
Y-12787D01*
X-105742Y-13181D01*
X-106529D01*
X-106922Y-12787D01*
Y-11213D01*
X-102987Y-10819D02*
X-104561D01*
Y-12000D01*
X-103774Y-11606D01*
X-103380D01*
X-102987Y-12000D01*
Y-12787D01*
X-103380Y-13181D01*
X-104167D01*
X-104561Y-12787D01*
X-115887Y33061D02*
X-116281Y32667D01*
Y31880D01*
X-115887Y31487D01*
X-114313D01*
X-113919Y31880D01*
Y32667D01*
X-114313Y33061D01*
X-113919Y33848D02*
Y34635D01*
Y34242D01*
X-116281D01*
X-115887Y33848D01*
X-113919Y37390D02*
Y35816D01*
X-115494Y37390D01*
X-115887D01*
X-116281Y36997D01*
Y36210D01*
X-115887Y35816D01*
Y38177D02*
X-116281Y38571D01*
Y39358D01*
X-115887Y39752D01*
X-114313D01*
X-113919Y39358D01*
Y38571D01*
X-114313Y38177D01*
X-115887D01*
X-113919Y41720D02*
X-116281D01*
X-115100Y40539D01*
Y42113D01*
X-125387Y41661D02*
X-125781Y41267D01*
Y40480D01*
X-125387Y40087D01*
X-123813D01*
X-123419Y40480D01*
Y41267D01*
X-123813Y41661D01*
X-123419Y42448D02*
Y43235D01*
Y42842D01*
X-125781D01*
X-125387Y42448D01*
X-123419Y45990D02*
Y44416D01*
X-124994Y45990D01*
X-125387D01*
X-125781Y45597D01*
Y44810D01*
X-125387Y44416D01*
Y46777D02*
X-125781Y47171D01*
Y47958D01*
X-125387Y48352D01*
X-123813D01*
X-123419Y47958D01*
Y47171D01*
X-123813Y46777D01*
X-125387D01*
Y49139D02*
X-125781Y49532D01*
Y50320D01*
X-125387Y50713D01*
X-124994D01*
X-124600Y50320D01*
Y49926D01*
Y50320D01*
X-124206Y50713D01*
X-123813D01*
X-123419Y50320D01*
Y49532D01*
X-123813Y49139D01*
X-130610Y21481D02*
X-129036D01*
X-129823D01*
Y19119D01*
X-128249D02*
Y21481D01*
X-127068D01*
X-126674Y21087D01*
Y20300D01*
X-127068Y19906D01*
X-128249D01*
X-124313Y21481D02*
X-125100Y21087D01*
X-125887Y20300D01*
Y19513D01*
X-125494Y19119D01*
X-124706D01*
X-124313Y19513D01*
Y19906D01*
X-124706Y20300D01*
X-125887D01*
X-123526Y21087D02*
X-123132Y21481D01*
X-122345D01*
X-121951Y21087D01*
Y19513D01*
X-122345Y19119D01*
X-123132D01*
X-123526Y19513D01*
Y21087D01*
X-121164D02*
X-120771Y21481D01*
X-119983D01*
X-119590Y21087D01*
Y20694D01*
X-119983Y20300D01*
X-120377D01*
X-119983D01*
X-119590Y19906D01*
Y19513D01*
X-119983Y19119D01*
X-120771D01*
X-121164Y19513D01*
X159113Y158907D02*
X158326D01*
X158720D01*
Y156939D01*
X158326Y156545D01*
X157932D01*
X157539Y156939D01*
X161475Y156545D02*
X159900D01*
X161475Y158120D01*
Y158513D01*
X161081Y158907D01*
X160294D01*
X159900Y158513D01*
X162262D02*
X162655Y158907D01*
X163443D01*
X163836Y158513D01*
Y156939D01*
X163443Y156545D01*
X162655D01*
X162262Y156939D01*
Y158513D01*
X164623D02*
X165017Y158907D01*
X165804D01*
X166198Y158513D01*
Y156939D01*
X165804Y156545D01*
X165017D01*
X164623Y156939D01*
Y158513D01*
X159135Y87081D02*
X158348D01*
X158742D01*
Y85113D01*
X158348Y84719D01*
X157955D01*
X157561Y85113D01*
X159923Y84719D02*
X160710D01*
X160316D01*
Y87081D01*
X159923Y86687D01*
X161890D02*
X162284Y87081D01*
X163071D01*
X163465Y86687D01*
Y85113D01*
X163071Y84719D01*
X162284D01*
X161890Y85113D01*
Y86687D01*
X164252Y84719D02*
X165039D01*
X164645D01*
Y87081D01*
X164252Y86687D01*
X161264Y10687D02*
X160871Y11081D01*
X160083D01*
X159690Y10687D01*
Y10294D01*
X160083Y9900D01*
X160871D01*
X161264Y9506D01*
Y9113D01*
X160871Y8719D01*
X160083D01*
X159690Y9113D01*
X162051Y11081D02*
Y8719D01*
X162839Y9506D01*
X163626Y8719D01*
Y11081D01*
X165987D02*
X164413D01*
Y9900D01*
X165200Y10294D01*
X165594D01*
X165987Y9900D01*
Y9113D01*
X165594Y8719D01*
X164806D01*
X164413Y9113D01*
X166774Y10687D02*
X167168Y11081D01*
X167955D01*
X168349Y10687D01*
Y9113D01*
X167955Y8719D01*
X167168D01*
X166774Y9113D01*
Y10687D01*
X169136D02*
X169529Y11081D01*
X170317D01*
X170710Y10687D01*
Y9113D01*
X170317Y8719D01*
X169529D01*
X169136Y9113D01*
Y10687D01*
D17*
X2900Y139600D02*
Y141800D01*
X21900Y139700D02*
Y141800D01*
D18*
X144399Y21794D02*
X140400D01*
X141733Y23127D01*
X140400Y24460D01*
X144399D01*
X141067Y28459D02*
X140400Y27792D01*
Y26460D01*
X141067Y25793D01*
X143732D01*
X144399Y26460D01*
Y27792D01*
X143732Y28459D01*
X140400Y29792D02*
X143732D01*
X144399Y30458D01*
Y31791D01*
X143732Y32458D01*
X140400D01*
X150157Y17796D02*
X146159D01*
Y19795D01*
X146825Y20461D01*
X148158D01*
X148824Y19795D01*
Y17796D01*
Y19129D02*
X150157Y20461D01*
X146159Y24460D02*
Y21794D01*
X150157D01*
Y24460D01*
X148158Y21794D02*
Y23127D01*
X146825Y28459D02*
X146159Y27792D01*
Y26460D01*
X146825Y25793D01*
X147491D01*
X148158Y26460D01*
Y27792D01*
X148824Y28459D01*
X149491D01*
X150157Y27792D01*
Y26460D01*
X149491Y25793D01*
X146159Y32458D02*
Y29792D01*
X150157D01*
Y32458D01*
X148158Y29792D02*
Y31125D01*
X146159Y33790D02*
Y36456D01*
Y35123D01*
X150157D01*
X51503Y-17800D02*
Y-19800D01*
X52502Y-20799D01*
X53502Y-19800D01*
Y-17800D01*
X56501Y-18300D02*
X56001Y-17800D01*
X55002D01*
X54502Y-18300D01*
Y-20300D01*
X55002Y-20799D01*
X56001D01*
X56501Y-20300D01*
Y-19300D01*
X55502D01*
X57501Y-20799D02*
Y-17800D01*
X59500Y-20799D01*
Y-17800D01*
X60500D02*
Y-20799D01*
X61999D01*
X62499Y-20300D01*
Y-18300D01*
X61999Y-17800D01*
X60500D01*
X65498Y-20799D02*
X63499D01*
X65498Y-18800D01*
Y-18300D01*
X64998Y-17800D01*
X63999D01*
X63499Y-18300D01*
X66498Y-20799D02*
Y-17800D01*
X67997D01*
X68497Y-18300D01*
Y-19300D01*
X67997Y-19800D01*
X66498D01*
X67498D02*
X68497Y-20799D01*
X-12924Y-17800D02*
Y-19800D01*
X-11924Y-20799D01*
X-10924Y-19800D01*
Y-17800D01*
X-9925D02*
Y-20799D01*
X-8425D01*
X-7925Y-20300D01*
Y-19800D01*
X-8425Y-19300D01*
X-9925D01*
X-8425D01*
X-7925Y-18800D01*
Y-18300D01*
X-8425Y-17800D01*
X-9925D01*
X-6926Y-20799D02*
Y-18800D01*
X-5926Y-17800D01*
X-4926Y-18800D01*
Y-20799D01*
Y-19300D01*
X-6926D01*
X-3927Y-17800D02*
X-1927D01*
X-2927D01*
Y-20799D01*
X-927D02*
X72D01*
X-428D01*
Y-17800D01*
X-927Y-18300D01*
X1572Y-20799D02*
Y-17800D01*
X3071D01*
X3571Y-18300D01*
Y-19300D01*
X3071Y-19800D01*
X1572D01*
X2571D02*
X3571Y-20799D01*
X6770Y-17800D02*
Y-19800D01*
X7770Y-20799D01*
X8770Y-19800D01*
Y-17800D01*
X11769Y-18300D02*
X11269Y-17800D01*
X10269D01*
X9770Y-18300D01*
Y-20300D01*
X10269Y-20799D01*
X11269D01*
X11769Y-20300D01*
Y-19300D01*
X10769D01*
X12769Y-20799D02*
Y-17800D01*
X14768Y-20799D01*
Y-17800D01*
X15768D02*
Y-20799D01*
X17267D01*
X17767Y-20300D01*
Y-18300D01*
X17267Y-17800D01*
X15768D01*
X18767Y-20799D02*
X19766D01*
X19266D01*
Y-17800D01*
X18767Y-18300D01*
X21266Y-20799D02*
Y-17800D01*
X22765D01*
X23265Y-18300D01*
Y-19300D01*
X22765Y-19800D01*
X21266D01*
X22265D02*
X23265Y-20799D01*
X31503Y-17800D02*
Y-19800D01*
X32502Y-20799D01*
X33502Y-19800D01*
Y-17800D01*
X34502D02*
Y-20799D01*
X36001D01*
X36501Y-20300D01*
Y-19800D01*
X36001Y-19300D01*
X34502D01*
X36001D01*
X36501Y-18800D01*
Y-18300D01*
X36001Y-17800D01*
X34502D01*
X37501Y-20799D02*
Y-18800D01*
X38500Y-17800D01*
X39500Y-18800D01*
Y-20799D01*
Y-19300D01*
X37501D01*
X40500Y-17800D02*
X42499D01*
X41500D01*
Y-20799D01*
X45498D02*
X43499D01*
X45498Y-18800D01*
Y-18300D01*
X44998Y-17800D01*
X43999D01*
X43499Y-18300D01*
X46498Y-20799D02*
Y-17800D01*
X47997D01*
X48497Y-18300D01*
Y-19300D01*
X47997Y-19800D01*
X46498D01*
X47498D02*
X48497Y-20799D01*
X-56980Y-17800D02*
Y-19800D01*
X-55980Y-20799D01*
X-54981Y-19800D01*
Y-17800D01*
X-53981Y-20799D02*
Y-17800D01*
X-52481D01*
X-51982Y-18300D01*
Y-19300D01*
X-52481Y-19800D01*
X-53981D01*
X-52981D02*
X-51982Y-20799D01*
X-48983Y-17800D02*
X-50982D01*
Y-20799D01*
X-48983D01*
X-50982Y-19300D02*
X-49982D01*
X-45984Y-18300D02*
X-46483Y-17800D01*
X-47483D01*
X-47983Y-18300D01*
Y-20300D01*
X-47483Y-20799D01*
X-46483D01*
X-45984Y-20300D01*
X-44984Y-17800D02*
X-42985D01*
X-43984D01*
Y-20799D01*
X-31699Y-18300D02*
X-32199Y-17800D01*
X-33199D01*
X-33699Y-18300D01*
Y-20300D01*
X-33199Y-20799D01*
X-32199D01*
X-31699Y-20300D01*
Y-19300D01*
X-32699D01*
X-30700Y-20799D02*
Y-17800D01*
X-28700Y-20799D01*
Y-17800D01*
X-27701D02*
Y-20799D01*
X-26201D01*
X-25701Y-20300D01*
Y-18300D01*
X-26201Y-17800D01*
X-27701D01*
X-121000Y-20300D02*
X-119667D01*
X-119000Y-19634D01*
X-119667Y-18967D01*
X-121000D01*
Y-18301D02*
X-119000D01*
Y-17301D01*
X-119334Y-16968D01*
X-119667D01*
X-120000Y-17301D01*
Y-18301D01*
Y-17301D01*
X-120333Y-16968D01*
X-120667D01*
X-121000Y-17301D01*
Y-18301D01*
X-119000Y-16301D02*
X-120333D01*
X-121000Y-15635D01*
X-120333Y-14968D01*
X-119000D01*
X-120000D01*
Y-16301D01*
X-121000Y-14302D02*
Y-12969D01*
Y-13635D01*
X-119000D01*
Y-10970D02*
Y-12303D01*
X-120333Y-10970D01*
X-120667D01*
X-121000Y-11303D01*
Y-11969D01*
X-120667Y-12303D01*
X-119000Y-10303D02*
X-121000D01*
Y-9304D01*
X-120667Y-8970D01*
X-120000D01*
X-119667Y-9304D01*
Y-10303D01*
Y-9637D02*
X-119000Y-8970D01*
X-131000Y-20301D02*
X-129667D01*
X-129000Y-19634D01*
X-129667Y-18968D01*
X-131000D01*
Y-18301D02*
X-129000D01*
Y-17302D01*
X-129334Y-16969D01*
X-129667D01*
X-130000Y-17302D01*
Y-18301D01*
Y-17302D01*
X-130333Y-16969D01*
X-130666D01*
X-131000Y-17302D01*
Y-18301D01*
X-129000Y-16302D02*
X-130333D01*
X-131000Y-15636D01*
X-130333Y-14969D01*
X-129000D01*
X-130000D01*
Y-16302D01*
X-131000Y-14303D02*
Y-12970D01*
Y-13636D01*
X-129000D01*
Y-12303D02*
Y-11637D01*
Y-11970D01*
X-131000D01*
X-130666Y-12303D01*
X-129000Y-10637D02*
X-131000D01*
Y-9638D01*
X-130666Y-9304D01*
X-130000D01*
X-129667Y-9638D01*
Y-10637D01*
Y-9971D02*
X-129000Y-9304D01*
X-140545Y16060D02*
Y14486D01*
X-139758Y13698D01*
X-138971Y14486D01*
Y16060D01*
X-138183D02*
Y13698D01*
X-137003D01*
X-136609Y14092D01*
Y14486D01*
X-137003Y14879D01*
X-138183D01*
X-137003D01*
X-136609Y15273D01*
Y15666D01*
X-137003Y16060D01*
X-138183D01*
X-135822D02*
Y14092D01*
X-135429Y13698D01*
X-134641D01*
X-134248Y14092D01*
Y16060D01*
X-131886Y15666D02*
X-132280Y16060D01*
X-133067D01*
X-133461Y15666D01*
Y15273D01*
X-133067Y14879D01*
X-132280D01*
X-131886Y14486D01*
Y14092D01*
X-132280Y13698D01*
X-133067D01*
X-133461Y14092D01*
D19*
X105032Y134677D02*
X111030D01*
Y137676D01*
X110030Y138675D01*
X109030D01*
X108031Y137676D01*
Y134677D01*
Y137676D01*
X107031Y138675D01*
X106031D01*
X105032Y137676D01*
Y134677D01*
Y140675D02*
X111030D01*
Y144673D01*
X105032Y150671D02*
Y146673D01*
X111030D01*
Y150671D01*
X108031Y146673D02*
Y148672D01*
X111030Y103066D02*
X105033D01*
X107032Y105065D01*
X105033Y107064D01*
X111030D01*
X106032Y113062D02*
X105033Y112063D01*
Y110063D01*
X106032Y109064D01*
X110031D01*
X111030Y110063D01*
Y112063D01*
X110031Y113062D01*
X105033Y115062D02*
X110031D01*
X111030Y116061D01*
Y118061D01*
X110031Y119060D01*
X105033D01*
D20*
X-154950Y111800D02*
X-160948D01*
Y114799D01*
X-159948Y115799D01*
X-157949D01*
X-156949Y114799D01*
Y111800D01*
Y113799D02*
X-154950Y115799D01*
Y120797D02*
Y118798D01*
X-155950Y117798D01*
X-157949D01*
X-158949Y118798D01*
Y120797D01*
X-157949Y121797D01*
X-156949D01*
Y117798D01*
X-158949Y123796D02*
X-154950Y125795D01*
X-158949Y127795D01*
X-154950Y135792D02*
X-158949D01*
X-160948Y137792D01*
X-158949Y139791D01*
X-154950D01*
X-157949D01*
Y135792D01*
Y147788D02*
Y151787D01*
X-160948Y159784D02*
X-156949D01*
X-154950Y161784D01*
X-156949Y163783D01*
X-160948D01*
X-154950Y168782D02*
Y166782D01*
X-155950Y165782D01*
X-157949D01*
X-158949Y166782D01*
Y168782D01*
X-157949Y169781D01*
X-156949D01*
Y165782D01*
X-158949Y171781D02*
X-154950D01*
X-156949D01*
X-157949Y172780D01*
X-158949Y173780D01*
Y174780D01*
X-154950Y183777D02*
Y185776D01*
Y184776D01*
X-160948D01*
X-159948Y183777D01*
X-154950Y188775D02*
X-155950D01*
Y189775D01*
X-154950D01*
Y188775D01*
Y196773D02*
X-160948D01*
X-157949Y193773D01*
Y197772D01*
X-172798Y120900D02*
X-166800D01*
X-169799D01*
Y124899D01*
X-172798D01*
X-166800D01*
X-172798Y129897D02*
Y127898D01*
X-171798Y126898D01*
X-167800D01*
X-166800Y127898D01*
Y129897D01*
X-167800Y130897D01*
X-171798D01*
X-172798Y129897D01*
X-166800Y132896D02*
X-172798D01*
Y135895D01*
X-171798Y136895D01*
X-169799D01*
X-168799Y135895D01*
Y132896D01*
Y134896D02*
X-166800Y136895D01*
Y138894D02*
X-172798D01*
X-166800Y142893D01*
X-172798D01*
Y148891D02*
Y144892D01*
X-166800D01*
Y148891D01*
X-169799Y144892D02*
Y146892D01*
X-172798Y150890D02*
Y154889D01*
Y152890D01*
X-166800D01*
X-169799Y156888D02*
Y160887D01*
X-166800Y162886D02*
Y164886D01*
Y163886D01*
X-172798D01*
X-171798Y162886D01*
X-169799Y167885D02*
Y171883D01*
X-172798Y173883D02*
Y175882D01*
Y174882D01*
X-166800D01*
Y173883D01*
Y175882D01*
Y178881D02*
X-172798D01*
Y181880D01*
X-171798Y182880D01*
X-169799D01*
X-168799Y181880D01*
Y178881D01*
X-171798Y188878D02*
X-172798Y187878D01*
Y185879D01*
X-171798Y184879D01*
X-167800D01*
X-166800Y185879D01*
Y187878D01*
X-167800Y188878D01*
X-169799D01*
Y186879D01*
X-146698Y121906D02*
X-147698Y120907D01*
Y118907D01*
X-146698Y117908D01*
X-145699D01*
X-144699Y118907D01*
Y120907D01*
X-143699Y121906D01*
X-142700D01*
X-141700Y120907D01*
Y118907D01*
X-142700Y117908D01*
X-141700Y123906D02*
X-147698D01*
X-141700Y127904D01*
X-147698D01*
X-145699Y129904D02*
Y130904D01*
X-144699D01*
Y129904D01*
X-145699D01*
X-142700D02*
Y130904D01*
X-141700D01*
Y129904D01*
X-142700D01*
X-141700Y134902D02*
Y136902D01*
Y135902D01*
X-147698D01*
X-146698Y134902D01*
X-141700Y139901D02*
X-142700D01*
Y140900D01*
X-141700D01*
Y139901D01*
Y147898D02*
X-147698D01*
X-144699Y144899D01*
Y148898D01*
X-141700Y150897D02*
X-142700D01*
Y151897D01*
X-141700D01*
Y150897D01*
Y155895D02*
X-145699D01*
X-147698Y157895D01*
X-145699Y159894D01*
X-141700D01*
X-144699D01*
Y155895D01*
Y161893D02*
Y165892D01*
X129303Y-8102D02*
X133301D01*
X131302D01*
Y-14100D01*
X138300Y-8102D02*
X136300D01*
X135301Y-9102D01*
Y-13100D01*
X136300Y-14100D01*
X138300D01*
X139299Y-13100D01*
Y-9102D01*
X138300Y-8102D01*
X141299Y-14100D02*
Y-8102D01*
X144298D01*
X145297Y-9102D01*
Y-11101D01*
X144298Y-12101D01*
X141299D01*
D21*
X131706Y166215D02*
X129957D01*
Y167090D01*
X130248Y167382D01*
X130832D01*
X131123Y167090D01*
Y166215D01*
Y166798D02*
X131706Y167382D01*
X129957Y167965D02*
X131706Y169131D01*
X129957D02*
X131706Y167965D01*
X129957Y176007D02*
Y177340D01*
Y176674D01*
X131956D01*
X129957Y178006D02*
X131956Y179339D01*
X129957D02*
X131956Y178006D01*
X151233Y166507D02*
X150941Y166215D01*
Y165632D01*
X151233Y165341D01*
X152399D01*
X152690Y165632D01*
Y166215D01*
X152399Y166507D01*
X150941Y167090D02*
X152690D01*
Y168256D01*
X150941Y168840D02*
X152690D01*
X152107D01*
X150941Y170006D01*
X151816Y169131D01*
X152690Y170006D01*
X150941Y135341D02*
X152107D01*
X152690Y135924D01*
X152107Y136507D01*
X150941D01*
Y137090D02*
X152690D01*
Y137965D01*
X152399Y138256D01*
X151233D01*
X150941Y137965D01*
Y137090D01*
Y138839D02*
X152690D01*
Y139714D01*
X152399Y140006D01*
X151233D01*
X150941Y139714D01*
Y138839D01*
X151233Y146507D02*
X150941Y146215D01*
Y145632D01*
X151233Y145341D01*
X152399D01*
X152690Y145632D01*
Y146215D01*
X152399Y146507D01*
X151816D01*
Y145924D01*
X152690Y147090D02*
X150941D01*
X152690Y148256D01*
X150941D01*
Y148839D02*
X152690D01*
Y149714D01*
X152399Y150006D01*
X151233D01*
X150941Y149714D01*
Y148839D01*
X162042Y137506D02*
X161826Y137723D01*
X161393D01*
X161176Y137506D01*
Y137290D01*
X161393Y137073D01*
X161826D01*
X162042Y136857D01*
Y136640D01*
X161826Y136423D01*
X161393D01*
X161176Y136640D01*
X162476Y137723D02*
Y136423D01*
X162909Y136857D01*
X163342Y136423D01*
Y137723D01*
X163775D02*
Y136423D01*
X164425D01*
X164641Y136640D01*
Y137506D01*
X164425Y137723D01*
X163775D01*
X165075D02*
X165508D01*
X165291D01*
Y136423D01*
X165075D01*
X165508D01*
X166807Y137723D02*
X166374D01*
X166158Y137506D01*
Y136640D01*
X166374Y136423D01*
X166807D01*
X167024Y136640D01*
Y137506D01*
X166807Y137723D01*
X163234Y141506D02*
X163017Y141723D01*
X162584D01*
X162367Y141506D01*
Y140640D01*
X162584Y140423D01*
X163017D01*
X163234Y140640D01*
X163667Y141723D02*
Y140423D01*
X164533D01*
X164966Y141723D02*
Y140423D01*
Y140857D01*
X165833Y141723D01*
X165183Y141073D01*
X165833Y140423D01*
X163117Y144423D02*
Y145723D01*
X163983Y144423D01*
Y145723D01*
X165283Y145506D02*
X165066Y145723D01*
X164633D01*
X164417Y145506D01*
Y144640D01*
X164633Y144423D01*
X165066D01*
X165283Y144640D01*
X163117Y148323D02*
Y149623D01*
X163983Y148323D01*
Y149623D01*
X165283Y149406D02*
X165066Y149623D01*
X164633D01*
X164417Y149406D01*
Y148540D01*
X164633Y148323D01*
X165066D01*
X165283Y148540D01*
X162567Y152223D02*
Y153523D01*
X163217D01*
X163434Y153306D01*
Y152873D01*
X163217Y152657D01*
X162567D01*
X163000D02*
X163434Y152223D01*
X164733Y153306D02*
X164517Y153523D01*
X164083D01*
X163867Y153306D01*
Y153090D01*
X164083Y152873D01*
X164517D01*
X164733Y152657D01*
Y152440D01*
X164517Y152223D01*
X164083D01*
X163867Y152440D01*
X165166Y153523D02*
X166033D01*
X165600D01*
Y152223D01*
X170034Y141406D02*
X169817Y141623D01*
X169384D01*
X169167Y141406D01*
Y140540D01*
X169384Y140323D01*
X169817D01*
X170034Y140540D01*
Y140973D01*
X169600D01*
X170467Y140323D02*
Y141623D01*
X171333Y140323D01*
Y141623D01*
X171766D02*
Y140323D01*
X172416D01*
X172633Y140540D01*
Y141406D01*
X172416Y141623D01*
X171766D01*
X169167Y137623D02*
Y136757D01*
X169600Y136323D01*
X170034Y136757D01*
Y137623D01*
X170467D02*
Y136323D01*
X171117D01*
X171333Y136540D01*
Y137406D01*
X171117Y137623D01*
X170467D01*
X171766D02*
Y136323D01*
X172416D01*
X172633Y136540D01*
Y137406D01*
X172416Y137623D01*
X171766D01*
X170034Y145506D02*
X169817Y145723D01*
X169384D01*
X169167Y145506D01*
Y144640D01*
X169384Y144423D01*
X169817D01*
X170034Y144640D01*
Y145073D01*
X169600D01*
X170467Y144423D02*
Y145723D01*
X171333Y144423D01*
Y145723D01*
X171766D02*
Y144423D01*
X172416D01*
X172633Y144640D01*
Y145506D01*
X172416Y145723D01*
X171766D01*
X169817Y148423D02*
Y149723D01*
X170683Y148423D01*
Y149723D01*
X171983Y149506D02*
X171766Y149723D01*
X171333D01*
X171117Y149506D01*
Y148640D01*
X171333Y148423D01*
X171766D01*
X171983Y148640D01*
X170134Y153306D02*
X169917Y153523D01*
X169484D01*
X169267Y153306D01*
Y152440D01*
X169484Y152223D01*
X169917D01*
X170134Y152440D01*
Y152873D01*
X169700D01*
X170567Y152223D02*
Y153523D01*
X171433Y152223D01*
Y153523D01*
X171866D02*
Y152223D01*
X172516D01*
X172733Y152440D01*
Y153306D01*
X172516Y153523D01*
X171866D01*
X152690Y175341D02*
X150941D01*
Y176215D01*
X151233Y176507D01*
X151816D01*
X152107Y176215D01*
Y175341D01*
Y175924D02*
X152690Y176507D01*
X151233Y178256D02*
X150941Y177965D01*
Y177382D01*
X151233Y177090D01*
X151524D01*
X151816Y177382D01*
Y177965D01*
X152107Y178256D01*
X152399D01*
X152690Y177965D01*
Y177382D01*
X152399Y177090D01*
X150941Y178840D02*
Y180006D01*
Y179423D01*
X152690D01*
X151233Y154903D02*
X150941Y154612D01*
Y154029D01*
X151233Y153737D01*
X151524D01*
X151816Y154029D01*
Y154612D01*
X152107Y154903D01*
X152399D01*
X152690Y154612D01*
Y154029D01*
X152399Y153737D01*
X150941Y155486D02*
X152690D01*
X152107Y156070D01*
X152690Y156653D01*
X150941D01*
Y157236D02*
X152690D01*
Y158111D01*
X152399Y158402D01*
X151233D01*
X150941Y158111D01*
Y157236D01*
Y158985D02*
Y159568D01*
Y159277D01*
X152690D01*
Y158985D01*
Y159568D01*
X150941Y161318D02*
Y160735D01*
X151233Y160443D01*
X152399D01*
X152690Y160735D01*
Y161318D01*
X152399Y161609D01*
X151233D01*
X150941Y161318D01*
X129957Y155341D02*
X131123D01*
X131706Y155924D01*
X131123Y156507D01*
X129957D01*
Y157090D02*
X131706D01*
Y157965D01*
X131415Y158256D01*
X130248D01*
X129957Y157965D01*
Y157090D01*
Y158839D02*
X131706D01*
Y159714D01*
X131415Y160006D01*
X130248D01*
X129957Y159714D01*
Y158839D01*
X130248Y136507D02*
X129957Y136215D01*
Y135632D01*
X130248Y135341D01*
X131415D01*
X131706Y135632D01*
Y136215D01*
X131415Y136507D01*
X130832D01*
Y135924D01*
X131706Y137090D02*
X129957D01*
X131706Y138256D01*
X129957D01*
Y138839D02*
X131706D01*
Y139714D01*
X131415Y140006D01*
X130248D01*
X129957Y139714D01*
Y138839D01*
X130248Y10960D02*
X129957Y10668D01*
Y10085D01*
X130248Y9793D01*
X130540D01*
X130832Y10085D01*
Y10668D01*
X131123Y10960D01*
X131415D01*
X131706Y10668D01*
Y10085D01*
X131415Y9793D01*
X130248Y12709D02*
X129957Y12418D01*
Y11834D01*
X130248Y11543D01*
X131415D01*
X131706Y11834D01*
Y12418D01*
X131415Y12709D01*
X129957Y13292D02*
X131706D01*
Y14459D01*
X130248Y20960D02*
X129957Y20668D01*
Y20085D01*
X130248Y19793D01*
X130540D01*
X130832Y20085D01*
Y20668D01*
X131123Y20960D01*
X131415D01*
X131706Y20668D01*
Y20085D01*
X131415Y19793D01*
X129957Y21543D02*
X131706D01*
Y22418D01*
X131415Y22709D01*
X130248D01*
X129957Y22418D01*
Y21543D01*
X131706Y23292D02*
X130540D01*
X129957Y23875D01*
X130540Y24459D01*
X131706D01*
X130832D01*
Y23292D01*
X129957Y29793D02*
X131123D01*
X131706Y30376D01*
X131123Y30960D01*
X129957D01*
Y31543D02*
X131706D01*
Y32418D01*
X131415Y32709D01*
X130248D01*
X129957Y32418D01*
Y31543D01*
Y33292D02*
X131706D01*
Y34167D01*
X131415Y34459D01*
X130248D01*
X129957Y34167D01*
Y33292D01*
X130248Y40960D02*
X129957Y40668D01*
Y40085D01*
X130248Y39793D01*
X131415D01*
X131706Y40085D01*
Y40668D01*
X131415Y40960D01*
X130832D01*
Y40376D01*
X131706Y41543D02*
X129957D01*
X131706Y42709D01*
X129957D01*
Y43292D02*
X131706D01*
Y44167D01*
X131415Y44459D01*
X130248D01*
X129957Y44167D01*
Y43292D01*
X151233Y74897D02*
X150941Y74605D01*
Y74022D01*
X151233Y73730D01*
X152399D01*
X152690Y74022D01*
Y74605D01*
X152399Y74897D01*
X151816D01*
Y74314D01*
X152690Y75480D02*
X150941D01*
X152690Y76646D01*
X150941D01*
Y77229D02*
X152690D01*
Y78104D01*
X152399Y78396D01*
X151233D01*
X150941Y78104D01*
Y77229D01*
X130248Y64897D02*
X129957Y64605D01*
Y64022D01*
X130248Y63730D01*
X131415D01*
X131706Y64022D01*
Y64605D01*
X131415Y64897D01*
X130832D01*
Y64314D01*
X131706Y65480D02*
X129957D01*
X131706Y66646D01*
X129957D01*
Y67229D02*
X131706D01*
Y68104D01*
X131415Y68396D01*
X130248D01*
X129957Y68104D01*
Y67229D01*
X150941Y63730D02*
X152107D01*
X152690Y64314D01*
X152107Y64897D01*
X150941D01*
Y65480D02*
X152690D01*
Y66355D01*
X152399Y66646D01*
X151233D01*
X150941Y66355D01*
Y65480D01*
Y67229D02*
X152690D01*
Y68104D01*
X152399Y68396D01*
X151233D01*
X150941Y68104D01*
Y67229D01*
X151233Y83293D02*
X150941Y83002D01*
Y82418D01*
X151233Y82127D01*
X151524D01*
X151816Y82418D01*
Y83002D01*
X152107Y83293D01*
X152399D01*
X152690Y83002D01*
Y82418D01*
X152399Y82127D01*
X150941Y83876D02*
X152690D01*
X152107Y84459D01*
X152690Y85043D01*
X150941D01*
Y85626D02*
X152690D01*
Y86500D01*
X152399Y86792D01*
X151233D01*
X150941Y86500D01*
Y85626D01*
Y87375D02*
Y87958D01*
Y87667D01*
X152690D01*
Y87375D01*
Y87958D01*
X150941Y89708D02*
Y89125D01*
X151233Y88833D01*
X152399D01*
X152690Y89125D01*
Y89708D01*
X152399Y89999D01*
X151233D01*
X150941Y89708D01*
X129957Y73730D02*
X131123D01*
X131706Y74314D01*
X131123Y74897D01*
X129957D01*
Y75480D02*
X131706D01*
Y76355D01*
X131415Y76646D01*
X130248D01*
X129957Y76355D01*
Y75480D01*
Y77229D02*
X131706D01*
Y78104D01*
X131415Y78396D01*
X130248D01*
X129957Y78104D01*
Y77229D01*
X129957Y84605D02*
Y85771D01*
Y85188D01*
X131706D01*
X129957Y86355D02*
X131706Y87521D01*
X129957D02*
X131706Y86355D01*
Y94605D02*
X129957D01*
Y95480D01*
X130248Y95771D01*
X130832D01*
X131123Y95480D01*
Y94605D01*
Y95188D02*
X131706Y95771D01*
X129957Y96355D02*
X131706Y97521D01*
X129957D02*
X131706Y96355D01*
X151233Y94897D02*
X150941Y94605D01*
Y94022D01*
X151233Y93730D01*
X152399D01*
X152690Y94022D01*
Y94605D01*
X152399Y94897D01*
X150941Y95480D02*
X152690D01*
Y96646D01*
X150941Y97229D02*
X152690D01*
X152107D01*
X150941Y98396D01*
X151816Y97521D01*
X152690Y98396D01*
Y103730D02*
X150941D01*
Y104605D01*
X151233Y104897D01*
X151816D01*
X152107Y104605D01*
Y103730D01*
Y104314D02*
X152690Y104897D01*
X151233Y106646D02*
X150941Y106355D01*
Y105771D01*
X151233Y105480D01*
X151524D01*
X151816Y105771D01*
Y106355D01*
X152107Y106646D01*
X152399D01*
X152690Y106355D01*
Y105771D01*
X152399Y105480D01*
X150941Y107229D02*
Y108396D01*
Y107812D01*
X152690D01*
X151233Y114897D02*
X150941Y114605D01*
Y114022D01*
X151233Y113730D01*
X151524D01*
X151816Y114022D01*
Y114605D01*
X152107Y114897D01*
X152399D01*
X152690Y114605D01*
Y114022D01*
X152399Y113730D01*
X150941Y115480D02*
X152690D01*
X152107Y116063D01*
X152690Y116646D01*
X150941D01*
Y118104D02*
Y117521D01*
X151233Y117229D01*
X152399D01*
X152690Y117521D01*
Y118104D01*
X152399Y118396D01*
X151233D01*
X150941Y118104D01*
X169167Y66013D02*
Y65146D01*
X169600Y64713D01*
X170034Y65146D01*
Y66013D01*
X170467D02*
Y64713D01*
X171117D01*
X171333Y64930D01*
Y65796D01*
X171117Y66013D01*
X170467D01*
X171766D02*
Y64713D01*
X172416D01*
X172633Y64930D01*
Y65796D01*
X172416Y66013D01*
X171766D01*
X170034Y69796D02*
X169817Y70013D01*
X169384D01*
X169167Y69796D01*
Y68930D01*
X169384Y68713D01*
X169817D01*
X170034Y68930D01*
Y69363D01*
X169600D01*
X170467Y68713D02*
Y70013D01*
X171333Y68713D01*
Y70013D01*
X171766D02*
Y68713D01*
X172416D01*
X172633Y68930D01*
Y69796D01*
X172416Y70013D01*
X171766D01*
X163234Y69896D02*
X163017Y70113D01*
X162584D01*
X162367Y69896D01*
Y69030D01*
X162584Y68813D01*
X163017D01*
X163234Y69030D01*
X163667Y70113D02*
Y68813D01*
X164533D01*
X164966Y70113D02*
Y68813D01*
Y69246D01*
X165833Y70113D01*
X165183Y69463D01*
X165833Y68813D01*
X163334Y73896D02*
X163117Y74113D01*
X162684D01*
X162467Y73896D01*
Y73680D01*
X162684Y73463D01*
X163117D01*
X163334Y73246D01*
Y73030D01*
X163117Y72813D01*
X162684D01*
X162467Y73030D01*
X163767Y74113D02*
Y72813D01*
X164200Y73246D01*
X164633Y72813D01*
Y74113D01*
X165716D02*
X165283D01*
X165066Y73896D01*
Y73030D01*
X165283Y72813D01*
X165716D01*
X165933Y73030D01*
Y73896D01*
X165716Y74113D01*
X170034Y73896D02*
X169817Y74113D01*
X169384D01*
X169167Y73896D01*
Y73030D01*
X169384Y72813D01*
X169817D01*
X170034Y73030D01*
Y73463D01*
X169600D01*
X170467Y72813D02*
Y74113D01*
X171333Y72813D01*
Y74113D01*
X171766D02*
Y72813D01*
X172416D01*
X172633Y73030D01*
Y73896D01*
X172416Y74113D01*
X171766D01*
X169817Y76813D02*
Y78113D01*
X170683Y76813D01*
Y78113D01*
X171983Y77896D02*
X171766Y78113D01*
X171333D01*
X171117Y77896D01*
Y77030D01*
X171333Y76813D01*
X171766D01*
X171983Y77030D01*
X163117Y76713D02*
Y78013D01*
X163983Y76713D01*
Y78013D01*
X165283Y77796D02*
X165066Y78013D01*
X164633D01*
X164417Y77796D01*
Y76930D01*
X164633Y76713D01*
X165066D01*
X165283Y76930D01*
X162567Y80613D02*
Y81913D01*
X163217D01*
X163434Y81696D01*
Y81263D01*
X163217Y81046D01*
X162567D01*
X163000D02*
X163434Y80613D01*
X164733Y81696D02*
X164517Y81913D01*
X164083D01*
X163867Y81696D01*
Y81480D01*
X164083Y81263D01*
X164517D01*
X164733Y81046D01*
Y80830D01*
X164517Y80613D01*
X164083D01*
X163867Y80830D01*
X165166Y81913D02*
X166033D01*
X165600D01*
Y80613D01*
X170134Y81696D02*
X169917Y81913D01*
X169484D01*
X169267Y81696D01*
Y80830D01*
X169484Y80613D01*
X169917D01*
X170134Y80830D01*
Y81263D01*
X169700D01*
X170567Y80613D02*
Y81913D01*
X171433Y80613D01*
Y81913D01*
X171866D02*
Y80613D01*
X172516D01*
X172733Y80830D01*
Y81696D01*
X172516Y81913D01*
X171866D01*
X162042Y65896D02*
X161826Y66113D01*
X161393D01*
X161176Y65896D01*
Y65680D01*
X161393Y65463D01*
X161826D01*
X162042Y65246D01*
Y65030D01*
X161826Y64813D01*
X161393D01*
X161176Y65030D01*
X162476Y66113D02*
Y64813D01*
X162909Y65246D01*
X163342Y64813D01*
Y66113D01*
X163775D02*
Y64813D01*
X164425D01*
X164641Y65030D01*
Y65896D01*
X164425Y66113D01*
X163775D01*
X165075D02*
X165508D01*
X165291D01*
Y64813D01*
X165075D01*
X165508D01*
X166807Y66113D02*
X166374D01*
X166158Y65896D01*
Y65030D01*
X166374Y64813D01*
X166807D01*
X167024Y65030D01*
Y65896D01*
X166807Y66113D01*
D22*
X141439Y130581D02*
X140651D01*
X141045D01*
Y128613D01*
X140651Y128219D01*
X140258D01*
X139864Y128613D01*
X143800Y128219D02*
X142226D01*
X143800Y129794D01*
Y130187D01*
X143406Y130581D01*
X142619D01*
X142226Y130187D01*
X144587D02*
X144981Y130581D01*
X145768D01*
X146161Y130187D01*
Y128613D01*
X145768Y128219D01*
X144981D01*
X144587Y128613D01*
Y130187D01*
X146949Y128219D02*
X147736D01*
X147342D01*
Y130581D01*
X146949Y130187D01*
X120042Y125581D02*
X119255D01*
X119648D01*
Y123613D01*
X119255Y123219D01*
X118861D01*
X118467Y123613D01*
X120829Y123219D02*
X121616D01*
X121222D01*
Y125581D01*
X120829Y125187D01*
X122797D02*
X123190Y125581D01*
X123977D01*
X124371Y125187D01*
Y123613D01*
X123977Y123219D01*
X123190D01*
X122797Y123613D01*
Y125187D01*
X125158D02*
X125552Y125581D01*
X126339D01*
X126733Y125187D01*
Y123613D01*
X126339Y123219D01*
X125552D01*
X125158Y123613D01*
Y125187D01*
X141272Y125559D02*
X140485D01*
X140879D01*
Y123591D01*
X140485Y123197D01*
X140092D01*
X139698Y123591D01*
X142060Y123197D02*
X142847D01*
X142453D01*
Y125559D01*
X142060Y125165D01*
X144027D02*
X144421Y125559D01*
X145208D01*
X145602Y125165D01*
Y123591D01*
X145208Y123197D01*
X144421D01*
X144027Y123591D01*
Y125165D01*
X147963Y123197D02*
X146389D01*
X147963Y124772D01*
Y125165D01*
X147570Y125559D01*
X146782D01*
X146389Y125165D01*
X119914Y130460D02*
X119127D01*
X119520D01*
Y128492D01*
X119127Y128098D01*
X118733D01*
X118340Y128492D01*
X122275Y128098D02*
X120701D01*
X122275Y129673D01*
Y130066D01*
X121882Y130460D01*
X121095D01*
X120701Y130066D01*
X123063D02*
X123456Y130460D01*
X124243D01*
X124637Y130066D01*
Y128492D01*
X124243Y128098D01*
X123456D01*
X123063Y128492D01*
Y130066D01*
X126998Y128098D02*
X125424D01*
X126998Y129673D01*
Y130066D01*
X126605Y130460D01*
X125818D01*
X125424Y130066D01*
M02*
